<svg width="18" height="18" viewBox="0 0 18 18" fill="none" xmlns="http://www.w3.org/2000/svg">
<rect width="18" height="18" fill="white"/>
<path d="M17.6896 14.8965H0.310358C0.138972 14.8965 0 14.7576 0 14.5862V3.41381C0 3.24243 0.138972 3.10345 0.310358 3.10345H17.6896C17.861 3.10345 18 3.24243 18 3.41381V14.5862C17.9999 14.7576 17.861 14.8965 17.6896 14.8965Z" fill="#41479B"/>
<path d="M17.9999 3.41381C17.9999 3.24243 17.861 3.10345 17.6896 3.10345H16.3011L10.5517 6.87033V3.10345H7.44821V6.87033L1.69881 3.10345H0.310358C0.138972 3.10345 0 3.24243 0 3.41381V4.21646L4.93272 7.44826H0V10.5517H4.93272L0 13.7835V14.5862C0 14.7576 0.138972 14.8965 0.310358 14.8965H1.69885L7.44828 11.1297V14.8965H10.5517V11.1297L16.3012 14.8965H17.6896C17.861 14.8965 18 14.7576 18 14.5862V13.7835L13.0673 10.5517H17.9999V7.44829H13.0672L17.9999 4.21646V3.41381Z" fill="#F5F5F5"/>
<path d="M17.9999 8.06897H9.931V3.10345H8.06892V8.06897H0V9.93102H8.06892V14.8965H9.931V9.93102H17.9999V8.06897Z" fill="#FF4B55"/>
<path d="M6.29112 10.5517L0.00878906 14.6297C0.0307616 14.7796 0.154335 14.8965 0.310323 14.8965H0.737786L7.43116 10.5517H6.29112V10.5517Z" fill="#FF4B55"/>
<path d="M12.1777 10.5517H11.0376L17.7212 14.8901C17.877 14.8735 18 14.7463 18 14.5861V14.331L12.1777 10.5517Z" fill="#FF4B55"/>
<path d="M0 3.75641L5.68752 7.44829H6.82756L0.180808 3.13373C0.0746364 3.18305 0 3.28905 0 3.41382V3.75641Z" fill="#FF4B55"/>
<path d="M11.6917 7.44828L17.9891 3.36044C17.963 3.21553 17.842 3.10349 17.6896 3.10349H17.2449L10.5517 7.44828H11.6917Z" fill="#FF4B55"/>
</svg>
