<svg width="44" height="44" viewBox="0 0 44 44" fill="none" xmlns="http://www.w3.org/2000/svg">
<g clip-path="url(#clip0)">
<path d="M22 0V44C34.1507 44 44.0003 34.1503 44.0003 22.0003C44.0003 9.84934 34.1506 0 22 0Z" fill="#214391"/>
<path d="M21.9997 0C9.84972 0 0 9.84934 0 22.0003C0 34.1503 9.84972 44 21.9997 44C34.1503 44 34.1503 0 21.9997 0Z" fill="#2B479D"/>
<path d="M21.9626 3.81548L22.4992 5.46688H24.2361L22.831 6.48746L23.3676 8.13887L21.9626 7.11763L20.5578 8.13887L21.0945 6.48746L19.689 5.46688H21.4258L21.9626 3.81548Z" fill="#F8D12E"/>
<path d="M21.9626 34.9906L22.4992 36.6427H24.2361L22.831 37.6633L23.3676 39.3146L21.9626 38.2941L20.5578 39.3146L21.0945 37.6633L19.689 36.6427H21.4258L21.9626 34.9906Z" fill="#F8D12E"/>
<path d="M30.5178 6.57849L31.0542 8.23027H32.7911L31.3859 9.2515L31.9226 10.9029L30.5178 9.88167L29.1128 10.9029L29.6494 9.2515L28.2446 8.23027H29.9815L30.5178 6.57849Z" fill="#F8D12E"/>
<path d="M36.3556 12.3379L36.892 13.9893H38.6288L37.2237 15.0103L37.7604 16.6617L36.3556 15.6411L34.9505 16.6617L35.4872 15.0103L34.082 13.9893H35.8185L36.3556 12.3379Z" fill="#F8D12E"/>
<path d="M36.4948 26.8893L37.0311 28.5413H38.7679L37.3628 29.5619L37.8998 31.2129L36.4948 30.1927L35.0896 31.2129L35.6263 29.5619L34.2212 28.5413H35.9581L36.4948 26.8893Z" fill="#F8D12E"/>
<path d="M7.78005 12.3379L8.3164 13.9893H10.0529L8.64811 15.0103L9.18446 16.6617L7.78005 15.6411L6.37499 16.6617L6.91162 15.0103L5.50684 13.9893H7.2437L7.78005 12.3379Z" fill="#F8D12E"/>
<path d="M37.7085 19.2776L38.2449 20.929H39.9818L38.5767 21.9496L39.1133 23.6014L37.7085 22.5812L36.3035 23.6014L36.8405 21.9496L35.4351 20.929H37.1715L37.7085 19.2776Z" fill="#F8D12E"/>
<path d="M6.45318 19.2776L6.98953 20.929H8.72602L7.32096 21.9496L7.85796 23.6014L6.45318 22.5812L5.04803 23.6014L5.58475 21.9496L4.17969 20.929H5.91646L6.45318 19.2776Z" fill="#F8D12E"/>
<path d="M7.59185 26.8893L8.1282 28.5413H9.86469L8.46 29.5619L8.99626 31.2129L7.59185 30.1927L6.18679 31.2129L6.72342 29.5619L5.31836 28.5413H7.05522L7.59185 26.8893Z" fill="#F8D12E"/>
<path d="M30.7701 32.8942L31.3064 34.5456H33.0433L31.6379 35.5669L32.1749 37.2183L30.7701 36.1977L29.3646 37.2183L29.9017 35.5669L28.4966 34.5456H30.2334L30.7701 32.8942Z" fill="#F8D12E"/>
<path d="M13.6834 6.57849L14.2196 8.23027H15.9565L14.5514 9.2515L15.0884 10.9029L13.6834 9.88167L12.2786 10.9029L12.8152 9.2515L11.4102 8.23027H13.1466L13.6834 6.57849Z" fill="#F8D12E"/>
<path d="M13.0501 32.7886L13.5867 34.4408H15.3236L13.9185 35.461L14.4551 37.1124L13.0501 36.0924L11.6453 37.1124L12.1819 35.461L10.7769 34.4408H12.5133L13.0501 32.7886Z" fill="#F8D12E"/>
</g>
<defs>
<clipPath id="clip0">
<rect width="44" height="44" fill="white"/>
</clipPath>
</defs>
</svg>
