<svg width="18" height="18" viewBox="0 0 18 18" fill="none" xmlns="http://www.w3.org/2000/svg">
<rect width="18" height="18" fill="white"/>
<path d="M17.6896 3.10345H0.310359C0.138972 3.10345 0 3.24239 0 3.41378V14.5862C0 14.7576 0.138972 14.8965 0.310359 14.8965H17.6896C17.861 14.8965 18 14.7576 18 14.5862V3.41378C18 3.24239 17.861 3.10345 17.6896 3.10345Z" fill="#82C3D2"/>
<path d="M2.09235 4.5157C2.06426 4.39676 2.05727 4.35292 2.11064 4.29959C2.13665 4.27357 2.13665 4.23142 2.11064 4.20541C2.08462 4.17939 2.04247 4.17939 2.01645 4.20541C1.90845 4.31344 1.93422 4.42555 1.96217 4.54428C1.87702 4.51647 1.78871 4.53711 1.74139 4.5968C1.71791 4.62658 1.67248 4.71011 1.7576 4.84349C1.77739 4.87446 1.81831 4.88357 1.84957 4.86395C1.88061 4.84416 1.88964 4.80292 1.86985 4.77198C1.83793 4.72175 1.83698 4.69077 1.84591 4.67945C1.85646 4.66606 1.88915 4.65899 1.92339 4.67112C1.94551 4.67879 1.9969 4.70533 1.9969 4.78548C1.9969 4.8495 1.9673 4.90818 1.91569 4.94629C1.86398 4.98454 1.79704 4.99533 1.73253 4.97529C1.65287 4.95096 1.59721 4.86705 1.59721 4.77118C1.59721 4.70259 1.61191 4.63326 1.63891 4.57251C1.6432 4.56354 1.74501 4.35264 1.77124 4.27403C1.82309 4.11854 1.77039 4.04035 1.73443 4.00769C1.6863 3.96385 1.61595 3.95292 1.55541 3.97946C1.5462 3.98354 1.53861 3.98944 1.53063 3.99493C1.52265 3.98941 1.51502 3.98354 1.50584 3.97946C1.44534 3.95292 1.37503 3.96385 1.32683 4.00769C1.29086 4.04035 1.23816 4.11857 1.29002 4.27403C1.31625 4.35264 1.41802 4.56354 1.4214 4.57057C1.44928 4.63329 1.46401 4.70262 1.46401 4.77121C1.46401 4.86712 1.40839 4.951 1.32869 4.97533C1.26393 4.99533 1.19721 4.98468 1.14553 4.94632C1.09392 4.90818 1.06432 4.84954 1.06432 4.78552C1.06432 4.70536 1.11572 4.67886 1.13783 4.67116C1.17218 4.65906 1.2047 4.66606 1.21531 4.67949C1.22424 4.69081 1.22329 4.72178 1.19137 4.77202C1.17158 4.80299 1.18061 4.84423 1.21166 4.86399C1.24295 4.88378 1.28401 4.87453 1.30362 4.84353C1.3887 4.71014 1.34332 4.62665 1.31983 4.59684C1.27248 4.53714 1.1842 4.5165 1.09905 4.54431C1.12704 4.42566 1.15277 4.31348 1.04477 4.20544C1.01875 4.17943 0.976602 4.17943 0.950586 4.20544C0.924571 4.23146 0.924571 4.27361 0.950586 4.29963C1.00392 4.35296 0.996993 4.3968 0.968868 4.51573C0.951993 4.58699 0.93104 4.67587 0.93104 4.78541C0.93104 4.85829 0.956668 4.92801 0.99977 4.98528H0.997625C0.960817 4.98528 0.931004 5.01505 0.931004 5.0519C0.931004 5.08871 0.960782 5.11852 0.997625 5.11852H0.99977C0.956668 5.17579 0.93104 5.24547 0.93104 5.31835C0.93104 5.42789 0.951993 5.51677 0.968832 5.58806C0.996922 5.707 1.00392 5.75084 0.950551 5.80417C0.924536 5.83019 0.924536 5.87234 0.950551 5.89835C0.963559 5.91136 0.98061 5.91786 0.997661 5.91786C1.01468 5.91786 1.03176 5.91136 1.04477 5.89835C1.15277 5.79032 1.127 5.67817 1.09905 5.55948C1.1842 5.58719 1.27251 5.56665 1.31983 5.50696C1.34332 5.47718 1.38874 5.39365 1.30362 5.26027C1.2839 5.2293 1.24273 5.22009 1.21166 5.23981C1.18061 5.2596 1.17158 5.30084 1.19137 5.33178C1.22329 5.38201 1.22424 5.41299 1.21531 5.42431C1.20473 5.43756 1.17218 5.44459 1.13783 5.43264C1.11572 5.42498 1.06432 5.39843 1.06432 5.31828C1.06432 5.25426 1.09392 5.19558 1.14553 5.15747C1.19724 5.11922 1.26411 5.10829 1.32869 5.12847C1.40836 5.1528 1.46401 5.23671 1.46401 5.33258C1.46401 5.40117 1.44931 5.4705 1.4214 5.53322L0.985075 6.51482C0.949215 6.59547 0.931004 6.68125 0.931004 6.76956C0.931004 6.88322 0.982684 6.987 1.06404 7.05035C0.982719 7.1137 0.931004 7.21748 0.931004 7.33114C0.931004 7.41949 0.94925 7.50524 0.985075 7.58589L1.42133 8.56741C1.44921 8.63013 1.46394 8.69946 1.46394 8.76805C1.46394 8.86395 1.40832 8.94784 1.32862 8.97216C1.26386 8.99234 1.19714 8.98152 1.14546 8.94316C1.09385 8.90502 1.06425 8.84638 1.06425 8.78236C1.06425 8.7022 1.11564 8.67569 1.13776 8.66799C1.17211 8.65601 1.20463 8.6629 1.21524 8.67633C1.22417 8.68765 1.22322 8.71862 1.1913 8.76886C1.17151 8.79983 1.18054 8.84107 1.21159 8.86083C1.24288 8.88062 1.28394 8.87148 1.30355 8.84036C1.38863 8.70698 1.34325 8.62349 1.31976 8.59367C1.27241 8.53398 1.18413 8.51341 1.09898 8.54115C1.12697 8.4225 1.1527 8.31031 1.0447 8.20228C1.01868 8.17626 0.976532 8.17626 0.950516 8.20228C0.9245 8.2283 0.9245 8.27045 0.950516 8.29646C1.00385 8.34979 0.996922 8.39363 0.968797 8.51257C0.951957 8.58386 0.931004 8.67274 0.931004 8.78229C0.931004 8.85517 0.956633 8.92488 0.999735 8.98215H0.99759C0.960782 8.98215 0.930969 9.01193 0.930969 9.04877C0.930969 9.08561 0.960746 9.11539 0.99759 9.11539H0.999735C0.956598 9.17266 0.931004 9.24234 0.931004 9.31525C0.931004 9.4248 0.951957 9.51368 0.968797 9.58497C0.996887 9.70391 1.00388 9.74775 0.950516 9.80108C0.9245 9.82709 0.9245 9.86925 0.950516 9.89526C0.963524 9.90827 0.980575 9.91477 0.997625 9.91477C1.01464 9.91477 1.03173 9.90827 1.04473 9.89526C1.15273 9.78723 1.12696 9.67508 1.09902 9.55639C1.18416 9.58409 1.27248 9.56356 1.3198 9.50387C1.34328 9.47409 1.3887 9.39056 1.30359 9.25718C1.28387 9.2262 1.2427 9.21699 1.21162 9.23672C1.18058 9.25651 1.17154 9.29775 1.19134 9.32868C1.22326 9.37892 1.22421 9.40989 1.21528 9.42121C1.2047 9.43461 1.17214 9.44168 1.13779 9.42955C1.11568 9.42188 1.06428 9.39534 1.06428 9.31518C1.06428 9.25116 1.09388 9.19249 1.14549 9.15438C1.19721 9.11613 1.26407 9.1052 1.32866 9.12538C1.40832 9.1497 1.46397 9.23362 1.46397 9.32949C1.46397 9.39808 1.44928 9.46741 1.42136 9.53013L0.985075 10.5118C0.949215 10.5925 0.931004 10.6783 0.931004 10.7666C0.931004 10.8802 0.982684 10.984 1.06404 11.0474C0.982719 11.1107 0.931004 11.2145 0.931004 11.3282C0.931004 11.4165 0.94925 11.5023 0.985075 11.5829L1.42133 12.5644C1.44921 12.6271 1.46394 12.6965 1.46394 12.7651C1.46394 12.861 1.40832 12.9448 1.32862 12.9692C1.26386 12.9894 1.19714 12.9784 1.14546 12.9402C1.09385 12.902 1.06425 12.8434 1.06425 12.7794C1.06425 12.6992 1.11564 12.6727 1.13776 12.665C1.17211 12.653 1.20463 12.6599 1.21524 12.6733C1.22417 12.6847 1.22322 12.7156 1.1913 12.7659C1.17151 12.7968 1.18054 12.838 1.21159 12.8578C1.24288 12.8776 1.28394 12.8685 1.30355 12.8374C1.38863 12.704 1.34325 12.6205 1.31976 12.5907C1.27241 12.5308 1.18413 12.5104 1.09898 12.5382C1.12697 12.4195 1.1527 12.3073 1.0447 12.1993C1.01868 12.1733 0.976532 12.1733 0.950516 12.1993C0.9245 12.2253 0.9245 12.2675 0.950516 12.2935C1.00385 12.3468 0.996922 12.3906 0.968797 12.5096C0.951957 12.5809 0.931004 12.6697 0.931004 12.7793C0.931004 12.8837 0.981032 12.9831 1.06467 13.0457C0.981032 13.1084 0.931004 13.2078 0.931004 13.3122C0.931004 13.4218 0.951957 13.5107 0.968797 13.582C0.996887 13.7008 1.00388 13.7447 0.950516 13.7981C0.9245 13.8241 0.9245 13.8662 0.950516 13.8922C0.963524 13.9052 0.980575 13.9118 0.997625 13.9118C1.01464 13.9118 1.03173 13.9052 1.04473 13.8922C1.15273 13.7842 1.12696 13.6721 1.09902 13.5534C1.18416 13.5811 1.27248 13.5605 1.3198 13.5008C1.34328 13.4711 1.3887 13.3875 1.30359 13.2542C1.28387 13.2232 1.2427 13.2141 1.21162 13.2337C1.18058 13.2535 1.17154 13.2947 1.19134 13.3257C1.22326 13.3759 1.22421 13.4069 1.21528 13.4182C1.2047 13.4316 1.17214 13.4385 1.13779 13.4265C1.11568 13.4189 1.06428 13.3923 1.06428 13.3122C1.06428 13.2481 1.09388 13.1895 1.14549 13.1514C1.19721 13.1131 1.26407 13.1023 1.32866 13.1224C1.40832 13.1467 1.46397 13.2306 1.46397 13.3265C1.46397 13.3951 1.44928 13.4644 1.42228 13.5251C1.41799 13.5341 1.31618 13.745 1.28995 13.8236C1.23809 13.9791 1.29079 14.0573 1.32676 14.09C1.35752 14.1179 1.39714 14.1326 1.43764 14.1326C1.4606 14.1326 1.48387 14.1278 1.50581 14.1182C1.51502 14.1141 1.52261 14.1082 1.53059 14.1028C1.53857 14.1083 1.5462 14.1141 1.55538 14.1182C1.57728 14.1279 1.60059 14.1326 1.62355 14.1326C1.66394 14.1326 1.70363 14.1179 1.73443 14.09C1.77039 14.0573 1.82309 13.9791 1.77124 13.8236C1.74501 13.745 1.64323 13.5341 1.63986 13.5271C1.61198 13.4644 1.59725 13.395 1.59725 13.3264C1.59725 13.2305 1.65287 13.1466 1.73257 13.1223C1.79736 13.1023 1.86405 13.1131 1.91573 13.1513C1.96734 13.1895 1.99694 13.2481 1.99694 13.3121C1.99694 13.3923 1.94554 13.4188 1.92343 13.4265C1.88922 13.4385 1.85646 13.4316 1.84594 13.4182C1.83701 13.4068 1.83796 13.3759 1.86989 13.3256C1.88968 13.2947 1.88064 13.2535 1.8496 13.2337C1.81849 13.2141 1.77746 13.2233 1.75763 13.2541C1.67255 13.3875 1.71794 13.471 1.74142 13.5008C1.78878 13.5605 1.87706 13.5811 1.96221 13.5533C1.93422 13.672 1.90849 13.7842 2.01649 13.8922C2.02949 13.9052 2.04655 13.9117 2.0636 13.9117C2.08065 13.9117 2.0977 13.9052 2.11071 13.8922C2.13672 13.8662 2.13672 13.824 2.11071 13.798C2.05737 13.7447 2.0643 13.7008 2.09242 13.5819C2.10926 13.5106 2.13022 13.4217 2.13022 13.3122C2.13022 13.2078 2.08019 13.1084 1.99655 13.0457C2.08019 12.9831 2.13022 12.8837 2.13022 12.7792C2.13022 12.6697 2.10926 12.5808 2.09242 12.5095C2.06433 12.3906 2.05734 12.3467 2.11071 12.2934C2.13672 12.2674 2.13672 12.2252 2.11071 12.1992C2.08469 12.1732 2.04254 12.1732 2.01652 12.1992C1.90852 12.3073 1.93429 12.4194 1.96224 12.5381C1.87709 12.5103 1.78878 12.5307 1.74146 12.5906C1.71798 12.6204 1.67255 12.7039 1.75767 12.8373C1.77746 12.8683 1.81838 12.8774 1.84964 12.8578C1.88068 12.838 1.88971 12.7967 1.86992 12.7658C1.838 12.7156 1.83705 12.6846 1.84598 12.6733C1.85653 12.6599 1.88922 12.653 1.92346 12.6649C1.94558 12.6726 1.99698 12.6991 1.99698 12.7793C1.99698 12.8433 1.96737 12.902 1.91576 12.9401C1.86405 12.9784 1.79711 12.9893 1.7326 12.9691C1.65294 12.9448 1.59728 12.8609 1.59728 12.765C1.59728 12.6964 1.61198 12.6271 1.63989 12.5644L2.07615 11.5828C2.11201 11.5022 2.13022 11.4164 2.13022 11.3281C2.13022 11.2144 2.07854 11.1106 1.99719 11.0473C2.0785 10.9839 2.13022 10.8802 2.13022 10.7665C2.13022 10.6782 2.11197 10.5924 2.07615 10.5118L1.63993 9.5303C1.61205 9.46759 1.59732 9.39826 1.59732 9.32967C1.59732 9.23376 1.65294 9.14988 1.73264 9.12555C1.79743 9.10551 1.86412 9.11631 1.9158 9.15456C1.96741 9.1927 1.99701 9.25134 1.99701 9.31536C1.99701 9.39552 1.94561 9.42202 1.9235 9.42972C1.88929 9.44182 1.85653 9.43482 1.84601 9.42139C1.83708 9.41007 1.83803 9.3791 1.86996 9.32886C1.88975 9.29789 1.88071 9.25668 1.84967 9.23689C1.81856 9.21738 1.77753 9.22649 1.7577 9.25735C1.67262 9.39074 1.71801 9.47423 1.7415 9.50404C1.78885 9.56374 1.87713 9.5843 1.96228 9.55657C1.93429 9.67522 1.90856 9.7874 2.01656 9.89544C2.02957 9.90844 2.04662 9.91495 2.06367 9.91495C2.08072 9.91495 2.09777 9.90844 2.11078 9.89544C2.13679 9.86942 2.13679 9.82727 2.11078 9.80125C2.05744 9.74792 2.06437 9.70408 2.09249 9.58515C2.10933 9.51385 2.13029 9.42498 2.13029 9.31543C2.13029 9.24255 2.10466 9.17284 2.06156 9.11557H2.0637C2.10051 9.11557 2.13032 9.08579 2.13032 9.04895C2.13032 9.01214 2.10055 8.98233 2.0637 8.98233H2.06156C2.10469 8.92506 2.13029 8.85541 2.13029 8.78246C2.13029 8.67292 2.10933 8.58404 2.09249 8.51274C2.0644 8.39381 2.05741 8.34997 2.11078 8.29664C2.13679 8.27062 2.13679 8.22847 2.11078 8.20246C2.08476 8.17644 2.04261 8.17644 2.01659 8.20246C1.90859 8.31049 1.93436 8.42264 1.96231 8.54133C1.87716 8.51362 1.78885 8.53415 1.74153 8.59385C1.71805 8.62363 1.67262 8.70716 1.75774 8.84054C1.77753 8.87151 1.81845 8.88051 1.84971 8.861C1.88075 8.84121 1.88978 8.79997 1.86999 8.76903C1.83807 8.71879 1.83712 8.68782 1.84605 8.6765C1.8566 8.66311 1.88929 8.65622 1.92353 8.66817C1.94565 8.67583 1.99705 8.70238 1.99705 8.78253C1.99705 8.84655 1.96744 8.90523 1.91583 8.94334C1.86412 8.98159 1.79718 8.99238 1.73267 8.97234C1.65301 8.94801 1.59735 8.86409 1.59735 8.76822C1.59735 8.69963 1.61205 8.63031 1.63996 8.56759L2.07622 7.58606C2.11208 7.50541 2.13029 7.41963 2.13029 7.33132C2.13029 7.21766 2.07861 7.11388 1.99726 7.05053C2.07857 6.98718 2.13029 6.88339 2.13029 6.76973C2.13029 6.68139 2.11204 6.59564 2.07622 6.51499L1.63996 5.53347C1.61209 5.47075 1.59735 5.40142 1.59735 5.33283C1.59735 5.23692 1.65297 5.15304 1.73267 5.12871C1.79746 5.10868 1.86416 5.11947 1.91583 5.15772C1.96744 5.19586 1.99705 5.2545 1.99705 5.31852C1.99705 5.39868 1.94565 5.42519 1.92353 5.43289C1.88933 5.44487 1.85656 5.43781 1.84605 5.42455C1.83712 5.41323 1.83807 5.38226 1.86999 5.33202C1.88978 5.30105 1.88075 5.25981 1.84971 5.24005C1.81859 5.22054 1.77757 5.22951 1.75774 5.26048C1.67266 5.39386 1.71805 5.47736 1.74153 5.50717C1.78889 5.56687 1.87716 5.58743 1.96231 5.55969C1.93433 5.67835 1.90859 5.79053 2.01659 5.89856C2.0296 5.91157 2.04665 5.91808 2.0637 5.91808C2.08075 5.91808 2.0978 5.91157 2.11081 5.89856C2.13683 5.87255 2.13683 5.8304 2.11081 5.80438C2.05748 5.75105 2.0644 5.70721 2.09253 5.58828C2.10937 5.51698 2.13032 5.4281 2.13032 5.31856C2.13032 5.24568 2.10469 5.17596 2.06159 5.11869H2.06374C2.10055 5.11869 2.13036 5.08892 2.13036 5.05207C2.13036 5.01526 2.10058 4.98545 2.06374 4.98545H2.06159C2.10473 4.92818 2.13032 4.85854 2.13032 4.78559C2.13011 4.67587 2.10916 4.58699 2.09235 4.5157ZM1.4163 4.23181C1.39264 4.16079 1.4009 4.12033 1.41651 4.10613C1.42671 4.09649 1.44218 4.09688 1.45198 4.10131C1.46401 4.10665 1.46401 4.11513 1.46401 4.11927C1.46401 4.15608 1.49378 4.1859 1.53063 4.1859C1.56744 4.1859 1.59725 4.15612 1.59725 4.11927C1.59725 4.11513 1.59725 4.10665 1.60927 4.10131C1.61891 4.09688 1.63427 4.09649 1.64475 4.10613C1.66035 4.12033 1.66862 4.16079 1.64496 4.23181C1.62773 4.28331 1.5654 4.4174 1.53066 4.49017C1.49663 4.41909 1.43363 4.28366 1.4163 4.23181ZM1.53059 6.9805C1.54972 7.00648 1.57134 7.03066 1.59764 7.05035C1.57134 7.07007 1.54972 7.09423 1.53059 7.12021C1.51147 7.09423 1.48985 7.07004 1.46355 7.05035C1.48985 7.03063 1.51147 7.00651 1.53059 6.9805ZM1.53059 10.9775C1.54972 11.0035 1.57134 11.0276 1.59764 11.0473C1.57134 11.0671 1.54972 11.0912 1.53059 11.1172C1.51147 11.0912 1.48985 11.067 1.46355 11.0473C1.48985 11.0276 1.51147 11.0035 1.53059 10.9775ZM1.64485 13.8659C1.66851 13.9369 1.66025 13.9774 1.64464 13.9916C1.63416 14.0011 1.6188 14.0007 1.60917 13.9964C1.59714 13.9911 1.59714 13.9826 1.59714 13.9784C1.59714 13.9416 1.56737 13.9118 1.53052 13.9118C1.49368 13.9118 1.4639 13.9416 1.4639 13.9784C1.4639 13.9826 1.4639 13.9911 1.45188 13.9964C1.44211 14.0007 1.42664 14.0011 1.41641 13.9916C1.4008 13.9774 1.39253 13.9369 1.4162 13.8659C1.43342 13.8144 1.49575 13.6803 1.53049 13.6075C1.56452 13.6786 1.62752 13.8141 1.64485 13.8659ZM1.597 13.0458C1.5718 13.0654 1.54944 13.0889 1.53059 13.1155C1.51178 13.0889 1.48939 13.0655 1.46418 13.0458C1.48939 13.0262 1.51175 13.0027 1.53059 12.9762C1.5494 13.0027 1.57176 13.0262 1.597 13.0458ZM1.95426 11.5287L1.53056 12.482L1.10686 11.5287C1.07898 11.466 1.06425 11.3967 1.06425 11.3281C1.06425 11.2322 1.11986 11.1483 1.19956 11.124C1.26432 11.1039 1.33112 11.1147 1.38273 11.153C1.43434 11.1911 1.46394 11.2498 1.46394 11.3138C1.46394 11.3939 1.41254 11.4204 1.39043 11.4281C1.35608 11.4401 1.32342 11.4332 1.31294 11.4198C1.30401 11.4085 1.30496 11.3775 1.33688 11.3273C1.35668 11.2963 1.34764 11.2551 1.3166 11.2353C1.28548 11.2158 1.24446 11.2249 1.22463 11.2558C1.13955 11.3892 1.18494 11.4726 1.20842 11.5025C1.25666 11.5634 1.34739 11.5843 1.43416 11.554C1.44404 11.5506 1.45406 11.5463 1.46394 11.5413V11.7097C1.46394 11.7097 1.46383 11.7096 1.46383 11.7096C1.46183 11.6746 1.43279 11.6469 1.39735 11.6469C1.36054 11.6469 1.33073 11.6767 1.33073 11.7135C1.33073 11.757 1.36111 11.8323 1.46394 11.8557V11.98C1.46394 12.0168 1.49371 12.0466 1.53056 12.0466C1.5674 12.0466 1.59718 12.0168 1.59718 11.98V11.8557C1.70001 11.8323 1.73039 11.757 1.73039 11.7135C1.73039 11.6767 1.70068 11.6447 1.66391 11.6447C1.6271 11.6447 1.59743 11.6723 1.59743 11.7091C1.59739 11.7092 1.59718 11.7094 1.59714 11.7095V11.5413C1.60702 11.5464 1.61704 11.5506 1.62692 11.554C1.71369 11.5843 1.80439 11.5634 1.85266 11.5025C1.87614 11.4728 1.92157 11.3892 1.83645 11.2558C1.81666 11.2249 1.77556 11.2158 1.74448 11.2354C1.71344 11.2552 1.70441 11.2964 1.7242 11.3273C1.75612 11.3776 1.75707 11.4086 1.74814 11.4199C1.73759 11.4333 1.70493 11.4402 1.67066 11.4282C1.64854 11.4205 1.59714 11.394 1.59714 11.3138C1.59714 11.2498 1.62675 11.1912 1.67835 11.153C1.73007 11.1148 1.79701 11.1039 1.86152 11.124C1.94118 11.1484 1.99683 11.2323 1.99683 11.3282C1.9969 11.3967 1.98221 11.466 1.95426 11.5287ZM1.95426 10.5659C1.98214 10.6287 1.99687 10.698 1.99687 10.7666C1.99687 10.8625 1.94125 10.9464 1.86155 10.9707C1.7969 10.9909 1.73 10.9799 1.67839 10.9417C1.62678 10.9035 1.59718 10.8449 1.59718 10.7809C1.59718 10.7007 1.64858 10.6742 1.67069 10.6665C1.70497 10.6545 1.73766 10.6614 1.74818 10.6748C1.7571 10.6862 1.75616 10.7171 1.72423 10.7674C1.70444 10.7984 1.71348 10.8396 1.74452 10.8593C1.77581 10.8791 1.81687 10.87 1.83649 10.8389C1.92157 10.7055 1.87618 10.622 1.85269 10.5922C1.80442 10.5313 1.71372 10.5106 1.62696 10.5407C1.61708 10.5441 1.60706 10.5484 1.59718 10.5534V10.3849L1.59728 10.3851C1.59929 10.4201 1.62833 10.4478 1.66376 10.4478C1.70057 10.4478 1.73039 10.418 1.73039 10.3812C1.73039 10.3377 1.70001 10.2624 1.59718 10.239V10.1147C1.59718 10.0779 1.5674 10.0481 1.53056 10.0481C1.49371 10.0481 1.46394 10.0779 1.46394 10.1147V10.239C1.36111 10.2624 1.33073 10.3377 1.33073 10.3812C1.33073 10.418 1.36044 10.45 1.39721 10.45C1.43402 10.45 1.46369 10.4224 1.46369 10.3856C1.46373 10.3855 1.46394 10.3853 1.46394 10.3853L1.46397 10.5533C1.45409 10.5483 1.44407 10.5441 1.43419 10.5407C1.34743 10.5106 1.25669 10.5313 1.20846 10.5922C1.18497 10.6219 1.13955 10.7055 1.22466 10.8389C1.24446 10.8698 1.28555 10.8788 1.31663 10.8593C1.34768 10.8395 1.35671 10.7983 1.33692 10.7673C1.305 10.7171 1.30405 10.6861 1.31298 10.6748C1.32345 10.6614 1.35611 10.6545 1.39046 10.6665C1.41257 10.6741 1.46397 10.7007 1.46397 10.7808C1.46397 10.8449 1.43437 10.9035 1.38276 10.9417C1.33105 10.9799 1.26425 10.9908 1.1996 10.9707C1.11993 10.9463 1.06428 10.8624 1.06428 10.7665C1.06428 10.6979 1.07898 10.6286 1.10689 10.5659L1.53059 9.61261L1.95426 10.5659ZM1.597 9.04888C1.5718 9.06849 1.54944 9.09198 1.53059 9.11852C1.51178 9.09198 1.48939 9.06853 1.46418 9.04888C1.48939 9.02926 1.51175 9.00577 1.53059 8.97923C1.5494 9.00574 1.57176 9.02922 1.597 9.04888ZM1.95426 7.53178L1.53056 8.48508L1.10686 7.53178C1.07898 7.46906 1.06425 7.39973 1.06425 7.33114C1.06425 7.23524 1.11986 7.15136 1.19956 7.12703C1.26432 7.10699 1.33112 7.11778 1.38273 7.15603C1.43434 7.19418 1.46394 7.25282 1.46394 7.31684C1.46394 7.39699 1.41254 7.4235 1.39043 7.4312C1.35608 7.44329 1.32342 7.4363 1.31294 7.42287C1.30401 7.41155 1.30496 7.38057 1.33688 7.33034C1.35668 7.29936 1.34764 7.25812 1.3166 7.23837C1.28548 7.21875 1.24446 7.22782 1.22463 7.25883C1.13955 7.39221 1.18494 7.47571 1.20842 7.50552C1.25666 7.56641 1.34739 7.58722 1.43416 7.55702C1.44404 7.55361 1.45406 7.54936 1.46394 7.54433V7.7128L1.46383 7.71259C1.46183 7.67761 1.43279 7.64987 1.39735 7.64987C1.36054 7.64987 1.33073 7.67965 1.33073 7.71649C1.33073 7.75994 1.36111 7.83532 1.46394 7.85866V7.98294C1.46394 8.01975 1.49371 8.04956 1.53056 8.04956C1.5674 8.04956 1.59718 8.01978 1.59718 7.98294V7.85866C1.70001 7.83532 1.73039 7.75994 1.73039 7.71649C1.73039 7.67968 1.70068 7.64766 1.66391 7.64766C1.6271 7.64766 1.59743 7.67525 1.59743 7.71206C1.59739 7.71217 1.59718 7.71234 1.59718 7.71234L1.59714 7.5443C1.60702 7.54932 1.61704 7.55358 1.62692 7.55699C1.71369 7.58715 1.80439 7.56634 1.85266 7.50548C1.87614 7.47571 1.92157 7.39218 1.83645 7.25879C1.81666 7.22768 1.77556 7.21861 1.74448 7.23833C1.71344 7.25813 1.70441 7.29936 1.7242 7.3303C1.75612 7.38054 1.75707 7.41151 1.74814 7.42283C1.73759 7.43623 1.70493 7.44329 1.67066 7.43116C1.64854 7.4235 1.59714 7.39696 1.59714 7.3168C1.59714 7.25278 1.62675 7.19411 1.67835 7.156C1.73007 7.11775 1.79701 7.10695 1.86152 7.12699C1.94118 7.15132 1.99683 7.23524 1.99683 7.33111C1.9969 7.39973 1.98221 7.46906 1.95426 7.53178ZM1.95426 6.56896C1.98214 6.63168 1.99687 6.701 1.99687 6.76959C1.99687 6.8655 1.94125 6.94938 1.86155 6.97371C1.7969 6.99389 1.73 6.98296 1.67839 6.94471C1.62678 6.90656 1.59718 6.84792 1.59718 6.7839C1.59718 6.70375 1.64858 6.67724 1.67069 6.66954C1.70497 6.65755 1.73766 6.66444 1.74818 6.67787C1.7571 6.68919 1.75616 6.72016 1.72423 6.7704C1.70444 6.80138 1.71348 6.84258 1.74452 6.86237C1.77581 6.88199 1.81687 6.87302 1.83649 6.84191C1.92157 6.70853 1.87618 6.62503 1.85269 6.59522C1.80442 6.53433 1.71372 6.51352 1.62696 6.54372C1.61708 6.54713 1.60706 6.55138 1.59718 6.55641V6.38794C1.59718 6.38797 1.59728 6.38804 1.59728 6.38804C1.59929 6.42313 1.62833 6.4508 1.66376 6.4508C1.70057 6.4508 1.73039 6.42102 1.73039 6.38418C1.73039 6.34072 1.70001 6.26535 1.59718 6.24201V6.11773C1.59718 6.08092 1.5674 6.05111 1.53056 6.05111C1.49371 6.05111 1.46394 6.08088 1.46394 6.11773V6.24201C1.36111 6.26535 1.33073 6.34072 1.33073 6.38418C1.33073 6.42099 1.36044 6.45301 1.39721 6.45301C1.43402 6.45301 1.46369 6.42542 1.46369 6.38861C1.46373 6.3885 1.46394 6.38833 1.46397 6.38822V6.55637C1.45409 6.55134 1.44407 6.54709 1.43419 6.54368C1.34743 6.51352 1.25669 6.53433 1.20846 6.59518C1.18497 6.62496 1.13955 6.70849 1.22466 6.84188C1.24446 6.87285 1.28555 6.88185 1.31663 6.86234C1.34768 6.84254 1.35671 6.80131 1.33692 6.77037C1.305 6.72013 1.30405 6.68916 1.31298 6.67784C1.32345 6.66444 1.35611 6.65755 1.39046 6.6695C1.41257 6.67717 1.46397 6.70371 1.46397 6.78387C1.46397 6.84789 1.43437 6.90656 1.38276 6.94467C1.33105 6.98292 1.26425 6.99386 1.1996 6.97368C1.11993 6.94935 1.06428 6.86543 1.06428 6.76956C1.06428 6.70097 1.07898 6.63164 1.10689 6.56892L1.53059 5.61563L1.95426 6.56896ZM1.46415 5.0519C1.48936 5.03228 1.51171 5.0088 1.53056 4.98225C1.54937 5.0088 1.57176 5.03225 1.59697 5.0519C1.57176 5.07152 1.5494 5.095 1.53056 5.12154C1.51175 5.095 1.48939 5.07152 1.46415 5.0519Z" fill="#FFE15A"/>
<path d="M9.51819 9.86604C10.4037 9.86604 11.1215 9.14821 11.1215 8.26272C11.1215 7.37723 10.4037 6.65939 9.51819 6.65939C8.63269 6.65939 7.91486 7.37723 7.91486 8.26272C7.91486 9.14821 8.63269 9.86604 9.51819 9.86604Z" fill="#FFE15A"/>
<path d="M9.63867 6.21853C9.63867 6.28494 9.58481 6.3388 9.5184 6.3388C9.45199 6.3388 9.39813 6.28494 9.39813 6.21853C9.39813 6.15212 9.5184 5.85776 9.5184 5.85776C9.5184 5.85776 9.63867 6.15212 9.63867 6.21853Z" fill="#FFE15A"/>
<path d="M9.39816 10.3073C9.39816 10.2409 9.45202 10.187 9.51843 10.187C9.58484 10.187 9.6387 10.2409 9.6387 10.3073C9.6387 10.3737 9.51843 10.6681 9.51843 10.6681C9.51843 10.6681 9.39816 10.3737 9.39816 10.3073Z" fill="#FFE15A"/>
<path d="M11.5628 8.38315C11.4964 8.38315 11.4426 8.32929 11.4426 8.26288C11.4426 8.19647 11.4964 8.14261 11.5628 8.14261C11.6292 8.14261 11.9236 8.26288 11.9236 8.26288C11.9236 8.26288 11.6292 8.38315 11.5628 8.38315Z" fill="#FFE15A"/>
<path d="M7.47401 8.14264C7.54042 8.14264 7.59428 8.1965 7.59428 8.26291C7.59428 8.32932 7.54042 8.38318 7.47401 8.38318C7.4076 8.38318 7.11324 8.26291 7.11324 8.26291C7.11324 8.26291 7.4076 8.14264 7.47401 8.14264Z" fill="#FFE15A"/>
<path d="M11.049 6.90234C11.0021 6.9493 10.926 6.9493 10.879 6.90234C10.832 6.85537 10.832 6.77925 10.879 6.73225C10.9259 6.68525 11.2191 6.56216 11.2191 6.56216C11.2191 6.56216 11.096 6.85537 11.049 6.90234Z" fill="#FFE15A"/>
<path d="M7.98779 9.62345C8.03476 9.57648 8.11087 9.57648 8.15788 9.62345C8.20489 9.67042 8.20485 9.74653 8.15788 9.79353C8.11091 9.84053 7.81773 9.96357 7.81773 9.96357C7.81773 9.96357 7.94082 9.67045 7.98779 9.62345Z" fill="#FFE15A"/>
<path d="M10.879 9.79355C10.8321 9.74658 10.8321 9.67047 10.879 9.62347C10.926 9.57646 11.0021 9.5765 11.0491 9.62347C11.0961 9.67043 11.2192 9.96359 11.2192 9.96359C11.2192 9.96359 10.926 9.84048 10.879 9.79355Z" fill="#FFE15A"/>
<path d="M8.15784 6.73227C8.20481 6.77924 8.20481 6.85535 8.15784 6.90235C8.11088 6.94936 8.03476 6.94932 7.98776 6.90235C7.94075 6.85539 7.81767 6.56223 7.81767 6.56223C7.81767 6.56223 8.11088 6.68534 8.15784 6.73227Z" fill="#FFE15A"/>
<path d="M8.84722 6.32811C8.87263 6.38949 8.84349 6.45981 8.7821 6.48522C8.72072 6.51064 8.65041 6.4815 8.62499 6.42011C8.59957 6.35873 8.59802 6.04077 8.59802 6.04077C8.59802 6.04077 8.8218 6.26672 8.84722 6.32811Z" fill="#FFE15A"/>
<path d="M10.1897 10.1977C10.1643 10.1363 10.1934 10.066 10.2548 10.0406C10.3162 10.0152 10.3865 10.0443 10.4119 10.1057C10.4373 10.1671 10.4388 10.485 10.4388 10.485C10.4388 10.485 10.2151 10.2591 10.1897 10.1977Z" fill="#FFE15A"/>
<path d="M11.4532 7.59169C11.3918 7.61711 11.3215 7.58796 11.2961 7.52658C11.2707 7.4652 11.2998 7.39488 11.3612 7.36946C11.4226 7.34405 11.7405 7.3425 11.7405 7.3425C11.7405 7.3425 11.5146 7.56624 11.4532 7.59169Z" fill="#FFE15A"/>
<path d="M7.58365 8.93411C7.64503 8.90869 7.71534 8.93784 7.74076 8.99923C7.76618 9.06062 7.73703 9.13094 7.67565 9.15636C7.61427 9.18178 7.29633 9.18332 7.29633 9.18332C7.29633 9.18332 7.52227 8.95957 7.58365 8.93411Z" fill="#FFE15A"/>
<path d="M10.4119 6.42013C10.3864 6.48151 10.3161 6.51062 10.2548 6.48524C10.1934 6.45982 10.1643 6.38947 10.1897 6.32813C10.2151 6.26678 10.4388 6.04083 10.4388 6.04083C10.4388 6.04083 10.4373 6.35878 10.4119 6.42013Z" fill="#FFE15A"/>
<path d="M8.62495 10.1057C8.65037 10.0443 8.72073 10.0152 8.78208 10.0406C8.84346 10.066 8.87257 10.1363 8.84719 10.1977C8.82177 10.2591 8.59802 10.485 8.59802 10.485C8.59802 10.485 8.59953 10.1671 8.62495 10.1057Z" fill="#FFE15A"/>
<path d="M11.3612 9.15635C11.2999 9.13093 11.2707 9.06058 11.2961 8.99924C11.3215 8.93785 11.3919 8.90874 11.4532 8.93413C11.5146 8.95951 11.7405 9.18328 11.7405 9.18328C11.7405 9.18328 11.4225 9.1818 11.3612 9.15635Z" fill="#FFE15A"/>
<path d="M7.67562 7.36946C7.73701 7.39488 7.76612 7.46522 7.74073 7.52657C7.71532 7.58792 7.64497 7.61706 7.58362 7.59168C7.52227 7.56626 7.29633 7.34253 7.29633 7.34253C7.29633 7.34253 7.61431 7.34401 7.67562 7.36946Z" fill="#FFE15A"/>
<path d="M9.23761 6.23435C9.25058 6.29949 9.20829 6.36281 9.1431 6.37575C9.07795 6.38872 9.01462 6.34643 9.00169 6.28125C8.98871 6.21611 9.04926 5.90396 9.04926 5.90396C9.04926 5.90396 9.22464 6.16921 9.23761 6.23435Z" fill="#FFE15A"/>
<path d="M9.79934 10.2915C9.78636 10.2263 9.82865 10.163 9.89383 10.1501C9.95901 10.1371 10.0223 10.1794 10.0352 10.2446C10.0482 10.3097 9.98766 10.6219 9.98766 10.6219C9.98766 10.6219 9.81227 10.3566 9.79934 10.2915Z" fill="#FFE15A"/>
<path d="M11.547 7.98199C11.4819 7.99497 11.4186 7.95267 11.4056 7.88749C11.3927 7.82231 11.4349 7.75902 11.5001 7.74609C11.5653 7.73311 11.8774 7.79365 11.8774 7.79365C11.8774 7.79365 11.6122 7.96905 11.547 7.98199Z" fill="#FFE15A"/>
<path d="M7.48986 8.54381C7.555 8.53084 7.61832 8.57313 7.63126 8.63832C7.64423 8.7035 7.60194 8.76678 7.53676 8.77972C7.47161 8.79269 7.15945 8.73215 7.15945 8.73215C7.15945 8.73215 7.42471 8.55675 7.48986 8.54381Z" fill="#FFE15A"/>
<path d="M10.7543 6.62988C10.7174 6.6851 10.6427 6.69994 10.5874 6.66303C10.5322 6.62611 10.5174 6.55144 10.5543 6.49621C10.5912 6.44098 10.8547 6.26306 10.8547 6.26306C10.8547 6.26306 10.7911 6.57461 10.7543 6.62988Z" fill="#FFE15A"/>
<path d="M8.28262 9.89592C8.3195 9.84069 8.3942 9.82585 8.44944 9.86276C8.50467 9.89964 8.5195 9.97435 8.48259 10.0296C8.44571 10.0848 8.18217 10.2627 8.18217 10.2627C8.18217 10.2627 8.24574 9.95118 8.28262 9.89592Z" fill="#FFE15A"/>
<path d="M11.1515 9.49872C11.0963 9.46184 11.0814 9.38713 11.1183 9.33189C11.1553 9.27666 11.2299 9.26182 11.2852 9.29874C11.3404 9.33562 11.5183 9.59916 11.5183 9.59916C11.5183 9.59916 11.2067 9.5356 11.1515 9.49872Z" fill="#FFE15A"/>
<path d="M7.8854 7.0271C7.94063 7.06398 7.95547 7.13869 7.91855 7.19392C7.88167 7.24915 7.80696 7.26398 7.75173 7.22707C7.6965 7.19016 7.51857 6.92667 7.51857 6.92667C7.51857 6.92667 7.8302 6.99023 7.8854 7.0271Z" fill="#FFE15A"/>
<path d="M8.48259 6.49624C8.51947 6.55147 8.50463 6.62614 8.44944 6.66305C8.39424 6.69996 8.31953 6.68509 8.28262 6.6299C8.24574 6.57467 8.18217 6.26312 8.18217 6.26312C8.18217 6.26312 8.44571 6.44104 8.48259 6.49624Z" fill="#FFE15A"/>
<path d="M10.5543 10.0296C10.5174 9.97435 10.5322 9.89968 10.5874 9.86277C10.6426 9.82589 10.7173 9.84073 10.7542 9.89592C10.7911 9.95115 10.8547 10.2627 10.8547 10.2627C10.8547 10.2627 10.5912 10.0848 10.5543 10.0296Z" fill="#FFE15A"/>
<path d="M11.2851 7.22707C11.2299 7.26395 11.1552 7.24911 11.1183 7.19392C11.0814 7.13869 11.0963 7.06402 11.1515 7.02711C11.2067 6.99023 11.5183 6.92667 11.5183 6.92667C11.5183 6.92667 11.3404 7.19019 11.2851 7.22707Z" fill="#FFE15A"/>
<path d="M7.75174 9.29872C7.80697 9.26183 7.88165 9.27667 7.91856 9.33187C7.95544 9.3871 7.9406 9.46178 7.88541 9.4987C7.83018 9.53558 7.51862 9.59914 7.51862 9.59914C7.51862 9.59914 7.69651 9.3356 7.75174 9.29872Z" fill="#FFE15A"/>
<path d="M10.0352 6.28125C10.0222 6.3464 9.95897 6.38873 9.89383 6.37575C9.82869 6.36278 9.78636 6.2995 9.79933 6.23436C9.81231 6.16921 9.98766 5.90396 9.98766 5.90396C9.98766 5.90396 10.0482 6.21611 10.0352 6.28125Z" fill="#FFE15A"/>
<path d="M9.00163 10.2446C9.01461 10.1794 9.07789 10.1371 9.14304 10.1501C9.2082 10.163 9.25053 10.2263 9.23755 10.2915C9.22458 10.3566 9.0492 10.6219 9.0492 10.6219C9.0492 10.6219 8.98869 10.3097 9.00163 10.2446Z" fill="#FFE15A"/>
<path d="M11.5001 8.77972C11.435 8.76674 11.3926 8.70346 11.4056 8.63831C11.4186 8.57317 11.4819 8.53084 11.547 8.54381C11.6121 8.55678 11.8774 8.73215 11.8774 8.73215C11.8774 8.73215 11.5652 8.79266 11.5001 8.77972Z" fill="#FFE15A"/>
<path d="M7.53676 7.74608C7.60191 7.75905 7.64423 7.82233 7.63126 7.88748C7.61829 7.95263 7.55501 7.99496 7.48987 7.98198C7.42472 7.96901 7.15947 7.79364 7.15947 7.79364C7.15947 7.79364 7.47162 7.73314 7.53676 7.74608Z" fill="#FFE15A"/>
<path d="M13.29 8.68477C13.243 8.66501 13.1893 8.68765 13.1697 8.73434C13.1697 8.73455 13.1697 8.73455 13.1697 8.73455C13.1694 8.73543 13.1676 8.73976 13.1644 8.74714C13.0949 8.90949 12.9511 9.14676 12.8059 9.36996C12.9412 8.93463 13.0648 8.46965 13.0734 8.43696C13.0863 8.38812 13.0574 8.33799 13.0087 8.32474C12.9599 8.31162 12.9096 8.34003 12.896 8.38865C12.8329 8.61478 12.7038 8.91237 12.5847 9.1643C12.6066 8.8834 12.6107 8.62318 12.611 8.60433C12.6117 8.55459 12.5727 8.51345 12.523 8.5111C12.4762 8.51254 12.431 8.54668 12.4273 8.59639C12.3096 10.216 10.7512 10.9405 10.5994 11.0071C10.5201 11.015 10.1502 11.0567 9.81461 11.1732C9.77657 11.1864 9.74416 11.1997 9.71188 11.2129C9.6999 11.2084 9.68703 11.2058 9.67349 11.2066C8.64335 11.2812 7.82196 10.8586 7.23162 9.95324C6.78559 9.26917 6.64571 8.55114 6.64434 8.54397C6.63492 8.49405 6.5871 8.46188 6.53697 8.47071C6.48705 8.4802 6.45425 8.52815 6.46371 8.57807C6.46743 8.5979 6.52881 8.91132 6.69785 9.32381C6.47169 8.96679 6.31408 8.5343 6.25861 8.30906C6.25748 8.30456 6.2546 8.30115 6.25291 8.297C6.25031 8.29064 6.24813 8.28424 6.2443 8.27872C6.24159 8.27481 6.23804 8.27197 6.23484 8.26856C6.22981 8.26325 6.225 8.25805 6.21884 8.25407C6.21533 8.25179 6.21139 8.25066 6.20756 8.24887C6.20077 8.24571 6.19413 8.24258 6.18657 8.24114C6.18133 8.24012 6.17599 8.24078 6.17054 8.24068C6.16502 8.24061 6.15982 8.2392 6.15416 8.24019C6.15293 8.2404 6.15198 8.24124 6.15075 8.24152C6.14955 8.24177 6.14843 8.24138 6.14723 8.24163C6.14231 8.24282 6.13855 8.24592 6.13405 8.24785C6.12832 8.25035 6.12245 8.25221 6.11742 8.25569C6.11246 8.2591 6.10877 8.26353 6.10466 8.26778C6.10054 8.272 6.09625 8.27573 6.09302 8.28062C6.08975 8.28557 6.08799 8.29116 6.08567 8.29668C6.08346 8.30206 6.08089 8.30712 6.07973 8.31292C6.07854 8.31887 6.07906 8.32498 6.0791 8.33121C6.0791 8.33616 6.07773 8.34091 6.07861 8.34597C6.07896 8.34815 6.07966 8.35033 6.08005 8.35244V8.35279C6.08015 8.35318 6.08029 8.35371 6.0804 8.35413C6.13728 8.68927 6.27284 9.03668 6.39543 9.30162C6.20077 9.08073 6.03811 8.82624 5.98045 8.67553C5.9788 8.67113 5.97546 8.66807 5.97321 8.66413C5.9698 8.65805 5.96681 8.65183 5.9622 8.6468C5.95893 8.64322 5.95496 8.6409 5.95124 8.63791C5.94565 8.63341 5.94034 8.62887 5.93387 8.62578C5.92972 8.62381 5.92522 8.62318 5.92083 8.62181C5.91404 8.61977 5.90747 8.61752 5.90026 8.61706C5.8946 8.61667 5.88897 8.61811 5.88324 8.61885C5.87793 8.61952 5.8727 8.61885 5.86742 8.62051C5.8664 8.62082 5.8657 8.62163 5.86475 8.62198C5.86377 8.6223 5.86278 8.62209 5.8618 8.62247C5.85681 8.62437 5.85326 8.62806 5.84879 8.6307C5.84355 8.63379 5.83796 8.63636 5.8335 8.64037C5.82893 8.64448 5.82576 8.64958 5.82218 8.65447C5.81877 8.65907 5.81497 8.66319 5.81244 8.66832C5.8098 8.6737 5.80882 8.67953 5.80731 8.68533C5.80579 8.69099 5.80379 8.69627 5.8034 8.70221C5.80298 8.70815 5.80446 8.71409 5.80523 8.7201C5.8059 8.72531 5.8052 8.73047 5.80681 8.73561C5.90687 9.05834 6.14748 9.44232 6.33598 9.71281C6.17891 9.59177 6.06345 9.46084 6.02995 9.42133C6.02633 9.41704 6.02278 9.41272 6.01916 9.40843C5.98674 9.36944 5.92947 9.36388 5.8902 9.39566C5.85108 9.42762 5.84492 9.48514 5.87656 9.52441C5.87829 9.52659 5.88518 9.5352 5.89671 9.54866C6.03466 9.71281 6.18495 9.86598 6.32111 9.99532L6.13486 9.91594C6.09239 9.89762 6.04247 9.91415 6.01923 9.95454C5.99595 9.99497 6.00647 10.0461 6.04373 10.0741C6.06187 10.0876 6.39171 10.334 6.67724 10.4797C6.65031 10.4813 6.61871 10.4793 6.58334 10.4766C6.54017 10.4725 6.4977 10.5034 6.48719 10.5472C6.47685 10.5912 6.49985 10.6361 6.54161 10.6533C6.54864 10.6562 6.63565 10.6921 6.74309 10.7303C6.71803 10.7406 6.69809 10.7616 6.68983 10.7889C6.67746 10.8296 6.69486 10.8738 6.73184 10.895C6.74147 10.9006 6.87145 10.9751 7.03229 11.0412C7.028 11.0478 7.02448 11.055 7.02184 11.0629C7.00926 11.1015 7.02364 11.1439 7.05714 11.1671C7.08505 11.1863 7.7096 11.6101 8.43902 11.6101C8.4869 11.6101 8.53528 11.6083 8.58394 11.6044C8.63449 11.6004 8.67232 11.5561 8.66827 11.5054C8.66423 11.4548 8.62032 11.4165 8.56924 11.4212C8.11102 11.4586 7.66956 11.2865 7.40701 11.155C7.44168 11.1465 7.46161 11.1388 7.46657 11.1369C7.50707 11.1204 7.53041 11.0778 7.5225 11.0349C7.51459 10.992 7.47761 10.9605 7.43387 10.9596C7.32728 10.9574 7.17966 10.9055 7.0525 10.8498C7.10052 10.8258 7.12858 10.8028 7.13104 10.8008C7.15871 10.7776 7.17038 10.7406 7.16096 10.7058C7.15146 10.6711 7.1225 10.6451 7.08699 10.6393C7.04793 10.6329 6.99924 10.6203 6.94826 10.6049C6.99783 10.5763 7.01893 10.5449 7.02701 10.5289C7.03977 10.5034 7.04006 10.4736 7.02782 10.4479C7.01552 10.4222 6.9921 10.4037 6.96422 10.3978C6.94018 10.3926 6.91293 10.3838 6.88351 10.3723C6.88888 10.3669 6.89384 10.3608 6.89785 10.3538C6.92126 10.3141 6.91159 10.2631 6.87524 10.2345C6.87334 10.2331 6.80198 10.1771 6.69391 10.0838C6.71106 10.0776 6.72622 10.0659 6.73719 10.0501C6.76035 10.0167 6.75877 9.97198 6.73332 9.94034C6.73128 9.93781 6.65981 9.84795 6.5613 9.71147C6.59382 9.73671 6.6263 9.76252 6.65879 9.7834C6.67408 9.7931 6.69138 9.79796 6.70853 9.79796C6.73181 9.79796 6.75476 9.78917 6.77245 9.77208C6.77972 9.76505 6.78542 9.75696 6.78992 9.74835C6.84571 9.80794 6.90432 9.86205 6.96588 9.90821C6.97389 9.91422 6.98363 9.91411 6.99263 9.91714C7.01872 9.96087 7.04586 10.0047 7.07433 10.0485C7.63272 10.9076 8.42004 11.3678 9.36433 11.3955C9.27739 11.4483 9.18299 11.5028 9.03355 11.561C9.00092 11.5738 8.97209 11.5865 8.94313 11.5993C8.92913 11.602 8.91602 11.6071 8.90509 11.6157C8.64423 11.7365 8.53623 11.8558 8.49242 11.9393C8.44869 12.0223 8.48641 12.1074 8.53981 12.1516C8.55641 12.1652 8.57754 12.1722 8.5987 12.1722C8.61326 12.1722 8.62781 12.169 8.64099 12.1623C8.67351 12.1461 8.69524 12.1118 8.6938 12.0758C8.69756 12.0716 8.71356 12.0584 8.76365 12.0567C8.80018 12.0536 8.87707 12.0619 8.96679 12.0691C9.05214 12.0761 9.15452 12.0841 9.26336 12.0897C9.19527 12.1691 9.11613 12.2611 9.11613 12.2611C9.09236 12.2887 9.08712 12.3279 9.10294 12.3607C9.11883 12.3938 9.15308 12.4143 9.18897 12.413C9.26164 12.4104 9.311 12.409 9.34341 12.4083C9.37168 12.4454 9.40638 12.4601 9.42874 12.4658C9.49198 12.482 9.55502 12.4566 9.60248 12.4267C9.63841 12.4525 9.67434 12.4635 9.70281 12.4676C9.76701 12.4764 9.82646 12.4577 9.86945 12.4365C9.914 12.4653 9.95762 12.4726 9.99088 12.4726C9.99134 12.4726 9.99187 12.4726 9.99239 12.4726C10.0641 12.4723 10.1269 12.4376 10.1713 12.4037C10.2106 12.427 10.2481 12.4345 10.2771 12.4358C10.343 12.4381 10.3975 12.4128 10.4338 12.3891C10.5634 12.4151 10.6751 12.3541 10.7489 12.2867C10.7826 12.3063 10.8146 12.3112 10.8401 12.3099C10.9058 12.3076 10.9558 12.2677 10.9879 12.232C11.1348 12.2497 11.2402 12.2226 11.3012 12.1503C11.3344 12.1109 11.3479 12.0666 11.3515 12.0262C11.7591 12.0238 11.796 11.8013 11.799 11.7738C11.8017 11.7488 11.7941 11.7239 11.7778 11.7047C11.7617 11.6855 11.7382 11.6736 11.7132 11.6722L10.6446 11.6079C10.5999 11.6047 10.56 11.6347 10.5496 11.6783C10.5494 11.679 10.5312 11.7469 10.4742 11.8012C10.3975 11.8744 10.274 11.9131 10.1396 11.9336C10.1401 11.9213 10.1384 11.9088 10.1337 11.8965C10.1154 11.8491 10.062 11.8261 10.0148 11.8439C9.79418 11.9295 9.437 11.9188 9.15758 11.8993C9.20043 11.8643 9.25204 11.8296 9.29328 11.807C9.32812 11.7878 9.34682 11.7485 9.33944 11.7093C9.3341 11.6809 9.31353 11.6611 9.28871 11.6484C9.36641 11.6091 9.43011 11.5712 9.49054 11.5344C9.59545 11.4701 9.69455 11.4096 9.87504 11.3469C10.2234 11.2259 10.6266 11.1891 10.6307 11.1887C10.6398 11.1879 10.6488 11.1856 10.6573 11.1822C10.6717 11.1763 11.809 10.6998 12.3448 9.60048C12.3378 9.63371 12.3302 9.66408 12.322 9.69062C12.3081 9.73591 12.3307 9.78421 12.3743 9.80249C12.408 9.81669 12.4464 9.80931 12.4724 9.78527C12.4385 9.87453 12.4079 9.94473 12.3829 9.98622C12.3574 10.0284 12.3697 10.0832 12.4107 10.1105C12.4204 10.1168 12.4307 10.1211 12.4413 10.1236C12.3998 10.1843 12.3577 10.2418 12.3158 10.2944C12.2879 10.3294 12.2895 10.3794 12.3187 10.4124C12.2467 10.4878 12.1828 10.55 12.1343 10.5895C12.1026 10.6152 12.0923 10.6581 12.1069 10.6948C12.0601 10.7215 12.0216 10.7404 11.995 10.7484C11.9503 10.7619 11.9228 10.807 11.9313 10.853C11.9356 10.8772 11.9493 10.8977 11.9681 10.9111C11.9119 10.9262 11.8504 10.9408 11.7836 10.954C11.746 10.9616 11.7169 10.9916 11.7108 11.0294C11.7047 11.0673 11.7227 11.1051 11.7559 11.1241C11.7588 11.1257 11.7902 11.1435 11.8383 11.164C11.6604 11.2356 11.3428 11.3292 10.8216 11.3805C10.7711 11.3856 10.7342 11.4307 10.7392 11.4811C10.7441 11.5316 10.7878 11.5666 10.8398 11.5637C11.8291 11.4659 12.1346 11.2182 12.1471 11.2076C12.1757 11.1837 12.187 11.1448 12.1757 11.1092C12.1681 11.0857 12.1516 11.0667 12.1304 11.0557C12.4465 10.9562 12.5822 10.8461 12.5893 10.8402C12.6239 10.8114 12.6327 10.7617 12.6098 10.7227C12.5868 10.6837 12.539 10.6668 12.4972 10.6837C12.4855 10.6882 12.4667 10.6929 12.443 10.6975C12.6551 10.5523 12.8803 10.3793 12.9793 10.3021C12.9967 10.2892 13.0126 10.2767 13.0265 10.265C13.0649 10.2327 13.0703 10.1756 13.0386 10.1367C13.0071 10.0979 12.9497 10.0914 12.9103 10.1224C12.896 10.1338 12.881 10.1454 12.8656 10.1575C12.8199 10.1914 12.7614 10.2298 12.6977 10.2693C12.9384 9.99599 13.1808 9.69966 13.25 9.61455C13.2563 9.60681 13.2625 9.59911 13.2688 9.59138C13.3005 9.55186 13.2944 9.49403 13.2548 9.46225C13.2152 9.42994 13.1573 9.43659 13.1256 9.47589L13.1254 9.4761L13.1253 9.47631C13.1236 9.47828 13.1158 9.48798 13.1027 9.50416C13.0302 9.59268 12.9538 9.67839 12.8785 9.75844C13.1237 9.31396 13.3094 8.87644 13.3367 8.81161C13.3376 8.80929 13.3386 8.80697 13.3395 8.80458C13.359 8.75807 13.3369 8.70418 13.29 8.68477ZM8.98018 11.7844L9.00528 11.7877C8.97448 11.8164 8.94942 11.8487 8.92952 11.8821C8.88586 11.8785 8.84624 11.8754 8.81519 11.8741C8.85798 11.8461 8.91303 11.8158 8.98018 11.7844Z" fill="#FFE15A"/>
</svg>
