<svg width="44" height="44" viewBox="0 0 44 44" fill="none" xmlns="http://www.w3.org/2000/svg">
<path d="M34.375 0H9.625C4.30925 0 0 4.30925 0 9.625V34.375C0 39.6908 4.30925 44 9.625 44H34.375C39.6908 44 44 39.6908 44 34.375V9.625C44 4.30925 39.6908 0 34.375 0Z" fill="#82C3D2"/>
<path d="M4.69589 41.0558C4.5919 40.7441 4.18817 39.9077 4.17476 39.8798C4.06408 39.6311 4.00581 39.3561 4.00581 39.0842C4.00581 38.7039 4.22641 38.3711 4.5424 38.2746C4.79936 38.1951 5.06379 38.238 5.26892 38.3897C5.47354 38.5408 5.59093 38.7735 5.59093 39.0274C5.59093 39.3453 5.38708 39.4505 5.29943 39.481C5.16373 39.5284 5.03397 39.5011 4.99212 39.448C4.9568 39.4031 4.9604 39.2802 5.08708 39.0811C5.16554 38.9583 5.12962 38.7947 5.00655 38.7163C4.88323 38.6389 4.72047 38.6751 4.64175 38.7973C4.30427 39.3263 4.4844 39.6575 4.57747 39.7757C4.76524 40.0125 5.11535 40.0939 5.453 39.984C5.34205 40.4546 5.23987 40.8994 5.66819 41.3278C5.71975 41.3793 5.78738 41.4051 5.85501 41.4051C5.92256 41.4051 5.99019 41.3793 6.04184 41.3278C6.14505 41.2246 6.14505 41.0574 6.04184 40.9542C5.83026 40.7426 5.85785 40.5688 5.96931 40.0972C6.03617 39.8144 6.11919 39.462 6.11919 39.0275C6.11919 38.6134 5.92076 38.2192 5.58912 37.9707C5.92076 37.7223 6.11919 37.3281 6.11919 36.9139C6.11919 36.4794 6.03608 36.1271 5.96931 35.8443C5.85785 35.3727 5.83026 35.1988 6.04184 34.9872C6.14505 34.884 6.14505 34.7169 6.04184 34.6137C5.93863 34.5104 5.77148 34.5104 5.66827 34.6137C5.23987 35.0421 5.34205 35.4868 5.45308 35.9575C5.11544 35.8471 4.76533 35.9284 4.57755 36.1658C4.4844 36.2839 4.30436 36.6152 4.64183 37.1441C4.7203 37.2669 4.88254 37.303 5.00664 37.2251C5.1297 37.1467 5.16554 36.9831 5.08716 36.8603C4.96049 36.6611 4.95688 36.5383 4.9922 36.4935C5.03397 36.4403 5.16373 36.4129 5.29951 36.4604C5.38726 36.4909 5.59101 36.5961 5.59101 36.914C5.59101 37.1679 5.47362 37.4006 5.26901 37.5518C5.06387 37.7034 4.79841 37.7468 4.54249 37.6668C4.22641 37.5703 4.0059 37.2375 4.0059 36.8572C4.0059 36.5853 4.06416 36.3102 4.17485 36.0615L5.90494 32.1689C6.04708 31.849 6.11936 31.509 6.11936 31.1586C6.11936 30.7079 5.9144 30.2962 5.59187 30.0451C5.9144 29.7939 6.11936 29.3823 6.11936 28.9316C6.11936 28.5813 6.04708 28.2412 5.90494 27.9214L4.17485 24.0287C4.06416 23.78 4.0059 23.505 4.0059 23.2331C4.0059 22.8528 4.2265 22.52 4.54249 22.4235C4.79944 22.344 5.06387 22.3869 5.26901 22.5386C5.47362 22.6897 5.59101 22.9225 5.59101 23.1763C5.59101 23.4941 5.38717 23.5994 5.29951 23.6299C5.16382 23.6778 5.03405 23.65 4.9922 23.5969C4.95688 23.552 4.96049 23.4292 5.08716 23.23C5.16562 23.1072 5.1297 22.9437 5.00664 22.8652C4.88332 22.7878 4.72055 22.824 4.64183 22.9463C4.30436 23.4751 4.48448 23.8064 4.57755 23.9246C4.76533 24.1614 5.11544 24.2428 5.45308 24.1329C5.34214 24.6035 5.23996 25.0482 5.66827 25.4766C5.71983 25.5283 5.78747 25.554 5.8551 25.554C5.92265 25.554 5.99028 25.5283 6.04193 25.4766C6.14514 25.3734 6.14514 25.2062 6.04193 25.103C5.83035 24.8915 5.85794 24.7176 5.9694 24.246C6.03626 23.9632 6.11927 23.6108 6.11927 23.1763C6.11927 22.8871 6.01761 22.6108 5.84659 22.3837H5.8551C6.00111 22.3837 6.11927 22.2655 6.11927 22.1195C6.11927 21.9735 6.00111 21.8554 5.8551 21.8554H5.84659C6.01761 21.6283 6.11927 21.3519 6.11927 21.0628C6.11927 20.6283 6.03617 20.2759 5.9694 19.9931C5.85794 19.5215 5.83035 19.3476 6.04193 19.136C6.14514 19.0328 6.14514 18.8657 6.04193 18.7625C5.93872 18.6593 5.77157 18.6593 5.66836 18.7625C5.23996 19.1909 5.34214 19.6357 5.45317 20.1063C5.11552 19.9964 4.76541 20.0778 4.57764 20.3146C4.48448 20.4328 4.30444 20.7641 4.64192 21.2929C4.72038 21.4157 4.88263 21.4513 5.00672 21.3739C5.12979 21.2955 5.16562 21.1319 5.08725 21.0091C4.96058 20.8099 4.95697 20.6872 4.99229 20.6423C5.03405 20.5892 5.16382 20.5618 5.2996 20.6093C5.38734 20.6397 5.5911 20.745 5.5911 21.0629C5.5911 21.3167 5.47371 21.5494 5.26909 21.7006C5.06396 21.8523 4.7985 21.8952 4.54258 21.8157C4.2265 21.7192 4.00598 21.3863 4.00598 21.0061C4.00598 20.7341 4.06425 20.4591 4.17494 20.2104L5.90503 16.3178C6.04717 15.9979 6.11944 15.6579 6.11944 15.3075C6.11944 14.8568 5.91448 14.4452 5.59196 14.194C5.91448 13.9428 6.11944 13.5312 6.11944 13.0805C6.11944 12.7302 6.04717 12.3901 5.90503 12.0703L4.17468 8.1773C4.06399 7.92859 4.00572 7.65359 4.00572 7.3816C4.00572 7.00133 4.22633 6.66849 4.54232 6.57198C4.79927 6.49249 5.0637 6.53537 5.26883 6.68705C5.47345 6.83822 5.59084 7.07094 5.59084 7.3248C5.59084 7.64268 5.387 7.74795 5.29934 7.77837C5.16365 7.82581 5.03388 7.79797 4.99203 7.74537C4.95671 7.70052 4.96032 7.57771 5.08699 7.37851C5.16545 7.2557 5.12953 7.09216 5.00647 7.0137C4.88315 6.93627 4.72038 6.97194 4.64166 7.09474C4.30419 7.6236 4.48431 7.95489 4.57738 8.07305C4.76515 8.3099 5.11526 8.39128 5.45291 8.28137C5.34197 8.75196 5.23979 9.19677 5.6681 9.62517C5.71966 9.67673 5.78729 9.7026 5.85493 9.7026C5.92247 9.7026 5.99011 9.67682 6.04176 9.62517C6.14497 9.52196 6.14497 9.35481 6.04176 9.2516C5.83018 9.04002 5.85776 8.86617 5.96922 8.39455C6.03608 8.11181 6.1191 7.75938 6.1191 7.32488C6.1191 7.0357 6.01744 6.75933 5.84642 6.53228H5.85493C6.00094 6.53228 6.1191 6.41412 6.1191 6.26811C6.1191 6.1221 6.00094 6.00394 5.85493 6.00394H5.84642C6.01744 5.77689 6.1191 5.50051 6.1191 5.21142C6.1191 4.77692 6.036 4.42449 5.96922 4.14176C5.85776 3.67013 5.83018 3.49628 6.04176 3.2847C6.14497 3.18149 6.14497 3.01434 6.04176 2.91113C5.93855 2.80792 5.7714 2.80792 5.66819 2.91113C5.23979 3.33953 5.34197 3.78426 5.453 4.25494C5.11535 4.14459 4.76524 4.22641 4.57747 4.46325C4.48431 4.58141 4.30427 4.9127 4.64175 5.44156C4.72021 5.56437 4.88246 5.60046 5.00655 5.5226C5.12962 5.44414 5.16545 5.2806 5.08708 5.1578C4.9604 4.95859 4.9568 4.83579 4.99212 4.79093C5.03388 4.73782 5.16365 4.70989 5.29943 4.75793C5.38717 4.78835 5.59093 4.89362 5.59093 5.21151C5.59093 5.46537 5.47354 5.69809 5.26892 5.84925C5.06379 6.00093 4.79833 6.04381 4.5424 5.96432C4.22633 5.86781 4.00581 5.53498 4.00581 5.1547C4.00581 4.8828 4.06408 4.6078 4.17115 4.36683C4.18817 4.33125 4.59199 3.49482 4.69589 3.18312C4.90154 2.56652 4.69254 2.25637 4.54988 2.12687C4.35893 1.95301 4.08006 1.90962 3.83987 2.01489C3.80343 2.03105 3.77326 2.05451 3.74155 2.07633C3.72591 2.06559 3.71053 2.05433 3.69472 2.04385C3.35037 2.31361 3.02526 2.60657 2.72087 2.9199C2.73462 3.00094 2.75551 3.08791 2.78722 3.18312C2.8912 3.49473 3.29494 4.33116 3.30834 4.35909C3.41903 4.6078 3.4773 4.8828 3.4773 5.15479C3.4773 5.53506 3.25669 5.8679 2.9407 5.96441C2.68401 6.0439 2.41932 6.00153 2.21419 5.84934C2.00957 5.69817 1.89218 5.46545 1.89218 5.21159C1.89218 4.89371 2.09602 4.78844 2.18368 4.75802C2.31989 4.71006 2.44888 4.73791 2.49099 4.79102C2.52631 4.83587 2.5227 4.95868 2.39603 5.15788C2.31757 5.28069 2.35349 5.44423 2.47655 5.52269C2.60065 5.60115 2.76341 5.56445 2.84136 5.44165C3.17883 4.91279 2.99871 4.5815 2.90564 4.46334C2.71787 4.22649 2.36776 4.14468 2.03011 4.25502C2.08347 4.02866 2.13418 3.80832 2.12541 3.59296C1.86932 3.91093 1.63282 4.2454 1.41823 4.59473C1.38687 4.77916 1.36383 4.98386 1.36383 5.21151C1.36383 5.5006 1.46541 5.77706 1.63651 6.00402H1.62801C1.482 6.00402 1.36383 6.12219 1.36383 6.2682C1.36383 6.4142 1.482 6.53237 1.62801 6.53237H1.63651C1.4655 6.75941 1.36383 7.03579 1.36383 7.32497C1.36383 7.75947 1.44694 8.1119 1.51371 8.39463C1.62517 8.86626 1.65276 9.04011 1.44118 9.25169C1.33797 9.3549 1.33797 9.52205 1.44118 9.62526C1.49274 9.67682 1.56037 9.70269 1.62801 9.70269C1.69564 9.70269 1.76319 9.67691 1.81483 9.62526C2.24323 9.19686 2.14105 8.75205 2.03011 8.28145C2.36776 8.39137 2.71787 8.30998 2.90564 8.07314C2.9988 7.95498 3.17883 7.62369 2.84136 7.09483C2.76315 6.97202 2.59987 6.93541 2.47655 7.01379C2.35349 7.09225 2.31765 7.25579 2.39603 7.37859C2.5227 7.5778 2.52631 7.7006 2.49099 7.74546C2.44897 7.79814 2.31997 7.82598 2.18368 7.77846C2.09594 7.74804 1.89218 7.64277 1.89218 7.32488C1.89218 7.07102 2.00957 6.8383 2.21419 6.68714C2.41932 6.53546 2.68452 6.49206 2.9407 6.57207C3.25678 6.66858 3.4773 7.00133 3.4773 7.38169C3.4773 7.65359 3.41894 7.92868 3.30834 8.17738L1.57825 12.0699C1.43611 12.3899 1.36383 12.7298 1.36383 13.0802C1.36383 13.5309 1.5688 13.9426 1.89132 14.1937C1.5688 14.4449 1.36383 14.8564 1.36383 15.3072C1.36383 15.6576 1.43611 15.9976 1.57825 16.3175L3.30834 20.2101C3.41903 20.4588 3.4773 20.7338 3.4773 21.0057C3.4773 21.386 3.25669 21.7188 2.9407 21.8153C2.68401 21.8953 2.41932 21.8524 2.21419 21.7003C2.00957 21.5491 1.89218 21.3164 1.89218 21.0625C1.89218 20.7446 2.09602 20.6394 2.18368 20.6089C2.31989 20.5615 2.44888 20.5888 2.49099 20.6419C2.52631 20.6869 2.5227 20.8096 2.39603 21.0088C2.31757 21.1316 2.35349 21.2951 2.47655 21.3736C2.60065 21.4521 2.76341 21.4159 2.84136 21.2926C3.17883 20.7637 2.99871 20.4324 2.90564 20.3143C2.71787 20.0774 2.36776 19.996 2.03011 20.1059C2.14105 19.6353 2.24323 19.1905 1.81483 18.7621C1.71162 18.6589 1.54447 18.6589 1.44126 18.7621C1.33805 18.8653 1.33805 19.0325 1.44126 19.1357C1.65284 19.3473 1.62526 19.5211 1.5138 19.9928C1.44694 20.2755 1.36392 20.6279 1.36392 21.0624C1.36392 21.3516 1.4655 21.628 1.6366 21.855H1.62809C1.48208 21.855 1.36392 21.9732 1.36392 22.1192C1.36392 22.2652 1.48208 22.3834 1.62809 22.3834H1.6366C1.46558 22.6104 1.36392 22.8868 1.36392 23.176C1.36392 23.6104 1.44702 23.9628 1.5138 24.2456C1.62526 24.7173 1.65284 24.8911 1.44126 25.1027C1.33805 25.2059 1.33805 25.373 1.44126 25.4763C1.49283 25.5279 1.56046 25.5537 1.62809 25.5537C1.69572 25.5537 1.76327 25.5279 1.81492 25.4763C2.24332 25.0479 2.14114 24.6031 2.03019 24.1325C2.36784 24.2425 2.71795 24.1611 2.90572 23.9242C2.99888 23.8061 3.17892 23.4748 2.84144 22.9459C2.76324 22.8231 2.59996 22.7865 2.47664 22.8649C2.35358 22.9433 2.31774 23.1069 2.39612 23.2297C2.52279 23.4289 2.5264 23.5517 2.49108 23.5966C2.44905 23.6497 2.32006 23.6776 2.18376 23.6295C2.09602 23.5991 1.89226 23.4939 1.89226 23.176C1.89226 22.9221 2.00965 22.6894 2.21427 22.5382C2.4194 22.3865 2.68461 22.3432 2.94079 22.4232C3.25687 22.5197 3.47738 22.8525 3.47738 23.2328C3.47738 23.5047 3.41903 23.7798 3.30843 24.0284L1.57833 27.921C1.43619 28.241 1.36392 28.5809 1.36392 28.9313C1.36392 29.382 1.56888 29.7937 1.8914 30.0448C1.56888 30.296 1.36392 30.7075 1.36392 31.1583C1.36392 31.5086 1.43619 31.8487 1.57833 32.1686L3.30843 36.0612C3.41912 36.3099 3.47738 36.5849 3.47738 36.8569C3.47738 37.2372 3.25678 37.57 2.94079 37.6665C2.68409 37.7465 2.4194 37.7031 2.21427 37.5514C2.00965 37.4003 1.89226 37.1675 1.89226 36.9137C1.89226 36.5959 2.09611 36.4905 2.18376 36.4601C2.31997 36.4127 2.44897 36.44 2.49108 36.4931C2.5264 36.538 2.52279 36.6608 2.39612 36.86C2.31765 36.9828 2.35358 37.1463 2.47664 37.2248C2.60073 37.3032 2.7635 37.2671 2.84144 37.1437C3.17892 36.6148 2.9988 36.2836 2.90572 36.1654C2.71795 35.9281 2.36784 35.8468 2.03019 35.9571C2.14114 35.4864 2.24332 35.0417 1.81492 34.6133C1.71171 34.5101 1.54456 34.5101 1.44135 34.6133C1.33814 34.7165 1.33814 34.8837 1.44135 34.9869C1.65293 35.1985 1.62534 35.3723 1.51388 35.8439C1.44702 36.1267 1.36401 36.4791 1.36401 36.9136C1.36401 37.3276 1.56244 37.7219 1.89407 37.9704C1.56244 38.2188 1.36401 38.6131 1.36401 39.0271C1.36401 39.1364 1.36925 39.2404 1.37819 39.3394C1.59956 39.7064 1.845 40.0571 2.11183 40.39C2.09396 40.2566 2.06259 40.1212 2.03019 39.9837C2.36784 40.0936 2.71795 40.0122 2.90572 39.7754C2.99888 39.6572 3.17892 39.326 2.84144 38.7971C2.76324 38.6743 2.59996 38.6382 2.47664 38.7161C2.35358 38.7945 2.31774 38.9581 2.39612 39.0809C2.52279 39.28 2.5264 39.4029 2.49108 39.4477C2.44905 39.5008 2.32006 39.5282 2.18376 39.4807C2.09602 39.4503 1.89226 39.345 1.89226 39.0271C1.89226 38.7733 2.00965 38.5406 2.21427 38.3894C2.4194 38.2377 2.68461 38.1948 2.94079 38.2743C3.25687 38.3708 3.47738 38.7037 3.47738 39.084C3.47738 39.3559 3.41903 39.6309 3.31204 39.8718C3.29502 39.9074 2.89129 40.7438 2.7873 41.0555C2.77922 41.0798 2.77287 41.1028 2.76599 41.1261C2.9163 41.2787 3.07158 41.4263 3.23169 41.5687C3.22507 41.485 3.23882 41.3711 3.28832 41.2227C3.35664 41.0183 3.60388 40.4867 3.74155 40.198C3.87622 40.4799 4.12604 41.0169 4.19487 41.2227C4.2888 41.5044 4.25598 41.6649 4.1941 41.7211C4.15259 41.7588 4.09166 41.7572 4.05351 41.7402C4.00581 41.7191 4.00581 41.6855 4.00581 41.6689C4.00581 41.5229 3.88765 41.4048 3.74164 41.4048C3.59563 41.4048 3.47747 41.5229 3.47747 41.6689C3.47747 41.6855 3.47747 41.719 3.42986 41.7401C3.65596 41.9305 3.89091 42.1106 4.13412 42.2799C4.28605 42.2744 4.43404 42.2171 4.54997 42.1117C4.69254 41.9825 4.90145 41.6724 4.69589 41.0558ZM3.28823 3.0158C3.1943 2.7341 3.22704 2.57357 3.28901 2.51737C3.32948 2.47921 3.39093 2.48076 3.4296 2.49829C3.4773 2.51943 3.4773 2.55294 3.4773 2.56953C3.4773 2.71554 3.59546 2.8337 3.74147 2.8337C3.88747 2.8337 4.00564 2.71554 4.00564 2.56953C4.00564 2.55303 4.00564 2.51951 4.05333 2.49829C4.09149 2.48076 4.15242 2.47921 4.19393 2.51737C4.25589 2.57366 4.28863 2.7341 4.1947 3.0158C4.12638 3.22016 3.87914 3.75177 3.74147 4.04044C3.60689 3.75856 3.35707 3.22154 3.28823 3.0158ZM4.00487 6.26811C3.90483 6.34597 3.81623 6.43904 3.74155 6.54431C3.66687 6.43904 3.57827 6.34597 3.47824 6.26811C3.57827 6.19025 3.66687 6.09718 3.74155 5.99191C3.81615 6.09718 3.90483 6.19025 4.00487 6.26811ZM2.06122 12.2846L3.74155 8.50395L5.42189 12.2846C5.53258 12.5333 5.59084 12.8083 5.59084 13.0803C5.59084 13.4606 5.37024 13.7934 5.05425 13.8899C4.79781 13.9699 4.53261 13.9265 4.32773 13.7748C4.12312 13.6237 4.00572 13.391 4.00572 13.1371C4.00572 12.8192 4.20957 12.714 4.29722 12.6835C4.43318 12.6361 4.56269 12.6634 4.60454 12.7165C4.63986 12.7614 4.63625 12.8842 4.50958 13.0834C4.43112 13.2062 4.46704 13.3697 4.5901 13.4482C4.71419 13.5261 4.87696 13.4905 4.9549 13.3671C5.29238 12.8383 5.11226 12.507 5.0191 12.3888C4.82763 12.1474 4.46807 12.0648 4.12389 12.1845C4.08462 12.1981 4.045 12.2149 4.00572 12.2348V11.5666C4.00581 11.5668 4.00615 11.567 4.00615 11.567C4.01423 11.7061 4.1293 11.816 4.2699 11.816C4.4159 11.816 4.53407 11.6978 4.53407 11.5518C4.53407 11.3795 4.41358 11.0806 4.00572 10.988V10.4951C4.00572 10.3491 3.88756 10.2309 3.74155 10.2309C3.59554 10.2309 3.47738 10.3491 3.47738 10.4951V10.988C3.06952 11.0806 2.94904 11.3795 2.94904 11.5518C2.94904 11.6978 3.06694 11.8247 3.21269 11.8247C3.3587 11.8247 3.47635 11.7153 3.47635 11.5693C3.47644 11.5688 3.47721 11.5683 3.47738 11.5678V12.2348C3.43811 12.2148 3.39849 12.198 3.35922 12.1844C3.01504 12.0647 2.65513 12.1473 2.46401 12.3888C2.37085 12.5069 2.19081 12.8382 2.52829 13.3671C2.60675 13.4899 2.76977 13.5254 2.89309 13.4481C3.01615 13.3696 3.05199 13.2061 2.97362 13.0833C2.84694 12.8841 2.84333 12.7613 2.87865 12.7164C2.92016 12.6633 3.04976 12.6359 3.18597 12.6834C3.27371 12.7139 3.47747 12.8191 3.47747 13.137C3.47747 13.3909 3.36008 13.6236 3.15546 13.7748C2.95033 13.9264 2.68538 13.9698 2.42894 13.8898C2.11287 13.7933 1.89235 13.4605 1.89235 13.0802C1.89218 12.8083 1.95053 12.5333 2.06122 12.2846ZM4.00744 14.1938C3.90312 14.272 3.81744 14.3677 3.74155 14.4708C3.66567 14.3677 3.5799 14.2719 3.47566 14.1938C3.57999 14.1156 3.66567 14.0198 3.74155 13.9167C3.81735 14.0198 3.90312 14.1156 4.00744 14.1938ZM2.06122 16.1029C1.95053 15.8542 1.89226 15.5792 1.89226 15.3072C1.89226 14.9269 2.11287 14.5941 2.42886 14.4976C2.68555 14.4182 2.9505 14.461 3.15537 14.6126C3.35999 14.7638 3.47738 14.9965 3.47738 15.2504C3.47738 15.5683 3.27354 15.6735 3.18588 15.704C3.04967 15.7519 2.92016 15.7241 2.87857 15.671C2.84325 15.6261 2.84686 15.5033 2.97353 15.3041C3.05199 15.1813 3.01607 15.0178 2.89301 14.9393C2.76969 14.8613 2.60692 14.8975 2.5282 15.0203C2.19072 15.5493 2.37085 15.8805 2.46392 15.9986C2.65513 16.2401 3.01504 16.3227 3.35913 16.203C3.3984 16.1894 3.43802 16.1726 3.4773 16.1526V16.8208L3.47678 16.8201C3.46879 16.6813 3.35372 16.5714 3.21312 16.5714C3.06712 16.5714 2.94895 16.6896 2.94895 16.8356C2.94895 17.008 3.06944 17.3068 3.4773 17.3994V17.8923C3.4773 18.0383 3.59546 18.1564 3.74147 18.1564C3.88747 18.1564 4.00564 18.0383 4.00564 17.8923V17.3994C4.4135 17.3068 4.53398 17.0079 4.53398 16.8356C4.53398 16.6896 4.41608 16.5627 4.27033 16.5627C4.12432 16.5627 4.00667 16.672 4.00667 16.8181C4.00658 16.8186 4.00581 16.8191 4.00581 16.8191L4.00572 16.1526C4.045 16.1726 4.08462 16.1894 4.12389 16.203C4.46807 16.3227 4.82772 16.2401 5.0191 15.9986C5.11226 15.8805 5.29229 15.5492 4.9549 15.0203C4.87644 14.897 4.71342 14.8609 4.5901 14.9393C4.46704 15.0178 4.4312 15.1813 4.50958 15.3041C4.63625 15.5033 4.63986 15.6261 4.60454 15.671C4.56277 15.7241 4.43326 15.752 4.29722 15.704C4.20948 15.6735 4.00572 15.5683 4.00572 15.2504C4.00572 14.9965 4.12312 14.7638 4.32773 14.6126C4.53287 14.461 4.79833 14.4182 5.05425 14.4976C5.37033 14.5941 5.59084 14.9269 5.59084 15.3072C5.59084 15.5791 5.53258 15.8542 5.42189 16.1029L3.74155 19.8835L2.06122 16.1029ZM4.00487 22.1194C3.90483 22.1972 3.81623 22.2903 3.74155 22.3956C3.66687 22.2903 3.57827 22.1972 3.47824 22.1194C3.57827 22.0415 3.66687 21.9484 3.74155 21.8432C3.81615 21.9484 3.90483 22.0415 4.00487 22.1194ZM2.06122 28.1359L3.74155 24.3553L5.42189 28.1359C5.53258 28.3846 5.59084 28.6596 5.59084 28.9315C5.59084 29.3118 5.37024 29.6447 5.05425 29.7412C4.79781 29.8212 4.53261 29.7778 4.32773 29.6261C4.12312 29.4749 4.00572 29.2422 4.00572 28.9884C4.00572 28.6705 4.20957 28.5653 4.29722 28.5348C4.43318 28.4873 4.56269 28.5147 4.60454 28.5678C4.63986 28.6126 4.63625 28.7354 4.50958 28.9346C4.43112 29.0575 4.46704 29.221 4.5901 29.2994C4.71419 29.3779 4.87696 29.3417 4.9549 29.2184C5.29238 28.6896 5.11226 28.3583 5.0191 28.2401C4.82763 27.9986 4.46807 27.9165 4.12389 28.0357C4.08462 28.0493 4.045 28.0662 4.00572 28.0861V27.4178L4.00624 27.4185C4.01423 27.5573 4.1293 27.6672 4.2699 27.6672C4.4159 27.6672 4.53407 27.5491 4.53407 27.4031C4.53407 27.2308 4.41358 26.9319 4.00572 26.8392V26.3463C4.00572 26.2003 3.88756 26.0821 3.74155 26.0821C3.59554 26.0821 3.47738 26.2003 3.47738 26.3463V26.8392C3.06952 26.9319 2.94904 27.2308 2.94904 27.4031C2.94904 27.5491 3.06694 27.676 3.21269 27.676C3.3587 27.676 3.47635 27.5666 3.47635 27.4206C3.47644 27.4201 3.47721 27.4196 3.47721 27.4196L3.47738 28.086C3.43811 28.0661 3.39849 28.0492 3.35922 28.0357C3.01504 27.9165 2.65513 27.9985 2.46401 28.24C2.37085 28.3582 2.19081 28.6895 2.52829 29.2183C2.60675 29.3411 2.76977 29.3767 2.89309 29.2994C3.01615 29.2209 3.05199 29.0574 2.97362 28.9346C2.84694 28.7354 2.84333 28.6126 2.87865 28.5677C2.92016 28.5146 3.04976 28.4872 3.18597 28.5347C3.27371 28.5651 3.47747 28.6704 3.47747 28.9883C3.47747 29.2421 3.36008 29.4748 3.15546 29.626C2.95033 29.7777 2.68538 29.8211 2.42894 29.7411C2.11287 29.6446 1.89235 29.3118 1.89235 28.9315C1.89218 28.6596 1.95053 28.3846 2.06122 28.1359ZM4.00744 30.045C3.90312 30.1232 3.81744 30.219 3.74155 30.3221C3.66567 30.219 3.5799 30.1232 3.47566 30.045C3.57999 29.9668 3.66567 29.8711 3.74155 29.768C3.81735 29.8711 3.90312 29.9668 4.00744 30.045ZM2.06122 31.9542C1.95053 31.7055 1.89226 31.4304 1.89226 31.1585C1.89226 30.7783 2.11287 30.4454 2.42886 30.3489C2.68555 30.2694 2.9505 30.3123 3.15537 30.464C3.35999 30.6152 3.47738 30.8479 3.47738 31.1017C3.47738 31.4196 3.27354 31.5249 3.18588 31.5553C3.04967 31.6027 2.92016 31.5754 2.87857 31.5223C2.84325 31.4774 2.84686 31.3546 2.97353 31.1554C3.05199 31.0326 3.01607 30.8691 2.89301 30.7906C2.76969 30.7132 2.60692 30.7494 2.5282 30.8717C2.19072 31.4006 2.37085 31.7318 2.46392 31.85C2.65513 32.0915 3.01504 32.1746 3.35913 32.0543C3.3984 32.0407 3.43802 32.0239 3.4773 32.004V32.6722C3.47721 32.672 3.47687 32.6717 3.47687 32.6717C3.46879 32.5327 3.35372 32.4228 3.21312 32.4228C3.06712 32.4228 2.94895 32.5409 2.94895 32.6869C2.94895 32.8593 3.06944 33.1581 3.4773 33.2508V33.7437C3.4773 33.8897 3.59546 34.0079 3.74147 34.0079C3.88747 34.0079 4.00564 33.8897 4.00564 33.7437V33.2508C4.4135 33.1581 4.53398 32.8592 4.53398 32.6869C4.53398 32.5409 4.41608 32.414 4.27033 32.414C4.12432 32.414 4.00667 32.5234 4.00667 32.6694C4.00658 32.6699 4.00581 32.6704 4.00564 32.6709V32.004C4.04491 32.0239 4.08453 32.0408 4.1238 32.0543C4.46798 32.1746 4.82763 32.0915 5.01901 31.85C5.11217 31.7318 5.29221 31.4005 4.95482 30.8717C4.87636 30.7489 4.71333 30.7128 4.59001 30.7906C4.46695 30.8691 4.43112 31.0326 4.50949 31.1554C4.63616 31.3546 4.63977 31.4774 4.60445 31.5223C4.56269 31.5754 4.43318 31.6028 4.29714 31.5553C4.2094 31.5249 4.00564 31.4196 4.00564 31.1017C4.00564 30.8479 4.12303 30.6152 4.32765 30.464C4.53278 30.3123 4.79824 30.2689 5.05416 30.3489C5.37024 30.4454 5.59076 30.7783 5.59076 31.1585C5.59076 31.4304 5.53249 31.7055 5.4218 31.9542L3.74147 35.7348L2.06122 31.9542ZM3.74155 38.2468C3.66687 38.1416 3.57827 38.0485 3.47824 37.9706C3.57827 37.8928 3.66687 37.7997 3.74155 37.6944C3.81623 37.7997 3.90483 37.8928 4.00487 37.9706C3.90483 38.0485 3.81615 38.1416 3.74155 38.2468Z" fill="#FFE15A"/>
<path d="M23.2292 24.597C25.9991 24.597 28.2445 22.3516 28.2445 19.5817C28.2445 16.8118 25.9991 14.5664 23.2292 14.5664C20.4593 14.5664 18.2139 16.8118 18.2139 19.5817C18.2139 22.3516 20.4593 24.597 23.2292 24.597Z" fill="#FFE15A"/>
<path d="M23.6048 13.1865C23.6048 13.3942 23.4364 13.5627 23.2287 13.5627C23.021 13.5627 22.8525 13.3942 22.8525 13.1865C22.8525 12.9788 23.2287 12.058 23.2287 12.058C23.2287 12.058 23.6048 12.9788 23.6048 13.1865Z" fill="#FFE15A"/>
<path d="M22.8525 25.9762C22.8525 25.7685 23.021 25.6001 23.2287 25.6001C23.4365 25.6001 23.6048 25.7685 23.6048 25.9762C23.6048 26.184 23.2287 27.1048 23.2287 27.1048C23.2287 27.1048 22.8525 26.184 22.8525 25.9762Z" fill="#FFE15A"/>
<path d="M29.6232 19.9576C29.4155 19.9576 29.2471 19.7892 29.2471 19.5815C29.2471 19.3737 29.4155 19.2053 29.6232 19.2053C29.831 19.2053 30.7518 19.5815 30.7518 19.5815C30.7518 19.5815 29.831 19.9576 29.6232 19.9576Z" fill="#FFE15A"/>
<path d="M16.8336 19.2052C17.0413 19.2052 17.2098 19.3737 17.2098 19.5814C17.2098 19.7891 17.0413 19.9575 16.8336 19.9575C16.6259 19.9575 15.7051 19.5814 15.7051 19.5814C15.7051 19.5814 16.6259 19.2052 16.8336 19.2052Z" fill="#FFE15A"/>
<path d="M28.0166 15.3256C27.8698 15.4724 27.6315 15.4724 27.4847 15.3256C27.3378 15.1787 27.3378 14.9405 27.4847 14.7936C27.6315 14.6467 28.5487 14.2617 28.5487 14.2617C28.5487 14.2617 28.1636 15.1786 28.0166 15.3256Z" fill="#FFE15A"/>
<path d="M18.4412 23.8373C18.5881 23.6904 18.8263 23.6904 18.9732 23.8373C19.12 23.9842 19.12 24.2224 18.9732 24.3692C18.8263 24.5161 17.9092 24.9012 17.9092 24.9012C17.9092 24.9012 18.2944 23.9842 18.4412 23.8373Z" fill="#FFE15A"/>
<path d="M27.4847 24.3692C27.3378 24.2224 27.3378 23.9841 27.4847 23.8373C27.6315 23.6904 27.8698 23.6904 28.0166 23.8373C28.1635 23.9842 28.5486 24.9013 28.5486 24.9013C28.5486 24.9013 27.6315 24.5162 27.4847 24.3692Z" fill="#FFE15A"/>
<path d="M18.9731 14.7935C19.12 14.9404 19.12 15.1786 18.9731 15.3255C18.8262 15.4724 18.588 15.4724 18.4411 15.3255C18.2943 15.1786 17.9092 14.2615 17.9092 14.2615C17.9092 14.2615 18.8262 14.6467 18.9731 14.7935Z" fill="#FFE15A"/>
<path d="M21.129 13.5294C21.2085 13.7214 21.1174 13.9414 20.9254 14.0209C20.7335 14.1004 20.5134 14.0093 20.4339 13.8173C20.3544 13.6254 20.3496 12.6307 20.3496 12.6307C20.3496 12.6307 21.0494 13.3374 21.129 13.5294Z" fill="#FFE15A"/>
<path d="M25.3285 25.6334C25.249 25.4415 25.3401 25.2215 25.5321 25.142C25.724 25.0625 25.9441 25.1536 26.0236 25.3456C26.1031 25.5374 26.1079 26.5321 26.1079 26.5321C26.1079 26.5321 25.408 25.8253 25.3285 25.6334Z" fill="#FFE15A"/>
<path d="M29.2805 17.4817C29.0886 17.5612 28.8685 17.4701 28.789 17.2782C28.7095 17.0862 28.8006 16.8662 28.9926 16.7867C29.1845 16.7072 30.1791 16.7024 30.1791 16.7024C30.1791 16.7024 29.4724 17.4023 29.2805 17.4817Z" fill="#FFE15A"/>
<path d="M17.1765 21.6811C17.3684 21.6016 17.5885 21.6927 17.668 21.8847C17.7474 22.0766 17.6564 22.2967 17.4644 22.3762C17.2725 22.4556 16.2778 22.4605 16.2778 22.4605C16.2778 22.4605 16.9845 21.7606 17.1765 21.6811Z" fill="#FFE15A"/>
<path d="M26.0236 13.8173C25.9441 14.0093 25.724 14.1004 25.5321 14.0209C25.3402 13.9414 25.249 13.7213 25.3285 13.5294C25.408 13.3375 26.1079 12.6307 26.1079 12.6307C26.1079 12.6307 26.1031 13.6253 26.0236 13.8173Z" fill="#FFE15A"/>
<path d="M20.4339 25.3456C20.5134 25.1536 20.7335 25.0625 20.9254 25.142C21.1173 25.2215 21.2085 25.4415 21.129 25.6334C21.0495 25.8253 20.3496 26.5321 20.3496 26.5321C20.3496 26.5321 20.3543 25.5374 20.4339 25.3456Z" fill="#FFE15A"/>
<path d="M28.9926 22.3761C28.8007 22.2966 28.7095 22.0766 28.789 21.8847C28.8685 21.6928 29.0886 21.6016 29.2805 21.6811C29.4724 21.7606 30.1791 22.4604 30.1791 22.4604C30.1791 22.4604 29.1845 22.4556 28.9926 22.3761Z" fill="#FFE15A"/>
<path d="M17.4644 16.7867C17.6563 16.8662 17.7474 17.0863 17.668 17.2782C17.5885 17.4701 17.3684 17.5612 17.1765 17.4817C16.9845 17.4023 16.2778 16.7024 16.2778 16.7024C16.2778 16.7024 17.2724 16.7072 17.4644 16.7867Z" fill="#FFE15A"/>
<path d="M22.35 13.236C22.3906 13.4398 22.2582 13.6378 22.0545 13.6783C21.8507 13.7189 21.6527 13.5865 21.6121 13.3828C21.5716 13.179 21.7609 12.2026 21.7609 12.2026C21.7609 12.2026 22.3094 13.0323 22.35 13.236Z" fill="#FFE15A"/>
<path d="M24.1074 25.9267C24.0668 25.723 24.1992 25.525 24.4029 25.4844C24.6067 25.4439 24.8047 25.5762 24.8453 25.78C24.8858 25.9837 24.6965 26.9601 24.6965 26.9601C24.6965 26.9601 24.148 26.1305 24.1074 25.9267Z" fill="#FFE15A"/>
<path d="M29.5737 18.7028C29.3699 18.7433 29.1719 18.611 29.1313 18.4072C29.0908 18.2035 29.2231 18.0054 29.4269 17.9649C29.6306 17.9243 30.6071 18.1137 30.6071 18.1137C30.6071 18.1137 29.7774 18.6623 29.5737 18.7028Z" fill="#FFE15A"/>
<path d="M16.8835 20.4601C17.0873 20.4195 17.2853 20.5519 17.3258 20.7556C17.3664 20.9594 17.234 21.1574 17.0303 21.198C16.8265 21.2385 15.8501 21.0492 15.8501 21.0492C15.8501 21.0492 16.6797 20.5006 16.8835 20.4601Z" fill="#FFE15A"/>
<path d="M27.0942 14.4732C26.9788 14.646 26.7452 14.6925 26.5725 14.5771C26.3998 14.4616 26.3533 14.2281 26.4687 14.0553C26.5841 13.8826 27.4084 13.326 27.4084 13.326C27.4084 13.326 27.2096 14.3005 27.0942 14.4732Z" fill="#FFE15A"/>
<path d="M19.363 24.6896C19.4784 24.5169 19.712 24.4704 19.8847 24.5858C20.0575 24.7012 20.104 24.9348 19.9886 25.1075C19.8731 25.2802 19.0488 25.8369 19.0488 25.8369C19.0488 25.8369 19.2476 24.8623 19.363 24.6896Z" fill="#FFE15A"/>
<path d="M28.3367 23.4469C28.1639 23.3315 28.1174 23.0979 28.2329 22.9252C28.3483 22.7525 28.5818 22.706 28.7546 22.8214C28.9273 22.9368 29.4839 23.7611 29.4839 23.7611C29.4839 23.7611 28.5094 23.5624 28.3367 23.4469Z" fill="#FFE15A"/>
<path d="M18.1209 15.7158C18.2936 15.8312 18.3401 16.0648 18.2247 16.2376C18.1093 16.4103 17.8757 16.4568 17.703 16.3414C17.5302 16.2259 16.9736 15.4016 16.9736 15.4016C16.9736 15.4016 17.9482 15.6004 18.1209 15.7158Z" fill="#FFE15A"/>
<path d="M19.9886 14.0553C20.104 14.2281 20.0575 14.4616 19.8847 14.5771C19.712 14.6925 19.4784 14.646 19.363 14.4732C19.2476 14.3005 19.0488 13.326 19.0488 13.326C19.0488 13.326 19.8731 13.8825 19.9886 14.0553Z" fill="#FFE15A"/>
<path d="M26.4687 25.1075C26.3533 24.9348 26.3998 24.7012 26.5725 24.5858C26.7452 24.4704 26.9788 24.5169 27.0942 24.6896C27.2096 24.8623 27.4084 25.8369 27.4084 25.8369C27.4084 25.8369 26.5841 25.2802 26.4687 25.1075Z" fill="#FFE15A"/>
<path d="M28.7551 16.3414C28.5823 16.4568 28.3488 16.4103 28.2333 16.2376C28.1179 16.0648 28.1644 15.8312 28.3372 15.7158C28.5099 15.6004 29.4844 15.4016 29.4844 15.4016C29.4844 15.4016 28.9278 16.2259 28.7551 16.3414Z" fill="#FFE15A"/>
<path d="M17.7025 22.8214C17.8752 22.706 18.1088 22.7525 18.2242 22.9252C18.3396 23.0979 18.2931 23.3315 18.1204 23.4469C17.9477 23.5624 16.9731 23.7611 16.9731 23.7611C16.9731 23.7611 17.5298 22.9368 17.7025 22.8214Z" fill="#FFE15A"/>
<path d="M24.8453 13.3828C24.8047 13.5865 24.6067 13.7189 24.4029 13.6783C24.1992 13.6378 24.0668 13.4398 24.1074 13.236C24.148 13.0323 24.6965 12.2026 24.6965 12.2026C24.6965 12.2026 24.8857 13.179 24.8453 13.3828Z" fill="#FFE15A"/>
<path d="M21.6121 25.7801C21.6527 25.5763 21.8507 25.444 22.0545 25.4845C22.2582 25.5251 22.3906 25.7231 22.35 25.9268C22.3094 26.1306 21.7609 26.9602 21.7609 26.9602C21.7609 26.9602 21.5716 25.9838 21.6121 25.7801Z" fill="#FFE15A"/>
<path d="M29.4269 21.1979C29.2231 21.1574 29.0908 20.9594 29.1313 20.7556C29.1719 20.5519 29.3699 20.4195 29.5737 20.4601C29.7774 20.5007 30.6071 21.0492 30.6071 21.0492C30.6071 21.0492 29.6306 21.2384 29.4269 21.1979Z" fill="#FFE15A"/>
<path d="M17.0303 17.9649C17.234 18.0055 17.3664 18.2035 17.3258 18.4072C17.2853 18.611 17.0873 18.7433 16.8835 18.7028C16.6797 18.6622 15.8501 18.1137 15.8501 18.1137C15.8501 18.1137 16.8265 17.9243 17.0303 17.9649Z" fill="#FFE15A"/>
<path d="M35.0264 20.901C34.8795 20.8392 34.7115 20.91 34.6503 21.0561C34.6503 21.0567 34.6503 21.0567 34.6503 21.0567C34.6492 21.0595 34.6436 21.073 34.6337 21.096C34.4163 21.6038 33.9666 22.346 33.5124 23.0442C33.9354 21.6825 34.3222 20.228 34.3492 20.1258C34.3897 19.973 34.2992 19.8162 34.1466 19.7746C33.9938 19.7336 33.8368 19.8224 33.7941 19.9746C33.5966 20.6819 33.193 21.6128 32.8205 22.4009C32.8888 21.5223 32.9017 20.7083 32.9025 20.6493C32.9047 20.4937 32.7829 20.365 32.6272 20.3577C32.4809 20.3622 32.3396 20.4689 32.3281 20.6246C31.9599 25.6907 27.0851 27.9568 26.6104 28.1652C26.3621 28.19 25.2054 28.3203 24.1554 28.6849C24.0363 28.7263 23.9351 28.7677 23.834 28.8087C23.7966 28.7947 23.7563 28.7868 23.7139 28.7894C20.4916 29.0226 17.9223 27.7007 16.0758 24.8688C14.6806 22.729 14.243 20.483 14.2388 20.4605C14.2093 20.3044 14.0598 20.2038 13.9028 20.2313C13.7467 20.261 13.6442 20.4111 13.6736 20.5672C13.6853 20.6292 13.8772 21.6096 14.4061 22.8998C13.6987 21.783 13.2057 20.4301 13.0321 19.7257C13.0287 19.7116 13.0197 19.7009 13.0143 19.6878C13.0063 19.6679 12.9994 19.648 12.9874 19.6307C12.9789 19.6185 12.9679 19.6096 12.9578 19.599C12.9421 19.5824 12.9269 19.5662 12.9079 19.5538C12.8969 19.5466 12.8845 19.5431 12.8726 19.5375C12.8513 19.5277 12.8306 19.5179 12.807 19.5135C12.7906 19.5103 12.7738 19.5124 12.7569 19.5121C12.7397 19.5119 12.7233 19.5075 12.7057 19.5106C12.7019 19.5112 12.6989 19.5137 12.6951 19.5146C12.6914 19.5153 12.6878 19.5141 12.6841 19.515C12.6687 19.5188 12.6569 19.5284 12.6428 19.5344C12.6249 19.5422 12.6065 19.548 12.5907 19.5589C12.5753 19.5696 12.5638 19.5834 12.5508 19.5968C12.538 19.61 12.5244 19.6216 12.5143 19.6369C12.5041 19.6524 12.4985 19.6699 12.4914 19.6872C12.4844 19.704 12.4764 19.7198 12.4728 19.738C12.469 19.7567 12.4707 19.7758 12.4708 19.7952C12.4708 19.8107 12.4666 19.8255 12.4692 19.8414C12.4703 19.8481 12.4726 19.855 12.4737 19.8617V19.8627C12.474 19.864 12.4745 19.8656 12.4748 19.8668C12.6527 20.9151 13.0768 22.0019 13.4602 22.8306C12.8512 22.1396 12.3426 21.3436 12.1622 20.8722C12.1569 20.8585 12.1465 20.8489 12.1395 20.8366C12.1287 20.8175 12.1195 20.7981 12.105 20.7823C12.0949 20.7712 12.0823 20.7639 12.0707 20.7545C12.0533 20.7405 12.0366 20.7262 12.0164 20.7166C12.0034 20.7104 11.9894 20.7084 11.9757 20.7042C11.9545 20.6978 11.9339 20.6907 11.9113 20.6894C11.8935 20.6882 11.876 20.6927 11.858 20.695C11.8415 20.6972 11.825 20.695 11.8085 20.7002C11.8053 20.7012 11.8031 20.7037 11.8 20.7048C11.7969 20.7058 11.7938 20.7053 11.7908 20.7064C11.7751 20.7124 11.764 20.7239 11.75 20.7322C11.7336 20.742 11.7162 20.7499 11.7022 20.7624C11.6879 20.7753 11.6781 20.7911 11.6668 20.8064C11.6562 20.8208 11.6442 20.8337 11.6364 20.8497C11.6282 20.8666 11.6252 20.8849 11.6203 20.9029C11.6156 20.9206 11.6093 20.9372 11.6081 20.9558C11.6068 20.9743 11.6114 20.9928 11.6139 21.0117C11.616 21.028 11.6138 21.0441 11.6189 21.0603C11.9318 22.0698 12.6846 23.2708 13.2741 24.1169C12.7828 23.7383 12.4216 23.3287 12.3169 23.2051C12.3056 23.1916 12.2944 23.1781 12.2832 23.1646C12.1818 23.0427 12.0026 23.0253 11.8798 23.1247C11.7573 23.2248 11.7382 23.4045 11.8371 23.5275C11.8424 23.5342 11.8641 23.5612 11.9 23.6034C12.3314 24.1169 12.8016 24.5961 13.2275 25.0006L12.6449 24.7523C12.512 24.695 12.3559 24.7467 12.2831 24.8731C12.2104 24.9995 12.2432 25.1596 12.3597 25.2472C12.4165 25.2893 13.4481 26.0601 14.3414 26.5157C14.2571 26.5207 14.1582 26.5146 14.0476 26.5061C13.9125 26.4932 13.7796 26.5898 13.7467 26.7269C13.7144 26.8646 13.7863 27.005 13.9169 27.0589C13.9388 27.0679 14.211 27.1802 14.5472 27.2998C14.4688 27.3319 14.4065 27.3976 14.3807 27.483C14.3419 27.6105 14.3964 27.7487 14.5121 27.815C14.5422 27.8324 14.949 28.0656 15.4519 28.2722C15.4385 28.293 15.4275 28.3155 15.4194 28.3402C15.38 28.461 15.425 28.5936 15.5298 28.6661C15.6171 28.7262 17.5707 30.052 19.8524 30.052C20.0021 30.052 20.1535 30.0464 20.3057 30.034C20.4638 30.0217 20.5821 29.8829 20.5694 29.7245C20.5568 29.5661 20.4195 29.4464 20.2596 29.461C18.8263 29.5779 17.4454 29.0397 16.6241 28.6284C16.7326 28.6021 16.7949 28.5779 16.8104 28.5717C16.937 28.5201 17.0101 28.3869 16.9853 28.2526C16.9606 28.1184 16.8449 28.0201 16.7081 28.0173C16.3747 28.0106 15.9129 27.8481 15.5152 27.674C15.6655 27.5987 15.7531 27.5268 15.761 27.5206C15.8475 27.4482 15.884 27.3324 15.8545 27.2235C15.8247 27.115 15.7343 27.0335 15.623 27.0156C15.5008 26.9954 15.3487 26.956 15.1891 26.9077C15.3441 26.8184 15.4101 26.7201 15.4354 26.6701C15.4753 26.5903 15.4762 26.4971 15.4379 26.4168C15.3994 26.3364 15.3261 26.2786 15.2391 26.26C15.1638 26.2437 15.0787 26.2162 14.9866 26.1803C15.0034 26.1634 15.0189 26.1443 15.0315 26.1224C15.1048 25.9982 15.0745 25.8387 14.9607 25.7494C14.9548 25.7449 14.7315 25.5696 14.3936 25.278C14.4473 25.2583 14.4948 25.2218 14.529 25.1724C14.6014 25.0679 14.5964 24.928 14.5169 24.8291C14.5105 24.8212 14.2869 24.5401 13.9788 24.1132C14.0805 24.1922 14.1822 24.2729 14.2837 24.3381C14.3315 24.3684 14.3856 24.3836 14.4393 24.3836C14.512 24.3836 14.584 24.3561 14.6393 24.3028C14.6621 24.2808 14.6799 24.2554 14.6939 24.2284C14.8683 24.4148 15.0517 24.5841 15.2443 24.7286C15.2694 24.7474 15.2998 24.747 15.3281 24.7564C15.4097 24.8932 15.4947 25.0303 15.5836 25.1673C17.3302 27.8547 19.7929 29.2943 22.7468 29.3807C22.4748 29.5458 22.1796 29.7165 21.712 29.8985C21.61 29.9382 21.5198 29.9782 21.4291 30.0181C21.3853 30.0266 21.3443 30.0425 21.31 30.0696C20.494 30.4474 20.1562 30.8205 20.019 31.0816C19.8822 31.3412 20.0002 31.6075 20.1673 31.7457C20.2193 31.7884 20.2853 31.8103 20.3516 31.8103C20.397 31.8103 20.4426 31.8001 20.4839 31.7793C20.5856 31.7288 20.6536 31.6215 20.6491 31.5086C20.6609 31.4957 20.7109 31.4541 20.8676 31.449C20.9819 31.4395 21.2224 31.4653 21.503 31.4878C21.7699 31.5098 22.0901 31.5347 22.4306 31.5522C22.2176 31.8005 21.9701 32.0883 21.9701 32.0883C21.8956 32.1748 21.8793 32.2973 21.9288 32.4001C21.9786 32.5035 22.0855 32.5675 22.1979 32.5635C22.4251 32.5556 22.5796 32.5512 22.681 32.5489C22.7695 32.6647 22.8779 32.7107 22.9478 32.7287C23.1456 32.7792 23.3427 32.7001 23.4913 32.6062C23.6036 32.6871 23.716 32.7214 23.8051 32.7343C24.0059 32.7618 24.1919 32.7034 24.3264 32.6371C24.4657 32.727 24.6022 32.75 24.7061 32.75C24.7075 32.75 24.7092 32.75 24.7109 32.75C24.9353 32.7489 25.1316 32.6404 25.2707 32.5343C25.3934 32.6074 25.5108 32.6309 25.6015 32.6349C25.8074 32.6422 25.9782 32.5629 26.0917 32.4888C26.497 32.5702 26.8464 32.3792 27.0773 32.1686C27.1827 32.2298 27.283 32.245 27.3627 32.241C27.568 32.2337 27.7245 32.109 27.8248 31.9972C28.2843 32.0528 28.614 31.968 28.8048 31.7416C28.9087 31.6186 28.9509 31.4799 28.9624 31.3534C30.2374 31.3461 30.3528 30.6501 30.3621 30.5642C30.3705 30.4861 30.3466 30.408 30.2958 30.3479C30.2453 30.2878 30.172 30.2507 30.0936 30.2462L26.7511 30.0451C26.6112 30.035 26.4865 30.1288 26.4539 30.2654C26.4533 30.2676 26.3963 30.48 26.2179 30.6496C25.978 30.8786 25.5917 30.9997 25.1714 31.0637C25.173 31.0252 25.1675 30.9861 25.1528 30.9479C25.0955 30.7996 24.9287 30.7276 24.7809 30.7833C24.0908 31.0511 22.9735 31.0174 22.0995 30.9566C22.2336 30.8469 22.3949 30.7386 22.5239 30.6677C22.6329 30.6076 22.6913 30.4845 22.6683 30.3621C22.6515 30.2731 22.5873 30.2112 22.5097 30.1714C22.7528 30.0487 22.952 29.9301 23.141 29.8148C23.4691 29.6137 23.7792 29.4244 24.3438 29.2283C25.4337 28.8496 26.6948 28.7345 26.7074 28.7334C26.7361 28.7311 26.7642 28.7238 26.7909 28.7132C26.8358 28.6946 30.3932 27.2043 32.0693 23.7657C32.0474 23.8696 32.0238 23.9645 31.9983 24.0477C31.9544 24.1893 32.0253 24.3404 32.1617 24.3977C32.2673 24.4421 32.3873 24.4191 32.4684 24.3438C32.3626 24.623 32.2667 24.8426 32.1887 24.9724C32.109 25.1044 32.1475 25.2758 32.2758 25.3612C32.3058 25.3809 32.3382 25.3944 32.3712 25.4022C32.2415 25.5921 32.11 25.7718 31.9788 25.9365C31.8914 26.046 31.8965 26.2022 31.9879 26.3056C31.7626 26.5415 31.5629 26.7358 31.4112 26.8594C31.3121 26.9398 31.2797 27.074 31.3253 27.1886C31.1789 27.2724 31.0587 27.3313 30.9753 27.3566C30.8354 27.3987 30.7494 27.5397 30.7758 27.6836C30.7896 27.7594 30.8323 27.8235 30.8912 27.8656C30.7154 27.9128 30.523 27.9583 30.314 27.9998C30.1962 28.0234 30.1056 28.1172 30.0862 28.2357C30.0671 28.3542 30.1232 28.4722 30.2274 28.5318C30.2365 28.5368 30.3347 28.5924 30.485 28.6565C29.9286 28.8806 28.935 29.1733 27.3048 29.334C27.1469 29.3497 27.0312 29.4907 27.047 29.6486C27.0625 29.8065 27.1989 29.916 27.3616 29.907C30.4564 29.6008 31.412 28.8262 31.451 28.793C31.5403 28.7183 31.5757 28.5964 31.5403 28.4852C31.5167 28.4116 31.465 28.3521 31.3988 28.3178C32.3875 28.0066 32.8119 27.6622 32.8341 27.6437C32.9426 27.5538 32.9698 27.3982 32.8985 27.2763C32.8265 27.1544 32.6768 27.1016 32.5462 27.1544C32.5094 27.1684 32.4507 27.183 32.3766 27.1976C33.04 26.7431 33.7445 26.2021 34.0543 25.9605C34.1088 25.92 34.1582 25.8813 34.2018 25.8448C34.322 25.7436 34.3389 25.565 34.2397 25.4431C34.1411 25.3217 33.9616 25.3015 33.8386 25.3987C33.7937 25.4341 33.7471 25.4707 33.6987 25.5083C33.5557 25.6145 33.3728 25.7347 33.1735 25.8583C33.9265 25.0033 34.6846 24.0764 34.9012 23.8101C34.9208 23.7859 34.9402 23.7618 34.9598 23.7377C35.0593 23.6141 35.0399 23.4332 34.9163 23.3337C34.7924 23.2326 34.6112 23.2534 34.5121 23.3765L34.5115 23.3771L34.5113 23.3777C34.5059 23.3838 34.4814 23.4142 34.4404 23.4647C34.2135 23.7417 33.9747 24.0096 33.7391 24.2602C34.5062 22.8698 35.087 21.5013 35.1722 21.2985C35.1753 21.2912 35.1781 21.2839 35.1812 21.2766C35.2423 21.1302 35.173 20.9617 35.0264 20.901ZM21.5453 30.5967L21.6238 30.6068C21.5275 30.6968 21.4491 30.7979 21.3868 30.902C21.2502 30.891 21.1263 30.8814 21.0292 30.877C21.163 30.7896 21.3352 30.6947 21.5453 30.5967Z" fill="#FFE15A"/>
</svg>
