<svg width="44" height="44" viewBox="0 0 44 44" fill="none" xmlns="http://www.w3.org/2000/svg">
<g clip-path="url(#clip0)">
<path d="M43.903 24.0577H0.0996094V24.0583H43.903V24.0577Z" fill="#C42126"/>
<path d="M41.6196 12.0479H2.38086V12.0485H41.6196V12.0479Z" fill="#C42126"/>
<path d="M43.1793 16.0505H0.821289V16.0512H43.1793V16.0505Z" fill="#C42126"/>
<path d="M9.45598 40.0692H34.5452L34.5465 40.0678H9.45459L9.45598 40.0692Z" fill="#C42126"/>
<path d="M22.0007 0C21.5686 0 21.1399 0.0156056 20.7144 0.0399428H23.2873C22.8614 0.0156056 22.4328 0 22.0007 0Z" fill="#C42126"/>
<path d="M43.9086 20.0541H0.0913086V20.0547H43.9086V20.0541Z" fill="#C42126"/>
<path d="M28.5024 8.04513H39.0075C37.7597 6.5261 36.3095 5.18142 34.7029 4.04305H26.8145C27.4672 5.19145 28.0285 6.54653 28.5024 8.04513Z" fill="#E7E7E7"/>
<path d="M26.8141 4.04305H34.7026C31.4415 1.73204 27.5262 0.284806 23.2862 0.0399475H22.6089C24.6045 0.291123 25.5212 1.76808 26.8141 4.04305Z" fill="#DC3027"/>
<path d="M43.1793 16.0509C42.7882 14.6559 42.2636 13.3174 41.619 12.0488H29.5332C29.7781 13.3337 29.9713 14.6759 30.1143 16.0509H43.1793Z" fill="#E7E7E7"/>
<path d="M28.8542 12.0481H41.6194C40.892 10.6174 40.018 9.27472 39.0079 8.04541H27.8569C28.2501 9.29005 28.584 10.6327 28.8542 12.0481Z" fill="#DC3027"/>
<path d="M30.5776 24.0567H43.901C43.9642 23.3797 44 22.6937 44 22.0003C44 21.3441 43.9656 20.6963 43.9093 20.0544H30.5808C30.6242 21.3855 30.6234 22.7264 30.5776 24.0567Z" fill="#E7E7E7"/>
<path d="M43.9093 20.0537C43.7888 18.6791 43.5411 17.3418 43.1795 16.0516H29.5532C29.6901 17.3622 29.7804 18.7031 29.8246 20.0537H43.9093Z" fill="#DC3027"/>
<path d="M29.3037 32.0626H41.5617C42.2155 30.7954 42.7483 29.4559 43.1478 28.0598H29.8964C29.7504 29.4369 29.5524 30.7787 29.3037 32.0626Z" fill="#E7E7E7"/>
<path d="M43.1477 28.0596C43.5169 26.7698 43.7733 25.4324 43.9008 24.0575H30.1619C30.115 25.4091 30.0219 26.7496 29.8823 28.0596H43.1477Z" fill="#DC3027"/>
<path d="M34.5458 40.0678C36.1757 38.9339 37.6464 37.5879 38.914 36.0657H28.5919C28.1095 37.5705 27.5366 38.9234 26.8721 40.0678H34.5458Z" fill="#E7E7E7"/>
<path d="M28.2036 36.0654H38.9141C39.936 34.8375 40.8232 33.4949 41.5613 32.0627H29.2134C28.9394 33.4792 28.6021 34.8224 28.2036 36.0654Z" fill="#DC3027"/>
<path d="M21.2022 43.9844C21.1577 43.983 21.1133 43.981 21.0688 43.9796C21.1133 43.9809 21.1578 43.983 21.2022 43.9844Z" fill="#DC3027"/>
<path d="M22 44C26.6641 44 30.9857 42.5441 34.5449 40.0692H26.5828C25.1697 42.5038 24.2374 44 22 44Z" fill="#DC3027"/>
<path d="M21.9998 44C21.7327 44 21.4673 43.9938 21.2026 43.9844C21.4701 43.9934 21.7357 44 21.9998 44Z" fill="#C42126"/>
<path d="M27.5429 4.04305H9.29768C7.69077 5.18142 6.24084 6.526 4.99268 8.04513H29.2304C28.7566 6.54653 28.1957 5.19145 27.5429 4.04305Z" fill="#F3F4F5"/>
<path d="M9.29785 4.04305H27.5431C26.2499 1.76808 24.6051 0.291123 22.6094 0.0399475H20.7138C16.4738 0.284806 12.5586 1.73204 9.29785 4.04305Z" fill="#E73625"/>
<path d="M0.820801 16.0509H30.8086C30.6654 14.6756 30.4723 13.3337 30.2275 12.0488H2.38117C1.73642 13.3175 1.21196 14.6559 0.820801 16.0509Z" fill="#F3F4F5"/>
<path d="M4.99298 8.04514C3.98354 9.27445 3.10889 10.617 2.38184 12.0479H30.2277C29.9578 10.6327 29.6241 9.29014 29.2308 8.04514C29.2308 8.04514 4.99298 8.04514 4.99298 8.04514Z" fill="#E73625"/>
<path d="M0 22.0003C0 22.6937 0.0361343 23.3797 0.0990211 24.0567H31.0771C31.123 22.7263 31.1236 21.3858 31.0803 20.0546H0.0906609C0.0343694 20.6963 0 21.3441 0 22.0003Z" fill="#F3F4F5"/>
<path d="M0.0913086 20.0537H31.0805C31.0364 18.7028 30.9458 17.3623 30.8092 16.0516H0.820776C0.459154 17.3421 0.211509 18.6791 0.0913086 20.0537Z" fill="#E73625"/>
<path d="M30.798 28.0596H0.852539C1.25206 29.456 1.78525 30.7951 2.43864 32.0623H30.2053C30.4541 30.7787 30.6517 29.4368 30.798 28.0596Z" fill="#F3F4F5"/>
<path d="M0.852183 28.0596H30.7976C30.9369 26.7496 31.0303 25.4088 31.0772 24.0575H0.0991211C0.226567 25.4327 0.483315 26.7698 0.852183 28.0596Z" fill="#E73625"/>
<path d="M9.4541 40.0678H27.4757C28.1402 38.9232 28.7133 37.5705 29.1955 36.0657H5.08594C6.35352 37.5879 7.82388 38.9339 9.4541 40.0678Z" fill="#F3F4F5"/>
<path d="M2.43896 32.0626C3.17716 33.4948 4.06427 34.8374 5.08625 36.0653H29.1958C29.594 34.8224 29.9312 33.4792 30.2053 32.0626H2.43896Z" fill="#E73625"/>
<path d="M21.0692 43.9795C21.1137 43.9809 21.1581 43.9829 21.2026 43.9843C21.4673 43.9937 21.7327 43.9999 21.9998 43.9999C24.2372 43.9999 26.0616 42.5038 27.475 40.0691H9.45557C12.7761 42.3785 16.7619 43.7999 21.0692 43.9795Z" fill="#E73625"/>
<path d="M21.5452 0.0114288C10.2714 0.240775 1.08266 8.94543 0.09375 20.0179H21.5456V0.0114288H21.5452Z" fill="#283991"/>
<path d="M4.40209 12.4647L4.73723 13.4967H5.82312L4.94466 14.1348L5.28018 15.1676L4.40209 14.5291L3.52427 15.1676L3.85914 14.1348L2.98096 13.4967H4.06684L4.40209 12.4647Z" fill="#EFEFEF"/>
<path d="M4.40209 16.1107L4.73723 17.1434H5.82312L4.94466 17.7815L5.28018 18.8143L4.40209 18.1757L3.52427 18.8143L3.85914 17.7815L2.98096 17.1434H4.06684L4.40209 16.1107Z" fill="#EFEFEF"/>
<path d="M8.04894 6.99428L8.38418 8.02666H9.4697L8.59151 8.66519L8.92675 9.6972L8.04894 9.05941L7.17076 9.6972L7.506 8.66519L6.62744 8.02666H7.71333L8.04894 6.99428Z" fill="#EFEFEF"/>
<path d="M8.04894 10.641L8.38418 11.6733H9.4697L8.59151 12.3111L8.92675 13.3439L8.04894 12.7061L7.17076 13.3439L7.506 12.3111L6.62744 11.6733H7.71333L8.04894 10.641Z" fill="#EFEFEF"/>
<path d="M8.04894 14.2877L8.38418 15.3204H9.4697L8.59151 15.9578L8.92675 16.9906L8.04894 16.3521L7.17076 16.9906L7.506 15.9578L6.62744 15.3204H7.71333L8.04894 14.2877Z" fill="#EFEFEF"/>
<path d="M1.63377 16.9906L1.29825 15.9578L2.17644 15.32H1.0912L1.06686 15.2447C0.947682 15.6133 0.840022 15.9863 0.740723 16.3636L0.75605 16.3521L1.63377 16.9906Z" fill="#EFEFEF"/>
<path d="M3.52411 11.5209L4.40192 10.8825L5.28011 11.5209L4.94459 10.4881L5.82277 9.84971H4.73688L4.40164 8.8177L4.0664 9.84971H3.66623C3.59192 9.9623 3.52002 10.0755 3.44775 10.1898L3.85907 10.4881L3.52411 11.5209Z" fill="#EFEFEF"/>
<path d="M8.04934 5.41273L8.92715 6.05051L8.59191 5.0185L9.46973 4.38007H8.84272C8.31018 4.77819 7.7964 5.19954 7.30278 5.64412L7.17041 6.05051L8.04934 5.41273Z" fill="#EFEFEF"/>
<path d="M10.8174 4.22753L11.6956 3.5891L12.5734 4.22753L12.2381 3.19478L13.1159 2.55699H12.0304L11.9849 2.41803C11.6171 2.60595 11.253 2.80148 10.8973 3.00955L11.1523 3.19468L10.8174 4.22753Z" fill="#EFEFEF"/>
<path d="M11.6958 5.1713L12.0311 6.20303H13.1166L12.2384 6.84146L12.5736 7.87421L11.6958 7.23569L10.8176 7.87421L11.1529 6.84146L10.2744 6.20303H11.3602L11.6958 5.1713Z" fill="#EFEFEF"/>
<path d="M11.6958 8.81799L12.0311 9.84973H13.1166L12.2384 10.4882L12.5736 11.5209L11.6958 10.8824L10.8176 11.5209L11.1529 10.4882L10.2744 9.84973H11.3602L11.6958 8.81799Z" fill="#EFEFEF"/>
<path d="M11.6958 12.4647L12.0311 13.4967H13.1166L12.2384 14.1348L12.5736 15.1676L11.6958 14.5291L10.8176 15.1676L11.1529 14.1348L10.2744 13.4967H11.3602L11.6958 12.4647Z" fill="#EFEFEF"/>
<path d="M11.6958 16.1107L12.0311 17.1434H13.1166L12.2384 17.7815L12.5736 18.8143L11.6958 18.1757L10.8176 18.8143L11.1529 17.7815L10.2744 17.1434H11.3602L11.6958 16.1107Z" fill="#EFEFEF"/>
<path d="M15.3428 3.34758L15.678 4.37996H16.7636L15.8857 5.01849L16.2206 6.05051L15.3428 5.41272L14.4643 6.05051L14.7999 5.01849L13.9214 4.37996H15.0072L15.3428 3.34758Z" fill="#EFEFEF"/>
<path d="M15.3428 6.99428L15.678 8.02666H16.7636L15.8857 8.66519L16.2206 9.6972L15.3428 9.05941L14.4643 9.6972L14.7999 8.66519L13.9214 8.02666H15.0072L15.3428 6.99428Z" fill="#EFEFEF"/>
<path d="M15.3428 10.641L15.678 11.6733H16.7636L15.8857 12.3111L16.2206 13.3439L15.3428 12.7061L14.4643 13.3439L14.7999 12.3111L13.9214 11.6733H15.0072L15.3428 10.641Z" fill="#EFEFEF"/>
<path d="M15.3428 14.2877L15.678 15.3204H16.7636L15.8857 15.9578L16.2206 16.9906L15.3428 16.3521L14.4643 16.9906L14.7999 15.9578L13.9214 15.3204H15.0072L15.3428 14.2877Z" fill="#EFEFEF"/>
<path d="M18.9888 1.52461L19.324 2.55699H20.4095L19.5314 3.19478L19.8666 4.22753L18.9888 3.58901L18.1103 4.22753L18.4458 3.19478L17.5674 2.55699H18.6529L18.9888 1.52461Z" fill="#EFEFEF"/>
<path d="M18.9888 5.1713L19.324 6.20303H20.4095L19.5314 6.84146L19.8666 7.87421L18.9888 7.23569L18.1103 7.87421L18.4458 6.84146L17.5674 6.20303H18.6529L18.9888 5.1713Z" fill="#EFEFEF"/>
<path d="M18.9888 8.81799L19.324 9.84973H20.4095L19.5314 10.4882L19.8666 11.5209L18.9888 10.8824L18.1103 11.5209L18.4458 10.4882L17.5674 9.84973H18.6529L18.9888 8.81799Z" fill="#EFEFEF"/>
<path d="M18.9888 12.4647L19.324 13.4967H20.4095L19.5314 14.1348L19.8666 15.1676L18.9888 14.5291L18.1103 15.1676L18.4458 14.1348L17.5674 13.4967H18.6529L18.9888 12.4647Z" fill="#EFEFEF"/>
<path d="M18.9888 16.1107L19.324 17.1434H20.4095L19.5314 17.7815L19.8666 18.8143L18.9888 18.1757L18.1103 18.8143L18.4458 17.7815L17.5674 17.1434H18.6529L18.9888 16.1107Z" fill="#EFEFEF"/>
</g>
<defs>
<clipPath id="clip0">
<rect width="44" height="44" fill="white"/>
</clipPath>
</defs>
</svg>
