<svg width="388" height="243" viewBox="0 0 388 243" fill="none" xmlns="http://www.w3.org/2000/svg">
<g clip-path="url(#clip0)">
<path d="M18.3371 103.836C18.3371 103.836 13.5923 103.494 14.0293 114.147C14.4659 124.8 15.5519 130.474 15.5519 130.474C15.5519 130.474 15.4123 132.836 13.5846 132.372C11.7568 131.909 8.31877 129.61 6.62042 131.329C4.85924 133.111 5.48542 135.844 7.8215 139.064C10.1576 142.283 15.0169 149.526 15.454 150.182C15.8829 150.827 16.0551 152.035 14.7595 151.919C13.4636 151.803 4.71856 148.836 3.56027 153.074C2.40221 157.311 10.3826 165.21 11.2387 166.091C12.0945 166.971 12.1407 167.527 11.7932 168.059C11.4459 168.592 8.60058 167.318 6.07879 166.576C3.55694 165.834 0.502794 165.416 0.0392577 167.917C-0.423835 170.418 3.09097 177.737 16.2542 185.429L22.5868 188.593L28.5808 184.767C40.9095 175.796 43.6754 168.161 42.9642 165.719C42.253 163.277 39.2559 163.999 36.8211 164.989C34.386 165.98 31.682 167.533 31.2835 167.037C30.8847 166.543 30.875 165.985 31.6385 165.023C32.4023 164.062 39.553 155.403 37.9774 151.303C36.4017 147.203 27.9968 151.03 26.7193 151.275C25.4415 151.52 25.4921 150.301 25.8544 149.617C26.2237 148.92 30.3351 141.228 32.3377 137.79C34.3403 134.353 34.69 131.571 32.7595 129.973C30.8981 128.434 27.707 131.065 25.9348 131.71C24.1622 132.354 23.7875 130.018 23.7875 130.018C23.7875 130.018 24.3009 124.263 23.6707 113.62C23.0408 102.977 18.2405 103.836 18.2405 103.836" fill="#E7E8E5"/>
<path d="M18.7116 113.377C18.7116 113.377 18.7245 113.452 18.7372 113.599C18.7493 113.757 18.766 113.974 18.7878 114.253C18.8275 114.839 18.8847 115.685 18.9582 116.769C19.1033 118.953 19.2904 122.117 19.5058 126.026C19.9398 133.844 20.4471 144.649 20.9681 156.584C21.4891 168.523 21.9695 179.33 22.3596 187.149C22.5579 191.051 22.7186 194.212 22.8302 196.409C22.8841 197.494 22.9261 198.34 22.9551 198.927C22.9665 199.206 22.9753 199.424 22.9818 199.582C22.9862 199.73 22.9824 199.806 22.9824 199.806C22.9824 199.806 22.9698 199.731 22.9572 199.584C22.945 199.426 22.9281 199.209 22.9066 198.93C22.8666 198.343 22.8096 197.499 22.7359 196.414C22.5908 194.23 22.4039 191.067 22.1885 187.158C21.7545 179.34 21.2468 168.534 20.726 156.595C20.205 144.659 19.7248 133.855 19.3347 126.035C19.1364 122.133 18.9755 118.972 18.8641 116.774C18.8102 115.689 18.768 114.843 18.739 114.256C18.7277 113.976 18.719 113.759 18.7125 113.601C18.7079 113.453 18.7116 113.377 18.7116 113.377Z" fill="#DADBD8"/>
<path d="M11.301 134.738C11.3125 134.726 11.4523 134.843 11.6949 135.066C11.9388 135.288 12.2807 135.619 12.6994 136.032C13.5353 136.861 14.6592 138.036 15.8747 139.355C17.0643 140.658 18.14 141.835 18.9721 142.747C19.3418 143.148 19.6564 143.489 19.9145 143.771C20.1382 144.011 20.2565 144.151 20.2447 144.163C20.2332 144.174 20.0925 144.058 19.8479 143.837C19.6052 143.614 19.2624 143.284 18.8479 142.866C18.0202 142.028 16.9121 140.839 15.6967 139.52C14.4985 138.227 13.4148 137.057 12.5763 136.152C12.2044 135.752 11.8879 135.412 11.6279 135.133C11.4062 134.89 11.289 134.75 11.301 134.738Z" fill="#DADBD8"/>
<path d="M20.8729 143.953C20.8252 143.906 23.1414 141.478 26.0451 138.532C28.9499 135.584 31.3428 133.233 31.3903 133.28C31.438 133.328 29.1227 135.755 26.2179 138.703C23.3138 141.649 20.9206 144.001 20.8729 143.953Z" fill="#DADBD8"/>
<path d="M20.847 162.32C20.8392 162.306 20.997 162.206 21.2883 162.039C21.6263 161.849 22.0399 161.617 22.5269 161.344C23.5721 160.756 25.0126 159.939 26.5698 158.981C28.13 158.026 29.5121 157.114 30.5084 156.446C30.9731 156.136 31.3674 155.872 31.69 155.657C31.9705 155.473 32.1305 155.377 32.1403 155.39C32.15 155.404 32.0089 155.526 31.7453 155.734C31.4812 155.942 31.0934 156.235 30.6063 156.587C29.6333 157.292 28.2616 158.23 26.6966 159.188C25.1344 160.149 23.6759 160.945 22.6079 161.494C22.0729 161.768 21.6373 161.983 21.3316 162.123C21.0267 162.265 20.8543 162.335 20.847 162.32Z" fill="#DADBD8"/>
<path d="M10.356 155.893C10.3642 155.878 10.5199 155.952 10.794 156.098C11.0678 156.244 11.4599 156.463 11.942 156.737C12.9059 157.285 14.2291 158.057 15.6832 158.922C17.1373 159.788 18.4466 160.584 19.3883 161.169C19.8592 161.463 20.238 161.703 20.4972 161.874C20.7562 162.045 20.8955 162.147 20.8868 162.161C20.8782 162.176 20.7226 162.102 20.4488 161.955C20.175 161.809 19.7829 161.591 19.3007 161.317C18.3366 160.768 17.0135 159.997 15.5591 159.131C14.1055 158.266 12.7959 157.47 11.8544 156.885C11.3835 156.591 11.0047 156.351 10.7456 156.18C10.4866 156.008 10.3473 155.907 10.356 155.893Z" fill="#DADBD8"/>
<path d="M8.27468 172.105C8.28332 172.09 8.48105 172.187 8.83188 172.374C9.22196 172.59 9.71611 172.863 10.3059 173.188C11.5447 173.884 13.2485 174.86 15.1221 175.952C16.9964 177.044 18.6866 178.043 19.9037 178.778C20.4777 179.13 20.9588 179.425 21.3387 179.658C21.6748 179.871 21.8566 179.995 21.8482 180.009C21.84 180.024 21.6418 179.927 21.2912 179.739C20.9009 179.524 20.407 179.251 19.8174 178.926C18.5783 178.23 16.8744 177.253 15.0003 176.161C13.1264 175.07 11.4367 174.071 10.2196 173.337C9.64555 172.984 9.16425 172.689 8.78416 172.456C8.44845 172.243 8.26645 172.119 8.27468 172.105Z" fill="#DADBD8"/>
<path d="M21.5767 179.729C21.5684 179.714 21.7648 179.583 22.1274 179.359C22.5301 179.114 23.0472 178.799 23.6665 178.422C24.9654 177.629 26.7563 176.529 28.6997 175.26C30.6452 173.994 32.3769 172.802 33.625 171.932C34.2209 171.517 34.7177 171.172 35.1051 170.902C35.4561 170.661 35.6547 170.534 35.665 170.547C35.6749 170.561 35.4949 170.713 35.161 170.978C34.8272 171.243 34.3375 171.619 33.7249 172.071C32.5009 172.979 30.7813 174.194 28.832 175.464C26.885 176.735 25.0764 177.814 23.7537 178.57C23.0909 178.946 22.5519 179.244 22.1742 179.442C21.797 179.64 21.5848 179.743 21.5767 179.729Z" fill="#DADBD8"/>
<path d="M31.0942 190.668H13.5748L19.293 233.99H25.3763L31.0942 190.668Z" fill="#DADBD8"/>
<path d="M14.484 195.993C14.4774 195.997 14.5033 196.055 14.5775 196.147C14.6521 196.239 14.7894 196.359 15.0002 196.45C15.4158 196.63 16.1452 196.646 16.8506 196.222C17.5582 195.832 18.1741 195.064 19.1221 194.726C20.0625 194.366 21.2274 194.431 22.3438 194.789C23.4734 195.139 24.4547 195.712 25.3438 196.244C26.2345 196.775 27.051 197.248 27.7833 197.554C28.5102 197.872 29.1437 198.019 29.5826 198.075C29.8023 198.104 29.9738 198.113 30.0908 198.11C30.2075 198.109 30.2683 198.105 30.2687 198.094C30.2785 198.038 29.277 198.046 27.8656 197.37C27.1585 197.046 26.3636 196.562 25.4798 196.019C24.6002 195.475 23.595 194.878 22.4288 194.516C21.276 194.145 20.0367 194.078 19.0284 194.479C18.5245 194.672 18.1014 194.973 17.7486 195.272C17.3909 195.567 17.0702 195.846 16.7461 196.049C16.105 196.463 15.432 196.481 15.0397 196.345C14.636 196.205 14.5065 195.969 14.484 195.993Z" fill="#F3F2F1"/>
<path d="M15.1234 203.972C15.1467 203.987 15.2621 203.794 15.5361 203.507C15.8148 203.229 16.2717 202.865 16.9352 202.618C17.5924 202.366 18.4371 202.216 19.3716 202.252C20.3099 202.284 21.3327 202.491 22.4202 202.667C23.5057 202.85 24.5812 202.932 25.5416 202.797C26.5019 202.674 27.336 202.397 27.9977 202.095C28.6612 201.792 29.1517 201.46 29.4744 201.216C29.7979 200.971 29.9519 200.806 29.9423 200.795C29.9095 200.747 29.2327 201.353 27.9169 201.91C27.2601 202.181 26.4429 202.43 25.5103 202.535C24.5772 202.651 23.5445 202.566 22.4654 202.385C21.3868 202.21 20.3479 202.007 19.3793 201.988C18.4099 201.966 17.5358 202.143 16.8595 202.431C16.1767 202.712 15.7156 203.121 15.4538 203.432C15.3275 203.594 15.2357 203.724 15.1886 203.821C15.1374 203.916 15.1147 203.967 15.1234 203.972Z" fill="#F3F2F1"/>
<path d="M29.1095 208.244C29.1162 208.231 28.9542 208.121 28.6267 207.993C28.3005 207.863 27.8028 207.731 27.1753 207.681C26.5476 207.631 25.7956 207.672 24.9799 207.806C24.1626 207.939 23.287 208.165 22.3673 208.36C21.4484 208.554 20.5616 208.684 19.758 208.655C18.9552 208.628 18.2412 208.451 17.6871 208.207C16.5599 207.711 16.1583 206.991 16.1161 207.037C16.105 207.043 16.1847 207.224 16.4126 207.494C16.638 207.764 17.0325 208.109 17.6019 208.39C18.1706 208.67 18.9111 208.875 19.7467 208.919C20.5844 208.964 21.4962 208.836 22.4261 208.64C23.3558 208.443 24.2255 208.21 25.0245 208.066C25.8233 207.92 26.5529 207.86 27.1635 207.883C28.3928 207.924 29.0918 208.296 29.1095 208.244Z" fill="#F3F2F1"/>
<path d="M16.6713 214.252C16.6798 214.298 17.2968 213.862 18.3721 214.081C18.8996 214.175 19.4889 214.443 20.1517 214.745C20.8119 215.053 21.608 215.316 22.4616 215.381C24.1831 215.547 25.7139 214.99 26.6528 214.41C27.1336 214.124 27.4689 213.817 27.6959 213.607C27.9089 213.379 28.0185 213.249 28.0043 213.235C27.9659 213.193 27.5057 213.711 26.5516 214.235C25.6134 214.754 24.1356 215.256 22.4871 215.096C20.8285 215.002 19.5555 214.012 18.4054 213.881C17.8449 213.797 17.3763 213.877 17.084 213.995C16.7878 214.111 16.6629 214.242 16.6713 214.252Z" fill="#F3F2F1"/>
<path d="M17.6472 222.567C17.6467 222.6 18.2345 222.596 19.1081 222.277C19.9884 221.982 21.0783 221.307 22.3515 220.8C22.9902 220.556 23.6305 220.407 24.213 220.41C24.7957 220.412 25.316 220.555 25.7099 220.752C26.5149 221.153 26.7477 221.723 26.7921 221.687C26.8049 221.681 26.7692 221.538 26.6261 221.317C26.4845 221.096 26.2165 220.81 25.8051 220.573C25.3951 220.339 24.8436 220.165 24.217 220.146C23.5886 220.128 22.9116 220.28 22.2497 220.533C20.9305 221.059 19.8752 221.755 19.0342 222.089C18.2032 222.447 17.6405 222.521 17.6472 222.567Z" fill="#F3F2F1"/>
<path d="M18.5061 226.436C18.4966 226.472 18.9164 226.623 19.6154 226.797C20.3137 226.97 21.294 227.156 22.3882 227.264C23.4832 227.372 24.4807 227.38 25.1993 227.346C25.9185 227.312 26.3594 227.245 26.3577 227.208C26.353 227.121 24.582 227.198 22.4161 226.979C20.25 226.772 18.5272 226.352 18.5061 226.436Z" fill="#F3F2F1"/>
<path d="M373.55 11.5934L341.299 0.0011673L309.361 11.4371C305.284 13.3645 301.708 14.5186 301.708 18.3205V37.2483C301.708 50.3932 305.148 63.4194 312.229 74.919C318.186 84.5963 327.411 94.5608 341.613 100.894C354.667 96.6497 364.412 85.3349 370.37 75.6575C377.45 64.1579 380.89 51.1318 380.89 37.9868V20.9655C380.89 15.5443 378.021 12.8971 373.55 11.5934Z" fill="#F3F2F1"/>
<path d="M341.613 89.9095C330.377 84.8988 323.078 76.8469 318.365 69.1908C312.764 60.0922 310.041 49.7866 310.041 39.3866V26.1092C310.041 23.1015 311.854 20.2843 315.453 18.6025L341.305 8.92747L341.299 0.0011673L309.361 11.4371C306.009 12.9028 301.708 14.5186 301.708 18.3205V37.2483C301.708 50.3932 305.148 63.4194 312.229 74.919C318.186 84.5963 327.411 94.5608 341.613 100.894V89.9095Z" fill="#E7E8E5"/>
<path d="M341.613 100.894C343.875 100.136 345.953 99.2622 347.949 98.1745C353.303 95.255 357.871 91.2456 361.357 87.6176C365.256 83.5587 368.161 79.1723 370.684 75.0753C377.763 63.5757 381.204 50.5496 380.89 37.0419L380.91 21.4146C380.89 13.6328 376.903 13.0591 373.55 11.5934L341.299 0.0011673L341.305 8.92747L367.459 18.7589C371.059 20.4407 372.871 23.2579 372.871 26.2649V39.543C372.871 49.943 370.148 60.2486 364.547 69.3471C359.833 77.0033 352.849 84.8988 341.613 89.9095V100.894Z" fill="#DADBD8"/>
<path d="M348.051 38.5133H334.913L334.948 35.9804C334.948 32.3548 337.895 29.4051 341.518 29.4051C345.14 29.4051 348.087 32.3548 348.087 35.9673L348.051 38.5133ZM343.751 54.5204H339.662L340.301 51.5656C339.593 51.1261 339.121 50.3432 339.121 49.4478C339.121 48.0701 340.236 46.9535 341.613 46.9535C342.989 46.9535 344.105 48.0701 344.105 49.4478C344.105 50.3108 343.667 51.071 343.001 51.519C343.291 52.6646 343.751 54.5204 343.751 54.5204ZM349.856 38.5349L349.891 35.9804C349.891 31.3592 346.135 27.5994 341.518 27.5994C336.9 27.5994 333.144 31.3592 333.144 35.9673L333.108 38.5696C330.848 38.9045 329.113 40.8484 329.113 43.2033V58.2711C329.113 60.8609 331.21 62.9606 333.798 62.9606H349.427C352.015 62.9606 354.113 60.8609 354.113 58.2711V43.2033C354.113 40.7574 352.242 38.7516 349.856 38.5349Z" fill="#DADBD8"/>
<path d="M315.267 38.3507C315.196 38.3609 314.972 37.3654 314.783 35.7291C314.59 34.0951 314.447 31.8174 314.521 29.3027C314.557 28.0462 314.64 26.85 314.755 25.7663C314.859 24.6844 315.056 23.6689 315.475 22.9099C315.885 22.1469 316.457 21.6915 316.887 21.4891C317.325 21.2855 317.597 21.2952 317.602 21.3265C317.656 21.397 316.512 21.6221 315.831 23.0896C315.496 23.7986 315.347 24.7418 315.272 25.8141C315.187 26.8898 315.121 28.0746 315.085 29.3192C315.011 31.8078 315.09 34.0632 315.181 35.6955C315.267 37.3279 315.35 38.3399 315.267 38.3507Z" fill="white"/>
<path d="M315.741 46.5908C315.585 46.5937 315.443 45.8159 315.424 44.8539C315.406 43.8907 315.516 43.1084 315.673 43.105C315.828 43.1027 315.97 43.8799 315.989 44.8425C316.008 45.8045 315.896 46.5874 315.741 46.5908Z" fill="white"/>
<path d="M387.998 234.028C387.998 234.11 301.29 234.176 194.354 234.176C87.3812 234.176 0.691162 234.11 0.691162 234.028C0.691162 233.946 87.3812 233.88 194.354 233.88C301.29 233.88 387.998 233.946 387.998 234.028Z" fill="#17282F"/>
<path d="M318.888 16.068H72.396C68.1464 16.068 64.7018 19.5157 64.7018 23.7684V198.026C64.7018 202.28 68.1464 205.728 72.396 205.728H166.999C166.999 205.728 173.017 224.353 154.363 233.99H242.821C242.821 233.99 221.759 226.763 227.174 205.728H318.889C323.138 205.728 326.583 202.28 326.583 198.027V23.769C326.583 19.5157 323.138 16.068 318.888 16.068Z" fill="#33535F"/>
<path d="M198.934 187.401C202.286 192.198 197.038 197.45 192.245 194.095C192.088 193.984 191.944 193.84 191.833 193.682C188.49 188.886 193.731 183.641 198.521 186.988C198.68 187.099 198.823 187.242 198.934 187.401Z" fill="#17282F"/>
<path d="M322.339 173.849H68.9463V24.7737C68.9463 21.729 71.4128 19.2604 74.4547 19.2604H316.83C319.872 19.2604 322.339 21.729 322.339 24.7737V173.849Z" fill="white"/>
<path d="M322.339 32.1057H68.9463V24.4649C68.9463 21.5909 71.2742 19.2604 74.1462 19.2604H318.07C320.427 19.2604 322.339 21.1736 322.339 23.5336V32.1057Z" fill="#E7E8E5"/>
<path d="M78.7957 25.9522C78.7957 26.9364 77.9981 27.7341 77.0154 27.7341C76.0327 27.7341 75.2357 26.9364 75.2357 25.9522C75.2357 24.9686 76.0327 24.1709 77.0154 24.1709C77.9981 24.1709 78.7957 24.9686 78.7957 25.9522Z" fill="#DADBD8"/>
<path d="M84.1019 25.9522C84.1019 26.9364 83.3049 27.7341 82.3222 27.7341C81.3389 27.7341 80.5425 26.9364 80.5425 25.9522C80.5425 24.9686 81.3389 24.1709 82.3222 24.1709C83.3049 24.1709 84.1019 24.9686 84.1019 25.9522Z" fill="#DADBD8"/>
<path d="M89.1479 25.9522C89.1479 26.9364 88.3514 27.7341 87.3682 27.7341C86.3854 27.7341 85.5879 26.9364 85.5879 25.9522C85.5879 24.9686 86.3854 24.1709 87.3682 24.1709C88.3514 24.1709 89.1479 24.9686 89.1479 25.9522Z" fill="#DADBD8"/>
<path d="M274.82 205.752C274.82 205.834 239.744 205.901 196.485 205.901C153.212 205.901 118.143 205.834 118.143 205.752C118.143 205.671 153.212 205.604 196.485 205.604C239.744 205.604 274.82 205.671 274.82 205.752Z" fill="#17282F"/>
<path d="M234.78 53.8591L196.144 39.6151L157.883 53.6675C152.999 56.0361 148.715 57.4541 148.715 62.1247V85.3837C148.715 101.535 152.837 117.541 161.318 131.672C168.455 143.563 179.506 155.807 196.519 163.589C212.158 158.374 223.832 144.471 230.969 132.579C239.451 118.449 243.572 102.443 243.572 86.2906V65.3758C243.572 58.714 240.134 55.4613 234.78 53.8591Z" fill="#F03D5F"/>
<path d="M196.519 163.589C179.506 155.807 168.455 143.563 161.318 131.672C152.837 117.541 148.715 101.535 148.715 85.3837V62.1247C148.715 57.4541 152.999 56.0361 157.883 53.6675L196.144 39.6151L234.78 53.8591C240.134 55.4613 243.572 58.714 243.572 65.3758V86.2906C243.572 102.443 239.451 118.449 230.969 132.579C223.832 144.471 212.158 158.374 196.519 163.589ZM167.648 95.5336C165.825 95.5336 164.348 97.0129 164.348 98.8374V133.065C164.348 134.889 165.825 136.368 167.648 136.368H224.639C226.462 136.368 227.94 134.889 227.94 133.065V98.8374C227.94 97.0129 226.462 95.5336 224.639 95.5336H219.738V74.0621C219.738 61.0417 209.153 50.4472 196.144 50.4472C183.134 50.4472 172.55 61.0417 172.55 74.0621V95.5336H167.648ZM212.638 95.5336H179.649V74.0621C179.649 64.959 187.049 57.553 196.144 57.553C205.239 57.553 212.638 64.959 212.638 74.0621V95.5336Z" fill="#FDE88D"/>
<path d="M219.738 112.737H212.638V74.0621C212.638 64.959 205.239 57.553 196.144 57.553C187.049 57.553 179.649 64.959 179.649 74.0621V112.737H172.55V74.0621C172.55 61.0416 183.134 50.4472 196.144 50.4472C209.153 50.4472 219.738 61.0416 219.738 74.0621V112.737Z" fill="#F03D5F"/>
<path d="M219.738 95.5336H212.638V74.0621C212.638 64.959 205.239 57.553 196.144 57.553C187.049 57.553 179.649 64.959 179.649 74.0621V95.5336H172.55V74.0621C172.55 61.0417 183.134 50.4472 196.144 50.4472C209.153 50.4472 219.738 61.0417 219.738 74.0621V95.5336Z" fill="#FFB541"/>
<path d="M224.639 136.368H167.648C165.825 136.368 164.348 134.889 164.348 133.065V98.8375C164.348 97.013 165.825 95.5336 167.648 95.5336H224.639C226.462 95.5336 227.94 97.013 227.94 98.8375V133.065C227.94 134.889 226.462 136.368 224.639 136.368Z" fill="#FFCE03"/>
<path d="M197.594 123.679H194.694V115.725C192.468 115.091 190.828 113.063 190.828 110.631C190.828 107.693 193.208 105.311 196.144 105.311C199.079 105.311 201.458 107.693 201.458 110.631C201.458 113.063 199.82 115.091 197.594 115.725V123.679Z" fill="#FF7F4B"/>
<path d="M167.739 132.496C167.593 132.496 167.475 125.686 167.475 117.288C167.475 108.886 167.593 102.078 167.739 102.078C167.885 102.078 168.003 108.886 168.003 117.288C168.003 125.686 167.885 132.496 167.739 132.496Z" fill="#FAFAF9"/>
<path d="M191.981 117.451C191.964 117.477 191.732 117.368 191.358 117.097C190.983 116.828 190.484 116.368 189.987 115.7C188.996 114.398 188.09 112.034 188.679 109.482C189.295 106.935 191.165 105.23 192.634 104.512C193.378 104.136 194.029 103.95 194.485 103.878C194.941 103.804 195.197 103.81 195.201 103.841C195.223 103.941 194.192 104.037 192.814 104.84C191.456 105.607 189.761 107.252 189.193 109.604C188.647 111.96 189.426 114.192 190.295 115.487C191.168 116.823 192.045 117.371 191.981 117.451Z" fill="#FAFAF9"/>
<path d="M243.908 154.57C243.908 154.57 244.06 154.357 244.367 153.951C244.444 153.85 244.531 153.736 244.626 153.611C244.714 153.48 244.792 153.324 244.887 153.162C245.073 152.834 245.305 152.463 245.471 151.993C245.562 151.762 245.67 151.523 245.762 151.262C245.836 150.995 245.913 150.714 245.995 150.419C246.09 150.127 246.14 149.811 246.189 149.48C246.232 149.149 246.322 148.809 246.332 148.445C246.488 147.002 246.392 145.318 246.104 143.459C245.528 139.728 243.948 135.335 241.528 130.56C239.113 125.776 235.787 120.629 231.701 115.264C227.613 109.898 222.698 104.355 217.047 98.7891C211.391 93.2304 204.987 87.646 197.809 82.3534C194.217 79.7119 190.429 77.1494 186.436 74.7359C182.447 72.3167 178.24 70.0618 173.804 68.1071C169.368 66.1769 164.686 64.4945 159.75 63.6974C157.289 63.3176 154.75 63.134 152.254 63.5126C151.009 63.7042 149.785 64.0442 148.633 64.5622C147.5 65.116 146.457 65.8539 145.595 66.7864C144.767 67.7495 144.149 68.8684 143.727 70.059C143.345 71.2649 143.142 72.5191 143.094 73.7801C143 76.3056 143.471 78.8101 144.127 81.2145C145.479 86.0347 147.682 90.4996 150.104 94.6933C152.549 98.8829 155.267 102.81 158.122 106.503C160.973 110.199 163.948 113.675 166.979 116.946C173.05 123.483 179.323 129.216 185.485 134.208C191.653 139.194 197.715 143.451 203.507 146.905C209.296 150.358 214.784 153.08 219.808 154.936C224.822 156.799 229.363 157.87 233.131 158.018C235.009 158.093 236.692 157.996 238.106 157.677C238.466 157.625 238.792 157.497 239.116 157.417C239.439 157.33 239.748 157.244 240.027 157.116C240.31 157.002 240.579 156.894 240.837 156.79C241.085 156.668 241.311 156.534 241.529 156.417C241.976 156.198 242.318 155.925 242.622 155.703C242.773 155.59 242.918 155.495 243.039 155.393C243.152 155.284 243.254 155.185 243.346 155.096C243.713 154.745 243.908 154.57 243.908 154.57C243.908 154.57 243.729 154.759 243.367 155.119C243.277 155.209 243.175 155.31 243.063 155.422C242.944 155.525 242.799 155.623 242.649 155.739C242.347 155.966 242.005 156.245 241.558 156.469C241.34 156.588 241.114 156.726 240.865 156.85C240.608 156.957 240.337 157.068 240.053 157.186C239.773 157.316 239.464 157.404 239.139 157.494C238.815 157.578 238.486 157.708 238.125 157.763C236.703 158.093 235.013 158.2 233.126 158.133C229.34 158.002 224.782 156.944 219.75 155.092C214.709 153.245 209.206 150.531 203.399 147.085C197.591 143.637 191.514 139.384 185.331 134.399C179.154 129.409 172.866 123.674 166.779 117.132C163.741 113.858 160.757 110.379 157.899 106.675C155.035 102.977 152.308 99.0416 149.853 94.8394C147.422 90.6321 145.208 86.1519 143.844 81.293C143.182 78.8687 142.704 76.3398 142.799 73.7688C142.847 72.4855 143.053 71.2029 143.447 69.9646C143.88 68.7405 144.517 67.584 145.374 66.5891C146.265 65.6242 147.342 64.8624 148.508 64.2938C149.692 63.7617 150.943 63.4154 152.21 63.2198C154.751 62.836 157.314 63.0231 159.795 63.4063C164.772 64.2108 169.469 65.9028 173.921 67.841C178.37 69.8042 182.586 72.0671 186.582 74.4937C190.583 76.9151 194.376 79.485 197.971 82.1339C205.156 87.4408 211.562 93.0405 217.218 98.6146C222.87 104.195 227.783 109.754 231.867 115.137C235.949 120.519 239.269 125.682 241.676 130.485C244.087 135.278 245.657 139.691 246.218 143.44C246.499 145.31 246.586 147.003 246.42 148.455C246.407 148.819 246.314 149.161 246.268 149.494C246.216 149.826 246.164 150.144 246.067 150.438C245.982 150.734 245.902 151.016 245.826 151.284C245.731 151.545 245.62 151.786 245.525 152.017C245.354 152.487 245.117 152.859 244.926 153.185C244.828 153.347 244.747 153.502 244.657 153.632C244.559 153.756 244.471 153.868 244.392 153.97C244.075 154.37 243.908 154.57 243.908 154.57Z" fill="#FFCE03"/>
<path d="M262.093 110.637C262.093 110.637 262.064 110.376 262.023 109.869C262.014 109.742 262.003 109.6 261.991 109.443C261.969 109.287 261.924 109.118 261.886 108.934C261.807 108.565 261.734 108.133 261.545 107.673C261.46 107.44 261.381 107.189 261.277 106.933C261.154 106.685 261.025 106.423 260.889 106.149C260.766 105.869 260.592 105.599 260.41 105.319C260.221 105.043 260.062 104.73 259.828 104.451C258.985 103.27 257.793 102.078 256.342 100.882C253.431 98.4815 249.33 96.2562 244.348 94.3055C239.364 92.344 233.459 90.719 226.842 89.4381C220.222 88.1571 212.868 87.2958 204.949 86.9069C197.031 86.5271 188.538 86.626 179.662 87.4589C175.225 87.8802 170.694 88.492 166.109 89.3517C161.523 90.2039 156.884 91.3234 152.273 92.8204C147.678 94.3356 143.066 96.1993 138.852 98.8937C136.763 100.25 134.747 101.804 133.136 103.75C132.334 104.722 131.647 105.791 131.132 106.946C130.654 108.114 130.367 109.36 130.343 110.63C130.365 111.9 130.649 113.147 131.126 114.316C131.643 115.47 132.326 116.542 133.129 117.514C134.738 119.463 136.755 121.017 138.844 122.374C143.059 125.071 147.672 126.935 152.268 128.451C156.88 129.949 161.52 131.069 166.106 131.922C170.692 132.781 175.224 133.393 179.662 133.815C188.539 134.648 197.033 134.747 204.952 134.367C212.871 133.977 220.225 133.116 226.845 131.835C233.462 130.554 239.367 128.929 244.351 126.967C249.332 125.016 253.433 122.791 256.343 120.391C257.794 119.195 258.986 118.002 259.829 116.821C260.063 116.543 260.222 116.229 260.41 115.954C260.593 115.673 260.766 115.404 260.889 115.124C261.025 114.85 261.154 114.588 261.277 114.34C261.381 114.084 261.46 113.832 261.546 113.601C261.734 113.139 261.807 112.707 261.886 112.339C261.924 112.155 261.969 111.986 261.991 111.831C262.003 111.674 262.014 111.532 262.023 111.404C262.064 110.897 262.093 110.637 262.093 110.637C262.093 110.637 262.084 110.897 262.054 111.407C262.046 111.535 262.037 111.678 262.028 111.836C262.008 111.993 261.966 112.162 261.931 112.348C261.856 112.719 261.786 113.154 261.602 113.619C261.518 113.854 261.442 114.108 261.338 114.366C261.217 114.617 261.089 114.881 260.955 115.157C260.833 115.441 260.661 115.713 260.479 115.996C260.292 116.275 260.133 116.592 259.9 116.873C259.059 118.066 257.868 119.272 256.415 120.479C253.504 122.904 249.398 125.151 244.412 127.121C239.421 129.102 233.51 130.744 226.885 132.04C220.257 133.337 212.893 134.212 204.964 134.612C197.035 135.003 188.529 134.913 179.636 134.086C175.191 133.668 170.65 133.058 166.054 132.2C161.458 131.348 156.805 130.227 152.178 128.727C147.566 127.207 142.934 125.339 138.685 122.622C136.579 121.254 134.539 119.685 132.901 117.703C132.083 116.713 131.385 115.618 130.854 114.433C130.364 113.231 130.07 111.943 130.047 110.63C130.071 109.316 130.368 108.03 130.86 106.828C131.389 105.643 132.092 104.551 132.909 103.561C134.549 101.581 136.587 100.013 138.692 98.6464C142.941 95.931 147.572 94.0638 152.184 92.5447C156.81 91.0448 161.46 89.9253 166.057 89.0731C170.652 88.2151 175.192 87.6056 179.636 87.1872C188.528 86.3605 197.032 86.2707 204.961 86.6613C212.89 87.0615 220.253 87.936 226.881 89.2323C233.507 90.5286 239.418 92.1706 244.409 94.1514C249.396 96.1209 253.501 98.3684 256.414 100.793C257.867 102 259.058 103.206 259.9 104.4C260.133 104.68 260.291 104.998 260.479 105.276C260.66 105.559 260.833 105.832 260.955 106.115C261.089 106.392 261.217 106.656 261.338 106.907C261.441 107.165 261.518 107.419 261.601 107.653C261.786 108.119 261.856 108.555 261.931 108.925C261.966 109.111 262.008 109.281 262.028 109.438C262.037 109.596 262.046 109.739 262.054 109.867C262.084 110.376 262.093 110.637 262.093 110.637Z" fill="#FFCE03"/>
<path d="M237.999 55.9497C237.999 55.9497 237.776 55.8127 237.351 55.5335C237.244 55.4636 237.125 55.3851 236.994 55.2987C236.857 55.2202 236.697 55.1526 236.529 55.069C236.189 54.9058 235.803 54.7 235.323 54.5664C235.087 54.4913 234.841 54.3992 234.575 54.3253C234.304 54.2707 234.018 54.2127 233.718 54.1519C233.421 54.0774 233.102 54.0496 232.769 54.0228C232.436 54.0024 232.091 53.9359 231.727 53.9506C230.279 53.8949 228.606 54.1059 226.773 54.522C223.094 55.3538 218.824 57.234 214.232 59.9796C209.629 62.7206 204.728 66.3963 199.662 70.8458C194.595 75.2976 189.409 80.5874 184.251 86.6129C179.099 92.6436 173.975 99.423 169.193 106.955C166.808 110.722 164.515 114.681 162.384 118.835C160.248 122.984 158.29 127.341 156.647 131.905C155.028 136.468 153.674 141.258 153.22 146.242C153.011 148.725 153.003 151.273 153.552 153.739C153.829 154.969 154.252 156.167 154.847 157.282C155.477 158.376 156.285 159.367 157.274 160.163C158.291 160.924 159.449 161.464 160.665 161.803C161.892 162.102 163.157 162.218 164.417 162.178C166.941 162.099 169.405 161.456 171.756 160.635C176.468 158.953 180.766 156.446 184.779 153.739C188.786 151.009 192.514 148.024 195.998 144.919C199.487 141.817 202.746 138.608 205.797 135.356C211.894 128.843 217.176 122.185 221.728 115.688C226.273 109.186 230.098 102.84 233.142 96.819C236.185 90.7998 238.519 85.133 240.024 79.9882C241.535 74.853 242.29 70.246 242.178 66.473C242.123 64.5928 241.911 62.919 241.496 61.5283C241.42 61.1735 241.269 60.8557 241.167 60.5379C241.057 60.2212 240.951 59.9199 240.805 59.6498C240.672 59.3746 240.544 59.1125 240.423 58.8635C240.285 58.6236 240.135 58.4075 240.004 58.1977C239.755 57.7668 239.46 57.4438 239.217 57.155C239.094 57.0129 238.989 56.8742 238.879 56.7616C238.763 56.6553 238.658 56.5597 238.563 56.4739C238.187 56.1316 237.999 55.9497 237.999 55.9497C237.999 55.9497 238.199 56.1157 238.584 56.4517C238.68 56.5359 238.787 56.6302 238.906 56.7348C239.018 56.8468 239.126 56.9844 239.251 57.1255C239.498 57.4114 239.799 57.7338 240.053 58.1648C240.187 58.3746 240.341 58.5906 240.482 58.8305C240.605 59.0807 240.736 59.3428 240.872 59.6186C241.021 59.8892 241.13 60.1922 241.242 60.5095C241.348 60.8284 241.501 61.1474 241.58 61.5039C242.007 62.9008 242.23 64.5815 242.293 66.4702C242.424 70.259 241.683 74.8831 240.183 80.0353C238.689 85.1961 236.365 90.8782 233.329 96.9134C230.292 102.951 226.472 109.311 221.929 115.829C217.38 122.341 212.098 129.014 205.997 135.542C202.942 138.802 199.679 142.02 196.185 145.13C192.696 148.245 188.961 151.238 184.942 153.979C180.916 156.696 176.602 159.216 171.854 160.913C169.483 161.74 166.995 162.392 164.426 162.474C163.144 162.514 161.851 162.396 160.59 162.089C159.34 161.741 158.143 161.184 157.092 160.397C156.069 159.574 155.236 158.551 154.589 157.426C153.976 156.281 153.545 155.055 153.263 153.804C152.706 151.293 152.716 148.721 152.927 146.217C153.386 141.192 154.748 136.385 156.374 131.807C158.024 127.228 159.989 122.863 162.133 118.706C164.271 114.545 166.571 110.58 168.963 106.809C173.759 99.2684 178.898 92.4855 184.064 86.4532C189.238 80.4259 194.44 75.1378 199.524 70.6889C204.607 66.2422 209.525 62.5716 214.147 59.8374C218.758 57.0993 223.048 55.2276 226.747 54.4095C228.591 54.0007 230.273 53.7971 231.73 53.8625C232.095 53.85 232.442 53.9194 232.777 53.9415C233.112 53.9717 233.432 54.0018 233.732 54.0791C234.032 54.1428 234.319 54.2037 234.592 54.2605C234.859 54.3378 235.106 54.4322 235.343 54.5101C235.823 54.6488 236.21 54.8603 236.549 55.0286C236.717 55.1151 236.876 55.185 237.013 55.2657C237.143 55.355 237.261 55.4357 237.367 55.5079C237.788 55.7962 237.999 55.9497 237.999 55.9497Z" fill="#FFCE03"/>
<path d="M129.478 137.879C130.434 138.836 130.434 140.388 129.478 141.346C128.521 142.303 126.97 142.303 126.014 141.346C125.058 140.388 125.058 138.836 126.014 137.879C126.97 136.922 128.521 136.922 129.478 137.879Z" fill="#FDE88D"/>
<path d="M267.666 61.9166C267.666 63.2704 266.569 64.3677 265.217 64.3677C263.864 64.3677 262.767 63.2704 262.767 61.9166C262.767 60.5624 263.864 59.465 265.217 59.465C266.569 59.465 267.666 60.5624 267.666 61.9166Z" fill="#FDE88D"/>
<path d="M144.945 145.94C144.945 146.283 144.666 146.563 144.322 146.563C143.978 146.563 143.7 146.283 143.7 145.94C143.7 145.596 143.978 145.316 144.322 145.316C144.666 145.316 144.945 145.596 144.945 145.94Z" fill="#F03D5F"/>
<path d="M158.23 77.2472C158.23 77.5918 157.951 77.8704 157.607 77.8704C157.264 77.8704 156.985 77.5918 156.985 77.2472C156.985 76.9032 157.264 76.6241 157.607 76.6241C157.951 76.6241 158.23 76.9032 158.23 77.2472Z" fill="#F03D5F"/>
<path d="M255.363 110.637C255.363 110.981 255.084 111.26 254.74 111.26C254.397 111.26 254.117 110.981 254.117 110.637C254.117 110.293 254.397 110.014 254.74 110.014C255.084 110.014 255.363 110.293 255.363 110.637Z" fill="#F03D5F"/>
<path d="M264.012 81.5927C264.012 81.9367 263.734 82.2158 263.39 82.2158C263.046 82.2158 262.767 81.9367 262.767 81.5927C262.767 81.2487 263.046 80.9695 263.39 80.9695C263.734 80.9695 264.012 81.2487 264.012 81.5927Z" fill="#F03D5F"/>
<path d="M332.333 222.189C332.333 222.276 337.833 222.346 344.618 222.346C351.405 222.346 356.904 222.276 356.904 222.189C356.904 222.102 351.405 222.032 344.618 222.032C337.833 222.032 332.333 222.102 332.333 222.189Z" fill="#FAFAF9"/>
<path d="M332.706 225.194C332.706 225.281 337.863 225.351 344.223 225.351C350.585 225.351 355.741 225.281 355.741 225.194C355.741 225.108 350.585 225.037 344.223 225.037C337.863 225.037 332.706 225.108 332.706 225.194Z" fill="#FAFAF9"/>
<path d="M352.466 214.211C352.379 214.211 352.309 215.935 352.309 218.063C352.309 220.19 352.379 221.915 352.466 221.915C352.553 221.915 352.622 220.19 352.622 218.063C352.622 215.935 352.553 214.211 352.466 214.211Z" fill="#FAFAF9"/>
<path d="M343.514 214.211C343.427 214.211 343.357 215.997 343.357 218.2C343.357 220.403 343.427 222.189 343.514 222.189C343.601 222.189 343.671 220.403 343.671 218.2C343.671 215.997 343.601 214.211 343.514 214.211Z" fill="#FAFAF9"/>
<path d="M335.11 214.143C335.024 214.143 334.953 215.965 334.953 218.211C334.953 220.459 335.024 222.28 335.11 222.28C335.197 222.28 335.267 220.459 335.267 218.211C335.267 215.965 335.197 214.143 335.11 214.143Z" fill="#FAFAF9"/>
<path d="M330.156 214.211C330.156 214.297 336.607 214.368 344.565 214.368C352.525 214.368 358.975 214.297 358.975 214.211C358.975 214.124 352.525 214.054 344.565 214.054C336.607 214.054 330.156 214.124 330.156 214.211Z" fill="#FAFAF9"/>
<path d="M42.0622 215.487L39.3637 229.31L34.0795 239.627C33.6985 240.371 34.0265 241.282 34.7938 241.611C35.2234 241.796 35.7116 241.763 36.1103 241.519C38.6492 239.966 47.9594 234.206 48.1004 233.183C48.2635 231.999 51.9138 218.792 51.9138 218.792L42.0622 215.487Z" fill="#FFB541"/>
<path d="M34.7938 241.611L48.3038 232.255L48.1763 232.838C48.0657 233.342 47.7826 233.792 47.3721 234.103C46.2746 234.939 43.1929 237.178 36.1518 241.529C35.7424 241.782 35.2305 241.813 34.7938 241.611Z" fill="#17282F"/>
<path d="M46.4411 228.187C46.0445 228.35 45.8177 228.847 45.9637 229.25C46.11 229.653 46.6126 229.889 47.012 229.733C47.4112 229.577 47.7019 228.989 47.5113 228.605C47.3211 228.221 46.7158 227.977 46.3656 228.224" fill="#E7E8E5"/>
<path d="M39.2522 236.29C39.1661 236.311 39.0139 235.522 38.2814 234.955C37.5658 234.366 36.7639 234.394 36.7655 234.305C36.7606 234.269 36.958 234.2 37.2898 234.225C37.6188 234.248 38.074 234.396 38.474 234.714C38.873 235.033 39.1178 235.444 39.2134 235.76C39.3119 236.079 39.2886 236.286 39.2522 236.29Z" fill="#17282F"/>
<path d="M37.8695 237.917C37.7909 237.963 37.4479 237.418 36.7816 237.059C36.1232 236.683 35.4808 236.682 35.4773 236.591C35.4531 236.512 36.1785 236.365 36.9314 236.788C37.6887 237.203 37.9494 237.896 37.8695 237.917Z" fill="#17282F"/>
<path d="M41.5918 234.328C41.5133 234.38 40.9894 233.54 40.0024 232.89C39.0254 232.224 38.0504 232.059 38.0675 231.967C38.0615 231.889 39.1246 231.922 40.1743 232.632C41.231 233.333 41.6666 234.304 41.5918 234.328Z" fill="#17282F"/>
<path d="M42.7632 230.195C42.7082 230.269 42.0183 229.786 41.0384 229.533C40.0612 229.267 39.2229 229.346 39.212 229.254C39.1887 229.178 40.0667 228.951 41.1174 229.234C42.1701 229.508 42.8204 230.141 42.7632 230.195Z" fill="#17282F"/>
<path d="M43.6579 226.158C43.5977 226.228 42.9347 225.602 41.8807 225.42C40.8307 225.216 39.9888 225.566 39.9578 225.478C39.9414 225.445 40.1295 225.306 40.4865 225.192C40.8409 225.077 41.3699 225.013 41.9366 225.116C42.5027 225.221 42.9744 225.469 43.2651 225.701C43.5587 225.934 43.6847 226.132 43.6579 226.158Z" fill="#17282F"/>
<path d="M42.0733 224.657C42.0558 224.653 42.0653 224.462 42.1687 224.132C42.2721 223.806 42.476 223.337 42.8803 222.861C43.0849 222.637 43.3115 222.343 43.7346 222.246C43.9459 222.196 44.2223 222.294 44.345 222.512C44.468 222.725 44.4698 222.962 44.4265 223.18C44.221 224.051 43.2866 224.731 42.2783 224.642C41.2692 224.533 40.5001 223.774 40.2749 222.935C40.232 222.721 40.2254 222.469 40.3831 222.259C40.5393 222.048 40.8393 222.016 41.0286 222.093C41.4236 222.243 41.6295 222.535 41.8312 222.762C42.2211 223.248 42.4263 223.713 42.5348 224.037C42.6436 224.364 42.6593 224.554 42.6418 224.559C42.5859 224.584 42.4428 223.807 41.6641 222.904C41.4646 222.691 41.2383 222.429 40.9505 222.337C40.8105 222.292 40.6747 222.321 40.5981 222.426C40.5214 222.525 40.5123 222.704 40.5531 222.874C40.7477 223.563 41.4524 224.255 42.3067 224.333C43.1562 224.417 43.9763 223.819 44.1484 223.12C44.1873 222.951 44.18 222.771 44.1114 222.65C44.0442 222.532 43.9146 222.475 43.7765 222.499C43.4856 222.548 43.2429 222.797 43.0434 223.006C42.2433 223.889 42.1312 224.684 42.0733 224.657Z" fill="#17282F"/>
<path d="M88.0919 216.562L90.3919 230.457L95.3776 240.923C95.7367 241.676 95.3828 242.578 94.6068 242.885C94.1717 243.057 93.6849 243.01 93.2929 242.755C90.8003 241.13 81.6587 235.103 81.5479 234.077C81.4184 232.889 78.1493 219.582 78.1493 219.582L88.0919 216.562Z" fill="#FFB541"/>
<path d="M94.6068 242.885L81.3707 233.144L81.4815 233.73C81.5775 234.237 81.8479 234.694 82.2489 235.018C83.3225 235.884 86.3383 238.211 93.2515 242.763C93.6536 243.028 94.1638 243.074 94.6068 242.885Z" fill="#17282F"/>
<path d="M83.3498 229.131C83.7417 229.305 83.9542 229.808 83.7963 230.208C83.6389 230.606 83.1294 230.827 82.7346 230.659C82.3403 230.492 82.0666 229.897 82.2682 229.518C82.4693 229.139 83.0811 228.913 83.4242 229.17" fill="#E7E8E5"/>
<path d="M90.3027 237.438C90.3885 237.461 90.5634 236.677 91.3115 236.131C92.0438 235.563 92.8447 235.614 92.8458 235.525C92.8515 235.489 92.6561 235.414 92.3238 235.43C91.9943 235.443 91.5354 235.577 91.1258 235.884C90.7179 236.192 90.4617 236.596 90.3572 236.909C90.2493 237.224 90.2663 237.433 90.3027 237.438Z" fill="#17282F"/>
<path d="M91.6382 239.104C91.7155 239.151 92.0739 238.617 92.7505 238.276C93.419 237.921 94.0615 237.938 94.0678 237.847C94.0939 237.769 93.373 237.601 92.6084 238.002C91.8393 238.395 91.5593 239.08 91.6382 239.104Z" fill="#17282F"/>
<path d="M88.0209 235.409C88.0976 235.463 88.6457 234.639 89.6506 234.017C90.647 233.379 91.6257 233.243 91.6109 233.15C91.6195 233.072 90.5561 233.074 89.4864 233.755C88.41 234.425 87.9465 235.383 88.0209 235.409Z" fill="#17282F"/>
<path d="M86.9683 231.244C87.0211 231.32 87.725 230.856 88.7117 230.632C89.6961 230.394 90.5317 230.498 90.5453 230.405C90.5709 230.331 89.6995 230.077 88.6412 230.331C87.5812 230.574 86.9126 231.188 86.9683 231.244Z" fill="#17282F"/>
<path d="M86.19 227.183C86.2479 227.254 86.929 226.647 87.9879 226.497C89.0433 226.322 89.8749 226.696 89.9084 226.61C89.9255 226.577 89.7414 226.432 89.3881 226.308C89.0371 226.183 88.5099 226.104 87.9407 226.191C87.3715 226.28 86.8932 226.513 86.5956 226.738C86.2957 226.962 86.1639 227.156 86.19 227.183Z" fill="#17282F"/>
<path d="M87.8174 225.728C87.8345 225.725 87.8311 225.533 87.7374 225.201C87.6431 224.872 87.4528 224.397 87.0619 223.909C86.8643 223.68 86.6461 223.379 86.2258 223.27C86.0162 223.214 85.7372 223.304 85.6077 223.518C85.4788 223.727 85.4703 223.964 85.5072 224.184C85.6878 225.06 86.6018 225.767 87.6129 225.706C88.6246 225.627 89.4154 224.891 89.6647 224.058C89.7136 223.846 89.7272 223.594 89.5756 223.38C89.4256 223.164 89.1268 223.123 88.9348 223.195C88.536 223.334 88.3219 223.62 88.114 223.842C87.7101 224.315 87.4914 224.774 87.3738 225.095C87.2556 225.419 87.2341 225.609 87.2517 225.614C87.3068 225.641 87.4726 224.868 88.2764 223.987C88.4821 223.781 88.7161 223.525 89.0064 223.441C89.1473 223.4 89.2824 223.434 89.3557 223.54C89.4301 223.642 89.4335 223.821 89.3881 223.989C89.1734 224.673 88.4491 225.344 87.5931 225.397C86.7416 225.457 85.9389 224.835 85.7872 224.131C85.7531 223.962 85.7656 223.782 85.8378 223.663C85.9082 223.547 86.0395 223.494 86.1764 223.521C86.4661 223.579 86.7012 223.836 86.8949 224.05C87.6692 224.956 87.7584 225.754 87.8174 225.728Z" fill="#17282F"/>
<path d="M43.3815 124.986C42.0988 123.031 36.7767 229.245 37.1335 229.856L51.1523 230.057L58.7839 173.304L62.9335 129.908L69.6245 170.684L77.8334 230.442L93.1543 230.663L83.6849 122.341L63.8446 110.961L43.3815 124.986Z" fill="#17282F"/>
<path d="M56.7676 53.6311C56.7676 53.6311 52.4701 54.3782 50.8319 55.8121C49.1936 57.246 47.5288 60.5408 47.5288 60.5408L39.3608 66.0898L46.5513 94.77L40.5247 134.404L41.7285 137.822L86.783 137.068L87.6419 133.958L82.9839 97.8845L85.03 73.7096L86.9108 64.0021L78.7514 60.3429C78.7514 60.3429 82.4886 59.1825 82.6601 58.5372C82.8305 57.8919 74.2399 53.4776 74.2399 53.4776C74.2399 53.4776 60.6852 51.1778 56.7676 53.6311Z" fill="#FFCE03"/>
<path d="M43.3136 116.062C43.242 115.971 43.1705 115.879 43.0995 115.787L43.1661 115.378C43.2573 115.322 43.3494 115.268 43.4424 115.216L43.3136 116.062Z" fill="#A7A9A8"/>
<path d="M67.7699 134.472C67.3836 134.472 66.9968 134.436 66.6156 134.361C66.0658 134.252 65.5392 134.074 65.0297 133.848C65.0302 133.841 65.0302 133.834 65.0308 133.826C65.1035 131.485 65.2075 128.125 65.3364 123.98C65.3534 123.385 65.371 122.774 65.3887 122.147C65.4608 122.148 65.5324 122.149 65.604 122.149C68.2658 122.149 70.9334 121.068 73.3817 119.897C76.4315 118.437 79.5552 116.771 82.9334 116.771C82.9482 116.771 82.9635 116.771 82.9783 116.771C82.0467 118.454 81.1157 120.137 80.1846 121.82C79.6739 122.743 79.1548 123.678 78.4191 124.433C77.5682 125.305 76.4588 125.905 75.6658 126.83C74.4933 128.198 74.1582 130.099 73.1692 131.606C72.0024 133.384 69.887 134.472 67.7699 134.472ZM64.916 133.797C63.8737 133.32 62.9034 132.65 61.9571 131.992C55.221 127.305 48.3753 122.516 43.3137 116.062L43.4424 115.216C43.4815 115.194 43.5209 115.172 43.5605 115.15C47.0262 118.606 50.6675 121.49 52.6515 121.49C52.7052 121.49 52.7568 121.488 52.8084 121.483L54.3774 120.917L55.8789 122.082L59.1032 119.662C60.4836 120.684 61.9327 121.547 63.6021 121.929C64.1236 122.048 64.6468 122.116 65.1717 122.14C65.1563 122.767 65.1421 123.379 65.1274 123.975C65.0387 128.107 64.9666 131.458 64.916 133.797Z" fill="#FFB541"/>
<path d="M39.3609 66.0898C39.3609 66.0898 37.6823 68.235 37.3104 72.7379C36.9383 77.2415 34.0397 100.869 35.0147 104.264C35.9895 107.66 48.6059 121.833 52.8084 121.483L54.3774 120.917L55.8789 122.082L62.5944 117.043L47.7931 98.403L48.5884 71.5679C48.5884 71.5679 44.0424 65.0278 39.3609 66.0898Z" fill="#FFCE03"/>
<path d="M50.8318 55.8121C50.84 55.8241 50.6962 55.906 50.4636 56.1214C50.2311 56.3352 49.9118 56.6832 49.5608 57.1869C49.2004 57.6867 48.8345 58.3473 48.3845 59.1262C47.9059 59.8853 47.3569 60.7557 46.7429 61.7297L46.6477 61.6125C47.4643 61.2941 48.4617 61.289 49.4169 61.6023C50.3758 61.9105 51.3037 62.4608 52.2024 63.1289C53.9975 64.4894 55.638 66.385 57.2264 68.5358C60.3927 72.8597 63.4789 78.2024 66.4566 84.1239L66.472 84.1551L66.4708 84.1927C66.4038 86.5374 66.3334 88.9895 66.2618 91.4883C65.9005 104.172 65.5739 115.652 65.3364 123.98C65.2075 128.125 65.1036 131.486 65.0308 133.826C64.9888 134.976 64.9553 135.875 64.9326 136.502C64.9184 136.797 64.9076 137.027 64.8996 137.198C64.8905 137.354 64.8831 137.435 64.878 137.434C64.8729 137.434 64.8701 137.354 64.8695 137.197C64.8701 137.026 64.8712 136.795 64.8729 136.501C64.8831 135.873 64.8973 134.973 64.9155 133.823C64.9661 131.482 65.0382 128.121 65.1274 123.975C65.3279 115.659 65.5841 104.174 65.9658 91.4809C66.0391 88.981 66.1107 86.5283 66.1794 84.183L66.1936 84.2524C63.2313 78.3445 60.1615 72.9984 57.0282 68.6819C55.4551 66.5334 53.8384 64.6469 52.0786 63.2949C51.1954 62.6291 50.2879 62.0833 49.3608 61.7774C48.4364 61.4664 47.488 61.4658 46.7047 61.7604L46.4789 61.8456L46.6094 61.6432C47.2346 60.6778 47.7929 59.8142 48.2802 59.0614C48.7357 58.2979 49.1196 57.6315 49.4926 57.138C49.857 56.6377 50.1905 56.2948 50.4355 56.089C50.6798 55.8815 50.8318 55.8121 50.8318 55.8121Z" fill="#17282F"/>
<path d="M81.1088 59.2382C81.123 59.2854 80.246 59.543 78.8827 60.0893C77.5245 60.638 75.6692 61.5005 73.8969 62.8645C72.1206 64.2244 70.7408 65.7311 69.7416 66.8097C69.2775 67.3168 68.8844 67.7466 68.5629 68.098C68.2817 68.3999 68.1187 68.5608 68.1034 68.5477C68.088 68.5346 68.2209 68.3482 68.4754 68.0229C68.7305 67.6983 69.106 67.2338 69.5848 66.6709C70.5465 65.5543 71.9127 64.0112 73.7174 62.6291C75.5215 61.2412 77.4205 60.3964 78.8077 59.8943C79.5035 59.6413 80.079 59.4725 80.4783 59.3673C80.8782 59.2621 81.1037 59.22 81.1088 59.2382Z" fill="#17282F"/>
<path d="M66.4259 84.2387C66.4054 84.2359 66.4265 83.9362 66.4816 83.395C66.5452 82.8548 66.6599 82.0754 66.84 81.1202C67.1945 79.2081 67.8261 76.5962 68.6606 73.7512C69.5104 70.9095 70.4056 68.3732 71.1861 66.5902C71.5713 65.697 71.9223 64.9914 72.1831 64.5139C72.4552 64.0414 72.6131 63.7861 72.6307 63.7963C72.6483 63.8066 72.5245 64.0806 72.2859 64.5662C72.0581 65.0568 71.7377 65.7715 71.3793 66.6709C70.6522 68.4647 69.7916 71.0022 68.9446 73.8353C68.1124 76.6718 67.4507 79.2673 67.0451 81.1617C66.8389 82.1083 66.694 82.8787 66.5957 83.4115C66.5054 83.9453 66.4458 84.241 66.4259 84.2387Z" fill="#17282F"/>
<path d="M67.8256 68.3783C67.7523 68.343 68.7827 66.0501 70.1273 63.2579C71.4725 60.4646 72.6222 58.2296 72.696 58.2649C72.7693 58.3007 71.7389 60.5931 70.3937 63.3864C69.0492 66.1786 67.8994 68.4141 67.8256 68.3783Z" fill="#17282F"/>
<path d="M69.2275 79.0177L69.3599 78.7351C69.4957 78.8375 69.699 78.9102 69.8944 78.9131C70.1177 78.9165 70.2091 78.8431 70.2103 78.7431C70.2148 78.4378 69.2656 78.6339 69.2747 78.029C69.2787 77.7521 69.5047 77.5247 69.9677 77.5315C70.1722 77.5343 70.3807 77.5861 70.5306 77.6839L70.4102 77.9687C70.2603 77.88 70.1052 77.8362 69.9609 77.834C69.7382 77.8311 69.6507 77.9136 69.649 78.0159C69.6445 78.3161 70.5943 78.1222 70.5857 78.7203C70.5818 78.9927 70.3528 79.2224 69.8876 79.2156C69.6297 79.2116 69.3707 79.1314 69.2275 79.0177Z" fill="white"/>
<path d="M72.1019 78.917L72.0979 79.2195L70.8374 79.2013L70.8613 77.5724L72.0911 77.59L72.0865 77.8925L71.2311 77.88L71.2259 78.2342L71.9815 78.245L71.9769 78.5378L71.2214 78.527L71.2163 78.9039L72.1019 78.917Z" fill="white"/>
<path d="M72.3036 78.4076C72.3104 77.9164 72.6921 77.5707 73.1988 77.5781C73.48 77.5821 73.7135 77.6878 73.8646 77.876L73.6192 78.096C73.5118 77.9687 73.3755 77.9016 73.213 77.8993C72.9085 77.8948 72.6887 78.1057 72.6842 78.4133C72.6802 78.7203 72.8932 78.9375 73.1977 78.942C73.3607 78.9443 73.4987 78.8812 73.6095 78.755L73.8487 78.9813C73.6919 79.1677 73.4556 79.2667 73.1721 79.2627C72.6677 79.2553 72.2962 78.8988 72.3036 78.4076Z" fill="white"/>
<path d="M75.3091 78.7777C75.2841 78.697 75.2625 78.618 75.2421 78.5395C75.2205 78.4855 75.2046 78.4315 75.1858 78.3775L75.1836 78.5327C75.1796 78.842 75.045 78.9688 74.8149 78.9653C74.5871 78.9619 74.4542 78.8317 74.4587 78.5225L74.4712 77.6241L74.0946 77.6184L74.0815 78.531C74.0747 79.0103 74.3451 79.2798 74.8081 79.2866C75.079 79.29 75.2841 79.1985 75.4108 79.0285C75.371 78.9489 75.3369 78.8653 75.3091 78.7777Z" fill="white"/>
<path d="M75.3949 78.0335L75.3864 78.5878L75.4028 78.6464L75.4483 78.7783C75.4647 78.8465 75.4807 78.9141 75.4966 78.9824C75.5414 79.1734 75.5494 79.3508 75.5301 79.5157C75.6704 79.3912 75.7499 79.2018 75.7533 78.9505L75.7664 78.0386L75.3949 78.0335Z" fill="white"/>
<path d="M76.8183 78.361L76.5116 78.3564L76.5036 78.9238L76.8104 78.9284C77.0404 78.9318 77.158 78.8266 77.1608 78.6498C77.1637 78.4707 77.0489 78.3638 76.8183 78.361ZM77.1529 79.6874L76.8456 79.2292H76.8274L76.4991 79.2246L76.4928 79.6783L76.1162 79.6726L76.1395 78.0437L76.8439 78.054C77.2784 78.0602 77.5477 78.2899 77.542 78.6555C77.5386 78.8994 77.4131 79.0773 77.2 79.1649L77.5573 79.6937L77.1529 79.6874Z" fill="white"/>
<path d="M77.8493 78.0687L78.226 78.0738L78.2027 79.7028L77.826 79.6971L77.8493 78.0687Z" fill="white"/>
<path d="M78.9451 78.3911L78.4242 78.3837L78.4287 78.0766L79.8466 78.0971L79.8426 78.4041L79.3217 78.3967L79.3024 79.7186L78.9258 79.713L78.9451 78.3911Z" fill="white"/>
<path d="M80.7861 79.1627L80.7776 79.7397L80.401 79.7346L80.4095 79.1524L79.7943 78.0966L80.1942 78.1023L80.6186 78.8323L81.0633 78.1148L81.4337 78.1199L80.7861 79.1627Z" fill="white"/>
<path d="M76.7194 83.4114C76.7001 83.4194 76.6217 83.267 76.4951 82.9845C76.3655 82.703 76.2031 82.2851 76.0225 81.7615C75.6612 80.7148 75.2687 79.2257 75.0539 77.5451C74.8421 75.8633 74.8506 74.3231 74.9392 73.2196C74.9824 72.6675 75.0363 72.2217 75.0909 71.917C75.1425 71.6117 75.1812 71.4445 75.2011 71.4474C75.2482 71.453 75.1812 72.1325 75.1477 73.2304C75.113 74.3277 75.138 75.8468 75.347 77.5076C75.5595 79.1678 75.9151 80.6443 76.2224 81.6984C76.5291 82.7531 76.7632 83.3944 76.7194 83.4114Z" fill="#17282F"/>
<path d="M78.8689 60.3958L78.7513 60.3429C78.7513 60.3429 78.7888 60.3316 78.8559 60.31C78.882 60.3134 78.9036 60.3208 78.9212 60.3316C78.9212 60.3316 78.903 60.3543 78.8689 60.3958Z" fill="#A7A9A8"/>
<path d="M66.3526 91.4406C66.3429 91.4406 66.3338 91.4388 66.3253 91.4354C66.302 91.4263 66.2821 91.3951 66.2662 91.345C66.3117 89.7548 66.3566 88.1839 66.4009 86.6488C66.5065 85.2854 66.6144 84.1193 66.6173 83.9476C66.623 83.5615 66.6508 83.213 66.6934 82.8872C66.7655 82.508 66.8547 82.0577 66.9627 81.5471C67.145 80.8274 67.358 80.1235 67.4927 79.2149C67.8761 77.6378 68.3697 75.7939 68.9446 73.8353C69.7915 71.0022 70.6521 68.4647 71.3792 66.6709C71.5258 66.3025 71.6667 65.9648 71.7968 65.6612C72.2591 64.7231 72.6306 64.0129 72.6306 64.0129C72.6306 64.0129 75.6288 61.6154 77.3034 60.8609C77.8084 60.6335 78.5009 60.3065 78.8087 60.3065C78.8252 60.3065 78.8411 60.3077 78.8559 60.31C78.7889 60.3316 78.7514 60.3429 78.7514 60.3429L78.869 60.3958C78.5418 60.7972 76.7695 62.9833 76.2599 63.8367C73.2975 68.7979 71.1821 71.8721 70.2227 77.561C70.1403 77.5423 70.0534 77.5326 69.9676 77.5314C69.9608 77.5314 69.9546 77.5314 69.9478 77.5314C69.4984 77.5314 69.2786 77.756 69.2746 78.0289C69.2678 78.4713 69.7734 78.4855 70.0438 78.5804C70.0239 78.689 70.004 78.7988 69.9835 78.9096C69.9603 78.9119 69.9353 78.913 69.9086 78.913C69.904 78.913 69.8989 78.913 69.8944 78.913C69.699 78.9102 69.4956 78.8374 69.3598 78.7351L69.2275 79.0177C69.3706 79.1314 69.6297 79.2115 69.8875 79.2155C69.8944 79.2155 69.9006 79.2155 69.9074 79.2155C69.9137 79.2155 69.9199 79.2155 69.9262 79.2155C69.62 80.8461 69.2553 82.6433 69.0241 84.0988C68.6333 86.5561 66.8695 91.4406 66.3526 91.4406ZM70.1034 78.2524C69.8728 78.191 69.6467 78.1625 69.649 78.0159C69.6507 77.9152 69.7347 77.8339 69.9489 77.8339C69.9529 77.8339 69.9568 77.8339 69.9608 77.8339C70.029 77.8351 70.0994 77.8453 70.171 77.8652C70.1494 77.992 70.1267 78.121 70.1034 78.2524Z" fill="#FFB541"/>
<path d="M66.2662 91.345C66.1083 90.8583 66.252 88.5602 66.4009 86.6488C66.3566 88.1839 66.3117 89.7548 66.2662 91.345Z" fill="#0F191D"/>
<path d="M66.6935 82.8873C66.7577 82.4051 66.8548 81.973 66.9627 81.5472C66.8548 82.0577 66.7656 82.508 66.6935 82.8873ZM67.4927 79.215C67.4933 79.2121 67.4933 79.2093 67.4939 79.2065C68.1545 75.8679 69.056 72.5151 70.2211 69.1925C70.5528 68.2459 71.2407 66.7887 71.7968 65.6612C71.6668 65.9648 71.5259 66.3025 71.3793 66.671C70.6522 68.4648 69.7916 71.0022 68.9447 73.8353C68.3698 75.794 67.8762 77.6378 67.4927 79.215Z" fill="#0F191D"/>
<path d="M69.9075 79.2155C69.9007 79.2155 69.8944 79.2155 69.8876 79.2155C69.6297 79.2115 69.3707 79.1314 69.2275 79.0177L69.3599 78.7351C69.4957 78.8374 69.699 78.9102 69.8944 78.913C69.899 78.913 69.9041 78.913 69.9086 78.913C69.9353 78.913 69.9603 78.9119 69.9836 78.9096C69.9649 79.0108 69.9456 79.1132 69.9262 79.2155C69.92 79.2155 69.9137 79.2155 69.9075 79.2155ZM70.0438 78.5804C69.7734 78.4855 69.2679 78.4713 69.2747 78.0289C69.2787 77.756 69.4985 77.5314 69.9478 77.5314C69.9546 77.5314 69.9609 77.5314 69.9677 77.5314C70.0535 77.5326 70.1404 77.5423 70.2228 77.561C70.2205 77.5735 70.2182 77.5866 70.2165 77.5991C70.2017 77.6867 70.1864 77.7754 70.1711 77.8652C70.0995 77.8453 70.0291 77.8351 69.9609 77.8339C69.9569 77.8339 69.9529 77.8339 69.949 77.8339C69.7348 77.8339 69.6507 77.9152 69.649 78.0159C69.6468 78.1625 69.8728 78.191 70.1035 78.2524C70.0842 78.3604 70.0643 78.4696 70.0438 78.5804Z" fill="#A7A9A8"/>
<path d="M67.4921 79.2155L67.5369 78.8852C67.5233 78.9955 67.5091 79.1024 67.4938 79.2064C67.4932 79.2098 67.4926 79.2127 67.4921 79.2155Z" fill="#0F191D"/>
<path d="M65.2756 82.446C63.2858 81.0912 62.1298 78.7823 60.8755 76.6962C59.2714 74.0292 57.3445 71.5565 55.1502 69.3505C53.8118 68.0048 52.3315 66.7323 50.5537 66.0683C49.799 65.7863 48.9969 65.6174 48.2922 65.2268C47.5872 64.8368 46.9706 64.1505 46.9588 63.3438C46.949 62.6604 48.2642 61.8365 48.6641 61.6017C48.8957 61.6409 49.1291 61.6995 49.3608 61.7774C50.2878 62.0833 51.1954 62.6291 52.0786 63.2949C53.8384 64.6469 55.4551 66.5333 57.0281 68.6819C59.8388 72.5538 62.5984 77.2551 65.2756 82.446Z" fill="#FFB541"/>
<path d="M65.6647 82.6922C65.5312 82.6143 65.4017 82.5324 65.2756 82.446C62.5984 77.2551 59.8388 72.5538 57.0281 68.6819C55.4551 66.5333 53.8384 64.6469 52.0785 63.2948C51.1954 62.6291 50.2878 62.0833 49.3608 61.7774C49.1291 61.6995 48.8957 61.6409 48.6641 61.6017C48.7355 61.5596 48.7778 61.5369 48.7778 61.5369C50.6881 61.7291 53.8914 64.6236 55.8568 67.0115C57.8223 69.3994 59.565 71.9619 61.0738 74.6625C62.5853 77.3683 64.1532 79.9865 65.6647 82.6922Z" fill="#0F191D"/>
<path d="M42.2585 101.476C42.251 101.476 42.243 101.425 42.2343 101.327C42.2235 101.229 42.2228 101.082 42.2388 100.89C42.2736 100.512 42.3937 99.9433 42.7822 99.3372C43.1608 98.7413 43.8433 98.0966 44.8243 97.855C45.7835 97.6133 47.0108 97.7731 47.9705 98.5554L47.75 98.664C47.6643 96.9333 47.7728 94.9713 48.0881 92.9421C48.3766 91.071 48.7181 89.3085 48.9136 87.6898C49.1157 86.0723 49.2213 84.6059 49.2484 83.3722C49.285 82.139 49.2801 81.1389 49.2646 80.4481C49.2624 80.1309 49.2606 79.8688 49.2593 79.6521C49.261 79.4696 49.2673 79.3736 49.2775 79.373C49.2877 79.3724 49.3012 79.4674 49.3185 79.6487C49.3352 79.8648 49.3553 80.1274 49.3795 80.4441C49.4308 81.1344 49.4676 82.1373 49.4574 83.3762C49.4572 84.6162 49.3727 86.0933 49.1841 87.7228C49.0023 89.3539 48.6673 91.1261 48.3806 92.9859C48.0675 95.0031 47.9512 96.9367 48.0184 98.6532L48.0302 98.9551L47.7977 98.7612C46.9254 98.0341 45.7778 97.8618 44.876 98.0727C43.9567 98.2802 43.299 98.8681 42.9164 99.427C42.5257 99.9933 42.3841 100.536 42.324 100.901C42.2667 101.27 42.2789 101.476 42.2585 101.476Z" fill="#17282F"/>
<path d="M43.6865 115.327C43.6916 115.323 43.7533 115.377 43.8676 115.485C43.9967 115.612 44.1611 115.772 44.3653 115.971C44.8075 116.388 45.4561 116.999 46.3317 117.711C47.2093 118.418 48.3026 119.246 49.6399 120.05C50.309 120.445 51.035 120.859 51.8411 121.158C52.2394 121.306 52.6701 121.387 53.1068 121.347C53.533 121.312 53.985 121.137 54.2758 120.832L54.364 120.739L54.4583 120.812C54.9312 121.177 55.4413 121.57 55.9633 121.973L55.7966 121.971C57.8643 120.416 60.1319 118.71 62.5058 116.925L62.4797 117.137L62.3604 116.988C60.3359 114.465 58.5318 111.974 56.8532 109.738C55.182 107.496 53.6651 105.487 52.3526 103.832C51.0425 102.173 49.9319 100.873 49.1349 100.002C48.7417 99.5613 48.4206 99.2349 48.2031 99.012C47.9875 98.7875 47.8774 98.6664 47.8845 98.6584C47.8914 98.651 48.015 98.7579 48.2444 98.9688C48.4759 99.178 48.8116 99.493 49.2188 99.9229C50.0442 100.773 51.1825 102.056 52.5157 103.7C53.8515 105.343 55.3874 107.341 57.0713 109.575C58.7618 111.802 60.5739 114.289 62.5899 116.802L62.7086 116.95L62.8052 117.07L62.6831 117.162C60.3052 118.942 58.033 120.642 55.9617 122.191L55.8774 122.255L55.7946 122.19C55.2751 121.785 54.7672 121.389 54.2964 121.021L54.4786 121.001C54.1 121.392 53.6092 121.557 53.1292 121.6C52.649 121.643 52.1762 121.547 51.7581 121.386C50.9229 121.068 50.1993 120.644 49.5263 120.237C48.1859 119.409 47.0995 118.561 46.2316 117.832C45.3656 117.098 44.7316 116.467 44.3065 116.03C44.1137 115.818 43.9586 115.648 43.8365 115.514C43.7324 115.396 43.6812 115.332 43.6865 115.327Z" fill="#17282F"/>
<path d="M49.0845 73.5254C49.0319 73.5441 48.8156 72.8681 48.2684 71.8783C47.999 71.3814 47.6245 70.8202 47.1649 70.234C46.6934 69.6575 46.1295 69.0605 45.4725 68.5056C44.8082 67.9587 44.1197 67.5107 43.4677 67.1508C42.8087 66.8039 42.1901 66.5367 41.6531 66.361C40.5817 66.0006 39.8786 65.9096 39.8868 65.8545C39.8897 65.834 40.0658 65.8448 40.3851 65.8806C40.7049 65.9107 41.1627 66.004 41.7161 66.1615C42.2712 66.3144 42.9126 66.5674 43.5946 66.9091C44.2694 67.2645 44.9811 67.717 45.6618 68.2776C46.3355 68.8467 46.9086 69.4653 47.3792 70.0657C47.8383 70.6752 48.2023 71.2608 48.453 71.7799C48.708 72.2962 48.8819 72.73 48.9687 73.0398C49.0621 73.3474 49.1041 73.5197 49.0845 73.5254Z" fill="#17282F"/>
<path d="M76.5479 82.1686C76.4763 82.1686 76.4076 82.1544 76.3479 82.1225C76.3082 81.99 76.2661 81.8485 76.2224 81.6984C76.0355 81.0588 75.8316 80.2628 75.6521 79.365C75.7157 79.2542 75.7509 79.1154 75.7532 78.9506L75.7651 78.1375C75.8736 78.4832 75.9929 78.8255 76.1236 79.1632L76.1162 79.6726L76.3303 79.676C76.503 80.0831 76.691 80.4828 76.895 80.8751C77.0449 81.1634 77.208 81.4823 77.1296 81.7973C77.0801 81.9952 76.7973 82.1686 76.5479 82.1686ZM75.7339 78.038L75.4203 78.0335C75.3942 77.8606 75.3698 77.685 75.347 77.5076C75.2635 76.8441 75.2096 76.2027 75.1766 75.6023C75.3027 76.4262 75.4891 77.2409 75.7339 78.038Z" fill="#FFB541"/>
<path d="M75.3039 79.0712C75.2618 78.8688 75.2244 78.6658 75.1914 78.4628C75.2266 78.6698 75.2641 78.8727 75.3039 79.0712Z" fill="#A7A9A8"/>
<path d="M75.6522 79.365C75.5681 78.942 75.4891 78.4962 75.4204 78.0334L75.734 78.038C75.7442 78.071 75.7544 78.1045 75.7652 78.1375L75.7533 78.9505C75.751 79.1154 75.7158 79.2541 75.6522 79.365Z" fill="#A7A9A8"/>
<path d="M76.3304 79.676L76.1162 79.6726L76.1236 79.1632C76.1895 79.3349 76.2588 79.506 76.3304 79.676Z" fill="#A7A9A8"/>
<path d="M76.348 82.1225C76.2849 82.089 76.2315 82.0355 76.1958 81.9582C75.7924 80.97 75.5005 80.0217 75.3039 79.0711C75.2642 78.8727 75.2267 78.6697 75.1915 78.4627C74.9728 77.1329 74.9336 75.782 75.029 74.2964C75.0614 74.733 75.1108 75.1691 75.1767 75.6023C75.2096 76.2027 75.2636 76.8441 75.3471 77.5076C75.3698 77.6849 75.3942 77.8606 75.4204 78.0335C75.4891 78.4963 75.5681 78.942 75.6521 79.365C75.8316 80.2628 76.0356 81.0587 76.2225 81.6984C76.2662 81.8485 76.3082 81.99 76.348 82.1225Z" fill="#0F191D"/>
<path d="M42.0154 100.878C41.5139 99.29 42.2694 97.399 43.7273 96.5951C44.0641 96.4097 44.4414 96.2767 44.8243 96.2767C44.8638 96.2767 44.9031 96.2778 44.9426 96.2807C45.8632 96.3478 46.5227 97.167 47.063 97.9158C46.7111 97.8106 46.3441 97.7589 45.9768 97.7589C45.9573 97.7589 45.9378 97.7589 45.9181 97.7589C45.8381 97.7538 45.7589 97.7515 45.6799 97.7515C45.3817 97.7515 45.0926 97.7879 44.8243 97.855C43.8433 98.0966 43.1608 98.7414 42.7823 99.3372C42.5313 99.7284 42.3923 100.105 42.3161 100.424C42.271 100.563 42.2341 100.705 42.2057 100.85L42.0154 100.878Z" fill="#FFB541"/>
<path d="M42.316 100.424C42.3923 100.105 42.5313 99.7284 42.7822 99.3372C43.1608 98.7413 43.8433 98.0966 44.8243 97.855C45.0925 97.7879 45.3817 97.7515 45.6799 97.7515C45.7589 97.7515 45.8381 97.7538 45.918 97.7589C45.2408 97.7691 44.5656 97.9556 43.9853 98.3058C43.1994 98.7806 42.598 99.5504 42.316 100.424Z" fill="#0F191D"/>
<path d="M86.3968 66.4941C86.436 66.5202 86.1003 67.0558 85.6266 67.9536C85.1511 68.8513 84.5603 70.126 84.0803 71.5969C83.6037 73.0694 83.3322 74.4482 83.1885 75.4534C83.0436 76.4591 83.0005 77.0897 82.9533 77.0874C82.9192 77.0868 82.888 76.4517 82.9806 75.4283C83.072 74.4072 83.3152 72.9995 83.7986 71.5053C84.286 70.0123 84.9171 68.7319 85.4436 67.8518C85.9702 66.97 86.3684 66.4742 86.3968 66.4941Z" fill="#17282F"/>
<path d="M83.1628 99.269L82.9839 97.8845L83.3179 93.9405L83.54 98.2149L83.5093 98.3951L83.1628 99.269Z" fill="#A7A9A8"/>
<path d="M70.505 111.573L71.7536 109.74C73.8008 106.826 76.1037 104.091 78.6264 101.578C79.1513 101.055 79.6892 100.538 80.1243 99.9376C80.6447 99.2195 81.0048 98.4008 81.361 97.5889C81.6427 96.9482 81.9256 96.304 82.1119 95.6286C82.4641 94.3556 82.4641 93.0161 82.4624 91.6953C82.4573 88.4972 82.2585 87.0934 82.2534 83.8953C82.2534 83.8953 82.3363 81.2464 82.6419 80.9314L83.3179 93.9405L82.9839 97.8846L83.1628 99.269L82.8987 99.9342L70.505 111.573Z" fill="#FFB541"/>
<path d="M86.9108 64.0022C86.9108 64.0022 88.8626 64.7362 89.8812 69.0958C91.0576 74.1298 92.5976 82.5029 92.8339 85.6709C93.0333 88.338 95.6497 98.0847 93.6263 102.376C91.6029 106.666 81.8188 119.918 77.9572 120.343L76.3468 119.934L74.6546 120.225L69.9069 114.758L70.3221 113.193C70.3221 113.193 69.7847 112.321 70.3454 111.544C70.9061 110.766 83.0123 99.3821 83.0123 99.3821C83.0123 99.3821 82.5505 99.3224 82.4511 98.5378C82.2807 97.1864 83.4565 97.2341 83.4565 97.2341L82.6755 85.3229L86.9108 64.0022Z" fill="#FFCE03"/>
<path d="M87.6454 100.796C87.5931 100.869 86.7007 100.229 85.4334 99.829C84.17 99.4156 83.072 99.4168 83.072 99.3269C83.0589 99.2542 84.2007 99.116 85.5237 99.547C86.8495 99.9671 87.6982 100.744 87.6454 100.796Z" fill="#17282F"/>
<path d="M90.0908 99.012C90.0351 99.091 88.8513 97.942 86.954 97.4496C85.0641 96.9265 83.4656 97.3308 83.4566 97.2341C83.448 97.2023 83.8292 97.0545 84.4813 96.9726C85.1312 96.8885 86.056 96.9044 87.0307 97.1636C88.0044 97.4263 88.8133 97.8749 89.3342 98.2729C89.8579 98.6703 90.1147 98.9887 90.0908 99.012Z" fill="#17282F"/>
<path d="M83.072 99.327C83.0606 99.3549 82.8703 99.3384 82.6215 99.1513C82.4994 99.0575 82.3744 98.9023 82.3057 98.6976C82.2375 98.4929 82.2404 98.2519 82.2989 98.0239C82.3398 97.8709 82.3954 97.7385 82.4727 97.6088L82.4596 97.6373C82.6357 97.2279 83.0089 97.1511 83.2146 97.1312C83.4384 97.117 83.5611 97.183 83.5543 97.2126C83.5486 97.2489 83.427 97.2512 83.2469 97.3098C83.0754 97.3632 82.8044 97.494 82.73 97.7282L82.7272 97.7368L82.7164 97.7572C82.6675 97.851 82.6164 97.9761 82.5852 98.0983C82.4778 98.4804 82.5903 98.8102 82.7658 98.9995C82.9374 99.1917 83.0947 99.2832 83.072 99.327Z" fill="#17282F"/>
<path d="M82.5227 80.3498C82.5426 80.3481 82.5795 80.5829 82.6283 81.0093C82.6783 81.4357 82.7351 82.0543 82.7954 82.819C82.9169 84.349 83.0351 86.4651 83.1373 88.8019C83.2356 91.1057 83.3242 93.1883 83.3924 94.7865C83.4208 95.5034 83.4452 96.1095 83.4651 96.6007C83.4787 97.0294 83.477 97.2671 83.456 97.2688C83.4361 97.2699 83.3992 97.0351 83.3503 96.6087C83.3004 96.1823 83.2435 95.5643 83.1833 94.7996C83.0623 93.2696 82.9442 91.1534 82.8414 88.8155C82.7437 86.5129 82.655 84.4303 82.5869 82.8321C82.5579 82.1151 82.5335 81.5085 82.5136 81.0178C82.5 80.5891 82.5022 80.3515 82.5227 80.3498Z" fill="#17282F"/>
<path d="M83.2679 99.2451C83.2742 99.2519 83.1708 99.3531 82.968 99.5396C82.7448 99.7409 82.4465 100.011 82.0705 100.35C81.2713 101.076 80.1448 102.099 78.7497 103.365C77.3489 104.656 75.6856 106.217 73.8554 108.003C72.9402 108.896 71.9797 109.846 70.9958 110.842C70.7589 111.092 70.53 111.354 70.3886 111.654C70.2386 111.955 70.2176 112.281 70.2852 112.628C70.3414 112.975 70.4726 113.33 70.4613 113.745C70.4499 114.129 70.3028 114.614 69.8529 114.801L69.9091 114.569C70.6959 115.468 71.5201 116.411 72.3591 117.372C73.1777 118.309 73.9815 119.23 74.7648 120.128L74.6296 120.08C75.2022 119.983 75.7663 119.886 76.3224 119.792L76.3434 119.788L76.3616 119.79C77.1029 119.881 77.7192 120.224 78.3617 120.114C79.0008 120.036 79.5796 119.702 80.0886 119.321C81.1008 118.531 81.9813 117.632 82.801 116.789C84.4273 115.08 85.7605 113.454 86.8563 112.091C87.9504 110.726 88.8041 109.617 89.3955 108.858C89.6801 108.495 89.9067 108.206 90.0771 107.989C90.2345 107.793 90.3197 107.693 90.3271 107.698C90.3339 107.703 90.2623 107.813 90.1186 108.02C89.9578 108.245 89.7448 108.543 89.4761 108.918C88.9092 109.697 88.0782 110.824 87.0023 112.207C85.9247 113.588 84.6057 115.231 82.9828 116.962C82.1608 117.82 81.294 118.719 80.2533 119.54C79.7273 119.936 79.1144 120.303 78.3958 120.394C77.6602 120.514 76.9779 120.145 76.3326 120.078L76.3713 120.077C75.8157 120.173 75.2516 120.27 74.679 120.369L74.5984 120.383L74.5444 120.321C73.7605 119.424 72.9556 118.503 72.1365 117.566C71.2986 116.606 70.4743 115.662 69.6893 114.761L69.5513 114.603L69.7455 114.529C70.0262 114.421 70.1625 114.069 70.1716 113.735C70.1852 113.402 70.0648 113.047 70.0023 112.677C69.9267 112.309 69.9529 111.877 70.1318 111.533C70.2994 111.183 70.5493 110.905 70.7947 110.648C71.7894 109.647 72.7522 108.706 73.6753 107.817C75.5198 106.042 77.2 104.495 78.619 103.222C80.0392 101.949 81.1968 100.95 82.0018 100.271C82.3914 99.9473 82.701 99.6903 82.9322 99.4981C83.1469 99.3252 83.2617 99.2377 83.2679 99.2451Z" fill="#17282F"/>
<path d="M82.9806 92.4185C82.98 92.5003 75.237 92.4549 65.6886 92.3178C56.1372 92.1802 48.3978 92.0023 48.3989 91.9204C48.4005 91.8391 56.1417 91.884 65.6932 92.0216C75.2409 92.1592 82.9823 92.3366 82.9806 92.4185Z" fill="#17282F"/>
<path d="M74.0934 97.1079C74.1036 97.1096 74.0985 97.1852 74.0797 97.3279C74.0576 97.4695 74.0371 97.6816 73.9758 97.9471C73.8707 98.4832 73.6622 99.2502 73.2947 100.158C72.5772 101.966 71.0696 104.347 68.6219 106.112C66.1725 107.876 63.4368 108.55 61.4969 108.657C60.5198 108.718 59.7268 108.673 59.186 108.602C58.9145 108.576 58.7072 108.528 58.5657 108.505C58.4249 108.477 58.3521 108.457 58.3533 108.448C58.359 108.382 59.5547 108.621 61.4798 108.449C63.3885 108.29 66.0549 107.595 68.4492 105.872C70.8413 104.147 72.3455 101.837 73.1021 100.076C73.8764 98.303 74.0303 97.092 74.0934 97.1079Z" fill="#17282F"/>
<path d="M57.5178 120.868C57.4672 120.931 57.1446 120.748 56.8526 120.408C56.5595 120.068 56.4276 119.722 56.4966 119.681C56.5676 119.637 56.8015 119.896 57.0764 120.215C57.3502 120.535 57.5712 120.805 57.5178 120.868Z" fill="#17282F"/>
<path d="M59.6866 119.175C59.6207 119.224 59.3765 119.005 59.1407 118.687C58.905 118.368 58.767 118.071 58.8329 118.022C58.8982 117.974 59.143 118.192 59.3788 118.511C59.6145 118.829 59.752 119.126 59.6866 119.175Z" fill="#17282F"/>
<path d="M72.2519 114.616C72.2893 114.69 71.9638 114.928 71.5588 115.2C71.1515 115.472 70.8079 115.681 70.7539 115.618C70.7011 115.558 70.9703 115.237 71.3941 114.954C71.8167 114.671 72.2161 114.544 72.2519 114.616Z" fill="#17282F"/>
<path d="M73.8627 116.202C73.9303 116.243 73.7343 116.675 73.3225 117.079C72.9129 117.485 72.4778 117.675 72.4375 117.607C72.3926 117.535 72.7323 117.248 73.1152 116.869C73.5003 116.492 73.7923 116.156 73.8627 116.202Z" fill="#17282F"/>
<path d="M75.4067 118.093C75.4658 118.148 75.2159 118.51 74.7961 118.843C74.3769 119.177 73.9679 119.339 73.9281 119.269C73.8861 119.197 74.2121 118.931 74.612 118.611C75.0131 118.293 75.3465 118.036 75.4067 118.093Z" fill="#17282F"/>
<path d="M53.3691 57.5827C53.4532 57.5497 54.1313 59.2588 55.2902 61.1924C56.439 63.1329 57.6183 64.5423 57.549 64.6009C57.5206 64.6253 57.1877 64.3041 56.7106 63.7304C56.2333 63.1573 55.6204 62.3238 55.0359 61.3442C54.453 60.364 54.0121 59.4276 53.7352 58.7351C53.4578 58.042 53.3336 57.5963 53.3691 57.5827Z" fill="#17282F"/>
<path d="M87.6419 133.958C87.6419 133.968 87.4766 133.976 87.1619 133.984C86.8205 133.987 86.3621 133.992 85.7855 133.999C84.5613 134.01 82.8402 134.026 80.7253 134.046C76.4524 134.097 70.5521 134.258 64.0343 134.457C57.5143 134.655 51.6091 134.783 47.3335 134.781C45.1962 134.781 43.4661 134.766 42.2711 134.734C41.6949 134.717 41.2365 134.703 40.8952 134.693C40.581 134.681 40.4159 134.669 40.4159 134.659C40.4161 134.649 40.5814 134.64 40.8961 134.634C41.2371 134.63 41.6958 134.625 42.2721 134.618C43.496 134.607 45.2173 134.591 47.3321 134.572C51.6047 134.52 57.5058 134.36 64.0258 134.161C70.5436 133.962 76.4479 133.834 80.7236 133.836C82.8612 133.835 84.5909 133.851 85.7861 133.883C86.3626 133.9 86.821 133.914 87.1624 133.923C87.4771 133.937 87.6419 133.947 87.6419 133.958Z" fill="#17282F"/>
<path d="M75.8725 58.515C75.8049 58.5736 75.1102 57.7787 74.0212 57.1096C72.9385 56.429 71.9183 56.1589 71.941 56.0725C71.9479 55.998 73.0431 56.147 74.1769 56.8583C75.3164 57.5598 75.9356 58.4758 75.8725 58.515Z" fill="#F03D5F"/>
<path d="M72.1927 121.341C72.4057 121.752 72.9238 121.911 73.3868 121.893C73.8497 121.876 74.2991 121.726 74.7614 121.701C75.2238 121.675 75.7436 121.812 75.9782 122.212C76.164 122.529 76.1208 122.944 75.9396 123.264C75.7584 123.584 75.459 123.82 75.142 124.006C73.6282 124.895 71.5525 124.696 70.2352 123.534" fill="#C0776A"/>
<path d="M61.781 128.403C63.1176 129.738 64.5917 130.933 66.1737 131.965C66.5231 132.193 66.9201 132.423 67.332 132.354C67.7432 132.287 68.071 131.751 67.7955 131.437C68.2187 131.777 68.8697 131.792 69.3082 131.474C69.724 131.171 69.9138 130.594 69.7689 130.103L69.8195 130.055C70.225 130.209 70.7022 130.198 71.0686 129.967C71.4583 129.721 71.6815 129.208 71.5344 128.772C71.9553 129.343 72.9659 129.117 73.2902 128.486C73.6146 127.854 73.3885 127.06 72.9591 126.496C72.5302 125.931 71.9275 125.53 71.3856 125.072C70.8437 124.614 70.3335 124.051 70.2046 123.353" fill="#C0776A"/>
<path d="M67.9744 131.672C67.9437 131.742 67.1797 131.425 66.4764 130.709C65.7675 129.998 65.4579 129.231 65.5283 129.201C65.605 129.159 66.014 129.828 66.6866 130.501C67.3523 131.18 68.0164 131.596 67.9744 131.672Z" fill="#B85549"/>
<path d="M70.0972 130.355C70.0557 130.421 69.3974 130.065 68.7498 129.42C68.0988 128.777 67.7375 128.122 67.8029 128.08C67.8727 128.032 68.3294 128.59 68.9577 129.21C69.5825 129.833 70.1449 130.285 70.0972 130.355Z" fill="#B85549"/>
<path d="M71.9507 129.045C71.9098 129.111 71.2792 128.785 70.6584 128.178C70.0346 127.574 69.691 126.952 69.7563 126.909C69.8262 126.861 70.2647 127.385 70.8646 127.966C71.461 128.55 71.9978 128.974 71.9507 129.045Z" fill="#B85549"/>
<path d="M58.0539 115.555C58.0539 115.555 57.8841 114.83 59.7496 115.065C61.6145 115.299 62.4484 115.48 64.5439 115.371C66.6389 115.262 70.0386 114.665 70.0386 114.665L75.5078 119.482C75.5078 119.482 69.9137 124.401 68.2402 125.278C66.5667 126.154 63.159 128.34 61.2197 128.235C59.7456 128.156 59.6132 127.421 59.6132 127.421C59.6132 127.421 58.1744 126.431 58.3885 125.95C58.3885 125.95 56.6803 125.856 57.0008 124.544C57.0008 124.544 55.7828 124.319 55.585 123.623C55.3873 122.928 56.3071 122.11 56.6608 121.759C57.2291 121.195 62.2075 117.538 62.2291 117.435C62.2291 117.435 57.9755 117.013 58.0539 115.555Z" fill="#C0776A"/>
<path d="M61.5833 120.872C61.6332 120.937 60.6318 121.794 59.3463 122.786C58.0608 123.778 56.9781 124.529 56.9287 124.464C56.8787 124.399 57.8802 123.543 59.1656 122.551C60.4511 121.559 61.5338 120.808 61.5833 120.872Z" fill="#B85549"/>
<path d="M64.2173 121.383C64.2463 121.407 64.0122 121.76 63.5635 122.276C63.1159 122.791 62.4433 123.46 61.6208 124.105C60.7971 124.749 59.9854 125.24 59.377 125.55C58.768 125.861 58.3693 126.003 58.3534 125.969C58.3125 125.887 59.8218 125.145 61.4384 123.872C63.063 122.61 64.148 121.323 64.2173 121.383Z" fill="#B85549"/>
<path d="M66.5707 123.07C66.598 123.091 66.3474 123.5 65.8294 124.073C65.313 124.647 64.5075 125.366 63.4947 125.979C62.4796 126.588 61.4668 126.963 60.7192 127.15C59.97 127.34 59.4911 127.37 59.486 127.336C59.4604 127.241 61.3594 126.934 63.3425 125.724C65.338 124.539 66.4991 123.003 66.5707 123.07Z" fill="#B85549"/>
<path d="M73.2471 121.504C73.2607 121.519 73.1136 121.671 72.8364 121.931C72.5563 122.19 72.1428 122.554 71.6139 122.982C70.5585 123.841 69.0333 124.953 67.2388 126.004C66.3413 126.53 65.4654 126.993 64.6548 127.385C63.8476 127.784 63.0796 128.09 62.4002 128.226C61.7214 128.37 61.1448 128.328 60.7716 128.228C60.3961 128.127 60.216 128.004 60.2228 127.993C60.2285 127.932 61.0391 128.368 62.3542 128.021C63.0029 127.866 63.7396 127.549 64.5338 127.141C65.3324 126.738 66.1987 126.271 67.0888 125.748C68.8708 124.706 70.4028 123.63 71.4855 122.817C72.5711 122.006 73.2169 121.469 73.2471 121.504Z" fill="#B85549"/>
<path d="M63.2288 25.9147C57.7653 25.4104 52.9452 29.4835 52.5362 34.9598C52.196 39.5179 51.8758 44.4484 51.871 46.9347C51.8599 52.2712 57.1797 53.1774 57.1797 53.1774C57.1797 53.1774 57.0269 54.7563 56.8508 56.7155C56.4977 60.6619 59.4706 64.1221 63.4214 64.3609C67.2949 64.5946 70.6231 61.6392 70.8526 57.7622L72.1262 36.2817C72.4397 30.9896 68.5032 26.4025 63.2288 25.9147Z" fill="#C0776A"/>
<path d="M57.1719 53.1007C57.1719 53.1007 60.537 53.4231 64.1498 51.2239C64.1498 51.2239 62.3644 55.0798 57.052 54.5226L57.1719 53.1007Z" fill="#B85549"/>
<path d="M71.6088 38.1073C71.7002 38.0698 75.2869 37.0759 75.1182 40.7221C74.9495 44.3682 71.327 43.4466 71.3253 43.3414C71.3236 43.2362 71.6088 38.1073 71.6088 38.1073Z" fill="#C0776A"/>
<path d="M72.5023 42.0116C72.5188 42.0008 72.5637 42.0594 72.6688 42.1134C72.771 42.1663 72.9494 42.2078 73.1425 42.1452C73.5339 42.0219 73.8861 41.4249 73.9344 40.7688C73.9594 40.4373 73.9043 40.1183 73.7986 39.8511C73.7004 39.5793 73.5362 39.3849 73.3442 39.3417C73.1533 39.2882 73.0108 39.398 72.9613 39.498C72.9079 39.5981 72.9278 39.672 72.9085 39.6771C72.8977 39.6857 72.833 39.6123 72.8693 39.4634C72.8875 39.3917 72.9341 39.3076 73.0232 39.2416C73.1136 39.1745 73.2436 39.1438 73.3783 39.1649C73.6583 39.1978 73.8992 39.4679 74.0151 39.7613C74.1463 40.0564 74.2156 40.4151 74.1878 40.7875C74.1304 41.521 73.7231 42.1907 73.1891 42.3187C72.9301 42.3738 72.7199 42.2862 72.6131 42.1953C72.5046 42.1003 72.4893 42.0179 72.5023 42.0116Z" fill="#B85549"/>
<path d="M54.6077 37.8675C54.588 38.27 54.9115 38.618 55.3309 38.647C55.7491 38.6754 56.1053 38.3735 56.1252 37.9715C56.1452 37.569 55.8219 37.2199 55.4032 37.1914C54.9838 37.1624 54.6279 37.4655 54.6077 37.8675Z" fill="#17282F"/>
<path d="M53.883 36.8804C53.9759 36.9816 54.5586 36.562 55.3781 36.5762C56.1962 36.5785 56.7916 37.0089 56.8821 36.91C56.9259 36.8662 56.8327 36.6854 56.5735 36.491C56.3183 36.2971 55.8818 36.106 55.3715 36.1009C54.8611 36.0964 54.4293 36.2777 54.1799 36.4671C53.9249 36.6564 53.8371 36.8349 53.883 36.8804Z" fill="#17282F"/>
<path d="M62.8153 38.0931C62.7954 38.4951 63.1198 38.8431 63.5384 38.872C63.9571 38.9005 64.3133 38.5986 64.3331 38.1966C64.353 37.7941 64.0292 37.445 63.6106 37.4166C63.1919 37.3876 62.8358 37.6906 62.8153 38.0931Z" fill="#17282F"/>
<path d="M61.9327 37.1493C62.0258 37.2505 62.6098 36.8315 63.4283 36.8451C64.2463 36.8474 64.8416 37.2778 64.932 37.1783C64.9763 37.1351 64.8837 36.9543 64.6235 36.7599C64.3685 36.566 63.9316 36.375 63.4215 36.3698C62.9108 36.3653 62.4791 36.5472 62.2298 36.736C61.9758 36.9259 61.8872 37.1044 61.9327 37.1493Z" fill="#17282F"/>
<path d="M58.8725 43.1868C58.8771 43.1402 58.3692 43.0452 57.5456 42.9281C57.3365 42.9031 57.1388 42.8587 57.1059 42.7149C57.0587 42.5631 57.1496 42.3391 57.2547 42.0963C57.4587 41.5931 57.6717 41.065 57.8961 40.5118C58.7879 38.254 59.4366 36.3966 59.3457 36.3613C59.2543 36.3261 58.4573 38.1278 57.566 40.385C57.3507 40.9416 57.1457 41.472 56.9503 41.9803C56.8679 42.2169 56.7276 42.4846 56.8298 42.8002C56.8838 42.9571 57.036 43.0731 57.1695 43.1112C57.3024 43.1544 57.4206 43.1578 57.524 43.1658C58.3533 43.2226 58.8686 43.2334 58.8725 43.1868Z" fill="#17282F"/>
<path d="M60.988 34.1803C61.0834 34.3975 61.8923 34.2383 62.8591 34.2906C63.8271 34.3242 64.6189 34.5539 64.7326 34.3464C64.7831 34.2469 64.6348 34.0467 64.3076 33.8517C63.9839 33.6573 63.476 33.485 62.896 33.4594C62.3161 33.4338 61.7946 33.56 61.4549 33.7255C61.1118 33.8904 60.9459 34.0768 60.988 34.1803Z" fill="#17282F"/>
<path d="M53.5765 33.8597C53.7178 34.0479 54.285 33.8625 54.964 33.8636C55.6426 33.8403 56.215 34.0063 56.3502 33.8136C56.4096 33.7198 56.322 33.5322 56.073 33.3525C55.8283 33.1729 55.4167 33.0233 54.9501 33.0307C54.4836 33.0387 54.0769 33.2018 53.8383 33.3895C53.5956 33.5771 53.5141 33.7681 53.5765 33.8597Z" fill="#17282F"/>
<path d="M72.0274 37.9459C72.0672 38.5042 72.0382 39.149 71.9121 39.6953C71.7854 40.2411 71.4668 40.7705 70.9623 41.0138C70.0404 41.4579 68.9009 40.7403 68.5044 39.7965C68.1079 38.8522 68.2369 37.7816 68.3459 36.7633C68.4942 35.3743 68.5902 33.9626 68.3431 32.5878C68.096 31.2131 67.4723 29.8645 66.393 28.9792C65.3131 28.0946 63.7362 27.758 62.4751 28.3561C61.6969 28.7251 61.1056 29.3971 60.3779 29.8576C59.7235 30.2721 58.9305 30.5121 58.1671 30.3813C57.4036 30.25 56.37 29.7132 56.4995 28.9485C56.8015 27.1684 55.5667 28.662 55.6482 28.3589C55.7837 27.8546 56.8094 26.9893 57.2349 26.676C58.0199 26.0984 58.8516 25.8215 59.6837 25.6754C61.9929 25.27 64.4769 25.5628 66.6418 26.4617C68.8072 27.3606 70.7084 29.0355 71.594 31.2074C72.6176 33.7193 72.458 35.2413 72.1126 37.947" fill="#17282F"/>
<path d="M60.6062 45.6123C60.6147 45.7754 59.9342 45.9454 59.0861 45.9909C58.2374 46.0364 57.5427 45.9409 57.5341 45.7777C57.5251 45.6145 58.2056 45.4451 59.0542 45.3996C59.9023 45.3536 60.5971 45.4491 60.6062 45.6123Z" fill="#17282F"/>
<path d="M72.0189 38.266C72.0093 38.3029 71.5781 38.2256 70.9039 38.0221C70.2285 37.8202 69.3167 37.4802 68.3255 37.0777C67.3973 36.7042 66.5549 36.3653 65.7897 36.0566C65.1387 35.8041 64.7309 35.6569 64.7428 35.6148C64.7525 35.5779 65.183 35.6546 65.8579 35.8587C66.5333 36.0606 67.445 36.4 68.4363 36.8031C69.3645 37.1766 70.2063 37.5155 70.9715 37.8237C71.623 38.0767 72.0309 38.2239 72.0189 38.266Z" fill="#17282F"/>
<path d="M56.8623 35.1156C57.3463 35.1731 57.7428 35.5415 57.816 36.0242C57.9598 36.9805 57.7996 37.9834 57.348 38.8385C56.7654 39.9444 55.7065 40.7881 54.4994 41.1082C53.8069 41.2913 53.0254 41.2958 52.4201 40.9126C51.572 40.3759 51.3104 39.2667 51.2365 38.2654C51.1821 37.5343 51.2014 36.7508 51.6035 36.1385C52.1165 35.3562 53.1224 35.0548 54.0557 35.0036C54.9892 34.953 56.8623 35.1156 56.8623 35.1156Z" fill="#17282F"/>
<path d="M61.1459 35.2481C60.6551 35.2919 60.2427 35.6535 60.1553 36.1385C59.982 37.1005 60.1149 38.1193 60.5461 38.9977C61.1033 40.1325 62.1497 41.0161 63.3608 41.3748C64.0555 41.5807 64.8451 41.6079 65.4682 41.2378C66.3413 40.7204 66.6378 39.6061 66.7423 38.5957C66.8179 37.8583 66.8213 37.0663 66.4328 36.4352C65.9368 35.629 64.9291 35.2953 63.9862 35.2162C63.0438 35.1378 61.1459 35.2481 61.1459 35.2481Z" fill="#17282F"/>
<path d="M62.0065 35.3987C62.0048 35.4806 60.6052 35.5187 58.8811 35.4846C57.156 35.4499 55.7596 35.3555 55.7611 35.2736C55.7626 35.1923 57.1616 35.1537 58.8868 35.1883C60.6114 35.223 62.0082 35.3169 62.0065 35.3987Z" fill="#17282F"/>
<path d="M71.811 59.5947C71.8059 59.5953 71.8008 59.5657 71.7957 59.5066C71.79 59.4475 71.79 59.3582 71.8059 59.2434C71.8326 59.012 71.9479 58.6822 72.1575 58.3001C72.3649 57.9163 72.6381 57.4666 72.7983 56.8799C72.9704 56.2988 73.0437 55.6046 73.0391 54.8376C73.0403 54.0655 72.9426 53.2354 72.8863 52.3087C72.8841 52.0739 72.9102 51.8044 73.0624 51.573C73.2016 51.3524 73.4811 51.146 73.8077 51.229C73.9577 51.2711 74.0878 51.366 74.1707 51.507C74.2582 51.6458 74.2582 51.8539 74.1599 51.9983C73.9281 52.2939 73.5686 52.2661 73.301 52.1649C72.7614 51.9101 72.462 51.2694 72.6228 50.677C72.7 50.3881 72.8755 50.1215 73.1283 49.9407C73.2567 49.8508 73.405 49.7832 73.5748 49.7639C73.7384 49.744 73.9435 49.7883 74.0758 49.9339C74.1991 50.068 74.2752 50.2682 74.1957 50.4768C74.1037 50.69 73.8821 50.7577 73.7225 50.7656C73.3845 50.7827 73.0636 50.6269 72.8449 50.3881C72.6245 50.1516 72.491 49.8122 72.5421 49.4693C72.5921 49.1282 72.8102 48.836 73.0948 48.6626C73.3328 48.5147 73.6259 48.4471 73.9162 48.5147C74.0616 48.5528 74.1923 48.6262 74.3002 48.7399C74.407 48.8468 74.4843 49.0378 74.4303 49.2135C74.3843 49.392 74.2235 49.5097 74.0855 49.5529C73.9429 49.6001 73.8015 49.6064 73.6629 49.5893C73.3925 49.5467 73.1539 49.4313 72.9483 49.2709C72.5455 48.9582 72.2871 48.3891 72.4836 47.8728C72.6671 47.3924 73.1772 47.0274 73.7094 47.1462C73.9651 47.2076 74.2093 47.3913 74.2542 47.6977C74.2724 47.849 74.2042 48.007 74.0991 48.1008C73.9946 48.1969 73.8662 48.2498 73.7316 48.2623C73.4589 48.2805 73.2374 48.1509 73.0653 48.0155C72.8903 47.8763 72.7421 47.704 72.6438 47.501C72.4325 47.1007 72.5245 46.5458 72.9074 46.2849C73.2976 46.0074 73.8929 46.232 73.9685 46.7022L73.981 46.7812L73.9128 46.8187C73.3732 47.1115 72.7284 46.8091 72.5342 46.323C72.4308 46.0751 72.4768 45.7953 72.5955 45.5884C72.7159 45.3792 72.8983 45.22 73.1079 45.1358C73.3152 45.0466 73.5561 45.0477 73.752 45.1313C73.9509 45.2035 74.1213 45.4298 74.0679 45.6526C74.0491 45.7612 73.9668 45.8641 73.8617 45.9C73.7572 45.9381 73.6526 45.921 73.5663 45.8846C73.3845 45.809 73.2976 45.6288 73.2635 45.4843C73.1624 44.8919 73.2124 44.441 73.2476 44.1335C73.2897 43.8276 73.3379 43.6712 73.3476 43.6735C73.3936 43.6701 73.1971 44.333 73.3908 45.4497C73.4277 45.5787 73.4976 45.7027 73.6231 45.7487C73.7475 45.8027 73.8912 45.7555 73.91 45.6214C73.9696 45.3286 73.4964 45.1478 73.18 45.3087C72.8494 45.4434 72.5688 45.8698 72.7307 46.2439C72.8721 46.6107 73.4197 46.8426 73.7924 46.618L73.7367 46.734C73.7055 46.4691 73.2851 46.2962 73.0477 46.4884C72.7892 46.6715 72.7068 47.0752 72.8773 47.3873C73.0306 47.6898 73.3868 48.0076 73.7072 47.9928C73.8634 47.9792 74.0037 47.8529 73.981 47.7262C73.969 47.5954 73.8117 47.4487 73.6453 47.418C73.2953 47.331 72.8852 47.6068 72.7523 47.974C72.6103 48.3368 72.7966 48.7859 73.13 49.0424C73.2953 49.1726 73.4993 49.2669 73.7021 49.2976C73.8963 49.3278 74.1253 49.2584 74.1468 49.1333C74.194 49.0185 74.0298 48.8451 73.8429 48.8013C73.6543 48.7569 73.4294 48.8002 73.2493 48.915C73.0306 49.0469 72.8682 49.2732 72.8341 49.5126C72.7972 49.7508 72.8915 50.0061 73.0613 50.1886C73.2289 50.3733 73.4726 50.4848 73.7038 50.4734C73.9497 50.4672 73.9986 50.2949 73.864 50.1317C73.7503 49.9981 73.4771 50.0373 73.2931 50.1749C73.0988 50.3119 72.9573 50.5234 72.8954 50.7503C72.758 51.2017 73.0176 51.7299 73.4061 51.913C73.5941 51.9971 73.8583 51.975 73.9384 51.8499C74.0344 51.7265 73.9145 51.5275 73.7378 51.4797C73.5782 51.4309 73.3783 51.544 73.2738 51.7117C73.1613 51.8772 73.1312 52.0915 73.1317 52.307C73.1755 53.1985 73.263 54.0593 73.2488 54.8382C73.2397 55.6188 73.1499 56.3318 72.9562 56.9276C72.7761 57.5297 72.4762 57.9897 72.2581 58.3564C72.0354 58.7254 71.9093 59.0336 71.8644 59.2536C71.8178 59.473 71.8247 59.5947 71.811 59.5947Z" fill="#DADBD8"/>
<path d="M73.9048 42.1469C73.8684 41.8735 73.8077 41.5971 73.6634 41.3623C73.5191 41.127 73.2794 40.9371 73.005 40.9115C72.6988 40.8825 72.3864 41.082 72.2819 41.3714C72.1808 41.6523 72.3108 41.9997 72.5506 42.1782L72.5659 42.1907L72.5716 42.1953L72.5693 42.193L72.6324 42.2345C72.7272 42.2942 72.8619 42.3022 72.9567 42.3613C73.1521 42.4824 73.2152 42.7399 73.2061 42.9696C73.1976 43.1993 73.1345 43.4268 73.1516 43.6559C73.1646 43.823 73.2589 44.0169 73.4259 44.0203C73.5713 44.0237 73.673 43.881 73.7332 43.7491C73.9582 43.2539 73.9769 42.6865 73.9048 42.1469Z" fill="#DADBD8"/>
<path d="M57.0981 54.0365C57.0981 54.0365 55.9553 55.7126 55.8619 56.8019C55.8 57.5229 56.2802 60.3275 56.6119 62.1418C56.8023 63.184 57.2083 64.1721 57.8053 65.0465L58.5449 66.1308C59.614 67.6977 60.5052 69.3789 61.2022 71.1437C62.6428 74.7893 65.0632 80.9291 65.1479 81.2231C65.2689 81.6426 66.2238 83.3671 66.2238 83.3671L67.5041 68.0423L71.3669 60.3804C71.7032 59.7135 71.8918 58.9818 71.9185 58.2358L72.0088 55.7763C72.0417 54.8751 71.7213 53.9973 71.1158 53.3298L70.9215 55.5437L64.5156 61.368L57.0856 56.3642L57.0981 54.0365Z" fill="white"/>
<path d="M64.1901 61.4169C64.2242 61.4704 63.4726 61.6875 62.8506 62.6819C62.2053 63.6411 61.7179 65.1915 61.2959 66.9217C61.2527 67.0922 61.2107 67.2617 61.1703 67.4203L61.1135 67.6494L60.9335 67.4987C59.6406 66.4139 58.6471 65.291 57.9291 64.4945C57.2173 63.69 56.7927 63.1919 56.8202 63.1646C56.8486 63.1374 57.3258 63.5894 58.0762 64.3569C58.8311 65.1171 59.8474 66.211 61.1215 67.2707L60.8846 67.3492C60.9238 67.19 60.9664 67.0206 61.009 66.8495C61.4328 65.1131 61.9611 63.5336 62.6791 62.5625C63.029 62.0781 63.405 61.7478 63.7061 61.5966C64.0004 61.4357 64.1878 61.4055 64.1901 61.4169Z" fill="#17282F"/>
<path d="M68.7622 65.5469C68.8105 65.5793 68.222 66.5299 67.32 67.8933L67.0848 68.2492L67.078 67.816C67.0683 67.1934 66.8951 66.4839 66.6826 65.7317C66.3435 64.4177 66.0288 63.2329 65.5437 62.5046C65.0762 61.7683 64.5928 61.4681 64.6297 61.4232C64.6399 61.4078 64.7654 61.4698 64.9716 61.6165C65.1756 61.766 65.4505 62.0173 65.7169 62.388C66.2747 63.1271 66.6315 64.3495 66.9683 65.6555C67.1785 66.4043 67.3535 67.1457 67.3432 67.82L67.1013 67.7432C68.0425 66.4077 68.7145 65.5133 68.7622 65.5469Z" fill="#17282F"/>
<path d="M65.8318 82.3204C65.75 82.3255 65.3847 77.6793 65.016 71.9442C64.6474 66.207 64.4139 61.5534 64.4957 61.5477C64.5775 61.5426 64.9422 66.1882 65.3114 71.9249C65.6801 77.6605 65.913 82.3153 65.8318 82.3204Z" fill="#17282F"/>
<path d="M51.5167 38.2723C51.4461 38.3075 51.1985 37.6821 51.4492 36.9379C51.6924 36.1914 52.264 35.8383 52.2999 35.9082C52.3565 35.9736 51.9383 36.3779 51.7297 37.0311C51.5071 37.6798 51.6012 38.2541 51.5167 38.2723Z" fill="#DADBD8"/>
<path d="M60.8858 38.5935C60.8255 38.6435 60.4512 38.1603 60.4546 37.4416C60.4512 36.723 60.8261 36.2403 60.8863 36.2903C60.9619 36.3318 60.7443 36.8145 60.7506 37.4416C60.7437 38.0687 60.9613 38.552 60.8858 38.5935Z" fill="#DADBD8"/>
</g>
<defs>
<clipPath id="clip0">
<rect width="388" height="243" fill="white"/>
</clipPath>
</defs>
</svg>
