<svg width="40" height="20" viewBox="0 0 40 20" fill="none" xmlns="http://www.w3.org/2000/svg">
<path d="M38.4375 8.3871H5.34706L10.8286 2.75612C11.4403 2.12774 11.4426 1.10653 10.8339 0.475156C10.2251 -0.156296 9.23573 -0.158634 8.62409 0.469672L0.459717 8.85677C0.45917 8.85726 0.458779 8.85782 0.458311 8.85831C-0.151767 9.48669 -0.15372 10.5112 0.458154 11.1417C0.458701 11.1422 0.459092 11.1427 0.459561 11.1432L8.62393 19.5303C9.23549 20.1586 10.2249 20.1564 10.8337 19.5248C11.4424 18.8935 11.4401 17.8723 10.8285 17.2439L5.34706 11.6129H38.4375C39.3005 11.6129 40 10.8908 40 10C40 9.10919 39.3005 8.3871 38.4375 8.3871Z" fill="white"/>
</svg>
