<svg width="144" height="171" viewBox="0 0 144 171" fill="none" xmlns="http://www.w3.org/2000/svg">
<g clip-path="url(#clip0)">
<path d="M33.8476 147.46C11.8716 125.423 11.8716 89.6938 33.8476 67.6567C55.8236 45.6196 91.4538 45.6196 113.43 67.6567C135.406 89.6938 135.406 125.423 113.43 147.46C91.4538 169.497 55.8236 169.497 33.8476 147.46Z" fill="#FFCC47"/>
<path d="M128.842 119.7L118.232 103.645L98.621 115.995L116.337 143.45C116.337 143.45 125.147 131.195 128.842 119.7Z" fill="#EB996E"/>
<path d="M57.0316 32.68C57.9789 31.635 56.6526 29.925 55.3263 29.45C54 28.975 52.2947 28.69 51.6316 27.455C50.8737 25.935 52.2 24.13 52.4842 22.42C52.7684 20.615 51.7263 18.81 51.3474 17.005C50.9684 14.63 51.8211 12.16 53.6211 10.64C55.4211 9.12003 58.0737 8.64503 60.2526 9.40503C60.4421 5.79503 62.9053 2.47003 66.3158 1.33003C69.7263 0.19003 73.7053 1.33003 75.9789 4.18003C77.8737 2.85003 79.5789 1.42503 81.6632 0.570031C83.7474 -0.28497 86.1158 -0.47497 88.1053 0.38003C90.0947 1.23503 91.6105 3.51503 91.2316 5.70003C92.8421 3.89503 95.6842 3.61003 97.8632 4.56003C100.042 5.60503 101.463 7.79003 102.126 10.07C102.979 13.3 102.221 17.1 99.6632 19.19C97.1053 21.28 92.7474 21.09 90.8526 18.335" fill="#263238"/>
<path d="M69.5368 87.2102C76.5474 87.2102 82.4211 81.7002 82.7053 74.7652C82.9895 68.9702 83.2737 63.3652 83.2737 63.3652C83.2737 63.3652 94.0737 62.6052 95.0211 51.9652C95.9684 41.4202 96.1579 16.9102 96.1579 16.9102C84.2211 10.6402 69.9158 11.3052 58.6421 18.5252L57.6 19.1902L56.3684 73.9102C56.2737 81.2252 62.2421 87.2102 69.5368 87.2102Z" fill="#FFBE9D"/>
<path d="M75.7895 33.2501C76.6421 33.5351 77.021 34.3901 76.7368 35.2451C76.4526 36.1001 75.6 36.4801 74.7474 36.1951C73.8947 35.9101 73.5158 35.0551 73.8 34.2001C74.0842 33.4401 74.9368 32.9651 75.7895 33.2501Z" fill="#263238"/>
<path d="M78.7263 33.8201C78.5368 34.0101 77.5895 33.1551 76.0737 33.0601C74.6526 32.9651 73.5158 33.6301 73.3263 33.4401C73.2316 33.3451 73.4211 33.0601 73.8947 32.6801C74.3684 32.3951 75.2211 32.1101 76.0737 32.1101C77.0211 32.2051 77.779 32.5851 78.1579 32.9651C78.6316 33.3451 78.8211 33.7251 78.7263 33.8201Z" fill="#263238"/>
<path d="M91.8947 33.2501C92.7474 33.5351 93.1263 34.3901 92.8421 35.2451C92.5579 36.1001 91.7053 36.4801 90.8526 36.1951C90 35.9101 89.6211 35.0551 89.9053 34.2001C90.1895 33.4401 91.0421 32.9651 91.8947 33.2501Z" fill="#263238"/>
<path d="M95.0211 33.8201C94.8316 34.0101 93.8842 33.1551 92.3684 33.0601C90.9474 32.9651 89.8105 33.6301 89.6211 33.4401C89.5263 33.3451 89.7158 33.0601 90.1895 32.6801C90.6632 32.3951 91.5158 32.1101 92.3684 32.1101C93.3158 32.2051 94.0737 32.5851 94.4526 32.9651C94.9263 33.4401 95.1158 33.7251 95.0211 33.8201Z" fill="#263238"/>
<path d="M83.9368 45.2202C83.9368 45.1252 84.8842 45.0302 86.3053 44.9352C86.6842 44.9352 86.9684 44.8402 87.0632 44.6502C87.1579 44.4602 87.0632 43.9852 86.8737 43.5102C86.5895 42.5602 86.3053 41.5152 85.9263 40.4702C84.6947 36.1002 83.8421 32.5852 84.0316 32.4902C84.2211 32.3952 85.4526 35.9102 86.6842 40.2802C86.9684 41.3252 87.2526 42.3702 87.5368 43.3202C87.6316 43.7952 87.821 44.2702 87.6316 44.9352C87.5368 45.2202 87.1579 45.4102 86.8737 45.5052C86.5895 45.6002 86.4 45.5052 86.2105 45.5052C84.8842 45.5052 83.9368 45.3152 83.9368 45.2202Z" fill="#263238"/>
<path d="M79.0105 46.4551C81.9474 47.8801 83.2737 48.3551 86.0211 49.1151C86.0211 49.1151 84.1263 51.6801 81.0947 50.3501C78.0632 48.9251 79.0105 46.4551 79.0105 46.4551Z" fill="white"/>
<path d="M83.3684 63.1751C83.3684 63.1751 76.6421 63.1751 69.821 58.1401C69.821 58.1401 72.4737 66.0251 83.1789 65.9301L83.3684 63.1751Z" fill="#EB996E"/>
<path d="M57.4105 34.7701C57.4105 33.9151 56.7474 33.1551 55.8947 33.1551C53.9053 33.0601 50.6842 33.8201 50.2105 39.2351C49.6421 47.0251 57.2211 45.2201 57.2211 45.0301C57.2211 44.8401 57.3158 37.8101 57.4105 34.7701Z" fill="#FFBE9D"/>
<path d="M55.5158 41.895C55.5158 41.895 55.3263 41.99 55.1368 42.085C54.9473 42.18 54.4737 42.18 54.0947 41.99C53.3368 41.61 52.6737 40.28 52.7684 38.855C52.7684 38.19 52.9579 37.525 53.3368 36.955C53.621 36.385 54 36.005 54.4737 36.005C54.8526 35.91 55.1368 36.195 55.2316 36.48C55.3263 36.67 55.2316 36.86 55.3263 36.86C55.3263 36.86 55.5158 36.765 55.421 36.385C55.421 36.195 55.3263 36.005 55.1368 35.91C54.9473 35.72 54.6631 35.625 54.3789 35.625C53.8105 35.625 53.1474 36.1 52.8631 36.765C52.4842 37.335 52.2947 38.095 52.2 38.855C52.1052 40.47 52.8631 41.99 53.9052 42.37C54.4737 42.56 54.9473 42.465 55.1368 42.275C55.5158 42.085 55.6105 41.895 55.5158 41.895Z" fill="#EB996E"/>
<path d="M73.5158 29.4502C73.8 29.9252 75.0316 29.6402 76.5474 29.6402C78.0632 29.5452 79.2 29.5452 79.4842 29.0702C79.7684 28.5952 78.3474 27.4552 76.4527 27.6452C74.3684 27.7402 73.1369 28.9752 73.5158 29.4502Z" fill="#263238"/>
<path d="M90.3789 29.1652C90.4737 29.7352 91.421 29.9252 92.5579 30.0202C93.6947 30.1152 94.6421 30.0202 94.8316 29.5452C95.021 29.0702 94.0737 28.2152 92.6526 28.1202C91.3263 28.0252 90.2842 28.6902 90.3789 29.1652Z" fill="#263238"/>
<path d="M97.6737 20.3301C97.6737 20.3301 91.2316 23.4651 82.9895 19.2851C77.4948 16.5301 71.1474 15.2001 69.7263 16.3401C68.3053 17.4801 68.0211 23.0851 62.6211 24.7001C62.6211 24.7001 63 35.4351 58.7369 35.0551C54.4737 34.6751 57.1263 17.9551 57.1263 17.9551L67.6421 12.8251L79.1053 10.6401L89.9053 12.1601L98.2421 14.4401L97.6737 20.3301Z" fill="#263238"/>
<path d="M26.0526 82.6498C37.2316 71.0599 56.9368 72.3898 56.9368 72.3898L82.5158 73.3398C82.5158 73.3398 92.2737 74.3849 101.368 79.2299L102.032 79.4198V79.5148C109.232 83.4098 119.368 92.8148 129.032 101.84L117.474 112.575L104.684 123.975C104.684 123.975 104.779 124.07 104.684 124.165C104.589 124.83 106.768 138.605 108.758 150.575C97.4842 159.315 83.3684 164.445 68.0211 164.16C58.2632 163.97 49.0737 157.985 40.9263 153.995L39.8842 146.585C39.0316 136.61 38.3684 124.26 38.3684 124.26" fill="#FF7F4B"/>
<path d="M92.7474 75.2397C92.7474 75.2397 92.8421 75.4297 92.9368 75.7147C93.0316 76.0947 93.221 76.5697 93.4105 77.1397C93.7895 78.3747 94.3579 80.0847 95.021 82.2697C96.3474 86.6397 98.0526 92.6247 99.6631 99.3697C101.274 106.115 102.505 112.29 103.263 116.755C103.642 119.035 103.926 120.84 104.116 122.075C104.211 122.645 104.305 123.12 104.305 123.5C104.305 123.785 104.4 123.975 104.305 123.975C104.211 123.975 104.211 123.785 104.211 123.5C104.116 123.12 104.021 122.645 103.926 122.075C103.642 120.745 103.358 118.94 102.884 116.85C102.032 112.385 100.705 106.305 99.0947 99.5597C97.4842 92.8148 95.7789 86.8298 94.5474 82.4598C93.8842 80.3698 93.4105 78.5648 93.0316 77.3298C92.8421 76.7598 92.7474 76.2848 92.6526 75.9048C92.7474 75.4298 92.7474 75.2397 92.7474 75.2397Z" fill="#263238"/>
<path d="M103.263 116.565C103.168 116.47 108.095 112.29 114.158 107.35C120.316 102.315 125.337 98.3248 125.432 98.5148C125.526 98.6098 120.6 102.79 114.537 107.73C108.379 112.67 103.358 116.66 103.263 116.565Z" fill="#263238"/>
<path opacity="0.2" d="M40.8316 98.5149L30.7895 131.575L34.4842 133.475L38.1789 124.165C38.1789 124.165 41.9684 104.5 40.8316 98.5149Z" fill="black"/>
<g opacity="0.2">
<path opacity="0.2" d="M91.7053 75.3349C97.1053 78.1849 83.5579 85.0249 77.4947 84.8349L81.9474 73.0549C81.8526 73.0549 89.8105 74.3849 91.7053 75.3349Z" fill="black"/>
</g>
<path d="M55.3264 73.0549V64.3149C55.3264 64.3149 72.379 68.6849 72.9474 78.9449C72.9474 78.9449 75.1263 67.6399 83.9369 67.0699L85.1685 82.935L74.9369 91.865H64.6106L56.3685 84.7399L55.3264 73.7199" fill="#FF7F4B"/>
<path d="M76.8316 128.06C76.8316 128.06 76.8316 127.87 76.8316 127.585C76.8316 127.205 76.8316 126.73 76.8316 126.16C76.8316 124.925 76.9263 123.215 76.9263 121.03C76.9263 116.66 76.8316 110.77 76.2632 104.12C75.6947 97.5651 74.8421 91.6751 74.0842 87.4001C73.7053 85.3101 73.4211 83.5051 73.1368 82.3651C73.0421 81.7951 72.9474 81.3201 72.8526 81.0351C72.7579 80.7501 72.7579 80.5601 72.7579 80.5601C72.7579 80.5601 72.8526 80.7501 72.9474 81.0351C73.0421 81.4151 73.1368 81.8901 73.3263 82.3651C73.6105 83.5051 73.9895 85.2151 74.3684 87.4001C75.2211 91.6751 76.0737 97.5651 76.6421 104.215C77.2105 110.77 77.3053 116.755 77.1158 121.125C77.021 123.31 77.021 125.02 76.9263 126.255C76.9263 126.825 76.8316 127.3 76.8316 127.68C76.8316 127.87 76.8316 128.06 76.8316 128.06Z" fill="#263238"/>
<path d="M72.1895 75.9999C72.1895 75.9999 71.8105 75.8099 71.1474 76.0949C70.8631 76.1899 70.4842 76.475 70.2 76.855C69.9158 77.235 69.6316 77.71 69.4421 78.28C68.4 80.56 67.0737 83.79 66.221 87.78L66.1263 88.065L65.8421 87.875C64.8 87.305 63.7579 86.545 62.7158 85.88C60.7263 84.455 58.8316 83.03 57.221 81.7C56.3684 81.035 55.7053 80.18 55.3263 79.23C54.9474 78.28 54.7579 77.4249 54.7579 76.5699C54.6632 74.9549 54.9474 73.6249 55.1368 72.7699C55.3263 71.9149 55.421 71.4399 55.5158 71.4399C55.5158 71.4399 55.5158 71.9149 55.3263 72.8649C55.2316 73.7199 55.0421 75.0499 55.1368 76.6649C55.2316 77.4249 55.3263 78.28 55.7053 79.135C56.0842 79.99 56.7474 80.75 57.5053 81.415C59.1158 82.745 61.0105 84.17 63 85.595C64.0421 86.26 65.0842 86.925 66.1263 87.59L65.7474 87.78C66.6947 83.79 68.021 80.56 69.1579 78.28C69.4421 77.71 69.7263 77.235 70.0105 76.855C70.2947 76.475 70.7684 76.1899 71.0526 76.0949C71.8105 75.7149 72.1895 75.9999 72.1895 75.9999Z" fill="#263238"/>
<path d="M83.9368 67.165C83.9368 67.165 84.0316 67.64 84.0316 68.495C84.1263 69.445 84.221 70.68 84.3158 72.2C84.4105 73.815 84.6 75.62 84.9789 77.71C85.0737 78.755 85.4526 79.8 85.1684 81.035C84.7895 82.27 83.9368 83.125 82.9895 83.885C81.6631 84.93 80.2421 85.69 79.2 86.735L78.821 87.115V86.545C78.5368 82.935 77.4 79.895 76.2631 77.995C75.1263 76 74.2737 75.05 74.3684 74.955C74.3684 74.955 74.6526 75.145 75.0316 75.62C75.4105 76.095 75.9789 76.855 76.5474 77.805C77.6842 79.705 79.0105 82.745 79.2947 86.45L78.9158 86.355C79.9579 85.215 81.3789 84.36 82.7053 83.41C83.6526 82.745 84.5053 81.89 84.7895 80.845C85.0737 79.8 84.6947 78.755 84.6 77.71C84.3158 75.62 84.1263 73.72 84.0316 72.2C83.9368 70.585 83.9368 69.35 83.9368 68.495C83.8421 67.64 83.9368 67.165 83.9368 67.165Z" fill="#263238"/>
<path d="M138.789 69.3501C138.126 70.2051 113.021 103.835 113.021 103.835L116.526 105.83L142.295 72.5801L138.789 69.3501Z" fill="#263238"/>
<path d="M37.9895 95.95C37.9895 95.95 64.4211 134.045 65.9368 134.805C69.0632 136.325 105.158 104.975 108.663 102.03C109.137 101.365 110.084 100.035 112.074 97.375C112.074 97.375 114.916 84.265 117.947 85.31C120.979 86.355 116.242 91.96 118.232 96.9C120.221 101.84 129.316 90.06 129.6 88.92L131.968 85.88C131.968 85.88 134.432 92.815 134.242 95.76C133.674 105.07 124.863 116.185 124.863 116.185C124.863 116.185 85.3579 165.3 58.2632 166.82C50.4947 167.295 36.5684 145.065 27.379 128.44C21.7895 118.37 24.5368 105.735 33.8211 98.99L37.9895 95.95Z" fill="#FFBE9D"/>
<path d="M129.884 97.375C129.789 97.375 130.642 95.855 131.589 93.955C132.537 92.055 133.2 90.44 133.295 90.535C133.389 90.535 132.821 92.245 131.874 94.145C130.926 96.045 129.884 97.47 129.884 97.375Z" fill="#EB996E"/>
<path d="M33.5368 77.3301C33.5368 77.3301 5.21051 87.4001 26.2421 135.185L58.9263 115.425L54.2842 104.215L33.5368 77.3301Z" fill="#FF7F4B"/>
<path d="M31.3579 78.185C31.3579 78.185 31.4526 78.185 31.5474 78.185C31.7368 78.185 31.9263 78.185 32.2105 78.185C32.7789 78.185 33.6316 78.2799 34.7684 78.5649C35.8105 78.8499 37.1368 79.325 38.4631 80.18C39.7895 81.035 41.2105 82.1749 42.5368 83.5999C45.2842 86.4499 47.8421 90.4399 50.2105 95.0949C52.5789 99.7499 54.8526 105.07 57.1263 110.58C57.7895 112.29 58.4526 113.905 59.1158 115.425L59.2105 115.615L59.021 115.71C49.5474 120.84 41.3052 125.78 35.5263 129.39C32.5895 131.195 30.3158 132.715 28.7052 133.76C27.9474 134.235 27.2842 134.615 26.9052 134.995C26.5263 135.28 26.2421 135.375 26.2421 135.375C26.2421 135.375 26.4316 135.185 26.8105 134.9C27.1895 134.615 27.8526 134.14 28.6105 133.665C30.1263 132.62 32.4947 131.005 35.3368 129.2C41.1158 125.495 49.3579 120.555 58.8316 115.425L58.7368 115.71C58.0737 114.19 57.4105 112.48 56.7474 110.865C54.4737 105.26 52.2 100.035 49.8316 95.3799C47.4631 90.7249 45 86.735 42.3473 83.885C41.021 82.46 39.6947 81.3199 38.3684 80.4649C37.0421 79.6099 35.8105 79.1349 34.7684 78.8499C32.5895 78.0899 31.3579 78.185 31.3579 78.185Z" fill="#263238"/>
</g>
<defs>
<clipPath id="clip0">
<rect width="144" height="171" fill="white" transform="matrix(-1 0 0 1 144 0)"/>
</clipPath>
</defs>
</svg>
