<svg width="85" height="101" viewBox="0 0 85 101" fill="none" xmlns="http://www.w3.org/2000/svg">
<g clip-path="url(#clip0)">
<path d="M65.0205 87.0962C77.9925 74.0802 77.9925 52.977 65.0205 39.9609C52.0485 26.9449 31.0168 26.9449 18.0449 39.9609C5.07293 52.977 5.07293 74.0802 18.0449 87.0962C31.0169 100.112 52.0486 100.112 65.0205 87.0962Z" fill="#FFCC47"/>
<path d="M8.94737 70.7L15.2105 61.2172L26.7862 68.5116L16.329 84.7277C16.329 84.7277 11.1283 77.4894 8.94737 70.7Z" fill="#EB996E"/>
<path d="M51.3355 19.3022C50.7763 18.685 51.5592 17.675 52.3421 17.3944C53.125 17.1139 54.1316 16.9455 54.523 16.2161C54.9704 15.3183 54.1875 14.2522 54.0197 13.2422C53.852 12.1761 54.4671 11.11 54.6908 10.0439C54.9145 8.6411 54.4112 7.18221 53.3487 6.28443C52.2862 5.38666 50.7204 5.1061 49.4342 5.55499C49.3224 3.42277 47.8684 1.45888 45.8553 0.785544C43.8421 0.112211 41.4934 0.785544 40.1513 2.46888C39.0329 1.68332 38.0263 0.841655 36.7961 0.336655C35.5658 -0.168345 34.1678 -0.280567 32.9934 0.224433C31.8191 0.729433 30.9243 2.0761 31.148 3.36666C30.1974 2.30054 28.5197 2.13221 27.2336 2.69332C25.9474 3.31054 25.1086 4.6011 24.7171 5.94777C24.2138 7.85554 24.6612 10.1 26.171 11.3344C27.6809 12.5689 30.2533 12.4567 31.3717 10.8294" fill="#263238"/>
<path d="M43.9539 51.51C39.8158 51.51 36.3487 48.2555 36.1809 44.1594C36.0132 40.7367 35.8454 37.4261 35.8454 37.4261C35.8454 37.4261 29.4704 36.9772 28.9112 30.6928C28.352 24.4644 28.2401 9.98777 28.2401 9.98777C35.2862 6.28443 43.7303 6.67721 50.3849 10.9417L51 11.3344L51.727 43.6544C51.7829 47.975 48.2599 51.51 43.9539 51.51Z" fill="#FFBE9D"/>
<path d="M40.2632 19.6389C39.7599 19.8072 39.5362 20.3122 39.7039 20.8172C39.8717 21.3222 40.375 21.5467 40.8783 21.3783C41.3816 21.21 41.6053 20.705 41.4375 20.2C41.2697 19.7511 40.7664 19.4706 40.2632 19.6389Z" fill="#263238"/>
<path d="M38.5296 19.9755C38.6414 20.0878 39.2007 19.5828 40.0954 19.5267C40.9342 19.4705 41.6053 19.8633 41.7171 19.7511C41.773 19.695 41.6612 19.5267 41.3816 19.3022C41.102 19.1339 40.5987 18.9655 40.0954 18.9655C39.5362 19.0217 39.0888 19.2461 38.8651 19.4705C38.5855 19.695 38.4737 19.9194 38.5296 19.9755Z" fill="#263238"/>
<path d="M30.7566 19.6389C30.2533 19.8072 30.0296 20.3122 30.1974 20.8172C30.3651 21.3222 30.8684 21.5467 31.3717 21.3783C31.875 21.21 32.0987 20.705 31.9309 20.2C31.7632 19.7511 31.2599 19.4706 30.7566 19.6389Z" fill="#263238"/>
<path d="M28.9112 19.9755C29.023 20.0878 29.5822 19.5828 30.477 19.5267C31.3158 19.4705 31.9868 19.8633 32.0987 19.7511C32.1546 19.695 32.0428 19.5267 31.7632 19.3022C31.4836 19.1339 30.9803 18.9655 30.477 18.9655C29.9178 19.0217 29.4704 19.2461 29.2467 19.4705C28.9671 19.7511 28.8553 19.9194 28.9112 19.9755Z" fill="#263238"/>
<path d="M35.4539 26.7089C35.4539 26.6528 34.8947 26.5967 34.0559 26.5405C33.8322 26.5405 33.6645 26.4844 33.6085 26.3722C33.5526 26.26 33.6085 25.9794 33.7204 25.6989C33.8882 25.1378 34.0559 24.5205 34.2796 23.9033C35.0066 21.3222 35.5099 19.2461 35.398 19.19C35.2862 19.1339 34.5592 21.21 33.8322 23.7911C33.6645 24.4083 33.4967 25.0255 33.3289 25.5866C33.273 25.8672 33.1612 26.1478 33.273 26.5405C33.3289 26.7089 33.5526 26.8211 33.7204 26.8772C33.8882 26.9333 34 26.8772 34.1118 26.8772C34.8947 26.8772 35.4539 26.765 35.4539 26.7089Z" fill="#263238"/>
<path d="M38.3618 27.4383C36.6283 28.28 35.8454 28.5605 34.2237 29.0094C34.2237 29.0094 35.3421 30.5244 37.1316 29.7389C38.9211 28.8972 38.3618 27.4383 38.3618 27.4383Z" fill="white"/>
<path d="M35.7895 37.3139C35.7895 37.3139 39.7599 37.3139 43.7862 34.34C43.7862 34.34 42.2204 38.9972 35.9013 38.9411L35.7895 37.3139Z" fill="#EB996E"/>
<path d="M51.1118 20.5367C51.1118 20.0317 51.5033 19.5828 52.0066 19.5828C53.1809 19.5267 55.0822 19.9756 55.3618 23.1739C55.6974 27.775 51.2237 26.7089 51.2237 26.5967C51.2237 26.4844 51.1678 22.3322 51.1118 20.5367Z" fill="#FFBE9D"/>
<path d="M52.2303 24.745C52.2303 24.745 52.3421 24.8011 52.454 24.8572C52.5658 24.9133 52.8454 24.9133 53.0691 24.8011C53.5165 24.5767 53.9079 23.7911 53.852 22.9494C53.852 22.5567 53.7401 22.1639 53.5165 21.8272C53.3487 21.4905 53.125 21.2661 52.8454 21.2661C52.6217 21.21 52.454 21.3783 52.398 21.5467C52.3421 21.6589 52.398 21.7711 52.3421 21.7711C52.3421 21.7711 52.2303 21.715 52.2862 21.4905C52.2862 21.3783 52.3421 21.2661 52.454 21.21C52.5658 21.0978 52.7336 21.0417 52.9013 21.0417C53.2369 21.0417 53.6283 21.3222 53.7961 21.715C54.0197 22.0517 54.1316 22.5005 54.1875 22.9494C54.2434 23.9033 53.7961 24.8011 53.1809 25.0255C52.8454 25.1378 52.5658 25.0817 52.454 24.9694C52.2303 24.8572 52.1744 24.745 52.2303 24.745Z" fill="#EB996E"/>
<path d="M41.6053 17.3944C41.4375 17.675 40.7105 17.5067 39.8158 17.5067C38.921 17.4505 38.25 17.4505 38.0822 17.17C37.9145 16.8894 38.7533 16.2161 39.8717 16.3283C41.102 16.3844 41.8289 17.1139 41.6053 17.3944Z" fill="#263238"/>
<path d="M31.6513 17.2261C31.5954 17.5627 31.0362 17.675 30.3651 17.7311C29.6941 17.7872 29.1349 17.7311 29.023 17.4505C28.9112 17.17 29.4704 16.665 30.3092 16.6089C31.0921 16.5527 31.7072 16.9455 31.6513 17.2261Z" fill="#263238"/>
<path d="M27.3454 12.0078C27.3454 12.0078 31.148 13.8594 36.0132 11.3905C39.2566 9.76331 43.0033 8.97776 43.8421 9.65109C44.6809 10.3244 44.8487 13.635 48.0362 14.5889C48.0362 14.5889 47.8125 20.9294 50.3289 20.705C52.8454 20.4805 51.2796 10.605 51.2796 10.605L45.0724 7.57498L38.3059 6.28442L31.9309 7.1822L27.0099 8.52887L27.3454 12.0078Z" fill="#263238"/>
<path d="M69.6217 48.8167C63.023 41.9711 51.3914 42.7567 51.3914 42.7567L36.2928 43.3178C36.2928 43.3178 30.5329 43.935 25.1645 46.7967L24.773 46.9089V46.965C20.523 49.2655 14.5395 54.8205 8.83553 60.1511L15.6579 66.4916L23.2072 73.225C23.2072 73.225 23.1513 73.2811 23.2072 73.3372C23.2632 73.73 21.977 81.8661 20.8026 88.9361C27.4572 94.0983 35.7895 97.1283 44.8487 96.96C50.6086 96.8478 56.0329 93.3128 60.8421 90.9561L61.4572 86.5794C61.9605 80.6878 62.352 73.3933 62.352 73.3933" fill="#FF7F4B"/>
<path d="M30.2533 44.44C30.2533 44.44 30.1974 44.5522 30.1414 44.7205C30.0855 44.945 29.9737 45.2255 29.8618 45.5622C29.6382 46.2916 29.3026 47.3016 28.9112 48.5922C28.1283 51.1733 27.1217 54.7083 26.1711 58.6922C25.2204 62.6761 24.4934 66.3233 24.0461 68.9605C23.8224 70.3072 23.6546 71.3733 23.5428 72.1028C23.4868 72.4394 23.4309 72.72 23.4309 72.9444C23.4309 73.1128 23.375 73.225 23.4309 73.225C23.4868 73.225 23.4868 73.1128 23.4868 72.9444C23.5428 72.72 23.5987 72.4394 23.6546 72.1028C23.8224 71.3172 23.9901 70.2511 24.2697 69.0166C24.773 66.3794 25.5559 62.7883 26.5066 58.8044C27.4572 54.8205 28.4638 51.2855 29.1908 48.7044C29.5822 47.47 29.8618 46.4039 30.0855 45.6744C30.1974 45.3378 30.2533 45.0572 30.3092 44.8328C30.2533 44.5522 30.2533 44.44 30.2533 44.44Z" fill="#263238"/>
<path d="M24.0461 68.8483C24.102 68.7922 21.1941 66.3233 17.6151 63.4055C13.9803 60.4316 11.0164 58.075 10.9605 58.1872C10.9046 58.2433 13.8125 60.7122 17.3914 63.63C21.0263 66.5478 23.9901 68.9044 24.0461 68.8483Z" fill="#263238"/>
<path opacity="0.2" d="M60.898 58.1872L66.8257 77.7139L64.6447 78.8361L62.4638 73.3372C62.4638 73.3372 60.227 61.7222 60.898 58.1872Z" fill="black"/>
<g opacity="0.2">
<path opacity="0.2" d="M30.8684 44.4961C27.6809 46.1794 35.6776 50.2194 39.2566 50.1072L36.6283 43.1494C36.6842 43.1494 31.9868 43.935 30.8684 44.4961Z" fill="black"/>
</g>
<path d="M52.3421 43.1494V37.9872C52.3421 37.9872 42.2763 40.5683 41.9408 46.6283C41.9408 46.6283 40.6546 39.9511 35.4539 39.6144L34.727 48.985L40.7664 54.2594H46.8618L51.727 50.0511L52.3421 43.5422" fill="#FF7F4B"/>
<path d="M39.648 75.6378C39.648 75.6378 39.648 75.5255 39.648 75.3572C39.648 75.1328 39.648 74.8522 39.648 74.5155C39.648 73.7861 39.5921 72.7761 39.5921 71.4855C39.5921 68.9044 39.648 65.4255 39.9836 61.4978C40.3191 57.6261 40.8224 54.1472 41.2697 51.6222C41.4934 50.3878 41.6612 49.3217 41.8289 48.6483C41.8849 48.3117 41.9408 48.0311 41.9967 47.8628C42.0526 47.6944 42.0526 47.5822 42.0526 47.5822C42.0526 47.5822 41.9967 47.6944 41.9408 47.8628C41.8849 48.0872 41.8289 48.3678 41.7171 48.6483C41.5493 49.3217 41.3257 50.3317 41.102 51.6222C40.5987 54.1472 40.0954 57.6261 39.7599 61.5539C39.4243 65.4255 39.3684 68.9605 39.4803 71.5417C39.5362 72.8322 39.5362 73.8422 39.5921 74.5717C39.5921 74.9083 39.648 75.1889 39.648 75.4133C39.648 75.5255 39.648 75.6378 39.648 75.6378Z" fill="#263238"/>
<path d="M42.3882 44.8889C42.3882 44.8889 42.6118 44.7767 43.0033 44.945C43.1711 45.0011 43.3947 45.1694 43.5625 45.3939C43.7303 45.6183 43.898 45.8989 44.0099 46.2356C44.625 47.5822 45.4079 49.49 45.9112 51.8467L45.9671 52.015L46.1349 51.9028C46.75 51.5661 47.3651 51.1172 47.9803 50.7245C49.1546 49.8828 50.273 49.0411 51.2237 48.2556C51.727 47.8628 52.1184 47.3578 52.3421 46.7967C52.5658 46.2356 52.6776 45.7306 52.6776 45.2256C52.7335 44.2717 52.5658 43.4861 52.4539 42.9811C52.3421 42.4761 52.2862 42.1956 52.2303 42.1956C52.2303 42.1956 52.2303 42.4761 52.3421 43.0372C52.398 43.5422 52.5099 44.3278 52.4539 45.2817C52.398 45.7306 52.3421 46.2356 52.1184 46.7406C51.8947 47.2456 51.5033 47.6944 51.0559 48.0872C50.1053 48.8728 48.9868 49.7145 47.8125 50.5561C47.1974 50.9489 46.5822 51.3417 45.9671 51.7345L46.1908 51.8467C45.6316 49.49 44.8487 47.5822 44.1776 46.2356C44.0099 45.8989 43.8421 45.6183 43.6743 45.3939C43.5066 45.1694 43.227 45.0011 43.0592 44.945C42.6118 44.7206 42.3882 44.8889 42.3882 44.8889Z" fill="#263238"/>
<path d="M35.454 39.6705C35.454 39.6705 35.398 39.9511 35.398 40.4561C35.3421 41.0172 35.2862 41.7466 35.2303 42.6444C35.1743 43.5983 35.0625 44.6644 34.8388 45.8989C34.7829 46.5161 34.5592 47.1333 34.727 47.8628C34.9507 48.5922 35.454 49.0972 36.0132 49.5461C36.7961 50.1633 37.6349 50.6122 38.25 51.2294L38.4737 51.4539V51.1172C38.6415 48.985 39.3125 47.1894 39.9836 46.0672C40.6546 44.8889 41.1579 44.3278 41.102 44.2716C41.102 44.2716 40.9342 44.3839 40.7105 44.6644C40.4869 44.945 40.1513 45.3939 39.8158 45.955C39.1447 47.0772 38.3619 48.8728 38.1941 51.0611L38.4178 51.005C37.8026 50.3316 36.9638 49.8266 36.1809 49.2655C35.6217 48.8728 35.1184 48.3678 34.9507 47.7505C34.7829 47.1333 35.0066 46.5161 35.0625 45.8989C35.2303 44.6644 35.3421 43.5422 35.398 42.6444C35.454 41.6905 35.454 40.9611 35.454 40.4561C35.5099 39.9511 35.454 39.6705 35.454 39.6705Z" fill="#263238"/>
<path d="M3.07566 40.9611C3.4671 41.4661 18.2862 61.3294 18.2862 61.3294L16.2171 62.5078L1.00658 42.8689L3.07566 40.9611Z" fill="#263238"/>
<path d="M62.5756 56.6722C62.5756 56.6722 46.9737 79.1727 46.0789 79.6216C44.2335 80.5194 22.9276 62.0028 20.8585 60.2633C20.5789 59.8705 20.0197 59.085 18.8454 57.5139C18.8454 57.5139 17.1678 49.7705 15.3783 50.3878C13.5888 51.005 16.3849 54.3155 15.2105 57.2333C14.0362 60.1511 8.66776 53.1933 8.49999 52.52L7.10197 50.7244C7.10197 50.7244 5.64802 54.8205 5.75986 56.56C6.09539 62.0589 11.296 68.6239 11.296 68.6239C11.296 68.6239 34.6151 97.6333 50.6085 98.5311C55.1941 98.8116 63.4145 85.6816 68.8388 75.8622C72.1381 69.9144 70.5164 62.4516 65.0362 58.4677L62.5756 56.6722Z" fill="#FFBE9D"/>
<path d="M8.33223 57.5139C8.38816 57.5139 7.88487 56.6161 7.32566 55.4939C6.76645 54.3717 6.375 53.4178 6.31908 53.4739C6.26316 53.4739 6.59868 54.4839 7.15789 55.6061C7.7171 56.7283 8.33223 57.57 8.33223 57.5139Z" fill="#EB996E"/>
<path d="M65.2039 45.6744C65.2039 45.6744 81.9244 51.6222 69.5099 79.8461L50.2171 68.175L52.9572 61.5539L65.2039 45.6744Z" fill="#FF7F4B"/>
<path d="M66.4901 46.1794C66.4901 46.1794 66.4342 46.1794 66.3783 46.1794C66.2664 46.1794 66.1546 46.1794 65.9868 46.1794C65.6513 46.1794 65.148 46.2355 64.477 46.4039C63.8618 46.5722 63.0789 46.8528 62.2961 47.3578C61.5132 47.8628 60.6743 48.5361 59.8914 49.3778C58.2697 51.0611 56.7599 53.4178 55.3618 56.1672C53.9638 58.9166 52.6217 62.0589 51.2796 65.3133C50.8882 66.3233 50.4967 67.2772 50.1053 68.175L50.0493 68.2872L50.1612 68.3433C55.7533 71.3733 60.6184 74.2911 64.0296 76.4233C65.7632 77.4894 67.1053 78.3872 68.0559 79.0044C68.5033 79.285 68.8947 79.5094 69.1184 79.7339C69.3421 79.9022 69.5099 79.9583 69.5099 79.9583C69.5099 79.9583 69.398 79.8461 69.1743 79.6777C68.9507 79.5094 68.5592 79.2289 68.1118 78.9483C67.2171 78.3311 65.8191 77.3772 64.1414 76.3111C60.7303 74.1228 55.8651 71.205 50.273 68.175L50.3289 68.3433C50.7204 67.4455 51.1118 66.4355 51.5033 65.4816C52.8454 62.1711 54.1875 59.085 55.5855 56.3355C56.9836 53.5861 58.4375 51.2294 60.0033 49.5461C60.7862 48.7044 61.5691 48.0311 62.352 47.5261C63.1349 47.0211 63.8618 46.7405 64.477 46.5722C65.7632 46.1233 66.4901 46.1794 66.4901 46.1794Z" fill="#263238"/>
</g>
<defs>
<clipPath id="clip0">
<rect width="85" height="101" fill="white"/>
</clipPath>
</defs>
</svg>
