<svg width="493" height="476" viewBox="0 0 493 476" fill="none" xmlns="http://www.w3.org/2000/svg">
<g clip-path="url(#clip0)">
<path d="M69.783 148.65C61.8078 147.188 53.6996 147.055 45.1928 149.315C3.05715 160.617 2.65839 214.067 14.887 247.573C34.5592 301.821 80.4165 345.299 134.515 365.244C188.746 385.188 250.288 382.263 303.722 360.457C357.156 338.651 402.482 298.763 433.851 250.232C468.809 196.25 500.709 117.803 462.827 57.1732C434.914 12.3654 375.765 -10.7698 324.989 3.98886C314.489 7.04696 304.52 11.7006 295.481 17.6838C260.124 41.2179 245.37 81.9039 223.173 116.341C208.02 139.875 185.822 163.542 157.377 169.392C126.141 175.907 99.2912 154.235 69.783 148.65Z" fill="#FDE88D"/>
<path opacity="0.5" d="M69.783 148.65C61.8078 147.188 53.6996 147.055 45.1928 149.315C3.05715 160.617 2.65839 214.067 14.887 247.573C34.5592 301.821 80.4165 345.299 134.515 365.244C188.746 385.188 250.288 382.263 303.722 360.457C357.156 338.651 402.482 298.763 433.851 250.232C468.809 196.25 500.709 117.803 462.827 57.1732C434.914 12.3654 375.765 -10.7698 324.989 3.98886C314.489 7.04696 304.52 11.7006 295.481 17.6838C260.124 41.2179 245.37 81.9039 223.173 116.341C208.02 139.875 185.822 163.542 157.377 169.392C126.141 175.907 99.2912 154.235 69.783 148.65Z" fill="white"/>
<path d="M250.82 463.236C375.837 463.236 477.183 456.509 477.183 448.211C477.183 439.913 375.837 433.187 250.82 433.187C125.803 433.187 24.4573 439.913 24.4573 448.211C24.4573 456.509 125.803 463.236 250.82 463.236Z" fill="#F5F5F5"/>
<path d="M298.937 71.3999C298.804 70.8681 298.405 70.3363 297.741 70.3363L266.505 66.8793C266.106 66.8793 264.644 67.81 264.644 68.3418L268.233 97.8592C268.365 98.524 268.764 98.9229 269.429 99.0558L301.064 101.582C301.462 101.582 302.925 100.651 302.925 100.12L298.937 71.3999Z" fill="#263238"/>
<path opacity="0.2" d="M266.505 66.8793L297.741 70.3363C298.272 70.3363 298.804 70.8681 298.937 71.4L302.925 99.9866C303.057 100.518 302.526 100.917 301.994 100.917L270.492 98.391C269.828 98.391 269.429 97.8592 269.296 97.1944L265.574 67.81C265.574 67.2782 265.973 66.7463 266.505 66.8793Z" fill="white"/>
<path d="M270.492 97.0614L267.036 68.2089L297.608 71.5329L301.595 99.4547L270.492 97.0614Z" fill="#407BFF"/>
<path opacity="0.6" d="M270.492 97.0614L267.036 68.2089L297.608 71.5329L301.595 99.4547L270.492 97.0614Z" fill="white"/>
<path opacity="0.2" d="M275.809 73.6603C276.208 75.6547 275.277 77.5161 273.549 77.782C271.954 78.048 270.359 76.7184 269.96 74.7239C269.562 72.7295 270.492 70.8681 272.22 70.6022C273.815 70.3362 275.41 71.6659 275.809 73.6603Z" fill="black"/>
<path opacity="0.2" d="M281.392 88.6848L289.633 89.4826L288.702 81.5049L280.328 80.5742L281.392 88.6848Z" fill="black"/>
<path opacity="0.2" d="M289.899 90.6794L281.525 89.8816L282.322 96.2637L290.563 96.9285L289.899 90.6794Z" fill="black"/>
<path opacity="0.2" d="M290.829 90.8123L291.759 97.0614L299.602 97.5933L298.671 91.61L290.829 90.8123Z" fill="black"/>
<path opacity="0.2" d="M290.696 89.6156L298.538 90.4134L297.209 82.4357L289.633 81.6379L290.696 89.6156Z" fill="black"/>
<path opacity="0.2" d="M280.461 89.7486L272.087 88.8179L272.885 95.5989L281.259 96.2637L280.461 89.7486Z" fill="black"/>
<path opacity="0.2" d="M280.328 88.5519L279.398 80.5743L271.024 79.6436L271.954 87.7542L280.328 88.5519Z" fill="black"/>
<path opacity="0.2" d="M290.962 77.2501L295.215 77.782L294.816 75.7876L290.563 75.3887L290.962 77.2501Z" fill="black"/>
<path opacity="0.2" d="M282.987 74.458L278.201 73.7932L278.467 75.6547L283.252 76.3195L282.987 74.458Z" fill="black"/>
<path opacity="0.2" d="M284.714 76.4524L289.367 77.1172L288.968 75.1228L284.449 74.5909L284.714 76.4524Z" fill="black"/>
<path d="M314.621 88.9509C314.621 88.9509 303.589 82.7017 301.861 81.5051C300.266 80.3084 285.512 80.0425 285.778 81.5051C286.044 82.9676 291.626 91.743 292.823 92.6738C294.152 93.4715 302.925 92.6738 302.925 92.6738L313.026 96.7956L314.621 88.9509Z" fill="#EEC1BB"/>
<path d="M370.714 87.8871C380.151 92.4078 375.233 131.099 353.035 140.008C330.971 148.916 308.773 113.947 308.773 113.947L315.685 95.8647C315.685 95.8647 335.889 112.618 343.864 108.762C351.706 105.039 363.536 84.5631 370.714 87.8871Z" fill="#263238"/>
<path opacity="0.1" d="M370.714 87.8871C380.151 92.4078 375.233 131.099 353.035 140.008C330.971 148.916 308.773 113.947 308.773 113.947L315.685 95.8647C315.685 95.8647 335.889 112.618 343.864 108.762C351.706 105.039 363.536 84.5631 370.714 87.8871Z" fill="white"/>
<path d="M311.298 430.128L299.203 431.458L298.671 424.411L296.943 405.265L309.039 404.068L310.9 425.209L311.298 430.128Z" fill="#EEC1BB"/>
<path d="M371.777 428.666H360.08L359.947 426.007V425.608L359.283 408.589V408.323L359.15 401.808H370.847L371.777 428.666Z" fill="#EEC1BB"/>
<path opacity="0.2" d="M309.039 404.068L310.9 425.209L298.671 424.411L296.943 405.265L309.039 404.068Z" fill="black"/>
<path opacity="0.2" d="M371.777 427.203H371.644L359.947 425.608L359.283 409.254L371.113 410.184L371.644 426.672L371.777 427.203Z" fill="black"/>
<path d="M358.485 427.868H372.707C373.239 427.868 373.638 428.267 373.771 428.666L376.03 439.17C376.163 440.101 375.632 441.031 374.701 441.164C374.568 441.164 374.435 441.164 374.303 441.164C369.65 441.031 366.327 440.765 360.479 440.765C356.89 440.765 346.124 441.164 341.206 441.164C336.287 441.164 335.623 436.245 337.617 435.846C346.655 433.851 353.434 431.192 356.358 428.533C357.023 428.134 357.688 427.868 358.485 427.868Z" fill="#FFB541"/>
<path d="M298.006 427.602H312.229C312.761 427.602 313.159 428.001 313.292 428.4L315.552 438.904C315.685 439.835 315.153 440.765 314.223 440.898C314.09 440.898 313.957 440.898 313.824 440.898C309.172 440.765 305.849 440.499 300 440.499C296.411 440.499 285.645 440.898 280.727 440.898C275.809 440.898 275.144 435.979 277.138 435.58C286.177 433.586 292.956 430.926 295.88 428.267C296.544 427.868 297.209 427.602 298.006 427.602Z" fill="#FFB541"/>
<path d="M295.88 422.683H313.026C313.026 422.683 311.564 294.508 330.173 244.382C331.502 260.869 332.964 278.154 334.427 292.381C335.357 301.289 336.287 304.613 337.085 310.464C342.668 347.826 356.225 424.145 356.225 424.145H373.239C373.239 424.145 371.245 351.682 369.252 314.984C366.992 275.096 366.061 191.863 365.929 184.284H303.589C297.741 215.663 282.588 321.101 295.88 422.683Z" fill="#263238"/>
<path d="M326.319 56.9073C326.451 57.4391 326.584 57.971 326.85 58.5028C328.047 61.6939 330.04 64.3531 332.699 66.2145C333.363 66.7464 334.028 67.1453 334.825 67.5441C338.68 69.5386 343.332 69.9374 347.586 68.076C349.314 67.4112 350.909 66.2145 352.504 64.752C358.352 58.7687 358.219 51.9877 358.884 40.2872C359.017 37.7609 358.618 35.2346 357.688 32.9743C354.365 24.8637 345.06 21.0078 336.952 24.3318C325.388 29.2514 323.793 46.4034 326.319 56.9073Z" fill="#EEC1BB"/>
<path opacity="0.2" d="M332.699 66.3475C333.363 66.8793 334.028 67.2782 334.825 67.6771C338.68 69.6715 343.332 70.0704 347.586 68.2089C346.788 65.9486 345.459 64.2201 345.459 64.2201C345.459 64.2201 338.414 63.1564 332.699 66.3475Z" fill="black"/>
<path d="M355.96 81.3721C350.244 86.5575 336.288 84.6961 336.288 84.6961C336.288 84.6961 327.515 82.3028 329.376 79.5106C334.56 78.7128 337.085 76.3195 338.015 73.1285C338.547 71.4 338.68 69.2726 338.547 67.2782C338.414 66.2145 338.281 65.0179 338.148 63.9542L355.428 51.1899C353.168 59.6994 350.377 75.2559 355.96 81.3721Z" fill="#EEC1BB"/>
<path d="M332.699 46.4034L330.173 47.3341L331.369 42.1486C331.369 42.1486 327.648 36.6972 331.369 31.7776C331.369 31.7776 322.065 27.6559 329.11 17.2849C329.11 17.2849 331.768 23.4011 338.68 20.343C342.402 18.7475 354.365 18.6145 354.896 23.4011C354.896 23.4011 363.403 23.4011 364.334 37.8939C365.264 52.5196 355.295 60.8961 355.295 60.8961C355.295 60.8961 345.06 63.2894 340.009 59.1676C335.091 54.9128 332.699 46.4034 332.699 46.4034Z" fill="#263238"/>
<path d="M339.212 47.2011C338.547 49.7273 337.085 51.5888 335.357 52.3865C332.965 53.4502 331.502 49.9932 331.768 46.5363C332.034 43.4782 333.629 39.0904 336.288 39.6223C338.813 40.2871 340.009 44.01 339.212 47.2011Z" fill="#EEC1BB"/>
<path opacity="0.2" d="M330.306 244.382C331.635 260.869 333.097 278.154 334.559 292.381C336.686 271.772 339.212 257.013 339.212 257.013C339.212 257.013 341.604 255.019 348.383 244.382C355.029 233.745 348.383 213.801 348.383 213.801C348.649 232.283 330.306 244.382 330.306 244.382Z" fill="black"/>
<path d="M293.886 417.763L294.816 422.683H315.153V418.162L293.886 417.763Z" fill="#FFB541"/>
<path d="M354.365 419.625L356.225 424.145H373.372L374.436 419.625H354.365Z" fill="#FFB541"/>
<path d="M314.622 80.5743C314.622 80.5743 330.04 76.8514 347.054 79.9095C364.068 82.9676 370.714 87.8872 370.714 87.8872L379.487 221.247C379.487 221.247 334.161 232.283 296.013 221.247C295.88 221.247 299.469 97.7263 314.622 80.5743Z" fill="#263238"/>
<path opacity="0.2" d="M379.354 221.247C379.354 221.247 334.028 232.283 295.88 221.247C295.88 221.247 295.88 219.784 296.013 217.125C296.412 207.153 297.475 180.827 299.867 153.57C300 152.373 300.133 151.177 300.133 149.98C302.925 119.133 307.444 88.419 314.489 80.4414C314.489 80.4414 330.04 76.7185 346.921 79.7766C363.935 82.8347 370.581 87.7542 370.581 87.7542L374.568 149.049L374.834 153.703L378.955 216.327L379.354 221.247Z" fill="white"/>
<path opacity="0.2" d="M374.967 153.969C366.593 151.575 345.193 147.985 299.867 153.703C300 152.506 300.133 151.309 300.133 150.113C310.9 148.384 348.649 142.933 374.568 149.315L374.967 153.969Z" fill="black"/>
<path opacity="0.2" d="M379.354 221.247C379.354 221.247 334.028 232.283 295.88 221.247C295.88 221.247 295.88 219.784 296.013 217.125C315.02 220.05 352.238 222.311 379.088 216.593L379.354 221.247Z" fill="black"/>
<path d="M325.255 78.7128C325.255 78.7128 332.034 69.4055 351.307 69.4055C370.581 69.4055 370.448 84.2971 364.467 94.4022C358.352 104.374 325.255 78.7128 325.255 78.7128Z" fill="#FFB541"/>
<path d="M268.897 108.895L267.036 98.1252C267.036 98.1252 271.555 91.2112 270.492 89.7486C269.429 88.2861 265.574 75.6548 265.574 75.6548C265.574 75.6548 256.137 85.228 256.668 87.8872C257.333 90.5464 259.858 95.0671 259.858 95.0671L260.124 116.74L268.897 108.895Z" fill="#EEC1BB"/>
<path d="M270.492 108.895L268.365 100.917L255.206 112.086L260.257 123.388L270.492 108.895Z" fill="#FFB541"/>
<path d="M314.621 80.5743C310.102 81.9039 286.31 124.85 281.126 124.85C277.005 124.85 269.429 102.779 269.429 102.779L256.801 117.537C256.801 117.537 258.529 154.501 279.132 155.564C299.734 156.628 319.141 121.526 319.141 121.526C319.141 121.526 322.331 111.421 320.47 96.3967C318.742 84.4302 314.621 80.5743 314.621 80.5743Z" fill="#263238"/>
<path opacity="0.1" d="M314.621 80.5743C310.102 81.9039 286.31 124.85 281.126 124.85C277.005 124.85 269.429 102.779 269.429 102.779L256.801 117.537C256.801 117.537 258.529 154.501 279.132 155.564C299.734 156.628 319.141 121.526 319.141 121.526C319.141 121.526 322.331 111.421 320.47 96.3967C318.742 84.4302 314.621 80.5743 314.621 80.5743Z" fill="white"/>
<path opacity="0.3" d="M358.485 427.868H372.707C373.239 427.868 373.638 428.267 373.771 428.666L376.03 439.17C376.163 440.101 375.632 441.031 374.701 441.164C374.568 441.164 374.435 441.164 374.303 441.164C369.65 441.031 366.327 440.765 360.479 440.765C356.89 440.765 346.124 441.164 341.206 441.164C336.287 441.164 335.623 436.245 337.617 435.846C346.655 433.851 353.434 431.192 356.358 428.533C357.023 428.134 357.688 427.868 358.485 427.868Z" fill="white"/>
<path opacity="0.3" d="M298.006 427.602H312.229C312.761 427.602 313.159 428.001 313.292 428.4L315.552 438.904C315.685 439.835 315.153 440.765 314.223 440.898C314.09 440.898 313.957 440.898 313.824 440.898C309.172 440.765 305.849 440.499 300 440.499C296.411 440.499 285.645 440.898 280.727 440.898C275.809 440.898 275.144 435.979 277.138 435.58C286.177 433.586 292.956 430.926 295.88 428.267C296.544 427.868 297.209 427.602 298.006 427.602Z" fill="white"/>
<path d="M475.587 327.616C469.074 343.704 451.662 367.504 435.712 387.714C434.249 389.443 432.92 391.171 431.591 392.9C426.939 398.617 422.552 403.935 418.565 408.589C416.571 410.982 414.577 413.11 412.716 415.104C406.07 422.284 403.013 426.672 403.013 426.672L396.633 422.949C396.633 422.949 402.747 413.375 410.988 400.079C412.716 397.287 414.577 394.362 416.438 391.304C421.223 383.459 426.54 375.083 431.591 366.839C432.521 365.244 433.452 363.648 434.382 362.186C443.687 346.762 451.928 332.801 454.985 326.552C455.251 326.02 455.384 325.621 455.517 325.222C457.112 321.367 452.725 306.874 447.807 293.179C447.408 292.115 447.01 291.051 446.744 290.121C442.092 277.356 437.307 266.055 437.307 266.055L450.466 243.85L455.251 235.74C455.251 235.74 457.909 242.92 461.365 253.291C463.758 260.338 466.549 268.714 469.074 277.357C469.34 278.287 469.606 279.085 469.872 280.016C473.727 293.179 477.183 306.342 478.379 315.383C478.645 318.441 477.581 322.696 475.587 327.616Z" fill="#B97964"/>
<path opacity="0.2" d="M435.977 387.714C427.471 398.351 419.362 408.057 413.248 415.104C412.318 410.716 411.52 405.664 410.856 400.079C417.9 388.778 426.407 374.95 434.25 362.052C434.25 368.834 434.382 378.939 435.977 387.714Z" fill="black"/>
<path d="M431.857 442.228L424.148 443.292C424.148 443.292 421.223 428.799 418.432 408.722C417.634 403.27 416.97 397.42 416.305 391.304C414.71 376.412 413.514 359.925 413.514 344.768C413.514 344.768 412.716 341.843 411.387 336.923C409.393 328.812 406.203 314.984 403.944 299.827C403.944 299.694 403.944 299.694 403.944 299.561C401.285 281.345 399.956 261.268 403.545 246.111L430.129 258.077L430.528 290.121L430.661 297.965L431.059 324.957L431.192 331.206L431.458 366.839L431.591 393.032L431.857 442.228Z" fill="#B97964"/>
<path opacity="0.2" d="M430.129 258.077L430.528 290.121C422.42 295.572 411.254 298.231 403.944 299.561C401.285 281.345 399.956 261.268 403.545 246.111L430.129 258.077Z" fill="black"/>
<path opacity="0.2" d="M469.606 279.883C462.694 287.462 451.529 289.589 446.478 290.121C441.826 277.357 437.041 266.055 437.041 266.055L450.2 243.85C453.789 246.643 457.643 249.834 461.099 253.158C463.492 260.205 466.283 268.581 468.809 277.224C469.074 278.021 469.34 278.952 469.606 279.883Z" fill="black"/>
<path d="M448.871 136.684C453.922 136.95 475.056 165.27 475.056 165.27L482.898 155.032C482.898 155.032 494.994 178.567 489.012 189.735C483.031 200.904 451.529 170.323 451.529 170.323L448.871 136.684Z" fill="#FFB541"/>
<path opacity="0.2" d="M448.871 136.684L450.997 159.287L451.529 170.323C451.529 170.323 456.713 175.375 463.226 180.561C472.796 188.273 485.424 196.383 489.012 189.735C494.994 178.567 482.898 155.032 482.898 155.032L475.056 165.27V165.137C473.86 163.542 453.789 136.95 448.871 136.684Z" fill="black"/>
<path opacity="0.2" d="M450.997 159.287L451.529 170.323C451.529 170.323 456.713 175.376 463.226 180.561C463.891 167.265 451.529 147.986 451.529 147.986L450.997 159.287Z" fill="black"/>
<path opacity="0.2" d="M475.056 165.27L473.993 167.398L477.316 180.162C477.316 180.162 468.277 171.918 473.993 163.808L475.056 165.27Z" fill="black"/>
<path d="M449.801 207.685L407.267 211.009C407.267 211.009 406.735 185.613 403.279 172.317C402.216 168.063 400.754 163.276 399.026 157.692C398.228 155.298 397.431 152.772 396.633 150.113C395.835 147.587 394.905 144.927 393.975 142.135C399.823 140.274 405.672 138.811 411.786 137.88C418.166 136.817 424.546 136.019 431.059 135.886C439.433 135.753 449.003 136.817 449.003 136.817C449.003 136.817 450.333 137.216 451.263 145.991C451.928 154.235 451.529 177.503 449.801 207.685Z" fill="#FFB541"/>
<path opacity="0.2" d="M449.801 207.684L407.267 211.008C407.267 211.008 407.267 210.476 407.267 209.546C407.134 203.961 406.203 183.751 403.279 172.317C402.481 169.259 401.551 165.935 400.488 162.212C400.089 160.749 399.557 159.154 399.026 157.558C398.228 155.165 397.431 152.638 396.633 149.979C395.835 147.453 394.905 144.794 393.975 142.135C396.234 141.337 398.627 140.672 401.019 140.14C404.608 139.209 408.197 138.412 411.786 137.88C418.166 136.816 424.546 136.018 431.059 135.885C436.376 135.885 442.357 136.284 445.813 136.55C447.807 136.683 449.003 136.816 449.003 136.816C449.003 136.816 450.333 137.215 451.263 145.99C451.928 154.234 451.529 177.502 449.801 207.684Z" fill="black"/>
<path d="M397.032 418.694C397.829 418.162 404.475 428.001 404.475 428.001C404.475 428.001 403.013 438.372 405.937 445.02C408.862 451.668 403.146 451.136 398.361 444.754C393.576 438.372 389.854 433.586 386.398 429.065C382.942 424.677 388.924 424.677 397.032 418.694Z" fill="#263238"/>
<path d="M406.602 435.58C405.14 435.181 404.077 430.926 403.944 430.129V429.996C403.944 429.996 403.944 429.996 403.944 429.863C403.944 429.863 403.944 429.863 403.944 429.73H404.077C404.209 429.73 407.001 428.799 408.463 429.73C408.995 429.996 409.26 430.394 409.393 430.926C409.526 431.458 409.393 431.99 409.127 432.123C408.596 432.522 407.532 432.123 406.602 431.724C407.267 432.522 407.931 433.32 407.931 433.984C407.931 434.383 407.931 434.649 407.665 434.915C407.267 435.314 407.001 435.447 406.735 435.447C406.735 435.58 406.735 435.58 406.602 435.58ZM406.735 434.915C406.735 434.915 407.001 434.915 407.267 434.649C407.4 434.516 407.4 434.383 407.4 434.117C407.267 433.187 405.804 431.724 404.741 430.793C405.273 432.655 406.07 434.782 406.735 434.915ZM405.007 430.129C406.602 431.059 408.33 431.857 408.862 431.591C408.995 431.458 408.995 431.192 408.862 431.059C408.729 430.66 408.596 430.394 408.197 430.262C407.798 429.996 407.267 429.996 406.735 429.996C406.203 429.863 405.539 429.996 405.007 430.129Z" fill="#FFB541"/>
<path d="M421.489 438.372C421.489 437.441 433.452 438.106 433.452 438.106C433.452 438.106 440.762 445.552 447.94 447.281C454.985 449.009 451.13 453.264 443.155 453.264C435.18 453.264 429.198 453.264 423.483 453.264C417.634 453.131 421.223 448.344 421.489 438.372Z" fill="#263238"/>
<path d="M434.648 439.702C434.648 439.569 434.648 439.569 434.648 439.702C434.515 439.569 434.515 439.569 434.515 439.569C434.515 439.569 434.515 439.569 434.515 439.436V439.303C434.515 439.17 435.579 436.378 437.174 435.713C437.705 435.447 438.237 435.58 438.769 435.713C439.3 435.979 439.566 436.245 439.566 436.777C439.566 437.441 438.636 437.973 437.705 438.505C438.769 438.372 439.699 438.372 440.364 438.771C440.762 438.904 440.895 439.17 441.028 439.569C441.161 440.234 441.028 440.632 440.763 440.898C440.497 441.164 440.098 441.164 439.699 441.164C437.971 441.164 435.313 439.968 434.648 439.702ZM435.844 439.436C437.572 440.234 439.832 440.898 440.364 440.367C440.364 440.367 440.497 440.234 440.497 439.702C440.497 439.569 440.364 439.436 440.098 439.303C439.832 439.17 439.3 439.037 438.636 439.037C437.705 439.037 436.642 439.303 435.844 439.436ZM437.44 436.245C436.509 436.644 435.712 437.973 435.446 438.771C437.174 438.106 438.902 437.175 438.902 436.644C438.902 436.511 438.636 436.378 438.503 436.245C438.37 436.112 438.104 436.112 437.971 436.112C437.705 436.112 437.572 436.245 437.44 436.245Z" fill="#FFB541"/>
<path d="M427.471 145.326C416.97 143.997 413.78 139.476 413.78 139.476C418.166 135.354 417.369 129.371 416.172 125.648C415.508 123.521 414.843 122.191 414.843 122.191L427.604 124.584C427.205 126.712 427.072 128.44 427.072 129.903C427.072 131.498 427.205 132.828 427.471 133.892C428.401 137.748 430.528 137.748 430.528 137.748C432.654 141.869 427.471 145.326 427.471 145.326Z" fill="#B97964"/>
<path opacity="0.2" d="M427.072 129.903C427.072 131.498 427.205 132.828 427.471 133.892C422.42 133.227 418.565 129.238 416.172 125.648C415.508 123.521 414.843 122.191 414.843 122.191L427.603 124.584C427.205 126.579 427.072 128.44 427.072 129.903Z" fill="black"/>
<path d="M442.623 100.386C442.623 100.386 447.94 98.9229 446.744 95.2C445.548 91.4771 443.687 91.3442 443.687 91.3442C443.687 91.3442 446.877 86.8235 444.75 81.904C442.623 76.8514 436.908 78.314 436.908 78.314C436.908 78.314 437.44 72.8626 432.256 71.533C427.205 70.0704 424.546 74.7241 424.546 74.7241C424.546 74.7241 421.489 69.8045 416.172 70.6023C410.856 71.4 409.128 78.447 409.128 78.447C409.128 78.447 404.475 76.3196 401.684 81.2391C398.76 86.1587 401.684 90.4135 401.684 90.4135C401.684 90.4135 398.494 88.552 396.899 93.7375C395.304 98.9229 400.488 104.108 400.488 104.108C400.488 104.108 397.431 104.241 398.627 108.23C399.823 112.219 404.608 112.751 404.608 112.751C404.608 112.751 402.614 113.549 405.937 117.139C409.26 120.729 421.223 117.139 421.223 117.139L442.623 100.386Z" fill="#263238"/>
<path d="M429.331 90.6793C440.231 92.2748 443.022 98.657 442.092 110.092C441.028 124.318 436.509 133.892 423.217 128.972C405.14 122.191 411.121 88.1531 429.331 90.6793Z" fill="#B97964"/>
<path d="M435.047 108.496C435.047 108.496 436.11 111.554 437.572 113.549C437.572 113.549 436.376 114.878 434.515 114.346L435.047 108.496Z" fill="#A24E3F"/>
<path d="M428.534 106.635C428.401 107.565 427.869 108.23 427.205 108.097C426.54 107.964 426.141 107.3 426.274 106.369C426.407 105.438 426.939 104.773 427.603 104.906C428.268 104.906 428.667 105.704 428.534 106.635Z" fill="#263238"/>
<path d="M427.338 104.773L429.331 104.241C429.464 104.241 428.268 105.837 427.338 104.773Z" fill="#263238"/>
<path d="M439.699 107.698C439.566 108.629 439.035 109.294 438.37 109.161C437.705 109.028 437.307 108.363 437.44 107.433C437.572 106.502 438.104 105.837 438.769 105.97C439.433 106.103 439.832 106.901 439.699 107.698Z" fill="#263238"/>
<path d="M438.636 105.97L440.63 105.438C440.63 105.438 439.433 107.034 438.636 105.97Z" fill="#263238"/>
<path d="M429.464 99.0559C429.464 99.0559 426.407 98.2581 424.413 99.9866" stroke="#263238" stroke-width="0.708" stroke-miterlimit="10" stroke-linecap="round" stroke-linejoin="round"/>
<path d="M437.573 99.7207C437.573 99.7207 439.566 99.3218 441.826 101.316" stroke="#263238" stroke-width="0.708" stroke-miterlimit="10" stroke-linecap="round" stroke-linejoin="round"/>
<path d="M414.577 107.432C414.577 107.432 420.957 99.1889 421.223 92.142C421.223 92.142 444.218 86.4247 442.092 108.629C442.092 108.629 447.01 89.3498 428.268 86.1587C409.526 82.9677 405.539 110.624 414.179 120.197C414.179 120.197 410.59 112.618 414.577 107.432Z" fill="#263238"/>
<path d="M416.039 110.092C416.172 108.363 414.843 105.039 411.52 104.906C408.064 104.773 405.406 111.554 413.647 114.479C414.843 114.878 415.641 113.682 416.039 110.092Z" fill="#B97964"/>
<path d="M432.256 120.064C432.256 120.064 427.471 120.463 426.141 116.075" stroke="#263238" stroke-width="0.708" stroke-miterlimit="10" stroke-linecap="round" stroke-linejoin="round"/>
<path d="M410.988 103.045C414.843 89.6157 436.11 80.0425 442.225 96.5297C442.225 96.5297 441.161 90.5465 436.11 85.8928C436.11 85.8928 416.172 78.1811 410.457 101.183L410.988 103.045Z" fill="#FFB541"/>
<path d="M456.58 155.431C456.447 156.096 456.979 156.628 457.643 156.628H469.739C470.404 156.628 471.068 156.096 471.068 155.431L473.727 131.498C473.86 130.834 473.328 130.169 472.663 130.169H460.568C459.903 130.169 459.238 130.834 459.238 131.498L456.58 155.431Z" fill="#263238"/>
<path opacity="0.5" d="M460.701 131.365L457.909 155.564C457.776 156.229 458.175 156.761 458.84 156.761H469.207C469.872 156.761 471.201 156.362 471.201 155.697L473.993 131.365C474.125 130.701 472.929 130.169 472.265 130.169H461.897C461.099 130.036 460.701 130.568 460.701 131.365Z" fill="white"/>
<path opacity="0.6" d="M433.053 213.136C433.053 214.333 433.984 215.264 435.18 215.264C436.376 215.264 437.307 214.333 437.307 213.136C437.307 211.94 436.376 211.009 435.18 211.009C433.984 210.876 433.053 211.94 433.053 213.136Z" fill="white"/>
<path d="M481.968 157.426L475.587 146.656C475.587 146.656 475.588 140.939 475.056 139.609C474.524 138.279 468.277 135.221 467.081 135.753C465.884 136.152 465.353 147.321 466.549 148.783C467.612 150.246 471.6 151.974 471.6 151.974L471.334 154.102L475.056 165.27L481.968 157.426Z" fill="#B97964"/>
<path d="M484.626 156.229L482.499 154.102L472.53 165.27L473.86 169.791L484.626 156.229Z" fill="#FFB541"/>
<path opacity="0.2" d="M434.116 174.046C434.116 174.046 422.419 200.771 407.267 209.413C407.134 203.829 406.203 183.619 403.412 172.184C402.614 169.126 401.684 165.802 400.621 162.079L405.273 156.495C405.273 156.495 408.463 166.334 407.001 174.977L424.679 164.207L434.116 174.046Z" fill="black"/>
<path d="M422.685 167.93L437.041 156.628C437.041 156.628 439.168 150.512 440.098 149.448C441.028 148.384 453.656 143.731 454.586 143.598C455.65 143.465 454.586 153.969 452.991 155.697C451.396 157.426 441.294 161.016 441.294 161.016L426.274 175.243L422.685 167.93Z" fill="#B97964"/>
<path d="M393.975 142.135C385.468 146.39 381.746 194.123 396.5 202.367C411.254 210.61 433.053 173.381 433.053 173.381L424.546 164.34C424.546 164.34 406.735 179.364 404.475 177.902C402.349 176.572 404.741 161.946 404.741 161.946C404.741 161.946 407.267 157.559 401.95 150.512C396.766 143.598 393.975 142.135 393.975 142.135Z" fill="#FFB541"/>
<path opacity="0.2" d="M393.975 142.135C385.468 146.39 381.746 194.123 396.5 202.367C411.254 210.61 433.053 173.381 433.053 173.381L424.546 164.34C424.546 164.34 406.735 179.364 404.475 177.902C402.349 176.572 404.741 161.946 404.741 161.946C404.741 161.946 407.267 157.559 401.95 150.512C396.766 143.598 393.975 142.135 393.975 142.135Z" fill="black"/>
<path d="M433.186 176.705L435.712 175.11L426.141 161.149L422.685 163.143L433.186 176.705Z" fill="#FFB541"/>
<path d="M472.132 274.033C472.132 274.165 472.132 274.165 472.132 274.298C469.872 274.697 467.878 278.819 465.619 280.282C462.96 282.01 459.77 283.074 456.58 283.606C450.599 284.536 444.484 283.872 438.503 284.935C431.059 286.265 424.413 290.121 417.236 292.514C412.185 294.243 403.811 295.971 399.026 292.647C395.57 290.254 396.101 285.999 395.969 282.143C395.703 270.177 396.101 258.21 397.696 246.244C399.159 235.74 401.817 224.305 406.07 213.535C406.469 212.738 406.735 211.94 407.134 211.142L449.668 207.818L450.067 209.812L452.725 225.103L457.776 238L470.271 269.645C471.068 270.974 471.733 272.57 472.132 274.033Z" fill="#407BFF"/>
<path opacity="0.6" d="M472.132 274.033C472.132 274.165 472.132 274.165 472.132 274.298C469.872 274.697 467.878 278.819 465.619 280.282C462.96 282.01 459.77 283.074 456.58 283.606C450.599 284.536 444.484 283.872 438.503 284.935C431.059 286.265 424.413 290.121 417.236 292.514C412.185 294.243 403.811 295.971 399.026 292.647C395.57 290.254 396.101 285.999 395.969 282.143C395.703 270.177 396.101 258.21 397.696 246.244C399.159 235.74 401.817 224.305 406.07 213.535C406.469 212.738 406.735 211.94 407.134 211.142L449.668 207.818L450.067 209.812L452.725 225.103L457.776 238L470.271 269.645C471.068 270.974 471.733 272.57 472.132 274.033Z" fill="white"/>
<path d="M407.267 210.876L405.406 215.397L450.731 213.136L449.801 207.685L407.267 210.876Z" fill="black"/>
<path d="M420.027 209.945L419.495 215.796H417.9L418.166 209.945H420.027Z" fill="#407BFF"/>
<path opacity="0.6" d="M420.027 209.945L419.495 215.796H417.9L418.166 209.945H420.027Z" fill="white"/>
<path d="M443.953 208.084L444.617 214.2H446.079L445.548 207.818L443.953 208.084Z" fill="#407BFF"/>
<path opacity="0.6" d="M443.953 208.084L444.617 214.2H446.079L445.548 207.818L443.953 208.084Z" fill="white"/>
<path d="M431.192 209.28L431.724 214.2C431.724 214.732 432.256 215.131 432.787 215.131L439.433 214.599C439.965 214.599 440.364 214.067 440.364 213.535L439.832 208.616C439.832 208.084 439.3 207.685 438.769 207.685L432.123 208.084C431.591 208.217 431.059 208.749 431.192 209.28Z" fill="#FFB541"/>
<path d="M445.68 136.418C445.68 137.88 445.282 139.476 443.953 141.204C443.288 142.135 442.357 142.933 441.161 143.731C438.37 145.592 434.116 147.188 427.603 147.985C423.483 148.517 419.761 148.517 416.704 148.118C414.976 147.853 413.381 147.587 412.052 147.055C406.602 145.459 403.146 142.534 401.019 140.141C403.412 139.609 405.672 139.077 408.064 138.545C408.729 138.412 409.26 138.279 409.925 138.146C410.59 138.013 411.121 137.88 411.786 137.747C418.166 136.684 424.546 135.886 431.059 135.753C433.452 135.753 435.844 135.753 438.104 135.886C439.167 135.886 440.098 136.019 441.028 136.019C442.756 136.152 444.351 136.285 445.68 136.418Z" fill="#B97964"/>
<path d="M416.571 148.119C414.843 147.853 413.248 147.587 411.919 147.055C411.254 142.534 409.26 139.875 408.064 138.545C408.729 138.412 409.26 138.279 409.925 138.146C413.514 140.806 415.641 145.459 416.571 148.119Z" fill="#263238"/>
<path d="M443.953 141.205C443.288 142.135 442.358 142.933 441.161 143.731C441.161 140.54 439.566 137.748 437.971 135.886C439.035 135.886 439.965 136.019 440.895 136.019C442.225 137.615 443.288 139.343 443.953 141.205Z" fill="#263238"/>
<path d="M283.252 357.798C274.48 376.811 262.783 378.806 262.783 378.806L248.826 362.451C248.826 362.451 258.795 356.468 261.188 349.155C263.58 341.842 259.194 294.242 271.555 284.403C271.555 284.403 273.018 288.126 274.878 294.109C278.6 305.677 284.316 325.355 285.246 340.912C285.778 347.56 285.246 353.543 283.252 357.798Z" fill="#FFB541"/>
<path opacity="0.1" d="M285.379 340.779C273.283 319.106 271.954 303.417 275.011 293.977C278.733 305.544 284.449 325.222 285.379 340.779Z" fill="black"/>
<path d="M284.847 388.645C284.847 388.645 195.791 363.781 184.626 395.027C173.46 426.273 254.276 451.136 298.937 452.732C343.731 454.194 361.941 422.949 348.782 393.032L284.847 388.645Z" fill="#263238"/>
<path opacity="0.2" d="M284.847 388.645C284.847 388.645 195.791 363.781 184.626 395.027C173.46 426.273 254.276 451.136 298.937 452.732C343.731 454.194 361.941 422.949 348.782 393.032L284.847 388.645Z" fill="black"/>
<path d="M357.023 411.115L274.347 397.021C288.835 369.099 284.183 326.685 271.688 284.403C280.461 277.09 315.419 272.171 342.136 279.883C342.136 279.883 343.731 285.733 345.858 295.838C348.383 307.937 351.839 326.153 354.232 347.56C356.358 366.706 357.688 388.645 357.023 411.115Z" fill="#FFB541"/>
<path opacity="0.6" d="M357.023 411.115L274.347 397.021C286.708 373.354 285.246 339.183 276.739 303.55C283.784 290.121 292.823 288.392 292.823 288.392C301.861 301.156 320.736 288.392 320.736 288.392C338.148 298.896 348.516 320.835 351.839 328.812C355.162 351.814 357.953 380.933 357.023 411.115Z" fill="white"/>
<path opacity="0.1" d="M354.232 347.427C348.117 342.374 342.402 335.593 339.61 326.818C332.832 305.411 343.332 297.3 345.858 295.705C348.383 307.937 351.839 326.02 354.232 347.427Z" fill="black"/>
<path d="M194.861 437.441C194.196 436.909 193.664 436.245 193.398 435.447C193.266 434.915 193.531 434.383 193.93 433.984C194.196 433.718 194.462 433.585 194.861 433.718C196.323 434.117 197.785 438.505 198.051 438.904C198.051 439.037 198.051 439.17 197.918 439.17C197.785 439.303 197.652 439.303 197.652 439.17C196.589 438.771 195.658 438.106 194.861 437.441ZM194.994 434.516C194.861 434.383 194.728 434.383 194.595 434.25C194.462 434.25 194.329 434.25 194.196 434.383C193.93 434.649 193.797 435.048 193.797 435.314C194.462 436.644 195.525 437.707 196.987 438.372C196.721 437.042 195.924 435.58 194.994 434.516Z" fill="#407BFF"/>
<path d="M197.519 439.303C196.987 437.84 196.854 434.383 197.918 433.585C198.317 433.319 198.848 433.452 199.114 433.718C199.513 433.984 199.779 434.383 199.779 434.782C200.177 436.511 198.051 439.17 197.918 439.303C197.918 439.436 197.785 439.436 197.652 439.436C197.519 439.303 197.519 439.303 197.519 439.303ZM198.848 434.25C198.45 433.984 198.317 433.984 198.184 434.117C197.519 434.516 197.386 437.042 197.785 438.505C198.317 437.707 199.38 435.979 199.114 434.915C199.114 434.516 198.981 434.383 198.848 434.25Z" fill="#407BFF"/>
<path d="M288.835 458.316C288.968 459.114 288.835 460.045 288.436 460.709C288.17 461.108 287.639 461.374 286.974 461.374C286.575 461.374 286.31 461.241 286.177 460.975C285.512 459.646 287.506 455.524 287.772 455.125C287.772 454.992 287.905 454.992 288.038 454.992C288.17 454.992 288.303 455.125 288.303 455.258C288.569 456.056 288.835 457.253 288.835 458.316ZM286.575 460.178C286.575 460.311 286.575 460.444 286.708 460.576C286.708 460.709 286.841 460.709 286.974 460.709C287.373 460.709 287.772 460.577 287.905 460.311C288.436 458.848 288.436 457.252 287.905 455.923C287.24 457.252 286.841 458.715 286.575 460.178Z" fill="#407BFF"/>
<path d="M266.77 424.943L282.455 436.511L290.031 442.095L285.113 450.737L277.404 446.483L258.662 436.245L266.77 424.943Z" fill="#E4897B"/>
<path d="M282.588 450.471L287.373 439.968C287.639 439.436 288.303 439.17 288.968 439.436L294.152 441.962C294.152 441.962 301.33 444.887 302.127 447.147C304.785 453.928 294.816 477.463 291.759 477.463C290.563 477.463 289.898 475.734 289.766 474.537C289.234 470.947 289.234 462.039 288.702 459.114C288.17 455.657 284.715 452.998 283.12 451.934C282.588 451.535 282.455 451.003 282.588 450.471Z" fill="#263238"/>
<path d="M288.303 455.125C287.639 456.588 285.246 459.114 283.917 458.848C283.518 458.715 283.119 458.316 283.119 457.917C282.986 457.518 283.119 456.987 283.385 456.588C284.449 455.125 287.772 454.726 287.905 454.726C288.037 454.726 288.17 454.726 288.17 454.859C288.303 454.992 288.303 454.992 288.303 455.125ZM283.784 457.651C283.917 458.183 284.05 458.183 284.05 458.183C284.847 458.316 286.575 456.721 287.506 455.391C286.575 455.524 284.582 455.923 283.917 456.854C283.784 457.252 283.784 457.518 283.784 457.651Z" fill="#407BFF"/>
<path opacity="0.2" d="M266.77 424.943L282.455 436.511L277.404 446.483L258.662 436.245L266.77 424.943Z" fill="black"/>
<path d="M273.815 447.147L268.631 445.951L277.271 429.597L282.056 434.516L273.815 447.147Z" fill="#407BFF"/>
<path opacity="0.6" d="M273.815 447.147L268.631 445.951L277.271 429.597L282.056 434.516L273.815 447.147Z" fill="white"/>
<path d="M234.072 444.887L214.799 448.078L205.627 449.541L202.836 439.968L211.21 437.441L231.679 431.192L234.072 444.887Z" fill="#E4897B"/>
<path d="M204.83 438.505L208.95 449.275C209.216 449.94 208.817 450.604 208.285 450.737L202.969 452.599C202.969 452.599 195.924 455.657 193.664 454.726C187.018 451.801 177.182 428.4 179.309 426.14C180.106 425.342 181.834 426.14 182.765 426.804C185.689 428.932 192.069 435.181 194.595 436.909C197.386 438.904 201.772 438.372 203.633 437.84C204.032 437.574 204.564 437.973 204.83 438.505Z" fill="#263238"/>
<path opacity="0.2" d="M234.072 444.887L214.799 448.078L211.21 437.441L231.679 431.192L234.072 444.887Z" fill="black"/>
<path d="M214.533 435.447C214.533 435.447 294.683 388.113 321.799 389.442C348.915 390.772 351.307 417.63 340.142 432.655C328.977 447.679 308.241 451.269 308.241 451.269C308.241 451.269 322.331 431.325 320.337 425.741C318.343 420.156 310.501 438.904 310.501 438.904C310.501 438.904 260.922 445.419 217.59 449.009L214.533 435.447Z" fill="#263238"/>
<path d="M213.337 434.25L217.723 431.325L223.438 448.876H216.66L213.337 434.25Z" fill="#407BFF"/>
<path opacity="0.6" d="M213.337 434.25L217.723 431.325L223.438 448.876H216.66L213.337 434.25Z" fill="white"/>
<path d="M305.184 291.184C316.881 291.184 324.458 278.952 324.458 278.952C309.172 273.633 309.172 257.412 309.172 257.412L303.323 263.13L294.949 271.373C301.994 276.293 298.671 280.547 296.411 282.542C295.614 283.207 294.949 283.606 294.949 283.606C294.949 283.606 293.487 291.184 305.184 291.184Z" fill="#E4897B"/>
<path opacity="0.2" d="M296.279 282.542C310.634 284.137 309.57 262.731 309.57 262.731C307.311 262.731 305.184 262.864 303.19 263.13L294.816 271.373C301.728 276.293 298.405 280.68 296.279 282.542Z" fill="black"/>
<path d="M325.787 252.626C327.515 254.354 320.337 258.875 308.906 255.019C297.475 251.163 295.481 239.595 295.481 239.595C295.481 239.595 314.488 241.59 325.787 252.626Z" fill="#FFB541"/>
<path opacity="0.4" d="M325.787 252.626C327.515 254.354 320.337 258.875 308.906 255.019C297.475 251.163 295.481 239.595 295.481 239.595C295.481 239.595 314.488 241.59 325.787 252.626Z" fill="black"/>
<path d="M284.98 241.324C290.43 243.584 289.367 249.435 280.328 260.204C274.745 255.418 271.821 244.648 274.746 241.058C277.67 237.734 280.328 239.463 284.98 241.324Z" fill="#263238"/>
<path d="M277.005 265.39C277.537 266.985 278.068 268.315 278.733 269.645C284.05 280.547 299.469 282.675 306.247 271.905C306.247 271.905 306.247 271.772 306.38 271.772C310.9 264.592 309.172 257.811 307.311 245.978C306.912 243.451 305.982 241.191 304.519 239.064C299.336 231.751 289.367 229.889 281.923 235.075C273.15 241.324 273.682 255.285 277.005 265.39Z" fill="#E4897B"/>
<path d="M290.696 253.025C290.962 253.955 290.563 254.886 289.898 255.019C289.234 255.152 288.569 254.487 288.436 253.556C288.17 252.626 288.569 251.695 289.101 251.562C289.898 251.429 290.43 252.094 290.696 253.025Z" fill="#263238"/>
<path d="M280.062 255.418C280.328 256.349 279.929 257.279 279.265 257.412C278.6 257.545 277.936 256.88 277.803 255.95C277.537 255.019 277.936 254.088 278.6 253.955C279.132 253.822 279.796 254.487 280.062 255.418Z" fill="#263238"/>
<path d="M283.651 255.152C283.119 258.343 282.322 261.268 280.993 264.193C282.986 265.39 285.645 264.06 285.645 264.06L283.651 255.152Z" fill="#DE5753"/>
<path d="M292.955 249.036C293.088 249.036 293.221 248.903 293.354 248.903C293.62 248.637 293.487 248.371 293.354 248.105C292.025 246.908 290.164 246.376 288.303 246.775C288.037 246.908 287.772 247.174 287.904 247.44C288.037 247.706 288.303 247.839 288.569 247.839C290.031 247.573 291.493 247.972 292.557 248.903C292.557 249.036 292.823 249.036 292.955 249.036Z" fill="#263238"/>
<path d="M274.347 252.892C274.613 252.892 274.745 252.626 274.745 252.493C275.011 251.03 275.942 249.833 277.271 249.302C277.537 249.169 277.67 248.903 277.67 248.637C277.537 248.371 277.271 248.238 277.005 248.238C275.277 248.903 274.081 250.498 273.682 252.227C273.549 252.493 273.815 252.892 274.081 252.892C274.214 252.892 274.347 252.892 274.347 252.892Z" fill="#263238"/>
<path d="M300.399 236.803C295.348 239.861 297.342 245.579 307.975 254.753C312.628 249.169 313.957 238 310.501 235.075C307.045 232.017 304.785 234.144 300.399 236.803Z" fill="#263238"/>
<path d="M314.887 253.955C314.754 256.88 313.292 259.673 311.166 261.667C308.241 264.326 305.051 262.066 304.387 258.343C303.855 255.019 304.785 249.7 308.374 248.504C312.096 247.307 315.153 250.365 314.887 253.955Z" fill="#E4897B"/>
<path d="M294.816 264.193C294.816 264.193 293.62 268.448 287.905 269.379" stroke="#263238" stroke-width="0.5572" stroke-miterlimit="10" stroke-linecap="round" stroke-linejoin="round"/>
<path d="M296.013 239.197C296.013 239.197 292.823 240.393 291.36 242.388C291.36 242.388 290.829 241.59 291.36 239.994C291.36 239.994 287.905 241.856 286.31 244.116C286.31 244.116 285.379 242.122 285.512 240.26C285.512 240.26 283.784 243.052 283.252 245.18C283.252 245.18 279.265 243.717 278.866 240.526C278.866 240.526 278.6 242.255 278.866 244.648C278.866 244.648 276.208 243.85 275.676 241.058C275.676 241.058 274.878 243.318 275.011 245.978C275.011 245.978 272.087 244.515 272.885 240.526C273.682 236.404 285.246 230.155 292.025 232.15C298.671 234.144 296.013 239.197 296.013 239.197Z" fill="#263238"/>
<path d="M272.619 242.255C272.619 242.255 272.752 230.421 277.537 226.033C282.322 221.646 299.469 220.183 307.843 224.571C316.349 228.959 313.292 244.914 313.292 244.914C313.292 244.914 295.88 236.139 272.619 242.255Z" fill="#FFB541"/>
<path d="M278.467 238.532C278.467 238.532 282.986 236.936 289.101 237.601C289.101 237.601 292.158 232.283 284.581 232.017C279.265 231.751 278.201 234.676 278.467 238.532Z" fill="#263238"/>
<path d="M304.121 241.856L313.558 241.989C313.558 241.989 321.002 246.244 325.787 252.626C325.787 252.626 318.609 246.244 304.121 241.856Z" fill="#FFB541"/>
<path opacity="0.2" d="M304.121 241.856L313.558 241.989C313.558 241.989 321.002 246.244 325.787 252.626C325.787 252.626 318.609 246.244 304.121 241.856Z" fill="black"/>
<path opacity="0.2" d="M336.819 372.423L309.305 403.004C309.305 403.004 278.866 402.34 241.781 420.422C241.781 420.422 202.038 404.068 198.449 390.373C194.861 376.678 281.79 386.384 281.79 386.384L336.819 372.423Z" fill="black"/>
<path d="M328.977 363.382L284.715 377.875C284.715 377.875 268.897 374.418 266.106 374.418C263.314 374.418 252.415 383.326 258.529 386.384C264.644 389.442 281.524 389.841 283.385 388.911C285.246 387.98 334.294 376.412 334.294 376.412L328.977 363.382Z" fill="#E4897B"/>
<path d="M342.136 279.75C332.167 277.755 349.447 338.784 345.193 347.693C340.94 356.734 324.325 362.318 324.325 362.318L332.034 379.204C332.034 379.204 354.63 374.95 366.992 359.26C379.354 343.571 358.485 282.941 342.136 279.75Z" fill="#FFB541"/>
<path d="M324.325 361.122L333.629 379.337L325.654 381.066L318.343 364.18L324.325 361.122Z" fill="#FDE88D"/>
<path opacity="0.2" d="M324.325 361.122L333.629 379.337L325.654 381.066L318.343 364.18L324.325 361.122Z" fill="white"/>
<path d="M306.115 386.384V389.309C306.115 391.304 304.52 393.032 302.526 393.032H195.658C193.664 393.032 191.803 391.304 191.803 389.309V386.384H306.115Z" fill="#263238"/>
<path opacity="0.2" d="M306.115 386.384V389.309C306.115 391.304 304.52 393.032 302.526 393.032H195.658C193.664 393.032 191.803 391.304 191.803 389.309V386.384H306.115Z" fill="white"/>
<path opacity="0.2" d="M266.239 386.384V389.309C266.239 391.304 264.644 393.032 262.65 393.032H195.658C193.664 393.032 191.803 391.304 191.803 389.309V386.384H266.239Z" fill="white"/>
<path d="M262.65 390.373H192.069C189.943 390.373 187.55 388.645 186.885 386.65L170.669 335.859C170.005 333.732 171.201 332.003 173.328 332.003H243.908C246.035 332.003 248.427 333.865 249.092 335.859L265.308 386.65C265.973 388.512 264.776 390.373 262.65 390.373Z" fill="#263238"/>
<path opacity="0.2" d="M262.65 390.373H192.069C189.943 390.373 187.55 388.645 186.885 386.65L170.669 335.859C170.005 333.732 171.201 332.003 173.328 332.003H243.908C246.035 332.003 248.427 333.865 249.092 335.859L265.308 386.65C265.973 388.512 264.776 390.373 262.65 390.373Z" fill="white"/>
<path opacity="0.2" d="M259.991 390.373H192.069C189.943 390.373 187.55 388.645 186.885 386.65L170.669 335.859C170.005 333.732 171.201 332.003 173.328 332.003H241.25C243.376 332.003 245.769 333.865 246.434 335.859L262.65 386.65C263.314 388.512 262.118 390.373 259.991 390.373Z" fill="white"/>
<path opacity="0.2" d="M218.653 363.382C219.584 366.706 217.856 369.498 214.931 369.498C212.007 369.498 208.95 366.706 208.02 363.382C207.089 360.058 208.817 357.266 211.741 357.266C214.666 357.266 217.723 360.058 218.653 363.382Z" fill="white"/>
<path opacity="0.2" d="M282.588 450.471L287.373 439.968C287.639 439.436 288.303 439.17 288.968 439.436L294.152 441.962C294.152 441.962 301.33 444.887 302.127 447.147C304.785 453.928 294.816 477.463 291.759 477.463C290.563 477.463 289.898 475.734 289.766 474.537C289.234 470.947 289.234 462.039 288.702 459.114C288.17 455.657 284.715 452.998 283.12 451.934C282.588 451.535 282.455 451.003 282.588 450.471Z" fill="white"/>
<path opacity="0.2" d="M204.83 438.505L208.95 449.275C209.216 449.94 208.817 450.604 208.285 450.737L202.969 452.599C202.969 452.599 195.924 455.657 193.664 454.726C187.018 451.801 177.182 428.4 179.309 426.14C180.106 425.342 181.834 426.14 182.765 426.804C185.689 428.932 192.069 435.181 194.595 436.909C197.386 438.904 201.772 438.372 203.633 437.84C204.032 437.574 204.564 437.973 204.83 438.505Z" fill="white"/>
</g>
<defs>
<clipPath id="clip0">
<rect width="493" height="476" fill="white"/>
</clipPath>
</defs>
</svg>
