<svg width="133" height="106" viewBox="0 0 133 106" fill="none" xmlns="http://www.w3.org/2000/svg">
<path d="M27.6636 93.0729H128.181C130.704 93.0729 132.75 90.758 132.75 87.9022V5.17067C132.75 2.31487 130.704 0 128.181 0H27.6636C25.1402 0 23.0947 2.31487 23.0947 5.17067V87.9022C23.0947 90.7574 25.1402 93.0729 27.6636 93.0729Z" fill="#EFF2FA"/>
<path d="M82.4913 80.1461H73.3534C72.0918 80.1461 71.0688 78.9884 71.0688 77.5607V15.5121C71.0688 14.0843 72.0918 12.9266 73.3534 12.9266H82.4913C83.7529 12.9266 84.7759 14.0843 84.7759 15.5121V77.5607C84.7759 78.9884 83.7529 80.1461 82.4913 80.1461Z" fill="#FFD782"/>
<path d="M82.4913 80.1461H73.3534C72.0918 80.1461 71.0688 78.9884 71.0688 77.5606V51.707C71.0688 50.2792 72.0918 49.1215 73.3534 49.1215H82.4913C83.7529 49.1215 84.7759 50.2792 84.7759 51.707V77.5606C84.7759 78.9884 83.7529 80.1461 82.4913 80.1461Z" fill="#FFC36E"/>
<path d="M100.767 80.1461H91.6293C90.3677 80.1461 89.3447 78.9884 89.3447 77.5606V51.707C89.3447 50.2792 90.3677 49.1215 91.6293 49.1215H100.767C102.029 49.1215 103.052 50.2792 103.052 51.707V77.5606C103.052 78.9884 102.029 80.1461 100.767 80.1461Z" fill="#C3E678"/>
<path d="M100.767 80.146H91.6293C90.3677 80.146 89.3447 78.9883 89.3447 77.5605V72.3899C89.3447 70.9621 90.3677 69.8044 91.6293 69.8044H100.767C102.029 69.8044 103.052 70.9621 103.052 72.3899V77.5605C103.052 78.9883 102.029 80.146 100.767 80.146Z" fill="#A5D76E"/>
<path d="M45.9398 80.1461H36.8019C35.5403 80.1461 34.5173 78.9884 34.5173 77.5606V51.707C34.5173 50.2792 35.5403 49.1215 36.8019 49.1215H45.9398C47.2014 49.1215 48.2243 50.2792 48.2243 51.707V77.5606C48.2241 78.9884 47.2014 80.1461 45.9398 80.1461Z" fill="#B4E1FA"/>
<path d="M119.043 80.1461H109.905C108.644 80.1461 107.621 78.9884 107.621 77.5606V31.0243C107.621 29.5966 108.644 28.4388 109.905 28.4388H119.043C120.305 28.4388 121.328 29.5966 121.328 31.0243V77.5609C121.328 78.9884 120.305 80.1461 119.043 80.1461Z" fill="#9BE6D2"/>
<path d="M119.043 80.1462H109.905C108.644 80.1462 107.621 78.9885 107.621 77.5607V62.0484C107.621 60.6207 108.644 59.463 109.905 59.463H119.043C120.305 59.463 121.328 60.6207 121.328 62.0484V77.5607C121.328 78.9885 120.305 80.1462 119.043 80.1462Z" fill="#78D2BE"/>
<path d="M64.2154 80.1462H55.0776C53.816 80.1462 52.793 78.9884 52.793 77.5607V41.3658C52.793 39.938 53.816 38.7803 55.0776 38.7803H64.2154C65.477 38.7803 66.5 39.938 66.5 41.3658V77.5607C66.5 78.9884 65.477 80.1462 64.2154 80.1462Z" fill="#FF6464"/>
<path d="M64.2154 80.1462H55.0776C53.816 80.1462 52.793 78.9885 52.793 77.5608V67.2194C52.793 65.7917 53.816 64.634 55.0776 64.634H64.2154C65.477 64.634 66.5 65.7917 66.5 67.2194V77.5608C66.5 78.9885 65.477 80.1462 64.2154 80.1462Z" fill="#D2555A"/>
<path d="M45.9398 80.146H36.8019C35.5403 80.146 34.5173 78.9883 34.5173 77.5605V72.3899C34.5173 70.9621 35.5403 69.8044 36.8019 69.8044H45.9398C47.2014 69.8044 48.2243 70.9621 48.2243 72.3899V77.5605C48.2241 78.9883 47.2014 80.146 45.9398 80.146Z" fill="#A0D2F0"/>
<path d="M125.897 82.7313H29.9484C28.6868 82.7313 27.6638 81.5736 27.6638 80.1459C27.6638 78.7181 28.6868 77.5604 29.9484 77.5604H125.897C127.158 77.5604 128.181 78.7181 128.181 80.1459C128.181 81.5739 127.158 82.7313 125.897 82.7313Z" fill="#D7DEED"/>
<path d="M37.1534 85.7145V77.3618H18.1743V85.7145L27.6639 95.2604L37.1534 85.7145Z" fill="#E6AF78"/>
<path d="M51.8259 89.6217L38.779 86.1476C38.5821 86.0952 38.4007 86.0062 38.2314 85.8981L27.6641 92.874L17.5086 85.5604C17.2457 85.8407 16.9196 86.0486 16.5488 86.1473L3.50194 89.6214C1.59648 90.1287 0.25 92.0528 0.25 94.2675V103.613C0.25 104.931 1.19406 106 2.35887 106H52.969C54.1335 106 55.0778 104.931 55.0778 103.613V94.2675C55.0776 92.0528 53.7311 90.1287 51.8259 89.6217Z" fill="#FDE88D"/>
<path d="M18.1743 77.3618V86.1746C30.1286 91.0485 37.1531 78.8498 37.1531 78.8498V77.3618H18.1743Z" fill="#D29B6E"/>
<path d="M13.957 49.9169L14.876 72.7932C14.9619 74.9303 15.8879 76.9119 17.4 78.1955L21.7595 81.8957C22.8547 82.8253 24.1865 83.3276 25.5552 83.3276H29.7727C31.1414 83.3276 32.4734 82.825 33.5683 81.8957L37.9279 78.1955C39.4403 76.9119 40.366 74.9303 40.4519 72.7932L41.3706 49.9169H13.957Z" fill="#F0C087"/>
<path d="M24.5006 54.6902C28.7181 54.6902 35.0444 53.497 36.5449 49.9172H13.957L14.8757 72.7935C14.9616 74.9306 15.8876 76.9122 17.3997 78.1959L21.7593 81.896C22.8545 82.8256 24.1862 83.3279 25.5549 83.3279H27.6638C25.5549 83.3279 21.3374 78.5549 21.3374 72.5885C21.3374 69.6706 21.3374 61.8492 21.3374 58.2694C21.3374 57.0765 22.3917 54.6902 24.5006 54.6902Z" fill="#E6AF78"/>
<path d="M47.3373 98.2556L54.1696 91.3099C54.742 92.1305 55.0779 93.1626 55.0779 94.2679V103.613C55.0779 104.931 54.1339 106 52.9691 106H45.5884V102.694C45.5881 101 46.2242 99.387 47.3373 98.2556Z" fill="#FFCE03"/>
<path d="M7.99038 98.2556L1.15835 91.3098C0.585391 92.1304 0.25 93.1625 0.25 94.2678V103.613C0.25 104.932 1.19406 106 2.35887 106H9.73954V102.694C9.73954 101 9.10344 99.3869 7.99038 98.2556Z" fill="#FFCE03"/>
<path d="M30.2999 106H25.0278L25.687 95.2604H29.6407L30.2999 106Z" fill="#5B5D6E"/>
<path d="M30.2999 92.874H25.0278V93.5634C25.0278 95.1599 26.1712 96.4538 27.5818 96.4538H27.7454C29.156 96.4538 30.2994 95.1599 30.2994 93.5634V92.874H30.2999Z" fill="#515262"/>
<path d="M18.0266 83.0579L27.6639 92.8742C27.6639 92.8742 24.9648 94.4161 21.6342 97.5238C20.9471 98.1649 19.9078 97.9051 19.5393 96.9876L15.0115 85.7143L16.4439 83.2829C16.8005 82.6775 17.5486 82.5712 18.0266 83.0579Z" fill="#FFCE03"/>
<path d="M37.3011 83.0579L27.6638 92.8741C27.6638 92.8741 30.363 94.4161 33.6936 97.5237C34.3807 98.1648 35.42 97.9051 35.7885 96.9875L40.3163 85.7142L38.8839 83.2828C38.5275 82.6774 37.7791 82.5711 37.3011 83.0579Z" fill="#FFCE03"/>
<path d="M34.0562 42.012L35.0447 49.9175C39.557 50.9388 40.207 58.9524 40.3007 61.2415C40.3178 61.6568 40.435 62.058 40.6341 62.4074L42.3558 65.4296C42.3558 65.4296 41.7663 60.4326 44.4646 57.0768C44.4641 57.0765 45.3906 37.2391 34.0562 42.012Z" fill="#785550"/>
<path d="M43.4134 64.9185L42.2227 70.3085C42.0817 70.947 41.5745 71.3951 40.9927 71.3951C40.3532 71.3951 39.8142 70.8565 39.7347 70.1386L39.1258 64.6256C38.963 63.1513 39.9788 61.8492 41.2916 61.8492H41.296C42.7157 61.8498 43.7576 63.3595 43.4134 64.9185Z" fill="#F0C087"/>
<path d="M14.9674 39.8741L16.5271 41.0796C9.47587 46.9713 10.7939 57.0766 10.7939 57.0766C12.9028 59.4632 12.9028 65.4293 12.9028 65.4293L15.0116 63.0427C15.0116 63.0427 14.1977 56.1487 18.1748 53.4968C21.8651 51.0358 25.0943 52.3036 28.389 52.3036C37.2194 52.3036 39.6905 48.5373 39.2622 43.9509C39.0407 41.5774 35.8343 36.6343 27.6641 36.7913C24.3666 36.8549 18.1743 37.9848 14.9674 39.8741Z" fill="#694B4B"/>
<path d="M14.3525 51.2594C14.3525 51.2594 13.2322 46.2624 16.5271 41.0795C9.47587 46.9712 10.7939 57.0765 10.7939 57.0765C12.9028 59.4631 12.9028 65.4292 12.9028 65.4292L15.0116 63.0426C15.0116 63.0426 14.1977 56.1486 18.1748 53.4967C21.8651 51.0357 25.0943 52.3035 28.3889 52.3035C29.825 52.3035 31.0767 52.1946 32.1911 52.008C25.3901 52.2663 21.3815 46.4367 14.3525 51.2594Z" fill="#5A4146"/>
<path d="M11.9144 64.9185L13.1051 70.3085C13.2461 70.947 13.7534 71.3951 14.3351 71.3951C14.9746 71.3951 15.5137 70.8565 15.5931 70.1386L16.202 64.6256C16.3648 63.1513 15.3491 61.8492 14.0362 61.8492H14.0318C12.6118 61.8498 11.57 63.3595 11.9144 64.9185Z" fill="#E6AF78"/>
<path d="M40.3165 103.613H35.0444C33.8799 103.613 32.9355 104.682 32.9355 106H42.4251C42.4248 104.682 41.4808 103.613 40.3165 103.613Z" fill="#FFCE03"/>
</svg>
