<svg width="15" height="17" viewBox="0 0 15 17" fill="none" xmlns="http://www.w3.org/2000/svg">
<path d="M12.9134 0.00312805C13.28 0.460395 13.5 1.04003 13.5 1.67033V1.68273V15.3172V15.3296C13.5 15.96 13.28 16.5396 12.9134 16.9968C13.7969 16.9454 14.5 16.2118 14.5 15.3172V1.68273C14.5 0.788161 13.7969 0.0545947 12.9134 0.00312805Z" fill="black"/>
<path d="M5.68143 6.5C5.72133 7.18003 5.84139 7.81636 6.02439 8.29686C6.22879 8.83336 6.44453 8.99999 6.49999 8.99999C6.55546 8.99999 6.77119 8.83336 6.97559 8.29686C7.15863 7.81636 7.27866 7.18003 7.31856 6.5H5.68143Z" fill="black"/>
<path d="M6.49999 3C6.44453 3 6.22879 3.16663 6.02439 3.70313C5.84136 4.18363 5.72133 4.81996 5.68143 5.49999H7.31856C7.27866 4.81996 7.15859 4.18363 6.97559 3.70313C6.77119 3.16663 6.55546 3 6.49999 3Z" fill="black"/>
<path d="M8.32017 5.5H9.45811C9.30147 4.5704 8.7159 3.78463 7.91257 3.35403C8.13777 3.94803 8.27867 4.69613 8.32017 5.5Z" fill="black"/>
<path d="M4.67983 5.5C4.72133 4.69613 4.86223 3.94803 5.08743 3.35403C4.2841 3.78463 3.69853 4.5704 3.5419 5.5H4.67983Z" fill="black"/>
<path d="M10.7946 0H0.5V17H10.7946C11.7349 17 12.5 16.2451 12.5 15.3173V1.68273C12.5 0.754866 11.7349 0 10.7946 0V0ZM8 14.5H5V13.5H8V14.5ZM9 12.5H4V11.5H9V12.5ZM6.5 9.99999C4.2944 9.99999 2.5 8.2056 2.5 6C2.5 3.7944 4.2944 2 6.5 2C8.7056 2 10.5 3.7944 10.5 6C10.5 8.2056 8.7056 9.99999 6.5 9.99999Z" fill="black"/>
<path d="M8.32017 6.5C8.27867 7.30387 8.13777 8.05197 7.91257 8.64597C8.7159 8.21537 9.30147 7.4296 9.45811 6.5H8.32017Z" fill="black"/>
<path d="M4.67983 6.5H3.5419C3.69853 7.4296 4.2841 8.21537 5.08743 8.64597C4.86223 8.05197 4.72133 7.30387 4.67983 6.5Z" fill="black"/>
</svg>
