<svg width="119" height="119" viewBox="0 0 119 119" fill="none" xmlns="http://www.w3.org/2000/svg">
<g clip-path="url(#clip0)">
<path d="M20.5046 37.1019C1.41301 37.1019 3.52991 60.3185 3.61706 77.1428C3.62032 77.7783 3.95315 78.3509 4.49748 78.6791C6.61298 79.9544 12.423 82.9362 20.5046 82.9362C28.5861 82.9362 34.3962 79.9544 36.5117 78.6791C37.0558 78.3509 37.3888 77.7783 37.3921 77.1428C37.4792 60.3185 39.5961 37.1019 20.5046 37.1019Z" fill="#694B4B"/>
<path d="M19.2747 37.1498C1.51889 38.1452 3.53212 60.6929 3.61718 77.1428C3.62044 77.7782 3.95327 78.3511 4.4976 78.6791C6.6131 79.9544 12.4232 82.9361 20.5047 82.9361L25.3295 49.1634" fill="#5A4146"/>
<path d="M20.5047 37.1019C9.64925 37.1019 8.89551 50.2189 8.89551 50.2189C15.1525 49.1634 18.9972 51.8019 25.3296 49.1634L20.5047 82.9362C28.5865 82.9362 34.3963 79.9544 36.5118 78.6791C37.0559 78.3509 37.389 77.7783 37.3922 77.1428C37.4794 60.3185 39.5963 37.1019 20.5047 37.1019Z" fill="#694B4B"/>
<path d="M37.3922 77.1428C37.4671 62.686 39.0278 43.5228 27.3556 38.4124C27.152 39.4699 26.7831 42.4223 27.7416 44.3386C30.1539 49.1635 32.5665 49.1635 34.9785 52.7818C37.3908 66.0496 30.3694 80.1318 28.0373 82.049C32.1693 81.0663 35.1312 79.5112 36.5118 78.6791C37.0559 78.3512 37.389 77.7783 37.3922 77.1428Z" fill="#785550"/>
<path d="M38.7828 80.802L28.02 76.3177C27.1213 75.9432 26.5356 75.0649 26.5356 74.0908V71.176H14.474V74.0908C14.474 75.0649 13.8883 75.9432 12.9896 76.3177L2.22683 80.802C0.878321 81.364 0 82.6816 0 84.1423V88.9672C0 90.2994 1.08006 91.3795 2.4123 91.3795H38.5971C39.9293 91.3795 41.0094 90.2994 41.0094 88.9672V84.1423C41.0096 82.6816 40.1313 81.364 38.7828 80.802Z" fill="#E6AF78"/>
<path d="M38.7828 80.802L28.3766 76.4659L20.5047 79.8635L12.6328 76.4662L2.22683 80.8022C0.878321 81.364 0 82.6816 0 84.1424V88.9672C0 90.2994 1.08006 91.3795 2.4123 91.3795H38.5971C39.9293 91.3795 41.0094 90.2994 41.0094 88.9672V84.1424C41.0096 82.6816 40.1313 81.364 38.7828 80.802Z" fill="#EFF2FA"/>
<path d="M26.5355 71.176H14.4739V74.0908C14.4739 75.0649 13.8882 75.9432 12.9895 76.3176L11.3086 77.0182C24.172 80.2981 26.5355 71.176 26.5355 71.176Z" fill="#D29B6E"/>
<path d="M5.87887 85.4681L1.03753 81.6171C0.388841 82.2805 0 83.1776 0 84.1424V88.9672C0 90.2995 1.08006 91.3795 2.4123 91.3795H7.23714V88.2939C7.23691 87.1945 6.73743 86.1549 5.87887 85.4681Z" fill="#E4EAF6"/>
<path d="M41.0096 88.967V84.1422C41.0096 83.1848 40.6273 82.294 39.9876 81.632L35.1305 85.4679C34.2722 86.1545 33.7725 87.1941 33.7725 88.2935V91.3789H38.5973C39.9295 91.3793 41.0096 90.2993 41.0096 88.967Z" fill="#E4EAF6"/>
<path d="M20.6857 88.967H20.3238C19.7576 88.967 19.2986 88.508 19.2986 87.9418V79.8663H21.7109V87.9416C21.7109 88.508 21.2519 88.967 20.6857 88.967Z" fill="#E4EAF6"/>
<path d="M20.5047 79.8638L13.6013 74.6863C13.1581 74.354 12.5268 74.462 12.2196 74.9229L10.8555 76.9689L15.0879 82.8943C15.4095 83.3447 16.0436 83.4328 16.4759 83.087L20.5047 79.8638Z" fill="#E4EAF6"/>
<path d="M20.5046 79.8638L27.408 74.6863C27.8513 74.354 28.4825 74.462 28.7898 74.9229L30.1539 76.9689L25.9215 82.8943C25.5998 83.3447 24.9657 83.4328 24.5334 83.087L20.5046 79.8638Z" fill="#E4EAF6"/>
<path d="M26.5357 47.9576C20.5048 53.9883 8.66943 49.1634 8.66943 58.8127L9.4183 65.9203C9.56286 67.5103 10.4846 68.9258 11.8799 69.7011L18.7475 73.5163C19.8403 74.1234 21.1691 74.1234 22.2619 73.5163L29.1295 69.7011C30.5252 68.9258 31.4467 67.5101 31.5911 65.9203L32.4557 57.4788C32.5173 56.8787 32.5303 56.2751 32.5101 55.6731C32.0592 52.6028 27.7417 50.3697 26.5357 47.9576Z" fill="#F0C087"/>
<path d="M8.66943 58.8126L9.4183 65.9203C9.56286 67.5103 10.4846 68.9257 11.8799 69.7011L18.7475 73.5163C19.5059 73.9377 20.3756 74.0467 21.2035 73.8833C21.2035 73.8833 17.7411 72.8339 15.6802 67.2555C15.0489 65.5468 14.1725 56.5005 14.9265 55.3949C16.4167 53.2096 24.7265 52.9826 27.1818 48.9284C27.0605 48.7781 26.9485 48.6272 26.8462 48.4764C26.8381 48.4643 26.8281 48.452 26.8197 48.4396C26.713 48.2793 26.6163 48.1184 26.5354 47.9569C20.5048 53.9882 8.66943 49.1634 8.66943 58.8126Z" fill="#E6AF78"/>
<path d="M29.3098 88.967H26.1737C25.0414 88.967 24.1233 89.885 24.1233 91.0174V91.3793H31.3602V91.0174C31.3602 89.8848 30.4421 88.967 29.3098 88.967Z" fill="#E4EAF6"/>
<path d="M102.912 75.1939V68.5695H85.8767V75.1939L94.394 82.765L102.912 75.1939Z" fill="#E6AF78"/>
<path d="M116.081 78.2927L104.371 75.5374C104.194 75.4958 104.031 75.4251 103.879 75.3396L94.3941 80.8726L85.279 75.0721C85.0429 75.2943 84.7502 75.4593 84.4176 75.5376L72.7071 78.293C70.9969 78.6953 69.7886 80.2212 69.7886 81.978V89.3899C69.7886 90.4351 70.636 91.2828 71.6814 91.2828H117.107C118.153 91.2828 119 90.4354 119 89.3899V81.978C119 80.2209 117.791 78.6951 116.081 78.2927Z" fill="#EFF2FA"/>
<path d="M85.8767 68.5695V75.5591C96.6064 79.4247 102.912 69.7497 102.912 69.7497V68.5695H85.8767Z" fill="#D29B6E"/>
<path d="M82.0913 46.8027L82.9162 64.9463C82.9933 66.6413 83.8242 68.2129 85.1816 69.2309L89.0946 72.1657C90.0775 72.903 91.2731 73.3013 92.5015 73.3013H96.2869C97.5155 73.3013 98.7111 72.9027 99.6937 72.1657L103.607 69.2309C104.964 68.2129 105.795 66.6411 105.872 64.9463L106.697 46.8027H82.0913Z" fill="#F0C087"/>
<path d="M91.555 50.5882C95.3405 50.5882 101.019 49.642 102.366 46.8027H82.0913L82.9159 64.9463C82.9931 66.6413 83.824 68.2129 85.1813 69.2309L89.0944 72.1657C90.0773 72.903 91.2729 73.3013 92.5012 73.3013H94.3941C92.5012 73.3013 88.7158 69.5159 88.7158 64.7838C88.7158 62.4696 88.7158 56.2665 88.7158 53.4272C88.7158 52.481 89.6622 50.5882 91.555 50.5882Z" fill="#E6AF78"/>
<path d="M112.052 85.1404L118.184 79.6315C118.698 80.2823 119 81.1009 119 81.9776V89.3895C119 90.4347 118.152 91.2823 117.107 91.2823H110.482V88.6606C110.482 87.3177 111.053 86.038 112.052 85.1404Z" fill="#E4EAF6"/>
<path d="M96.7599 91.2823H92.0278L92.6196 82.765H96.1684L96.7599 91.2823Z" fill="#5B5D6E"/>
<path d="M96.7599 80.8722H92.0278V81.4189C92.0278 82.6851 93.0542 83.7112 94.3202 83.7112H94.4671C95.7333 83.7112 96.7595 82.6849 96.7595 81.4189V80.8722H96.7599Z" fill="#515262"/>
<path d="M85.7437 73.0873L94.3939 80.8724C94.3939 80.8724 91.9714 82.0952 88.9818 84.5603C88.3651 85.0688 87.4322 84.8627 87.1015 84.1352L83.0374 75.1944L84.3231 73.266C84.6434 72.7856 85.3149 72.7012 85.7437 73.0873Z" fill="#E4EAF6"/>
<path d="M103.045 73.0873L94.3943 80.8724C94.3943 80.8724 96.8168 82.0952 99.8065 84.5603C100.423 85.0688 101.356 84.8627 101.687 84.1352L105.751 75.1944L104.465 73.266C104.145 72.7856 103.474 72.7012 103.045 73.0873Z" fill="#E4EAF6"/>
<path d="M100.131 40.533L101.019 46.8028C105.069 47.6128 105.652 53.9683 105.736 55.7838C105.752 56.1131 105.857 56.4315 106.036 56.7086L107.581 59.1055C107.581 59.1055 107.052 55.1425 109.474 52.4811C109.474 52.4811 110.305 36.7475 100.131 40.533Z" fill="#785550"/>
<path d="M108.53 58.7008L107.461 62.9757C107.335 63.4822 106.879 63.8376 106.357 63.8376C105.784 63.8376 105.3 63.4104 105.228 62.8409L104.682 58.4686C104.536 57.2993 105.448 56.2667 106.626 56.2667H106.63C107.904 56.2664 108.839 57.4643 108.53 58.7008Z" fill="#F0C087"/>
<path d="M82.9978 38.8374L84.3977 39.7936C78.0688 44.4664 79.2516 52.481 79.2516 52.481C81.1445 54.3738 81.1445 59.1055 81.1445 59.1055L83.0373 57.2126C83.0373 57.2126 82.3068 51.7449 85.8766 49.6417C89.1888 47.6899 92.0871 48.6956 95.0444 48.6956C102.97 48.6956 105.188 45.7085 104.804 42.0711C104.605 40.1887 101.727 36.2682 94.3941 36.3928C91.4342 36.443 85.8766 37.3392 82.9978 38.8374Z" fill="#694B4B"/>
<path d="M82.4458 47.8674C82.4458 47.8674 81.4403 43.9044 84.3977 39.7936C78.0688 44.4664 79.2516 52.481 79.2516 52.481C81.1445 54.3738 81.1445 59.1055 81.1445 59.1055L83.0373 57.2126C83.0373 57.2126 82.3068 51.7449 85.8763 49.6417C89.1886 47.6899 92.0869 48.6956 95.0442 48.6956C96.3332 48.6956 97.4565 48.6091 98.4571 48.4613C92.3532 48.666 88.7551 44.0427 82.4458 47.8674Z" fill="#5A4146"/>
<path d="M80.2577 58.7008L81.3266 62.9757C81.4533 63.4822 81.9083 63.8376 82.4306 63.8376C83.0044 63.8376 83.4883 63.4104 83.5597 62.8409L84.1061 58.4686C84.2523 57.2993 83.3405 56.2667 82.1621 56.2667H82.1582C80.8841 56.2664 79.9486 57.4643 80.2577 58.7008Z" fill="#E6AF78"/>
<path d="M105.751 89.3898H101.019C99.9734 89.3898 99.1257 90.2372 99.1257 91.2826H107.643C107.643 90.2372 106.796 89.3898 105.751 89.3898Z" fill="#E4EAF6"/>
<path d="M59.536 13.3643C27.0802 13.3643 30.6791 52.8327 30.8273 81.4338C30.8329 82.5138 31.3986 83.4879 32.3239 84.0455C35.9204 86.2135 45.7974 91.2824 59.536 91.2824C73.2747 91.2824 83.1517 86.2135 86.7482 84.0455C87.6732 83.4877 88.2391 82.5138 88.2447 81.4338C88.393 52.8324 91.9918 13.3643 59.536 13.3643Z" fill="#694B4B"/>
<path d="M57.4448 13.4453C27.2599 15.1376 30.6824 53.4687 30.8274 81.4334C30.833 82.5135 31.3987 83.4876 32.324 84.0452C35.9204 86.2132 45.7974 91.2821 59.5361 91.2821L67.738 33.8686" fill="#5A4146"/>
<path d="M59.5359 13.3643C41.0816 13.3643 39.8 35.6632 39.8 35.6632C50.4368 33.8692 56.9727 38.3544 67.7378 33.8692L59.5359 91.2826C73.2745 91.2826 83.1515 86.2137 86.748 84.0457C87.673 83.4879 88.239 82.5141 88.2446 81.434C88.3929 52.8324 91.9917 13.3643 59.5359 13.3643Z" fill="#694B4B"/>
<path d="M88.2446 81.4339C88.372 56.8572 91.0249 24.2801 71.1826 15.5922C70.8365 17.3902 70.2099 22.4093 71.8387 25.6672C75.9398 33.8691 80.0406 33.8691 84.1415 40.0206C88.2423 62.5759 76.3056 86.5158 72.3412 89.7746C79.3654 88.1039 84.4008 85.4604 86.7478 84.0456C87.6731 83.4878 88.239 82.514 88.2446 81.4339Z" fill="#785550"/>
<path d="M90.6085 87.6547L72.3118 80.0311C70.7836 79.3945 69.7882 77.9012 69.7882 76.2454V71.2902H49.2835V76.2454C49.2835 77.9009 48.288 79.3942 46.7599 80.0311L28.4632 87.6547C26.171 88.6097 24.6777 90.8496 24.6777 93.333V101.535C24.6777 103.8 26.5139 105.636 28.7786 105.636H90.2929C92.5576 105.636 94.3937 103.8 94.3937 101.535V93.333C94.3939 90.8494 92.9006 88.6097 90.6085 87.6547Z" fill="#E6AF78"/>
<path d="M90.6085 87.6547L72.918 80.2837L59.5358 86.0591L46.1537 80.2837L28.4632 87.6547C26.171 88.6097 24.6777 90.8496 24.6777 93.333V101.535C24.6777 103.8 26.5139 105.636 28.7786 105.636H90.2929C92.5576 105.636 94.3937 103.8 94.3937 101.535V93.333C94.3939 90.8493 92.9006 88.6097 90.6085 87.6547Z" fill="#FDE88D"/>
<path d="M69.7883 71.2902H49.2836V76.2454C49.2836 77.9009 48.2881 79.3942 46.76 80.0311L43.9023 81.222C65.7702 86.7976 69.7883 71.2902 69.7883 71.2902Z" fill="#D29B6E"/>
<path d="M34.6721 95.5868L26.4418 89.0402C25.3392 90.1679 24.6782 91.6928 24.6782 93.3328V101.535C24.6782 103.799 26.5144 105.636 28.7791 105.636H36.981V100.39C36.9805 98.5216 36.1312 96.7543 34.6721 95.5868Z" fill="#FFCE03"/>
<path d="M94.3938 101.535V93.3328C94.3938 91.7054 93.7437 90.1909 92.6565 89.0658L84.3995 95.5869C82.9403 96.7543 82.0908 98.5216 82.0908 100.39V105.636H90.2927C92.5577 105.636 94.3938 103.8 94.3938 101.535Z" fill="#FFCE03"/>
<path d="M59.536 101.535C58.4037 101.535 57.4856 100.617 57.4856 99.4843V86.0638H61.5864V99.4845C61.5864 100.617 60.6684 101.535 59.536 101.535Z" fill="#FFCE03"/>
<path d="M59.5359 86.0592L47.8 77.2571C47.0468 76.6921 45.9732 76.8759 45.451 77.6594L43.1321 81.1379L50.3272 91.2108C50.874 91.9766 51.952 92.1261 52.6867 91.5383L59.5359 86.0592Z" fill="#FFCE03"/>
<path d="M59.5359 86.0592L71.2718 77.2571C72.0251 76.6921 73.0986 76.8759 73.6209 77.6594L75.9397 81.1379L68.7447 91.2108C68.1978 91.9766 67.1198 92.1261 66.3851 91.5383L59.5359 86.0592Z" fill="#FFCE03"/>
<path d="M69.7883 31.8185C59.536 42.0708 39.4158 33.8689 39.4158 50.2727L40.6892 62.3561C40.9346 65.0589 42.5019 67.4654 44.8742 68.7833L56.5489 75.2692C58.4069 76.3014 60.6658 76.3014 62.5238 75.2692L74.1985 68.7833C76.5709 67.465 78.1379 65.0587 78.3835 62.3561L79.8534 48.0052C79.9579 46.9854 79.9803 45.9592 79.9456 44.9354C79.1779 39.7159 71.8388 35.9193 69.7883 31.8185Z" fill="#F0C087"/>
<path d="M39.4158 50.2727L40.6892 62.3561C40.9346 65.0589 42.5019 67.4654 44.8742 68.7832L56.5489 75.2692C57.8382 75.9853 59.3166 76.171 60.7239 75.8933C60.7239 75.8933 54.8376 74.1097 51.3346 64.6262C50.2615 61.7209 48.7714 46.3427 50.053 44.4631C52.5862 40.7479 66.7132 40.3621 70.8875 33.4701C70.6811 33.2142 70.4907 32.958 70.3169 32.7012C70.3027 32.6805 70.286 32.6596 70.272 32.6389C70.0907 32.3665 69.9262 32.0932 69.7888 31.8185C59.536 42.0708 39.4158 33.8689 39.4158 50.2727Z" fill="#E6AF78"/>
<path d="M75.9399 101.535H67.7379C66.6056 101.535 65.6875 102.453 65.6875 103.585V105.636H77.9903V103.585C77.9903 102.453 77.0722 101.535 75.9399 101.535Z" fill="#FFCE03"/>
</g>
<defs>
<clipPath id="clip0">
<rect width="119" height="119" fill="white"/>
</clipPath>
</defs>
</svg>
