<svg width="35" height="35" viewBox="0 0 35 35" fill="none" xmlns="http://www.w3.org/2000/svg">
<g clip-path="url(#clip0)">
<path d="M14.5047 30.7486C22.5154 30.7486 29.0094 24.2546 29.0094 16.2439C29.0094 8.2332 22.5154 1.73923 14.5047 1.73923C6.49397 1.73923 0 8.2332 0 16.2439C0 24.2546 6.49397 30.7486 14.5047 30.7486Z" fill="#FDB441"/>
<path d="M14.5047 27.9118C20.9486 27.9118 26.1725 22.6879 26.1725 16.244C26.1725 9.80005 20.9486 4.5762 14.5047 4.5762C8.06075 4.5762 2.8369 9.80005 2.8369 16.244C2.8369 22.6879 8.06075 27.9118 14.5047 27.9118Z" fill="#FEDF30"/>
<path d="M7.296 16.2439C7.296 10.5626 11.3587 5.82961 16.736 4.78904C16.0142 4.64939 15.2673 4.5762 14.5047 4.5762C8.06076 4.5762 2.8369 9.8 2.8369 16.2439C2.8369 22.6879 8.06076 27.9117 14.5047 27.9117C15.2673 27.9117 16.0125 27.8378 16.7343 27.6981C11.3569 26.6574 7.296 21.9253 7.296 16.2439Z" fill="#FED402"/>
<path d="M26.9227 16.8895C31.3846 16.8895 35.0018 20.5559 35.0001 25.0784C34.9983 29.6107 31.3177 33.2607 26.8455 33.2607H16.3244C13.2376 33.2607 10.6894 30.7486 10.6791 27.6204C10.6688 24.4855 13.1732 21.941 16.2639 21.941C17.1088 21.941 17.91 22.1313 18.6279 22.4718C18.9166 22.6086 19.2567 22.4704 19.3698 22.1685C20.5266 19.0824 23.4716 16.8895 26.9227 16.8895Z" fill="#F9F3F1"/>
<path d="M13.2252 29.3631C13.2148 26.2281 15.7192 23.6836 18.8099 23.6836C19.6548 23.6836 20.4561 23.8739 21.174 24.2144C21.4626 24.3513 21.8027 24.213 21.9159 23.9111C23.0726 20.825 26.0176 18.6321 29.4687 18.6321C30.5907 18.6321 31.6592 18.8641 32.6303 19.2831C31.1688 17.8041 29.1512 16.8895 26.9227 16.8895C23.4716 16.8895 20.5266 19.0824 19.3698 22.1686C19.2566 22.4705 18.9165 22.6087 18.6279 22.4718C17.91 22.1313 17.1088 21.941 16.2639 21.941C13.1732 21.941 10.6688 24.4855 10.6791 27.6205C10.6874 30.1183 12.3138 32.2232 14.5404 32.9701C13.7248 31.9941 13.2297 30.7382 13.2252 29.3631Z" fill="#F3EAE6"/>
</g>
<defs>
<clipPath id="clip0">
<rect width="35" height="35" fill="white"/>
</clipPath>
</defs>
</svg>
