<svg width="289" height="253" viewBox="0 0 289 253" fill="none" xmlns="http://www.w3.org/2000/svg">
<path d="M246.943 24.4864C246.943 24.4864 218.423 -2.20525 176.974 5.85546C135.526 13.9162 115.296 46.3111 89.8182 67.8317C76.509 79.0863 58.1042 82.2802 42.8176 90.569C-6.16026 117.109 -6.16026 184.56 26.7705 212.316C55.2903 236.346 93.3926 241.365 145.032 228.742C196.596 216.118 233.329 208.97 268.998 164.941C304.591 120.835 281.775 60.4554 246.943 24.4864Z" fill="#FDE88D"/>
<path opacity="0.75" d="M246.943 24.4864C246.943 24.4864 218.423 -2.20525 176.974 5.85546C135.526 13.9162 115.296 46.3111 89.8182 67.8317C76.509 79.0863 58.1042 82.2802 42.8176 90.569C-6.16026 117.109 -6.16026 184.56 26.7705 212.316C55.2903 236.346 93.3926 241.365 145.032 228.742C196.596 216.118 233.329 208.97 268.998 164.941C304.591 120.835 281.775 60.4554 246.943 24.4864Z" fill="white"/>
<g opacity="0.5">
<path opacity="0.5" d="M261.621 92.0899C257.666 89.9606 255.917 91.7097 254.472 89.9606C253.027 88.2116 258.427 83.5729 247.703 78.9342C247.703 78.9342 247.019 68.9723 232.341 68.5921C217.739 68.2119 221.617 78.554 217.739 81.0634C213.784 83.5729 212.719 79.6186 208.841 82.1281C204.886 84.6375 206.711 89.5804 203.517 90.3409C200.323 91.0253 196.064 87.147 192.109 89.6565C188.154 92.1659 188.154 94.2952 186.405 94.2952C184.656 94.2952 181.081 92.8503 178.952 94.2952C176.822 95.74 174.313 97.489 174.313 97.489H264.511C264.435 97.489 265.5 94.2191 261.621 92.0899Z" fill="#FDE88D"/>
</g>
<g opacity="0.5">
<path opacity="0.5" d="M202.832 199.313C196.52 195.891 193.63 198.704 191.348 195.891C189.067 193.001 197.661 185.549 180.397 178.02C180.397 178.02 179.256 161.899 155.604 161.29C132.027 160.682 138.34 177.412 132.027 181.442C125.715 185.472 123.966 179.161 117.653 183.191C111.341 187.222 114.231 195.282 108.983 196.423C103.812 197.564 96.8911 191.252 90.5787 195.282C84.2663 199.313 84.2663 202.735 81.3763 202.735C78.4863 202.735 72.7063 200.453 69.284 202.735C65.8616 205.016 61.8308 207.906 61.8308 207.906H207.548C207.472 207.982 209.221 202.811 202.832 199.313Z" fill="#FDE88D"/>
</g>
<g opacity="0.5">
<path opacity="0.5" d="M62.4392 132.317C60.2337 131.101 59.245 132.089 58.4845 131.101C57.724 130.112 60.69 127.527 54.7579 125.017C54.7579 125.017 54.3777 119.466 46.24 119.314C38.1784 119.086 40.3079 124.865 38.1784 126.234C35.9729 127.603 35.4406 125.473 33.235 126.842C31.0295 128.211 32.0182 130.949 30.269 131.405C28.5198 131.785 26.1621 129.656 23.9566 131.025C21.7511 132.393 21.7511 133.61 20.7624 133.61C19.7737 133.61 17.7963 132.85 16.6556 133.61C15.4387 134.371 14.0698 135.359 14.0698 135.359H63.9603C64.0363 135.283 64.6448 133.458 62.4392 132.317Z" fill="#FDE88D"/>
</g>
<path d="M195.531 244.559C195.531 247.601 178.419 250.034 157.277 250.034C136.134 250.034 119.022 247.601 119.022 244.559C119.022 241.517 136.134 239.084 157.277 239.084C178.419 239.084 195.531 241.517 195.531 244.559Z" fill="#FDE88D"/>
<path d="M165.11 73.459C169.141 72.6225 172.031 71.3298 171.651 67.6036C171.271 63.9534 166.783 61.52 166.327 59.6189C165.871 57.7178 168.913 54.9041 168.304 51.3301C167.62 47.756 164.046 43.7256 160.471 44.334C160.471 44.334 159.863 45.5507 159.254 42.9652C158.646 40.3796 156.744 37.2618 153.246 38.4785C149.519 39.7713 149.519 41.9005 148.455 42.2808C147.39 42.5849 142.447 45.0944 139.633 46.6153C136.819 48.2122 136.286 53.1551 135.906 54.8281C135.45 56.5771 134.157 56.9573 132.103 56.6532C130.126 56.2729 127.997 55.9688 127.54 57.9459C127.084 59.9231 126.856 61.8242 125.487 61.6721C124.118 61.52 122.521 59.4668 121.456 61.2158C120.391 62.9649 118.262 66.3108 115.98 65.3222C113.699 64.2576 111.113 60.0752 107.462 61.8242C103.812 63.4972 103.127 68.288 104.572 69.0484C106.017 69.8089 106.702 70.9495 106.322 72.1662C106.017 73.383 101.682 72.2423 100.313 74.8278C98.9445 77.4133 102.139 79.7707 102.139 81.2155C102.139 82.6604 101.378 83.9531 98.8684 84.6375C96.2826 85.3219 94.5334 87.3751 96.2066 88.6679C97.8797 89.9607 97.6516 88.4398 98.1079 87.4512C98.5642 86.4626 99.8571 86.3105 101.378 87.147C102.899 87.9075 103.812 86.3105 103.812 86.3105C103.812 86.3105 103.584 88.3637 105.333 88.896C107.006 89.4283 107.386 91.3295 105.333 91.8618C103.279 92.3941 101.911 95.2838 103.432 96.9567C104.953 98.6297 107.31 99.6944 111.417 98.5537C115.448 97.4891 124.194 90.9492 129.822 94.2952C135.45 97.5651 145.489 97.4891 150.432 95.8161C155.376 94.0671 156.668 88.896 160.547 88.0595C164.426 87.2231 163.437 84.9417 162.753 82.8125C161.992 80.5311 161.156 74.2955 165.11 73.459ZM167.924 69.8089C168.837 68.8203 168.913 67.6796 168.913 67.6796C168.913 67.6796 170.358 68.4401 169.521 70.113C168.685 71.786 166.631 71.1777 166.631 71.1777C166.631 71.1777 167.012 70.7974 167.924 69.8089ZM110.581 66.4629C109.668 66.3108 107.843 69.5047 107.386 68.5161C106.93 67.5275 107.995 63.4972 109.972 63.269C111.949 63.1169 114.003 66.7671 114.003 66.7671C113.775 68.288 111.493 66.615 110.581 66.4629ZM152.866 42.2808C151.497 42.0526 150.888 42.5849 150.888 42.5849C150.812 41.6724 151.953 40.0755 153.626 40.3796C155.223 40.6838 155.604 43.0412 155.604 43.0412C155.604 43.0412 154.235 42.5089 152.866 42.2808Z" fill="#263238"/>
<path d="M66.9263 149.732L78.2581 144.256C78.2581 144.256 78.7905 146.005 78.3342 148.819C77.8778 151.633 77.0413 154.751 74.5315 154.675C71.9457 154.675 66.9263 149.732 66.9263 149.732Z" fill="#263238" stroke="#263238" stroke-miterlimit="10" stroke-linecap="round" stroke-linejoin="round"/>
<path d="M105.333 169.579C105.333 169.579 109.516 159.465 110.428 157.944C111.341 156.424 117.729 155.967 116.589 161.214C115.448 166.461 111.873 169.199 109.592 169.579C107.31 169.883 105.333 169.579 105.333 169.579Z" fill="#263238" stroke="#263238" stroke-miterlimit="10" stroke-linecap="round" stroke-linejoin="round"/>
<path d="M52.1721 107.071C52.1721 107.071 49.7384 109.276 48.7497 111.633C47.685 113.991 46.4681 116.956 46.4681 116.956C46.4681 116.956 58.7887 106.158 65.4813 105.702C72.1739 105.246 73.8471 105.322 73.8471 105.322C73.8471 105.322 65.5574 101.443 61.0702 102.66C56.5831 103.877 52.6284 106.919 52.6284 106.919L52.1721 107.071Z" fill="#263238" stroke="#263238" stroke-miterlimit="10" stroke-linecap="round" stroke-linejoin="round"/>
<path d="M140.241 89.1241C140.241 89.1241 124.194 93.0785 108.147 96.2723C92.0997 99.4662 76.7371 95.8921 67.7628 98.2495C58.8647 100.607 52.096 107.071 52.096 107.071C52.096 107.071 60.5379 101.9 65.7855 106.31C71.0331 110.721 70.4247 113.534 66.7742 118.781C63.1236 124.029 59.9294 131.785 65.4052 134.751C70.9571 137.641 76.2807 147.907 76.2047 150.188C76.1286 152.469 75.3681 152.469 75.3681 152.469L66.9263 149.732C66.9263 149.732 71.7936 160.454 82.6692 161.975C93.5447 163.496 98.9444 159.237 105.789 159.693C112.634 160.074 112.254 166.157 112.254 166.157C112.254 166.157 105.637 168.058 105.333 169.579C105.029 171.1 107.082 172.393 114.915 170.264C122.825 168.134 126.78 161.899 130.506 165.777C134.233 169.655 136.438 173.229 140.469 173.305C144.5 173.381 147.162 168.667 152.257 156.804C157.353 145.017 175.682 129.428 176.442 115.968C177.203 102.584 169.749 85.6261 169.749 85.6261L140.241 89.1241Z" fill="#FDE88D" stroke="#263238" stroke-miterlimit="10" stroke-linecap="round" stroke-linejoin="round"/>
<path d="M135.069 94.9035C135.069 94.9035 123.129 97.7171 113.623 103.573C104.116 109.428 85.8634 111.101 80.6918 113.306C75.5963 115.512 73.2386 117.185 73.2386 117.185" stroke="#263238" stroke-miterlimit="10" stroke-linecap="round" stroke-linejoin="round"/>
<path d="M75.5203 152.469C75.5203 152.469 80.92 147.526 84.9508 139.237C88.9055 130.949 95.6742 122.508 105.485 116.88C115.22 111.253 120.087 111.101 129.061 105.17" stroke="#263238" stroke-miterlimit="10" stroke-linecap="round" stroke-linejoin="round"/>
<path d="M112.254 166.157C112.254 166.157 119.098 143.496 124.574 135.739" stroke="#263238" stroke-miterlimit="10" stroke-linecap="round" stroke-linejoin="round"/>
<path d="M131.419 218.78C131.419 218.78 130.506 224.864 126.552 231.86C122.597 238.856 121.532 240.909 120.543 241.593C119.479 242.354 117.425 243.571 119.479 244.103C121.532 244.635 127.084 244.787 129.137 244.027C131.191 243.266 130.963 241.745 131.799 239.008C132.636 236.27 134.917 236.042 134.917 236.042L134.765 244.407H136.286L136.971 237.335C136.971 237.335 138.035 234.597 137.807 232.772C137.579 231.023 135.602 229.426 135.602 229.426L138.112 219.084L131.419 218.78Z" fill="#D9D9D9" stroke="#263238" stroke-miterlimit="10" stroke-linecap="round" stroke-linejoin="round"/>
<path d="M136.21 244.483L136.895 237.411C136.895 237.411 137.959 234.673 137.731 232.848C137.579 231.479 136.362 230.187 135.754 229.73C134.081 231.784 132.103 237.183 129.213 239.54C125.867 242.278 121.836 240.909 121.836 240.909L121.456 240.757C121.152 241.213 120.848 241.441 120.619 241.669C119.555 242.43 117.501 243.647 119.555 244.179C121.608 244.711 127.16 244.863 129.213 244.103C131.267 243.342 131.039 241.821 131.875 239.084C132.712 236.346 134.993 236.118 134.993 236.118L134.841 244.483H136.21Z" fill="#263238" stroke="#263238" stroke-miterlimit="10" stroke-linecap="round" stroke-linejoin="round"/>
<path d="M188.154 219.997C188.154 219.997 188.763 226.08 192.413 233.304C196.064 240.453 197.052 242.506 198.041 243.342C199.03 244.103 201.007 245.472 199.03 245.928C196.976 246.384 191.424 246.308 189.371 245.472C187.394 244.635 187.622 243.19 186.937 240.377C186.253 237.563 183.971 237.259 183.971 237.259L183.819 245.624H182.298L181.918 238.552C181.918 238.552 180.929 235.738 181.233 233.989C181.538 232.24 183.591 230.719 183.591 230.719L181.538 220.301L188.154 219.997Z" fill="#D9D9D9" stroke="#263238" stroke-miterlimit="10" stroke-linecap="round" stroke-linejoin="round"/>
<path d="M182.298 245.472L181.918 238.399C181.918 238.399 180.929 235.586 181.233 233.837C181.462 232.468 182.754 231.251 183.287 230.795C184.884 232.924 186.633 238.399 189.447 240.833C192.717 243.723 196.748 242.506 196.748 242.506L197.204 242.354C197.509 242.81 197.737 243.114 198.041 243.266C199.03 244.027 201.007 245.396 199.03 245.852C196.976 246.308 191.424 246.232 189.371 245.396C187.394 244.559 187.622 243.114 186.937 240.301C186.253 237.487 183.971 237.183 183.971 237.183L183.819 245.548L182.298 245.472Z" fill="#263238" stroke="#263238" stroke-miterlimit="10" stroke-linecap="round" stroke-linejoin="round"/>
<path d="M147.542 121.975C147.542 121.975 137.047 146.158 135.602 155.511C134.157 164.864 129.442 220.757 129.442 220.757L139.557 221.213L154.615 156.88L157.429 145.017L180.853 223.875L189.523 223.267C189.523 223.267 180.397 163.724 176.898 149.503C173.4 135.283 167.544 121.595 167.544 121.595L147.542 121.975Z" fill="#263238" stroke="#263238" stroke-miterlimit="10" stroke-linecap="round" stroke-linejoin="round"/>
<path d="M152.029 70.037C152.029 70.037 152.029 81.2155 152.029 82.5843C152.029 83.9531 139.404 87.6033 139.404 87.6033L147.542 121.975C147.542 121.975 158.189 122.888 167.468 121.595L173.552 84.9417L162.144 82.6604L162.601 73.6871C162.601 73.6111 155.376 73.459 152.029 70.037Z" fill="#D9D9D9" stroke="#263238" stroke-miterlimit="10" stroke-linecap="round" stroke-linejoin="round"/>
<path d="M166.099 83.4208C165.262 86.5387 162.524 94.3712 156.364 93.5348C150.964 92.8504 147.694 87.5272 146.553 85.3219C143.131 86.5387 139.481 87.6033 139.481 87.6033L147.618 121.975C147.618 121.975 158.266 122.888 167.544 121.595L173.628 84.9417L166.099 83.4208Z" fill="white" stroke="#263238" stroke-miterlimit="10" stroke-linecap="round" stroke-linejoin="round"/>
<path d="M148.759 83.5729C148.759 83.5729 151.801 100.151 152.562 109.428C153.322 118.705 153.322 125.093 153.17 126.31C153.018 127.527 144.728 160.074 144.728 160.074L130.278 153.762L144.88 121.519C144.88 121.519 136.514 90.1128 136.591 89.0481C136.514 87.9075 148.759 83.5729 148.759 83.5729Z" fill="#E8A42A" stroke="#263238" stroke-miterlimit="10" stroke-linecap="round" stroke-linejoin="round"/>
<path d="M146.021 84.7136L144.652 97.2609L147.77 99.6183L145.489 103.649L153.094 123.42C153.094 123.42 153.018 113.763 152.486 107.299C151.953 100.911 148.759 83.4969 148.759 83.4969L146.021 84.7136Z" stroke="#263238" stroke-miterlimit="10" stroke-linecap="round" stroke-linejoin="round"/>
<path d="M163.893 82.8125C163.893 82.8125 161.764 124.485 161.764 124.865C161.764 125.245 173.172 159.998 173.172 159.998L184.428 156.424L169.521 120.302C169.521 120.302 176.67 86.3866 176.518 85.7022C176.366 84.9417 163.893 82.8125 163.893 82.8125Z" fill="#E8A42A" stroke="#263238" stroke-miterlimit="10" stroke-linecap="round" stroke-linejoin="round"/>
<path d="M167.164 83.649L168.685 98.0214L164.882 100.151L168.457 103.192L161.764 124.865L163.893 82.8125L167.164 83.649Z" fill="#707070" stroke="#263238" stroke-miterlimit="10" stroke-linecap="round" stroke-linejoin="round"/>
<path d="M163.893 54.8281C163.893 54.8281 163.893 54.676 163.817 54.3718C163.589 53.5353 162.753 51.8623 160.775 52.8509C158.189 54.0676 156.744 56.8052 154.843 57.1855C152.942 57.4896 152.409 57.4896 152.409 57.4896C152.409 57.4896 149.519 63.8774 148.074 65.018C146.629 66.1587 144.728 66.4629 144.728 66.4629C144.728 66.4629 145.108 70.9495 146.401 71.5579C147.694 72.2423 148.911 71.3297 148.911 71.3297C148.911 71.3297 152.486 75.7403 154.919 76.881C157.277 78.0977 159.939 78.4019 161.384 77.6414C162.829 76.881 166.859 72.3183 166.859 69.7328C166.936 67.2233 165.795 60.8356 165.567 58.2501C165.414 55.8927 163.893 54.8281 163.893 54.8281Z" fill="#D9D9D9" stroke="#263238" stroke-miterlimit="10" stroke-linecap="round" stroke-linejoin="round"/>
<path d="M155.68 52.7749C155.68 52.7749 156.06 53.003 155.528 53.9156C154.995 54.8281 153.931 55.6646 153.931 55.6646C153.931 55.6646 156.44 55.4365 157.505 53.6114C158.646 51.7103 157.277 51.4061 155.68 52.7749Z" fill="#FFFF00"/>
<path d="M156.364 61.6721C156.516 62.3565 156.288 62.8888 155.908 62.9649C155.528 63.0409 155.147 62.5846 154.995 61.9002C154.843 61.2158 155.071 60.6835 155.452 60.6075C155.832 60.6075 156.288 61.0638 156.364 61.6721Z" fill="#263238"/>
<path d="M162.905 60.8356C163.057 61.52 162.829 62.0523 162.448 62.1283C162.068 62.2044 161.688 61.7481 161.536 61.0637C161.384 60.3793 161.612 59.847 161.992 59.771C162.372 59.6949 162.753 60.1512 162.905 60.8356Z" fill="#263238"/>
<path d="M153.55 59.6949L157.201 58.8585" stroke="#263238" stroke-miterlimit="10" stroke-linecap="round" stroke-linejoin="round"/>
<path d="M160.395 57.7938C160.395 57.7938 161.612 55.8167 163.209 56.349" stroke="#263238" stroke-miterlimit="10" stroke-linecap="round" stroke-linejoin="round"/>
<path d="M160.319 68.8203C160.319 68.8203 156.136 69.6567 154.995 67.2233" stroke="#263238" stroke-miterlimit="10" stroke-linecap="round" stroke-linejoin="round"/>
<path d="M160.927 63.1169C160.927 63.1169 161.612 65.4743 159.482 65.7025" stroke="#263238" stroke-miterlimit="10" stroke-linecap="round" stroke-linejoin="round"/>
<path d="M178.8 127.375C178.8 127.375 172.411 132.165 172.411 133.382C172.411 134.599 173.552 136.424 174.008 136.804C174.389 137.184 175.606 138.325 175.606 138.325C175.606 138.325 178.876 137.564 178.8 136.196C178.724 134.827 178.267 134.827 178.267 134.827L180.929 130.264L178.8 127.375Z" fill="#D9D9D9" stroke="#263238" stroke-miterlimit="10" stroke-linecap="round" stroke-linejoin="round"/>
<path d="M178.191 134.903L176.67 136.348" stroke="#263238" stroke-miterlimit="10" stroke-linecap="round" stroke-linejoin="round"/>
<path d="M173.02 96.7286L188.611 112.47L177.811 126.994L181.233 131.025C181.233 131.025 198.497 113.154 198.573 111.633C198.573 110.112 179.332 87.2231 178.115 86.3866C176.898 85.5501 174.161 85.0938 174.161 85.0938" fill="#E8A42A"/>
<path d="M173.02 96.7286L188.611 112.47L177.811 126.994L181.233 131.025C181.233 131.025 198.497 113.154 198.573 111.633C198.573 110.112 179.332 87.2231 178.115 86.3866C176.898 85.5501 174.161 85.0938 174.161 85.0938" stroke="#263238" stroke-miterlimit="10" stroke-linecap="round" stroke-linejoin="round"/>
<path d="M136.667 126.69C136.667 126.69 143.435 130.797 143.587 132.013C143.739 133.23 142.751 135.131 142.371 135.587C141.99 136.044 140.926 137.26 140.926 137.26C140.926 137.26 137.579 136.804 137.579 135.435C137.579 134.066 137.959 133.99 137.959 133.99L134.841 129.732L136.667 126.69Z" fill="#D9D9D9" stroke="#263238" stroke-miterlimit="10" stroke-linecap="round" stroke-linejoin="round"/>
<path d="M137.959 134.066L139.633 135.359" stroke="#263238" stroke-miterlimit="10" stroke-linecap="round" stroke-linejoin="round"/>
<path d="M141.762 98.1734L126.019 112.546L137.503 126.158L134.461 130.492C134.461 130.492 116.132 114.067 115.98 112.622C115.828 111.101 135.754 88.3637 137.047 87.5272C138.264 86.7668 141.002 86.3865 141.002 86.3865" fill="#E8A42A"/>
<path d="M141.762 98.1734L126.019 112.546L137.503 126.158L134.461 130.492C134.461 130.492 116.132 114.067 115.98 112.622C115.828 111.101 135.754 88.3637 137.047 87.5272C138.264 86.7668 141.002 86.3865 141.002 86.3865" stroke="#263238" stroke-miterlimit="10" stroke-linecap="round" stroke-linejoin="round"/>
<path d="M149.9 90.6451C149.9 90.6451 152.105 85.0938 151.801 83.3448C151.497 81.5958 148.531 82.0521 146.705 82.7365C144.956 83.4209 142.447 86.0064 142.447 86.0064C142.447 86.0064 147.162 85.7782 147.922 85.398C148.607 85.0178 149.748 89.9607 149.9 90.6451Z" fill="#FDE88D" stroke="#263238" stroke-miterlimit="10" stroke-linecap="round" stroke-linejoin="round"/>
<path d="M162.144 82.5843L163.437 91.6336C163.437 91.6336 164.73 87.8314 166.403 85.9303C168 84.0292 169.065 83.4969 169.065 83.4969C169.065 83.4969 165.262 81.8999 162.144 82.5843Z" fill="#FDE88D" stroke="#263238" stroke-miterlimit="10" stroke-linecap="round" stroke-linejoin="round"/>
</svg>
