<svg width="85" height="72" viewBox="0 0 85 72" fill="none" xmlns="http://www.w3.org/2000/svg">
<path fill-rule="evenodd" clip-rule="evenodd" d="M26.9998 71C41.9114 71 53.9998 58.9117 53.9998 44C53.9998 29.0883 41.9114 17 26.9998 17C12.0881 17 -0.000244141 29.0883 -0.000244141 44C-0.000244141 58.9117 12.0881 71 26.9998 71Z" fill="#F5C93C"/>
<g clip-path="url(#clip0)">
<path d="M60.3361 37.5504C60.9106 37.5504 61.3764 37.0781 61.3764 36.4955C61.3764 35.9127 60.9106 35.4405 60.3361 35.4405H55.8973C55.3228 35.4405 54.857 35.9127 54.857 36.4955C54.857 37.0781 55.3228 37.5504 55.8973 37.5504H60.3361Z" fill="#3E3D53"/>
<path d="M53.4706 36.4962C53.4706 35.5609 52.3511 35.0874 51.6938 35.7492C51.0397 36.4173 51.5108 37.5512 52.4303 37.5512C53.0129 37.5512 53.4706 37.0649 53.4706 36.4962Z" fill="#3E3D53"/>
<path d="M60.3361 44.3017H55.8973C55.3228 44.3017 54.857 44.7741 54.857 45.3567C54.857 45.9394 55.3228 46.4116 55.8973 46.4116H60.3361C60.9106 46.4116 61.3764 45.9394 61.3764 45.3567C61.3764 44.7738 60.9106 44.3017 60.3361 44.3017Z" fill="#3E3D53"/>
<path d="M51.6939 44.6108C51.2891 45.0211 51.2864 45.6887 51.6939 46.1018C52.1017 46.5156 52.7611 46.5122 53.1656 46.1018C53.5737 45.6881 53.5699 45.0206 53.1656 44.6108C52.7611 44.2004 52.1016 44.1971 51.6939 44.6108Z" fill="#3E3D53"/>
<path d="M60.3361 53.163H55.8973C55.3228 53.163 54.857 53.6352 54.857 54.218C54.857 54.8007 55.3228 55.273 55.8973 55.273H60.3361C60.9106 55.273 61.3764 54.8007 61.3764 54.218C61.3764 53.6352 60.9106 53.163 60.3361 53.163Z" fill="#3E3D53"/>
<path d="M51.3902 54.218C51.3902 55.1517 52.5098 55.6287 53.1656 54.9634C53.5703 54.5532 53.5698 53.8821 53.1656 53.4724C52.5147 52.8121 51.3902 53.2775 51.3902 54.218Z" fill="#3E3D53"/>
<path d="M83.9193 32.3947C83.3576 32.2756 82.8054 32.6399 82.6873 33.2102C81.3548 39.6369 75.6798 44.3015 69.1934 44.3015H65.7671C65.7671 42.5986 65.8966 41.8402 65.1898 40.926C65.5502 40.4598 65.7671 39.8747 65.7671 39.2381V33.7527C65.7671 32.2403 64.5539 31.0098 63.0623 31.0098H51.9821C51.4076 31.0098 50.9418 31.482 50.9418 32.0648C50.9418 32.6475 51.4076 33.1198 51.9821 33.1198H63.0623C63.4066 33.1198 63.6865 33.4038 63.6865 33.7527V39.2381C63.6865 39.5871 63.4065 39.871 63.0623 39.871H36.0471C35.7029 39.871 35.4229 39.587 35.4229 39.2381V33.7527C35.4229 33.4037 35.703 33.1198 36.0471 33.1198H47.1272C47.7018 33.1198 48.1676 32.6475 48.1676 32.0648C48.1676 31.482 47.7018 31.0098 47.1272 31.0098H36.0471C34.5557 31.0098 33.3423 32.2403 33.3423 33.7527V39.2381C33.3423 39.8747 33.5592 40.4598 33.9196 40.926C33.2136 41.8393 33.3423 42.589 33.3423 44.3015H29.916C22.3122 44.3015 16.126 38.0285 16.126 30.3179C16.126 24.1026 20.2407 18.5732 26.132 16.8711C26.5697 16.7448 26.8755 16.3445 26.887 15.8832C27.0212 10.4867 32.1675 6.9358 37.0774 8.49857C37.511 8.63652 37.9823 8.47325 38.242 8.09582C43.7349 0.115349 55.3746 0.115208 60.8675 8.09582C61.1276 8.47382 61.5989 8.63722 62.0322 8.49857C66.9329 6.93847 72.0885 10.479 72.2225 15.8833C72.2341 16.3447 72.5398 16.7451 72.9775 16.8714C78.3301 18.4175 82.218 23.0331 82.882 28.6297C82.9506 29.2081 83.4679 29.6192 84.0391 29.5513C84.6094 29.4816 85.0163 28.9564 84.9476 28.3779C84.2128 22.1843 80.0493 17.0348 74.2551 15.0648C73.6622 9.08961 68.0098 4.90307 62.1371 6.28443C55.7761 -2.10118 43.324 -2.08839 36.9723 6.28429C31.0664 4.89618 25.4438 9.1235 24.8543 15.0653C18.6356 17.1934 14.0454 23.149 14.0454 30.3181C14.0454 39.1921 21.165 46.4116 29.916 46.4116H33.3423C33.3423 48.1135 33.2126 48.8733 33.9196 49.7873C33.5592 50.2534 33.3423 50.8386 33.3423 51.4752V56.9606C33.3423 58.473 34.5557 59.7035 36.0471 59.7035H48.5144V64.982C47.3961 65.3312 46.5124 66.2272 46.1681 67.3612H34.745C34.1704 67.3612 33.7046 67.8336 33.7046 68.4162C33.7046 68.999 34.1704 69.4712 34.745 69.4712H46.1681C47.1901 72.838 51.9163 72.8474 52.9411 69.4712H64.0356C64.6102 69.4712 65.076 68.999 65.076 68.4162C65.076 67.8336 64.6102 67.3612 64.0356 67.3612H52.9411C52.5969 66.2274 51.7131 65.331 50.5949 64.982V59.7035H63.0622C64.5537 59.7035 65.767 58.473 65.767 56.9606V51.4752C65.767 50.8386 65.5501 50.2532 65.1897 49.7873C65.8958 48.8741 65.767 48.1225 65.767 46.4116C69.4712 46.4116 74.3161 46.8761 79.2568 42.7624C82.0438 40.4418 83.9853 37.2035 84.7233 33.6444C84.8416 33.074 84.4816 32.5146 83.9193 32.3947ZM51.0166 68.4163C51.0166 69.2341 50.3608 69.8991 49.5546 69.8991C48.7483 69.8991 48.0925 69.2339 48.0925 68.4163C48.0925 67.5987 48.7483 66.9336 49.5546 66.9336C50.3608 66.9337 51.0166 67.5989 51.0166 68.4163ZM63.6865 56.9607C63.6863 57.3098 63.4063 57.5937 63.0622 57.5937H36.0471C35.7029 57.5937 35.4229 57.3096 35.4229 56.9607V51.4754C35.4229 51.1262 35.703 50.8424 36.0471 50.8424H63.0623C63.4066 50.8424 63.6865 51.1264 63.6865 51.4754V56.9607ZM63.6863 48.0994C63.6863 48.4484 63.4063 48.7324 63.0622 48.7324H36.0471C35.7029 48.7324 35.4229 48.4483 35.4229 48.0994C35.4229 46.1195 35.4229 44.6026 35.4229 42.614C35.4229 42.265 35.703 41.9811 36.0471 41.9811H63.0623C63.4066 41.9811 63.6865 42.2652 63.6865 42.614C63.6863 44.5926 63.6863 46.1115 63.6863 48.0994Z" fill="#3E3D53"/>
</g>
<defs>
<clipPath id="clip0">
<rect width="71" height="72" fill="white" transform="translate(13.9998)"/>
</clipPath>
</defs>
</svg>
