<svg width="107" height="73" viewBox="0 0 107 73" fill="none" xmlns="http://www.w3.org/2000/svg">
<ellipse cx="35" cy="38.0804" rx="35" ry="34.9197" fill="#FFCE03"/>
<g clip-path="url(#clip0)">
<path d="M87.3049 31.0968V17.5022C87.3049 17.1131 87.1247 16.7536 86.8698 16.4691L71.5933 0.464265C71.3082 0.165026 70.9028 6.10352e-05 70.498 6.10352e-05H46.2775C41.8061 6.10352e-05 38.2344 3.63806 38.2344 8.09978V53.794C38.2344 58.2557 41.8061 61.8339 46.2775 61.8339H65.3959C69.0121 67.8225 75.5852 71.8349 83.0729 71.8349C94.4476 71.8349 103.737 62.6122 103.737 51.2488C103.752 41.3224 96.6087 33.0281 87.3049 31.0968ZM71.9987 5.25537L82.2479 16.0197H75.6C73.6192 16.0197 71.9987 14.3882 71.9987 12.4119V5.25537ZM46.2775 58.8394C43.4716 58.8394 41.2359 56.5934 41.2359 53.794V8.09978C41.2359 5.28497 43.4716 2.99464 46.2775 2.99464H68.9973V12.4119C68.9973 16.0499 71.9537 19.0143 75.6 19.0143H84.3034V30.7071C83.8535 30.6923 83.4932 30.6474 83.1032 30.6474C77.866 30.6474 73.049 32.6538 69.4175 35.798H50.3595C49.5339 35.798 48.8588 36.4715 48.8588 37.2947C48.8588 38.1185 49.5339 38.792 50.3595 38.792H66.6264C65.5607 40.2893 64.6752 41.7866 63.9853 43.4335H50.3595C49.5339 43.4335 48.8588 44.1071 48.8588 44.9308C48.8588 45.754 49.5339 46.4281 50.3595 46.4281H63.0097C62.6345 47.9254 62.4395 49.5871 62.4395 51.2488C62.4395 53.9436 62.9647 56.6088 63.91 58.8547H46.2775V58.8394ZM83.0883 68.8556C73.3643 68.8556 65.4558 60.9653 65.4558 51.2636C65.4558 41.5619 73.3489 33.6715 83.0883 33.6715C92.8272 33.6715 100.72 41.5619 100.72 51.2636C100.72 60.9653 92.8123 68.8556 83.0883 68.8556Z" fill="black"/>
<path d="M50.3595 31.2913H65.5607C66.3864 31.2913 67.0615 30.6172 67.0615 29.794C67.0615 28.9703 66.3864 28.2967 65.5607 28.2967H50.3595C49.5339 28.2967 48.8588 28.9703 48.8588 29.794C48.8588 30.6172 49.5339 31.2913 50.3595 31.2913Z" fill="black"/>
<path d="M90.771 50.949L84.6038 57.5816V41.2325C84.6038 40.4088 83.9282 39.7352 83.1031 39.7352C82.2775 39.7352 81.6024 40.4088 81.6024 41.2325V57.5816L75.3896 50.949C74.8194 50.3505 73.8592 50.3056 73.2588 50.8745C72.6584 51.4433 72.6134 52.3865 73.1841 52.9856L81.9627 62.4028C82.2478 62.7021 82.6378 62.8818 83.0581 62.8818C83.4783 62.8818 83.8683 62.7021 84.1534 62.4028L92.9474 52.9856C93.5176 52.3865 93.4874 51.4285 92.887 50.8745C92.2718 50.3056 91.3418 50.3505 90.771 50.949Z" fill="black"/>
</g>
<defs>
<clipPath id="clip0">
<rect width="72" height="71.8348" fill="white" transform="translate(35)"/>
</clipPath>
</defs>
</svg>
