<svg width="21" height="21" viewBox="0 0 21 21" fill="none" xmlns="http://www.w3.org/2000/svg">
<path d="M7.79272 20.8906C7.19272 20.8906 6.79272 20.4906 6.79272 19.8906V16.8906H2.79272C1.69272 16.8906 0.792725 15.9906 0.792725 14.8906V2.89062C0.792725 1.79062 1.69272 0.890625 2.79272 0.890625H18.7927C19.8927 0.890625 20.7927 1.79062 20.7927 2.89062V14.8906C20.7927 15.9906 19.8927 16.8906 18.7927 16.8906H12.6927L8.99272 20.5906C8.79272 20.7906 8.59272 20.8906 8.29272 20.8906H7.79272ZM8.79272 14.8906V17.9906L11.8927 14.8906H18.7927V2.89062H2.79272V14.8906H8.79272ZM15.0927 4.89062L13.6927 7.89062H15.7927V11.8906H11.7927V7.69063L13.0927 4.89062H15.0927ZM9.09272 4.89062L7.69272 7.89062H9.79272V11.8906H5.79272V7.69063L7.09272 4.89062H9.09272Z" fill="black"/>
</svg>
