<svg width="93" height="73" viewBox="0 0 93 73" fill="none" xmlns="http://www.w3.org/2000/svg">
<ellipse cx="32.2277" cy="41.9053" rx="32.2277" ry="31.0949" fill="#F9C23B"/>
<g clip-path="url(#clip0)">
<path d="M80.3119 18.5841C81.027 18.5841 81.6068 18.0248 81.6068 17.3348V3.7481C81.6068 1.68143 79.8642 6.10352e-05 77.7222 6.10352e-05H30.5892C28.4472 6.10352e-05 26.7046 1.68143 26.7046 3.7481V60.2186C26.7046 62.2853 28.4472 63.9667 30.5892 63.9667H77.7222C79.8642 63.9667 81.6068 62.2853 81.6068 60.2186V51.0144C81.6068 50.3244 81.027 49.7651 80.3119 49.7651C79.5969 49.7651 79.0171 50.3244 79.0171 51.0144V60.2186C79.0171 60.9075 78.4362 61.468 77.7222 61.468H30.5892C29.8752 61.468 29.2943 60.9075 29.2943 60.2186V3.7481C29.2943 3.05921 29.8752 2.49876 30.5892 2.49876H77.7222C78.4362 2.49876 79.0171 3.05921 79.0171 3.7481V17.3348C79.0171 18.0248 79.5969 18.5841 80.3119 18.5841Z" fill="black"/>
<path d="M54.155 6.74654C47.5863 6.74654 42.2422 11.9027 42.2422 18.2405C42.2422 21.5284 43.6808 24.4979 45.9821 26.5948C46.0252 26.6393 46.071 26.6814 46.1211 26.7197C48.241 28.5911 51.0621 29.7344 54.1549 29.7344C57.2477 29.7344 60.0688 28.591 62.1886 26.7197C62.2387 26.6814 62.2845 26.6391 62.3277 26.5948C64.6292 24.4979 66.0677 21.5284 66.0677 18.2405C66.0677 11.9027 60.7237 6.74654 54.155 6.74654ZM54.155 27.2358C52.0406 27.2358 50.0893 26.5522 48.5235 25.4033C49.6616 23.4562 51.7853 22.2384 54.155 22.2384C56.5247 22.2384 58.6484 23.4562 59.7865 25.4033C58.2206 26.5522 56.2694 27.2358 54.155 27.2358ZM52.0832 17.7408V16.9287C52.0832 15.8265 53.0127 14.9298 54.155 14.9298C55.2973 14.9298 56.2268 15.8265 56.2268 16.9287V17.7408C56.2268 18.843 55.2973 19.7397 54.155 19.7397C53.0127 19.7397 52.0832 18.843 52.0832 17.7408ZM61.6574 23.5731C60.7025 22.2066 59.379 21.1438 57.8424 20.4876C58.4523 19.7271 58.8165 18.7745 58.8165 17.7408V16.9287C58.8165 14.4486 56.7254 12.4311 54.155 12.4311C51.5846 12.4311 49.4935 14.4486 49.4935 16.9287V17.7408C49.4935 18.7745 49.8577 19.7271 50.4676 20.4876C48.931 21.1438 47.6075 22.2066 46.6526 23.5731C45.5093 22.0798 44.832 20.2354 44.832 18.2405C44.832 13.2805 49.0143 9.24523 54.155 9.24523C59.2957 9.24523 63.478 13.2805 63.478 18.2405C63.478 20.2354 62.8007 22.0798 61.6574 23.5731Z" fill="black"/>
<path d="M61.1473 54.7215H54.155C53.44 54.7215 52.8601 55.2808 52.8601 55.9708C52.8601 56.6608 53.44 57.2202 54.155 57.2202H61.1473C61.8623 57.2202 62.4421 56.6608 62.4421 55.9708C62.4421 55.2808 61.8623 54.7215 61.1473 54.7215Z" fill="black"/>
<path d="M61.1473 47.7251H42.7602C42.0452 47.7251 41.4653 48.2845 41.4653 48.9745C41.4653 49.6645 42.0452 50.2238 42.7602 50.2238H61.1473C61.8623 50.2238 62.4421 49.6645 62.4421 48.9745C62.4421 48.2845 61.8623 47.7251 61.1473 47.7251Z" fill="black"/>
<path d="M61.1473 40.7288H42.7602C42.0452 40.7288 41.4653 41.2881 41.4653 41.9782C41.4653 42.6682 42.0452 43.2275 42.7602 43.2275H61.1473C61.8623 43.2275 62.4421 42.6682 62.4421 41.9782C62.4421 41.2881 61.8623 40.7288 61.1473 40.7288Z" fill="black"/>
<path d="M38.1452 34.0985C37.9045 33.8661 37.5704 33.7325 37.2285 33.7325C36.8879 33.7325 36.5538 33.8661 36.3131 34.0985C36.0722 34.3309 35.9337 34.6532 35.9337 34.9818C35.9337 35.3104 36.0721 35.6327 36.3131 35.8651C36.5552 36.0975 36.8879 36.2311 37.2285 36.2311C37.5704 36.2311 37.9032 36.0975 38.1452 35.8651C38.386 35.6327 38.5247 35.3104 38.5247 34.9818C38.5247 34.6532 38.3861 34.3309 38.1452 34.0985Z" fill="black"/>
<path d="M38.1452 41.0949C37.9032 40.8625 37.5704 40.7288 37.2285 40.7288C36.8879 40.7288 36.5552 40.8625 36.3131 41.0949C36.0722 41.3272 35.9337 41.6496 35.9337 41.9782C35.9337 42.3067 36.0721 42.6291 36.3131 42.8614C36.5552 43.0938 36.8879 43.2275 37.2285 43.2275C37.5704 43.2275 37.9032 43.0938 38.1452 42.8614C38.386 42.6291 38.5247 42.3067 38.5247 41.9782C38.5247 41.6496 38.3861 41.3272 38.1452 41.0949Z" fill="black"/>
<path d="M38.1452 48.0912C37.9032 47.8588 37.5704 47.7251 37.2285 47.7251C36.8879 47.7251 36.5552 47.8588 36.3131 48.0912C36.0722 48.3236 35.9337 48.6459 35.9337 48.9745C35.9337 49.3031 36.0721 49.6254 36.3131 49.8578C36.5538 50.0902 36.8879 50.2238 37.2285 50.2238C37.5704 50.2238 37.9045 50.0902 38.1452 49.8578C38.386 49.6254 38.5247 49.3031 38.5247 48.9745C38.5247 48.6459 38.3861 48.3236 38.1452 48.0912Z" fill="black"/>
<path d="M61.1473 33.7325H42.7602C42.0452 33.7325 41.4653 34.2918 41.4653 34.9818C41.4653 35.6718 42.0452 36.2311 42.7602 36.2311H61.1473C61.8623 36.2311 62.4421 35.6718 62.4421 34.9818C62.4421 34.2918 61.8623 33.7325 61.1473 33.7325Z" fill="black"/>
<path d="M90.2811 16.2816C89.0231 15.5808 87.5576 15.3947 86.1542 15.7573C84.7511 16.1202 83.5782 16.9885 82.852 18.2022L66.5572 45.4334C66.468 45.5827 66.4115 45.7482 66.3917 45.9195L65.2447 55.8323C65.1877 56.3255 65.4387 56.8047 65.8841 57.0529C66.0852 57.1649 66.3086 57.2203 66.5314 57.2203C66.8023 57.2203 67.0722 57.1385 67.2994 56.977L75.6233 51.062C75.7672 50.9598 75.8876 50.83 75.9768 50.6807L92.2715 23.4496C93.771 20.9439 92.878 17.7283 90.2811 16.2816ZM68.1468 53.2715L68.7458 48.0952L72.4934 50.1829L68.1468 53.2715ZM74.3815 48.3493L69.4475 45.6008L82.5237 23.7484L87.4577 26.497L74.3815 48.3493ZM90.0288 22.2001L88.7525 24.3331L83.8184 21.5846L85.0947 19.4515C85.4752 18.8157 86.0895 18.361 86.8244 18.171C87.5596 17.9808 88.3272 18.0785 88.9861 18.4456C89.645 18.8126 90.1164 19.4053 90.3133 20.1144C90.5102 20.8236 90.4092 21.5643 90.0288 22.2001Z" fill="black"/>
</g>
<defs>
<clipPath id="clip0">
<rect width="66.297" height="63.9666" fill="white" transform="translate(26.703)"/>
</clipPath>
</defs>
</svg>
