<svg width="40" height="20" viewBox="0 0 40 20" fill="none" xmlns="http://www.w3.org/2000/svg">
<path d="M38.4376 8.43752H5.34712L10.8287 2.98252C11.4403 2.37377 11.4427 1.38448 10.8339 0.772837C10.2252 0.161119 9.23579 0.158854 8.62415 0.767525L0.459778 8.89252C0.459231 8.89299 0.458841 8.89354 0.458372 8.89401C-0.151706 9.50276 -0.153659 10.4953 0.458216 11.106C0.458763 11.1065 0.459153 11.107 0.459622 11.1075L8.624 19.2325C9.23556 19.8411 10.2249 19.839 10.8338 19.2272C11.4425 18.6156 11.4402 17.6263 10.8285 17.0175L5.34712 11.5625H38.4376C39.3006 11.5625 40.0001 10.863 40.0001 10C40.0001 9.13705 39.3006 8.43752 38.4376 8.43752Z" fill="black"/>
</svg>
