<svg width="60" height="46" viewBox="0 0 60 46" fill="none" xmlns="http://www.w3.org/2000/svg">
<path d="M54.7266 0H5.27344C2.3693 0 0 2.36672 0 5.27344V40.4297C0 43.3266 2.35875 45.7031 5.27344 45.7031H54.7266C57.6234 45.7031 60 43.3444 60 40.4297V5.27344C60 2.37656 57.6413 0 54.7266 0ZM53.9984 3.51562L30.1118 27.4023L6.01863 3.51562H53.9984ZM3.51562 39.7017V5.98465L20.4468 22.7706L3.51562 39.7017ZM6.00152 42.1875L22.9433 25.2457L28.8797 31.1311C29.5669 31.8124 30.6758 31.8102 31.3602 31.1257L37.1484 25.3375L53.9985 42.1875H6.00152ZM56.4844 39.7016L39.6343 22.8516L56.4844 6.00141V39.7016Z" fill="#AFAFAF"/>
</svg>
