<svg width="40" height="40" viewBox="0 0 40 40" fill="none" xmlns="http://www.w3.org/2000/svg">
<path d="M31.2484 31.4392C31.2498 31.3554 31.2503 31.2714 31.2498 31.1873C31.2162 25.0581 26.2159 20.0467 20.0868 20.0003C13.8438 19.953 8.75 25.0178 8.75 31.25C8.75 31.3369 8.75102 31.4236 8.75297 31.51C8.83852 35.2615 11.4738 38.4749 15.1123 39.3926C16.6998 39.793 18.3411 40 20 40C21.6586 40 23.2996 39.7931 24.8868 39.3928C28.5509 38.4688 31.1858 35.2175 31.2484 31.4392Z" fill="black"/>
<path d="M34.1416 5.85719C30.3862 2.10211 25.3106 0 19.9999 0C14.6577 0 9.63531 2.08039 5.85781 5.85781C2.08031 9.63531 0 14.6577 0 20C0 24.7146 1.67164 29.2925 4.7075 32.8909C5.06125 33.3098 5.43313 33.7151 5.82039 34.1043C6.09094 34.3762 6.54813 34.1308 6.47844 33.7536C6.32844 32.9416 6.25 32.1048 6.25 31.25C6.25 25.5445 9.74305 20.6397 14.703 18.5614C14.9604 18.4535 15.0268 18.1157 14.8248 17.923C13.3342 16.5 12.4272 14.4708 12.5046 12.2352C12.6398 8.33008 15.7991 5.15695 19.7037 5.00578C23.9736 4.84039 27.5 8.26617 27.5 12.5C27.5 14.6307 26.6066 16.5563 25.1751 17.923C24.9732 18.1157 25.0397 18.4535 25.297 18.5614C30.257 20.6397 33.75 25.5445 33.75 31.25C33.75 32.1048 33.6716 32.9416 33.5215 33.7535C33.4518 34.1307 33.909 34.3761 34.1795 34.1042C34.5669 33.7149 34.9389 33.3095 35.2928 32.8904C38.3284 29.2926 40 24.7147 40 20C40 14.6574 37.9195 9.63469 34.1416 5.85719Z" fill="black"/>
<path d="M20 17.5C22.7614 17.5 25 15.2614 25 12.5C25 9.73858 22.7614 7.5 20 7.5C17.2386 7.5 15 9.73858 15 12.5C15 15.2614 17.2386 17.5 20 17.5Z" fill="black"/>
</svg>
