<svg width="43" height="37" viewBox="0 0 43 37" fill="none" xmlns="http://www.w3.org/2000/svg">
<circle cx="14" cy="23" r="14" fill="#FFCC47"/>
<g clip-path="url(#clip0)">
<path d="M25.5 32.0833C20.4921 32.0833 17.7213 28.5119 15.6738 25.0177C15.6548 24.9856 15.0992 23.9575 14.8717 23.4237C14.1804 21.754 13.8333 19.9967 13.8333 18.1912V12.7969C13.8333 8.05729 16.9017 6.31896 19.0702 5.93687C19.55 4.78333 21.0142 3.03771 25.4708 2.92104C28.9213 2.81896 32.2769 4.03812 34.4498 6.15562C36.2275 7.88667 37.1667 10.1748 37.1667 12.775V18.1694C37.1667 19.9675 36.8196 21.7277 36.1342 23.4019C35.8717 24.01 35.3058 25.0177 35.2417 25.1315C33.0556 28.754 30.3752 32.0833 25.5 32.0833ZM25.8252 5.10417C25.7275 5.10417 25.6269 5.10562 25.5292 5.10708C22.0904 5.19896 21.0783 6.38021 21.0229 6.99125C20.9733 7.54542 20.5096 8.02958 19.954 8.04125C19.5573 8.05437 16.0208 8.30229 16.0208 12.7969V18.1898C16.0208 19.7079 16.3125 21.1838 16.89 22.5765C17.0854 23.0358 17.5783 23.9415 17.5783 23.9415C19.6667 27.5027 21.8236 29.8958 25.5 29.8958C29.0904 29.8958 31.1671 27.65 33.3517 24.0275C35.5363 20.405 33.8986 23.0621 34.1173 22.5531C34.6875 21.1619 34.9792 19.6817 34.9792 18.1679V12.775C34.9792 10.7508 34.2879 9.05042 32.9244 7.72333C31.2517 6.09437 28.5552 5.10417 25.8252 5.10417Z" fill="black"/>
<path d="M14.9271 17.8354C14.51 17.8354 14.109 17.5948 13.9281 17.1879C13.6817 16.6367 13.9281 15.9892 14.4808 15.7427L16.715 14.7437C16.7442 14.7306 19.9481 13.2417 19.9481 10.4898C19.9481 9.96187 20.3258 9.50979 20.8436 9.41354C21.3642 9.31438 21.876 9.6075 22.0642 10.1004C22.1327 10.2769 23.5765 13.9081 26.9467 14.9552C26.3881 13.1542 26.6171 11.5631 26.6317 11.4727C26.7017 11.009 27.0619 10.6415 27.5242 10.5612C27.9806 10.4767 28.4488 10.7042 28.6733 11.1154C29.4477 12.5402 31.0913 14.6475 32.1602 14.6475C32.5496 14.6475 32.71 14.6402 32.8763 14.6315C33.2613 14.614 33.6521 14.5965 36.0919 14.6387C36.6956 14.6504 37.1769 15.1492 37.1652 15.7529C37.1536 16.3508 36.6665 16.8262 36.0715 16.8262C36.0656 16.8262 36.0583 16.8262 36.0511 16.8262C33.69 16.781 33.3094 16.7985 32.9798 16.816C32.7888 16.8248 32.6035 16.8335 32.1602 16.8335C31.3363 16.8335 30.556 16.4806 29.8575 15.9658C29.9538 16.2444 29.9377 16.5565 29.7977 16.8262C29.611 17.1908 29.2348 17.4198 28.825 17.4198C25.1033 17.4198 22.7263 15.1885 21.3904 13.3306C20.1421 15.5794 17.7431 16.6775 17.606 16.7373L15.3719 17.7362C15.229 17.8048 15.0773 17.8354 14.9271 17.8354Z" fill="black"/>
<path d="M9.09375 12.1742C8.49 12.1742 8 11.6842 8 11.0804V4.01042C8 1.79958 9.79813 0 12.0104 0H19.0804C19.6842 0 20.1742 0.49 20.1742 1.09375C20.1742 1.6975 19.6842 2.1875 19.0804 2.1875H12.0104C11.0056 2.1875 10.1875 3.00563 10.1875 4.01042V11.0804C10.1875 11.6842 9.6975 12.1742 9.09375 12.1742Z" fill="black"/>
<path d="M25.5015 26.9792C24.0388 26.9792 22.6679 26.3929 21.6369 25.3298C21.2169 24.8952 21.2285 24.204 21.6631 23.7825C22.0992 23.361 22.7904 23.3742 23.2104 23.8073C24.4354 25.076 26.5646 25.0775 27.7954 23.8073C28.2183 23.3742 28.9096 23.364 29.3427 23.7825C29.7773 24.2025 29.789 24.8952 29.369 25.3298C28.3335 26.3929 26.9627 26.9792 25.5015 26.9792Z" fill="black"/>
<path d="M41.9063 12.1742C41.3025 12.1742 40.8125 11.6842 40.8125 11.0804V4.01041C40.8125 3.00562 39.9944 2.18749 38.9896 2.18749H31.9196C31.3158 2.18749 30.8258 1.69749 30.8258 1.09374C30.8258 0.489992 31.3158 -7.62939e-06 31.9196 -7.62939e-06H38.9896C41.2019 -7.62939e-06 43 1.79958 43 4.01041V11.0804C43 11.6842 42.51 12.1742 41.9063 12.1742Z" fill="black"/>
<path d="M38.9896 35H31.9196C31.3158 35 30.8258 34.51 30.8258 33.9063C30.8258 33.3025 31.3158 32.8125 31.9196 32.8125H38.9896C39.9944 32.8125 40.8125 31.9944 40.8125 30.9896V23.9196C40.8125 23.3158 41.3025 22.8258 41.9063 22.8258C42.51 22.8258 43 23.3158 43 23.9196V30.9896C43 33.2004 41.2019 35 38.9896 35Z" fill="black"/>
<path d="M19.0804 35H12.0104C9.79813 35 8 33.2004 8 30.9896V23.9196C8 23.3158 8.49 22.8258 9.09375 22.8258C9.6975 22.8258 10.1875 23.3158 10.1875 23.9196V30.9896C10.1875 31.9944 11.0056 32.8125 12.0104 32.8125H19.0804C19.6842 32.8125 20.1742 33.3025 20.1742 33.9063C20.1742 34.51 19.6842 35 19.0804 35Z" fill="black"/>
</g>
<defs>
<clipPath id="clip0">
<rect width="35" height="35" fill="white" transform="translate(8)"/>
</clipPath>
</defs>
</svg>
