<svg width="42" height="36" viewBox="0 0 42 36" fill="none" xmlns="http://www.w3.org/2000/svg">
<circle cx="14" cy="22" r="14" fill="#FFCC47"/>
<g clip-path="url(#clip0)">
<path d="M37.9896 35H25.5937C24.99 35 24.5 34.51 24.5 33.9062C24.5 33.3025 24.99 32.8125 25.5937 32.8125H37.9896C38.9944 32.8125 39.8125 31.9944 39.8125 30.9896V4.01041C39.8125 3.00562 38.9944 2.18749 37.9896 2.18749H17.9375C16.9327 2.18749 16.1146 3.00562 16.1146 4.01041V6.19791C16.1146 6.80166 15.6246 7.29166 15.0208 7.29166C14.4171 7.29166 13.9271 6.80166 13.9271 6.19791V4.01041C13.9271 1.79812 15.7252 -7.62939e-06 17.9375 -7.62939e-06H37.9896C40.2019 -7.62939e-06 42 1.79812 42 4.01041V30.9896C42 33.2019 40.2019 35 37.9896 35Z" fill="black"/>
<path d="M28.1459 31.7187C27.1411 31.7187 26.3229 30.9006 26.3229 29.8958C26.3229 28.891 27.1411 28.0729 28.1459 28.0729C29.1506 28.0729 29.9688 28.891 29.9688 29.8958C29.9688 30.9006 29.1506 31.7187 28.1459 31.7187ZM28.1459 29.5312C27.9446 29.5312 27.7813 29.6946 27.7813 29.8958C27.7813 30.2969 28.5104 30.2969 28.5104 29.8958C28.5104 29.6946 28.3471 29.5312 28.1459 29.5312Z" fill="black"/>
<path d="M20.4896 35H9.55208C8.14479 35 7 33.8552 7 32.4479V11.3021C7 9.89479 8.14479 8.75 9.55208 8.75H20.4896C21.8969 8.75 23.0417 9.89479 23.0417 11.3021V32.4479C23.0417 33.8552 21.8969 35 20.4896 35ZM9.55208 10.9375C9.35083 10.9375 9.1875 11.1008 9.1875 11.3021V32.4479C9.1875 32.6492 9.35083 32.8125 9.55208 32.8125H20.4896C20.6908 32.8125 20.8542 32.6492 20.8542 32.4479V11.3021C20.8542 11.1008 20.6908 10.9375 20.4896 10.9375H9.55208Z" fill="black"/>
<path d="M21.9479 30.625H8.09375C7.49 30.625 7 30.135 7 29.5312C7 28.9275 7.49 28.4375 8.09375 28.4375H21.9479C22.5517 28.4375 23.0417 28.9275 23.0417 29.5312C23.0417 30.135 22.5517 30.625 21.9479 30.625Z" fill="black"/>
</g>
<defs>
<clipPath id="clip0">
<rect width="35" height="35" fill="white" transform="translate(7)"/>
</clipPath>
</defs>
</svg>
