<svg width="81" height="71" viewBox="0 0 81 71" fill="none" xmlns="http://www.w3.org/2000/svg">
<path fill-rule="evenodd" clip-rule="evenodd" d="M26.5001 71C41.1356 71 53.0001 59.1355 53.0001 44.5C53.0001 29.8645 41.1356 18 26.5001 18C11.8645 18 6.10352e-05 29.8645 6.10352e-05 44.5C6.10352e-05 59.1355 11.8645 71 26.5001 71Z" fill="#F5C93C"/>
<g clip-path="url(#clip0)">
<path d="M52.871 10.2348H56.7603C57.3187 10.2348 57.7711 9.7758 57.7711 9.20938C57.7711 8.64295 57.3187 8.18398 56.7603 8.18398H53.8817V6.14277H56.7603C57.3187 6.14277 57.7711 5.68381 57.7711 5.11738C57.7711 4.55096 57.3187 4.09199 56.7603 4.09199H53.8817V2.05078H56.7603C57.3187 2.05078 57.7711 1.59182 57.7711 1.02539C57.7711 0.458965 57.3187 0 56.7603 0H52.871C52.3127 0 51.8603 0.458965 51.8603 1.02539V9.20938C51.8603 9.7758 52.3128 10.2348 52.871 10.2348Z" fill="#3E3D53"/>
<path d="M44.9542 2.05078H45.9555V9.20938C45.9555 9.7758 46.4079 10.2348 46.9663 10.2348C47.5246 10.2348 47.977 9.7758 47.977 9.20938V2.05078H48.9785C49.5368 2.05078 49.9892 1.59182 49.9892 1.02539C49.9892 0.458965 49.5368 0 48.9785 0H44.9544C44.396 0 43.9436 0.458965 43.9436 1.02539C43.9436 1.59182 44.396 2.05078 44.9542 2.05078Z" fill="#3E3D53"/>
<path d="M37.1577 10.2348H41.1818C41.7401 10.2348 42.1925 9.7758 42.1925 9.20938V1.02539C42.1925 0.458965 41.7401 0 41.1818 0H37.1577C36.5993 0 36.1469 0.458965 36.1469 1.02539V9.20938C36.1469 9.7758 36.5993 10.2348 37.1577 10.2348ZM38.1684 2.05078H40.171V8.18398H38.1684V2.05078Z" fill="#3E3D53"/>
<path d="M69.9115 63.8542H65.7223V18.2912C67.2976 17.8437 68.4559 16.377 68.4559 14.6415C68.4559 13.3425 67.4124 12.2857 66.1297 12.2857H65.7223V9.20951C65.7223 8.64309 65.2699 8.18412 64.7116 8.18412H61.833V1.02539C61.833 0.458965 61.3806 0 60.8222 0C60.2639 0 59.8115 0.458965 59.8115 1.02539V9.20938C59.8115 9.7758 60.2639 10.2348 60.8222 10.2348H63.7008V12.2855H30.0825V6.14277H32.0851V9.20938C32.0851 9.7758 32.5375 10.2348 33.0958 10.2348C33.6542 10.2348 34.1066 9.7758 34.1066 9.20938V1.02539C34.1066 0.458965 33.6542 0 33.0958 0C32.5375 0 32.0851 0.458965 32.0851 1.02539V4.09213H30.0825V1.02539C30.0825 0.458965 29.6301 0 29.0717 0C28.5134 0 28.061 0.458965 28.061 1.02539V12.2855H27.6536C26.3709 12.2855 25.3274 13.3424 25.3274 14.6413C25.3274 16.3769 26.4857 17.8436 28.061 18.2911V63.8541H23.0885C21.8045 63.8541 20.7598 64.9109 20.7598 66.2099C20.7598 68.2998 22.4418 70 24.5095 70H68.4905C70.5583 70 72.2403 68.2998 72.2403 66.21C72.2403 64.9111 71.1956 63.8542 69.9115 63.8542ZM68.4905 67.9492H24.5095C23.5566 67.9492 22.7813 67.1691 22.7813 66.21C22.7813 66.0419 22.919 65.905 23.0885 65.905H55.6536C56.2119 65.905 56.6643 65.446 56.6643 64.8796C56.6643 64.3132 56.2119 63.8542 55.6536 63.8542H50.5976V46.1174C50.5976 45.551 50.1452 45.092 49.5868 45.092H44.1962C43.6379 45.092 43.1855 45.551 43.1855 46.1174V63.8541H30.0823V18.446H33.7717C34.33 18.446 34.7824 17.987 34.7824 17.4206C34.7824 16.8541 34.33 16.3952 33.7717 16.3952H29.0716V16.3808C28.1216 16.3808 27.3488 15.6006 27.3488 14.6415C27.3488 14.4733 27.4855 14.3365 27.6535 14.3365H66.1297C66.2978 14.3365 66.4344 14.4733 66.4344 14.6415C66.4344 15.6006 65.6615 16.3808 64.7116 16.3808V16.3952H38.5073C37.949 16.3952 37.4966 16.8541 37.4966 17.4206C37.4966 17.987 37.949 18.446 38.5073 18.446H63.7007V63.8542H60.3661C59.8077 63.8542 59.3553 64.3132 59.3553 64.8796C59.3553 65.446 59.8077 65.905 60.3661 65.905H69.9115C70.081 65.905 70.2188 66.0419 70.2188 66.21C70.2188 67.1691 69.4435 67.9492 68.4905 67.9492ZM48.5761 49.1936H45.207V47.1428H48.5761V49.1936ZM45.207 51.2444H48.5761V63.8541H45.207V51.2444Z" fill="#3E3D53"/>
<path d="M38.5074 20.5137H33.1168C32.5585 20.5137 32.1061 20.9726 32.1061 21.5391V29.7422C32.1061 30.3086 32.5585 30.7676 33.1168 30.7676H38.5074C39.0658 30.7676 39.5182 30.3086 39.5182 29.7422V21.5391C39.5182 20.9726 39.0658 20.5137 38.5074 20.5137ZM37.4967 22.5645V24.6152H34.1275V22.5645H37.4967ZM34.1275 28.7168V26.666H37.4967V28.7168H34.1275Z" fill="#3E3D53"/>
<path d="M38.5074 32.7961H33.1168C32.5585 32.7961 32.1061 33.2551 32.1061 33.8215V42.0247C32.1061 42.5911 32.5585 43.05 33.1168 43.05H38.5074C39.0658 43.05 39.5182 42.5911 39.5182 42.0247V33.8215C39.5182 33.2551 39.0658 32.7961 38.5074 32.7961ZM37.4967 34.8469V36.8977H34.1275V34.8469H37.4967ZM34.1275 40.9993V38.9485H37.4967V40.9993H34.1275Z" fill="#3E3D53"/>
<path d="M38.5074 45.092H33.1168C32.5585 45.092 32.1061 45.551 32.1061 46.1174V58.6658C32.1061 59.2322 32.5585 59.6911 33.1168 59.6911H38.5074C39.0658 59.6911 39.5182 59.2322 39.5182 58.6658V46.1174C39.5182 45.5511 39.0658 45.092 38.5074 45.092ZM37.4967 47.1428V49.1936H34.1275V47.1428H37.4967ZM34.1275 57.6405V51.2445H37.4967V57.6405H34.1275Z" fill="#3E3D53"/>
<path d="M49.5868 20.5137H44.1962C43.6379 20.5137 43.1855 20.9726 43.1855 21.5391V29.7422C43.1855 30.3086 43.6379 30.7676 44.1962 30.7676H49.5868C50.1452 30.7676 50.5976 30.3086 50.5976 29.7422V21.5391C50.5976 20.9726 50.1452 20.5137 49.5868 20.5137ZM48.5761 22.5645V24.6152H45.2069V22.5645H48.5761ZM45.2069 28.7168V26.666H48.5761V28.7168H45.2069Z" fill="#3E3D53"/>
<path d="M49.5868 32.7961H44.1962C43.6379 32.7961 43.1855 33.2551 43.1855 33.8215V42.0247C43.1855 42.5911 43.6379 43.05 44.1962 43.05H49.5868C50.1452 43.05 50.5976 42.5911 50.5976 42.0247V33.8215C50.5976 33.2551 50.1452 32.7961 49.5868 32.7961ZM48.5761 34.8469V36.8977H45.2069V34.8469H48.5761ZM45.2069 40.9993V38.9485H48.5761V40.9993H45.2069Z" fill="#3E3D53"/>
<path d="M55.3144 30.7676H60.705C61.2634 30.7676 61.7158 30.3086 61.7158 29.7422V21.5391C61.7158 20.9726 61.2634 20.5137 60.705 20.5137H55.3144C54.7561 20.5137 54.3037 20.9726 54.3037 21.5391V29.7422C54.3037 30.3086 54.7562 30.7676 55.3144 30.7676ZM56.3252 28.7168V26.666H59.6943V28.7168H56.3252ZM59.6943 22.5645V24.6152H56.3252V22.5645H59.6943Z" fill="#3E3D53"/>
<path d="M55.3144 43.05H60.705C61.2634 43.05 61.7158 42.5911 61.7158 42.0247V33.8215C61.7158 33.2551 61.2634 32.7961 60.705 32.7961H55.3144C54.7561 32.7961 54.3037 33.2551 54.3037 33.8215V42.0247C54.3037 42.5909 54.7562 43.05 55.3144 43.05ZM56.3252 40.9993V38.9485H59.6943V40.9993H56.3252ZM59.6943 34.8469V36.8977H56.3252V34.8469H59.6943Z" fill="#3E3D53"/>
<path d="M61.7158 58.6659V46.1176C61.7158 45.5511 61.2634 45.0922 60.705 45.0922H55.3144C54.7561 45.0922 54.3037 45.5511 54.3037 46.1176V58.6659C54.3037 59.2323 54.7561 59.6913 55.3144 59.6913H60.705C61.2634 59.6913 61.7158 59.2322 61.7158 58.6659ZM59.6943 47.1428V49.1936H56.3252V47.1428H59.6943ZM56.3252 57.6405V51.2445H59.6943V57.6405H56.3252Z" fill="#3E3D53"/>
</g>
<defs>
<clipPath id="clip0">
<rect width="69" height="70" fill="white" transform="translate(12.0001)"/>
</clipPath>
</defs>
</svg>
