<svg width="86" height="66" viewBox="0 0 86 66" fill="none" xmlns="http://www.w3.org/2000/svg">
<path fill-rule="evenodd" clip-rule="evenodd" d="M24.9999 64C38.807 64 49.9999 52.8071 49.9999 39C49.9999 25.1929 38.807 14 24.9999 14C11.1928 14 -0.00012207 25.1929 -0.00012207 39C-0.00012207 52.8071 11.1928 64 24.9999 64Z" fill="#F5C93C"/>
<path d="M55.0624 14.4375H65.3749C65.6484 14.4375 65.9107 14.3289 66.1041 14.1355C66.2975 13.9421 66.4061 13.6798 66.4061 13.4062C66.4026 10.3988 65.2063 7.51552 63.0797 5.38893C60.9531 3.26233 58.0698 2.06605 55.0624 2.0625C54.7889 2.0625 54.5266 2.17115 54.3332 2.36455C54.1398 2.55794 54.0311 2.82025 54.0311 3.09375V13.4062C54.0311 13.6798 54.1398 13.9421 54.3332 14.1355C54.5266 14.3289 54.7889 14.4375 55.0624 14.4375ZM56.0936 4.18172C58.1848 4.41911 60.1336 5.35864 61.6218 6.84681C63.11 8.33498 64.0495 10.2838 64.2869 12.375H56.0936V4.18172Z" fill="#3E3D53"/>
<path d="M70.9581 4.125H77.7499V2.0625H70.5311C70.2576 2.06256 69.9954 2.17125 69.802 2.36466L66.7083 5.45841L68.1665 6.91659L70.9581 4.125Z" fill="#3E3D53"/>
<path d="M79.8124 2.0625H83.9374V4.125H79.8124V2.0625Z" fill="#3E3D53"/>
<path d="M37.8332 6.91659L39.2914 5.45841L36.1976 2.36466C36.0043 2.17125 35.742 2.06256 35.4685 2.0625H28.2498V4.125H35.0416L37.8332 6.91659Z" fill="#3E3D53"/>
<path d="M22.0623 2.0625H26.1873V4.125H22.0623V2.0625Z" fill="#3E3D53"/>
<path d="M71.5624 8.25H79.8124V10.3125H71.5624V8.25Z" fill="#3E3D53"/>
<path d="M81.8748 8.25H83.9373V10.3125H81.8748V8.25Z" fill="#3E3D53"/>
<path d="M22.0623 8.25H34.4373V10.3125H22.0623V8.25Z" fill="#3E3D53"/>
<path d="M46.3854 37.125H39.5936V39.1875H46.8123C47.0858 39.1874 47.3481 39.0787 47.5414 38.8853L50.6352 35.7916L49.177 34.3334L46.3854 37.125Z" fill="#3E3D53"/>
<path d="M33.4061 37.125H37.5311V39.1875H33.4061V37.125Z" fill="#3E3D53"/>
<path d="M33.4061 30.9375H45.7811V33H33.4061V30.9375Z" fill="#3E3D53"/>
<path d="M83.9374 29.9062C83.94 27.3733 83.2243 24.8915 81.8732 22.7489C80.5222 20.6064 78.5913 18.8908 76.3046 17.8015C74.0178 16.7121 71.469 16.2935 68.954 16.5943C66.439 16.8951 64.0608 17.903 62.0955 19.5009C62.2149 18.8511 62.277 18.192 62.2811 17.5312C62.2811 17.2577 62.1725 16.9954 61.9791 16.802C61.7857 16.6086 61.5234 16.5 61.2499 16.5H51.9686V7.21875C51.9686 6.94525 51.86 6.68294 51.6666 6.48955C51.4732 6.29615 51.2109 6.1875 50.9374 6.1875C48.471 6.19228 46.0732 6.99995 44.1066 8.48839C42.14 9.97684 40.7115 12.0651 40.0371 14.4375H34.4374C33.0698 14.4375 31.7583 14.9807 30.7913 15.9477C29.8244 16.9147 29.2811 18.2262 29.2811 19.5938V46.4062C29.2811 47.7738 29.8244 49.0853 30.7913 50.0523C31.7583 51.0193 33.0698 51.5625 34.4374 51.5625H48.8749V57.75H45.7811C44.9614 57.7524 44.1759 58.0792 43.5962 58.6588C43.0165 59.2385 42.6898 60.024 42.6874 60.8438V62.9062C42.6874 63.1798 42.796 63.4421 42.9894 63.6355C43.1828 63.8288 43.4451 63.9375 43.7186 63.9375H62.2811C62.5546 63.9375 62.8169 63.8288 63.0103 63.6355C63.2037 63.4421 63.3124 63.1798 63.3124 62.9062V60.8438C63.3099 60.024 62.9832 59.2385 62.4035 58.6588C61.8239 58.0792 61.0384 57.7524 60.2186 57.75H57.1249V51.5625H65.3749V58.7812C65.3749 60.1488 65.9181 61.4603 66.8851 62.4273C67.8521 63.3943 69.1636 63.9375 70.5311 63.9375C71.8986 63.9375 73.2101 63.3943 74.1771 62.4273C75.1441 61.4603 75.6874 60.1488 75.6874 58.7812V46.4062C75.6874 46.1327 75.5787 45.8704 75.3853 45.677C75.1919 45.4837 74.9296 45.375 74.6561 45.375H73.6249V42.9412C76.5573 42.2411 79.1688 40.5747 81.0394 38.2104C82.9099 35.846 83.9307 32.9211 83.9374 29.9062ZM49.9061 8.31188V17.5312C49.9061 17.8048 50.0148 18.0671 50.2082 18.2605C50.4016 18.4539 50.6639 18.5625 50.9374 18.5625H60.1567C59.9634 20.2999 59.2834 21.9475 58.1948 23.3154C57.1063 24.6833 55.6536 25.716 54.0039 26.2945C52.3543 26.873 50.5748 26.9739 48.8703 26.5855C47.1658 26.1971 45.6057 25.3352 44.3696 24.099C43.1334 22.8629 42.2715 21.3028 41.8831 19.5983C41.4947 17.8939 41.5956 16.1143 42.1741 14.4647C42.7527 12.815 43.7853 11.3623 45.1532 10.2738C46.5211 9.18525 48.1687 8.50518 49.9061 8.31188ZM60.2186 59.8125C60.4921 59.8125 60.7544 59.9212 60.9478 60.1145C61.1412 60.3079 61.2499 60.5702 61.2499 60.8438V61.875H44.7499V60.8438C44.7499 60.5702 44.8585 60.3079 45.0519 60.1145C45.2453 59.9212 45.5076 59.8125 45.7811 59.8125H60.2186ZM50.9374 57.75V51.5625H55.0624V57.75H50.9374ZM66.4061 45.375C66.1326 45.375 65.8703 45.4837 65.6769 45.677C65.4835 45.8704 65.3749 46.1327 65.3749 46.4062V49.5H34.4374C33.6176 49.4976 32.8321 49.1708 32.2525 48.5912C31.6728 48.0115 31.3461 47.226 31.3436 46.4062V45.375H63.3124V43.3125H31.3436V19.5938C31.3461 18.774 31.6728 17.9885 32.2525 17.4088C32.8321 16.8292 33.6176 16.5024 34.4374 16.5H39.6452C39.6142 16.8403 39.5936 17.1806 39.5936 17.5312C39.5916 19.6148 40.164 21.6585 41.248 23.4379C42.3319 25.2172 43.8855 26.6633 45.7378 27.6172C47.5901 28.5711 49.6696 28.9958 51.7476 28.8447C53.8257 28.6937 55.8218 27.9727 57.5167 26.7609C57.2603 27.7898 57.1287 28.8459 57.1249 29.9062C57.1315 32.9211 58.1523 35.846 60.0228 38.2104C61.8934 40.5747 64.505 42.2411 67.4374 42.9412V45.375H66.4061ZM73.6249 58.7812C73.6249 59.6018 73.2989 60.3887 72.7187 60.9689C72.1385 61.549 71.3516 61.875 70.5311 61.875C69.7106 61.875 68.9237 61.549 68.3435 60.9689C67.7633 60.3887 67.4374 59.6018 67.4374 58.7812V47.4375H73.6249V58.7812ZM69.4999 45.375V43.2609C69.8402 43.2816 70.1805 43.3125 70.5311 43.3125C70.8817 43.3125 71.222 43.2816 71.5624 43.2609V45.375H69.4999ZM70.5311 41.25C68.2875 41.25 66.0943 40.5847 64.2289 39.3382C62.3634 38.0918 60.9094 36.3201 60.0509 34.2473C59.1923 32.1745 58.9676 29.8937 59.4053 27.6932C59.843 25.4927 60.9234 23.4715 62.5099 21.885C64.0963 20.2986 66.1176 19.2182 68.3181 18.7805C70.5185 18.3428 72.7994 18.5674 74.8722 19.426C76.945 20.2846 78.7166 21.7385 79.9631 23.604C81.2096 25.4695 81.8749 27.6627 81.8749 29.9062C81.873 32.9142 80.6772 35.7984 78.5502 37.9254C76.4233 40.0523 73.5391 41.2481 70.5311 41.25Z" fill="#3E3D53"/>
<path d="M70.531 20.625C68.6954 20.625 66.9009 21.1693 65.3747 22.1892C63.8484 23.209 62.6588 24.6585 61.9563 26.3545C61.2538 28.0504 61.07 29.9165 61.4281 31.7169C61.7862 33.5173 62.6702 35.1711 63.9682 36.4691C65.2662 37.7671 66.92 38.651 68.7204 39.0092C70.5207 39.3673 72.3869 39.1835 74.0828 38.481C75.7788 37.7785 77.2283 36.5889 78.2481 35.0626C79.268 33.5363 79.8123 31.7419 79.8123 29.9062C79.8093 27.4456 78.8305 25.0867 77.0906 23.3467C75.3506 21.6068 72.9917 20.628 70.531 20.625ZM70.531 37.125C69.1033 37.125 67.7076 36.7016 66.5205 35.9084C65.3334 35.1152 64.4082 33.9878 63.8618 32.6687C63.3154 31.3497 63.1725 29.8982 63.451 28.4979C63.7295 27.0976 64.4171 25.8114 65.4266 24.8018C66.4362 23.7923 67.7224 23.1047 69.1227 22.8262C70.523 22.5477 71.9745 22.6906 73.2935 23.237C74.6126 23.7834 75.74 24.7086 76.5332 25.8957C77.3264 27.0828 77.7498 28.4785 77.7498 29.9062C77.7476 31.8201 76.9864 33.655 75.6331 35.0083C74.2798 36.3616 72.4449 37.1228 70.531 37.125Z" fill="#3E3D53"/>
<path d="M65.3748 29.9062H67.4373C67.4373 29.0857 67.7633 28.2988 68.3435 27.7186C68.9236 27.1384 69.7106 26.8125 70.5311 26.8125V24.75C69.164 24.7516 67.8535 25.2954 66.8869 26.262C65.9202 27.2287 65.3765 28.5392 65.3748 29.9062Z" fill="#3E3D53"/>
<path d="M69.4998 49.5H71.5623V51.5625H69.4998V49.5Z" fill="#3E3D53"/>
<path d="M69.4998 53.625H71.5623V59.8125H69.4998V53.625Z" fill="#3E3D53"/>
</svg>
