<svg width="88" height="73" viewBox="0 0 88 73" fill="none" xmlns="http://www.w3.org/2000/svg">
<path fill-rule="evenodd" clip-rule="evenodd" d="M27.5002 71C42.688 71 55.0002 58.6878 55.0002 43.5C55.0002 28.3122 42.688 16 27.5002 16C12.3124 16 0.000183105 28.3122 0.000183105 43.5C0.000183105 58.6878 12.3124 71 27.5002 71Z" fill="#F5C93C"/>
<path d="M74.3127 43.3438H76.5939V60.4531C76.5942 61.4545 76.3308 62.4384 75.8301 63.3057L73.8554 62.1631C74.1554 61.6432 74.3132 61.0534 74.3127 60.4531V43.3438ZM76.5939 26.2344V10.2656C76.5915 8.14877 75.7496 6.11929 74.2527 4.62245C72.7559 3.1256 70.7264 2.28363 68.6096 2.28125H36.6721C35.2829 2.28068 33.9414 2.78773 32.8999 3.70703L34.4092 5.41797C35.0339 4.86645 35.8387 4.56222 36.6721 4.5625H68.6096C70.1216 4.5642 71.5712 5.16561 72.6404 6.23478C73.7096 7.30396 74.311 8.75358 74.3127 10.2656V26.2344H76.5939ZM69.7502 25.0938V20.5312H62.9064C61.3944 20.5296 59.9448 19.9281 58.8756 18.859C57.8064 17.7898 57.205 16.3402 57.2033 14.8281V9.125H32.1096C31.2023 9.12606 30.3326 9.48691 29.6911 10.1284C29.0496 10.7699 28.6887 11.6397 28.6877 12.5469V43.3438H26.4064V12.5469C26.4081 11.0348 27.0095 9.58521 28.0787 8.51603C29.1479 7.44686 30.5975 6.84545 32.1096 6.84375H58.3439C58.6277 6.84379 58.9012 6.94952 59.1113 7.14031L71.6582 18.5466C71.7757 18.6535 71.8697 18.7838 71.934 18.9292C71.9983 19.0745 72.0314 19.2317 72.0314 19.3906V25.0938H69.7502ZM67.9404 18.25L59.4846 10.5628V14.8281C59.4856 15.7353 59.8465 16.6051 60.488 17.2466C61.1295 17.8881 61.9992 18.2489 62.9064 18.25H67.9404ZM69.7502 65.0156C69.7491 65.9228 69.3883 66.7926 68.7468 67.4341C68.1053 68.0756 67.2355 68.4364 66.3283 68.4375H32.1096C31.2023 68.4364 30.3326 68.0756 29.6911 67.4341C29.0496 66.7926 28.6887 65.9228 28.6877 65.0156V59.3125H26.4064V65.0156C26.4081 66.5277 27.0095 67.9773 28.0787 69.0465C29.1479 70.1156 30.5975 70.717 32.1096 70.7188H66.3283C67.8403 70.717 69.29 70.1156 70.3591 69.0465C71.4283 67.9773 72.0297 66.5277 72.0314 65.0156V42.2031H69.7502V65.0156ZM36.6721 30.7969V33.0781H42.3752V30.7969H36.6721ZM34.3908 30.7969H32.1096V33.0781H34.3908V30.7969ZM36.6721 37.6406H43.5158V35.3594H36.6721V37.6406ZM34.3908 35.3594H32.1096V37.6406H34.3908V35.3594ZM36.6721 42.2031H44.6564V39.9219H36.6721V42.2031ZM32.1096 42.2031H34.3908V39.9219H32.1096V42.2031ZM57.2033 46.7656H59.4846V44.4844H57.2033V46.7656ZM67.4689 44.4844H61.7658V46.7656H67.4689V44.4844ZM57.2033 51.3281H59.4846V49.0469H57.2033V51.3281ZM61.7658 51.3281H67.4689V49.0469H61.7658V51.3281ZM61.7658 55.8906H67.4689V53.6094H61.7658V55.8906ZM57.2033 58.1719V60.4531H59.4846V58.1719H57.2033ZM61.7658 60.4531H67.4689V58.1719H61.7658V60.4531ZM45.7971 26.2344H32.1096V28.5156H45.7971V26.2344ZM52.6408 65.0156H67.4689V62.7344H52.6408V65.0156ZM32.1096 65.0156H44.6564V62.7344H32.1096V65.0156ZM45.7971 23.9531H50.3596V21.6719H45.7971V23.9531ZM56.0627 17.1094H45.7971V19.3906H56.0627V17.1094ZM32.6799 23.9531C32.5286 23.9531 32.3836 23.893 32.2766 23.7861C32.1696 23.6791 32.1096 23.5341 32.1096 23.3828V15.9688C32.1096 15.7569 32.1685 15.5493 32.2799 15.3691C32.3913 15.189 32.5506 15.0433 32.74 14.9486L37.3025 12.6674C37.4609 12.5881 37.6356 12.5469 37.8127 12.5469C37.9898 12.5469 38.1644 12.5881 38.3228 12.6674L42.8853 14.9486C43.0748 15.0433 43.2341 15.189 43.3455 15.3691C43.4568 15.5493 43.5158 15.7569 43.5158 15.9688V23.3828C43.5158 23.5341 43.4557 23.6791 43.3488 23.7861C43.2418 23.893 43.0968 23.9531 42.9455 23.9531H32.6799ZM41.2346 19.3906H38.9533V21.6719H41.2346V19.3906ZM34.3908 17.1094H41.2346V16.6737L37.8127 14.9627L34.3908 16.6737V17.1094ZM34.3908 21.6719H36.6721V19.3906H34.3908V21.6719ZM83.4377 44.4844C83.4377 45.493 82.1823 45.9829 81.4905 45.2909C79.7923 43.5834 77.7723 42.2296 75.5473 41.308C73.3224 40.3864 70.9368 39.9153 68.5286 39.9219H56.0627V43.3438C56.0626 43.575 55.9923 43.8008 55.861 43.9912C55.7296 44.1816 55.5435 44.3276 55.3274 44.4098C55.1112 44.4919 54.8751 44.5065 54.6505 44.4514C54.4258 44.3963 54.2232 44.2743 54.0696 44.1014L44.9446 33.8358C44.7591 33.627 44.6566 33.3574 44.6566 33.0781C44.6566 32.7988 44.7591 32.5292 44.9446 32.3205L54.0696 22.0548C54.2232 21.882 54.4258 21.7599 54.6505 21.7049C54.8751 21.6498 55.1112 21.6643 55.3274 21.7465C55.5435 21.8287 55.7296 21.9746 55.861 22.165C55.9923 22.3554 56.0626 22.5812 56.0627 22.8125V26.2344H65.1877C70.0262 26.2399 74.6649 28.1644 78.0863 31.5858C81.5076 35.0071 83.4322 39.6459 83.4377 44.4844ZM80.9283 41.7822C80.2861 38.0718 78.3553 34.7069 75.4759 32.2801C72.5966 29.8533 68.9533 28.5202 65.1877 28.5156H54.9221C54.6195 28.5156 54.3294 28.3955 54.1155 28.1815C53.9016 27.9676 53.7814 27.6775 53.7814 27.375V25.8126L47.3226 33.0781L53.7814 40.3436V38.7812C53.7814 38.4787 53.9016 38.1886 54.1155 37.9747C54.3294 37.7608 54.6195 37.6406 54.9221 37.6406H68.5286C73.0036 37.6277 77.3593 39.0826 80.9283 41.7822ZM37.8127 60.4531C32.9742 60.4476 28.3354 58.5231 24.9141 55.1017C21.4927 51.6804 19.5682 47.0416 19.5627 42.2031C19.5627 41.9775 19.6296 41.757 19.7549 41.5694C19.8802 41.3818 20.0584 41.2356 20.2668 41.1493C20.4752 41.063 20.7046 41.0404 20.9258 41.0844C21.1471 41.1284 21.3504 41.237 21.5099 41.3966C23.2081 43.1041 25.2281 44.4579 27.453 45.3795C29.6779 46.3011 32.0636 46.7722 34.4718 46.7656H46.9377V43.3438C46.9377 43.1125 47.0081 42.8867 47.1394 42.6963C47.2707 42.5059 47.4568 42.3599 47.673 42.2777C47.8892 42.1956 48.1253 42.181 48.3499 42.2361C48.5745 42.2912 48.7771 42.4132 48.9308 42.5861L58.0558 52.8517C58.2413 53.0605 58.3438 53.3301 58.3438 53.6094C58.3438 53.8887 58.2413 54.1583 58.0558 54.367L48.9308 64.6327C48.7771 64.8055 48.5745 64.9276 48.3499 64.9826C48.1253 65.0377 47.8892 65.0232 47.673 64.941C47.4568 64.8588 47.2707 64.7129 47.1394 64.5225C47.0081 64.3321 46.9377 64.1063 46.9377 63.875V60.4531H37.8127ZM37.8127 58.1719H48.0783C48.3808 58.1719 48.6709 58.292 48.8848 58.506C49.0988 58.7199 49.2189 59.01 49.2189 59.3125V60.8749L55.6777 53.6094L49.2189 46.3439V47.9062C49.2189 48.2088 49.0988 48.4989 48.8848 48.7128C48.6709 48.9267 48.3808 49.0469 48.0783 49.0469H34.4718C29.9968 49.0598 25.641 47.6049 22.0721 44.9053C22.7143 48.6157 24.6451 51.9806 27.5244 54.4074C30.4038 56.8342 34.047 58.1673 37.8127 58.1719Z" fill="#3E3D53"/>
</svg>
