<svg width="90" height="71" viewBox="0 0 90 71" fill="none" xmlns="http://www.w3.org/2000/svg">
<path fill-rule="evenodd" clip-rule="evenodd" d="M26.9999 70C41.9116 70 53.9999 57.9117 53.9999 43C53.9999 28.0883 41.9116 16 26.9999 16C12.0882 16 -0.00012207 28.0883 -0.00012207 43C-0.00012207 57.9117 12.0882 70 26.9999 70Z" fill="#F5C93C"/>
<g clip-path="url(#clip0)">
<path d="M68.2418 18.3226H40.758C39.4948 18.3226 38.4676 19.3497 38.4676 20.6129V27.4839C38.4676 28.3276 38.9312 29.0585 39.6128 29.456V32.3827C38.9312 32.7802 38.4676 33.5111 38.4676 34.3548V41.2258C38.4676 42.0696 38.9312 42.8004 39.6128 43.198V46.1246C38.9312 46.5222 38.4676 47.253 38.4676 48.0968V54.9677C38.4676 55.8115 38.9312 56.5423 39.6128 56.9399V59.8665C38.9312 60.2641 38.4676 60.9949 38.4676 61.8387V68.7097C38.4676 69.9728 39.4948 71 40.758 71H68.2418C69.505 71 70.5322 69.9728 70.5322 68.7097V61.8387C70.5322 60.9949 70.0686 60.2641 69.387 59.8665V56.9399C70.0686 56.5423 70.5322 55.8115 70.5322 54.9677V48.0968C70.5322 47.253 70.0686 46.5222 69.387 46.1246V43.198C70.0686 42.8004 70.5322 42.0696 70.5322 41.2258V34.3548C70.5322 33.5111 70.0686 32.7802 69.387 32.3827V29.456C70.0686 29.0585 70.5322 28.3276 70.5322 27.4839V20.6129C70.5322 19.3497 69.505 18.3226 68.2418 18.3226ZM40.758 20.6129H68.2418L68.243 27.4839H40.758V20.6129ZM41.9031 59.5484V57.2581H67.0967V59.5484H41.9031ZM40.758 54.9677V48.0968H68.2418L68.243 54.9677H40.758ZM41.9031 45.8064V43.5161H67.0967V45.8064H41.9031ZM40.758 41.2258V34.3548H68.2418L68.243 41.2258H40.758ZM41.9031 32.0645V29.7742H67.0967V32.0645H41.9031ZM40.758 68.7097V61.8387H68.2418L68.243 68.7097H40.758Z" fill="#3E3D53"/>
<path d="M29.3064 52.6774H31.5967V54.9677H29.3064V52.6774Z" fill="#3E3D53"/>
<path d="M29.3064 57.2581H31.5967V59.5484H29.3064V57.2581Z" fill="#3E3D53"/>
<path d="M77.4031 52.6774H79.6934V54.9677H77.4031V52.6774Z" fill="#3E3D53"/>
<path d="M79.6934 45.8064H83.3397C83.8139 47.1361 85.0737 48.0968 86.5644 48.0968C88.4583 48.0968 89.9999 46.5552 89.9999 44.6613C89.9999 42.7674 88.4583 41.2258 86.5644 41.2258C85.0737 41.2258 83.8139 42.1864 83.3397 43.5161H79.6934V34.3548H80.8386C85.89 34.3548 89.9999 30.245 89.9999 25.1935C89.9999 20.9288 87.0671 17.3468 83.1149 16.3297C83.1177 16.2302 83.1289 16.1329 83.1289 16.0323C83.1289 8.45451 76.9647 2.29032 69.387 2.29032C65.4315 2.29032 61.6868 4.00806 59.0934 6.94086C55.9291 2.71864 50.8939 0 45.3386 0C36.2528 0 28.8115 7.09631 28.2193 16.0356C28.2003 16.0345 28.1807 16.0323 28.1612 16.0323C23.1097 16.0323 18.9999 20.1421 18.9999 25.1935C18.9999 30.245 23.1097 34.3548 28.1612 34.3548H29.3063V43.5161H25.66C25.1859 42.1864 23.9261 41.2258 22.4354 41.2258C20.5415 41.2258 18.9999 42.7674 18.9999 44.6613C18.9999 46.5552 20.5415 48.0968 22.4354 48.0968C23.9261 48.0968 25.1859 47.1361 25.66 45.8064H29.3063V50.3871H31.5967V40.0806H33.887V66.4194H31.5967V61.8387H29.3063V66.4194H25.66C25.1859 65.0897 23.9261 64.129 22.4354 64.129C20.5415 64.129 18.9999 65.6706 18.9999 67.5645C18.9999 69.4584 20.5415 71 22.4354 71C23.9261 71 25.1859 70.0394 25.66 68.7097H33.887V71H36.1773V29.7742H33.887V37.7903H31.5967V32.0645H28.1612C24.3717 32.0645 21.2902 28.983 21.2902 25.1935C21.2902 21.4041 24.3717 18.3226 28.1612 18.3226C30.0232 18.3226 31.7661 19.0556 33.0695 20.3848L34.7056 18.7828C33.5286 17.5806 32.0775 16.7547 30.494 16.3415C30.9313 8.52217 37.4119 2.29032 45.3386 2.29032C52.6983 2.29032 59.0336 7.77569 60.0758 15.0498L62.3421 14.7255C62.0452 12.6549 61.3742 10.7118 60.4091 8.95608C62.5753 6.21451 65.8771 4.58065 69.387 4.58065C75.7016 4.58065 80.8386 9.71766 80.8386 16.0323C78.3559 16.0323 76.0309 17.0091 74.2942 18.7828L75.9303 20.3848C77.2337 19.0556 78.9766 18.3226 80.8386 18.3226C84.628 18.3226 87.7096 21.4041 87.7096 25.1935C87.7096 28.983 84.628 32.0645 80.8386 32.0645H77.4031V37.7903H75.1128V29.7742H72.8225V71H75.1128V68.7097H83.3397C83.8139 70.0394 85.0737 71 86.5644 71C88.4583 71 89.9999 69.4584 89.9999 67.5645C89.9999 65.6706 88.4583 64.129 86.5644 64.129C85.0737 64.129 83.8139 65.0897 83.3397 66.4194H79.6934V61.8387H77.4031V66.4194H75.1128V40.0806H77.4031V50.3871H79.6934V45.8064ZM86.5644 43.5161C87.1951 43.5161 87.7096 44.0294 87.7096 44.6613C87.7096 45.2931 87.1951 45.8064 86.5644 45.8064C85.9337 45.8064 85.4192 45.2931 85.4192 44.6613C85.4192 44.0294 85.9337 43.5161 86.5644 43.5161ZM22.4354 45.8064C21.8046 45.8064 21.2902 45.2931 21.2902 44.6613C21.2902 44.0294 21.8046 43.5161 22.4354 43.5161C23.0661 43.5161 23.5805 44.0294 23.5805 44.6613C23.5805 45.2931 23.0661 45.8064 22.4354 45.8064ZM22.4354 68.7097C21.8046 68.7097 21.2902 68.1964 21.2902 67.5645C21.2902 66.9327 21.8046 66.4194 22.4354 66.4194C23.0661 66.4194 23.5805 66.9327 23.5805 67.5645C23.5805 68.1964 23.0661 68.7097 22.4354 68.7097ZM86.5644 66.4194C87.1951 66.4194 87.7096 66.9327 87.7096 67.5645C87.7096 68.1964 87.1951 68.7097 86.5644 68.7097C85.9337 68.7097 85.4192 68.1964 85.4192 67.5645C85.4192 66.9327 85.9337 66.4194 86.5644 66.4194Z" fill="#3E3D53"/>
<path d="M77.4031 57.2581H79.6934V59.5484H77.4031V57.2581Z" fill="#3E3D53"/>
<path d="M43.0483 22.9033H45.3387V25.1936H43.0483V22.9033Z" fill="#3E3D53"/>
<path d="M47.6291 22.9033H49.9194V25.1936H47.6291V22.9033Z" fill="#3E3D53"/>
<path d="M59.0806 36.6451H61.3709V38.9355H59.0806V36.6451Z" fill="#3E3D53"/>
<path d="M63.6611 36.6451H65.9514V38.9355H63.6611V36.6451Z" fill="#3E3D53"/>
<path d="M41.9032 50.3871H44.1935V52.6774H41.9032V50.3871Z" fill="#3E3D53"/>
<path d="M46.4837 50.3871H48.774V52.6774H46.4837V50.3871Z" fill="#3E3D53"/>
<path d="M59.0806 64.129H61.3709V66.4194H59.0806V64.129Z" fill="#3E3D53"/>
<path d="M63.6611 64.129H65.9514V66.4194H63.6611V64.129Z" fill="#3E3D53"/>
</g>
<defs>
<clipPath id="clip0">
<rect width="71" height="71" fill="white" transform="translate(18.9999)"/>
</clipPath>
</defs>
</svg>
