<svg width="89" height="67" viewBox="0 0 89 67" fill="none" xmlns="http://www.w3.org/2000/svg">
<path fill-rule="evenodd" clip-rule="evenodd" d="M25.5001 67C39.5834 67 51.0001 55.8071 51.0001 42C51.0001 28.1929 39.5834 17 25.5001 17C11.4169 17 0.00012207 28.1929 0.00012207 42C0.00012207 55.8071 11.4169 67 25.5001 67Z" fill="#F5C93C"/>
<g clip-path="url(#clip0)">
<path d="M39.2531 64.2521H39.2179C38.4951 64.2521 37.9093 64.8379 37.9093 65.5607C37.9093 66.2835 38.4951 66.8693 39.2179 66.8693H39.2531C39.9759 66.8693 40.5617 66.2835 40.5617 65.5607C40.5617 64.8379 39.9759 64.2521 39.2531 64.2521Z" fill="#3E3D53"/>
<path d="M79.7399 64.2521H79.7047C78.9819 64.2521 78.3961 64.8379 78.3961 65.5607C78.3961 66.2835 78.9819 66.8693 79.7047 66.8693H79.7399C80.4627 66.8693 81.0485 66.2835 81.0485 65.5607C81.0485 64.8379 80.4627 64.2521 79.7399 64.2521Z" fill="#3E3D53"/>
<path d="M82.3705 54.155C83.24 52.8602 83.7487 51.3032 83.7487 49.6296V46.2309C83.7487 46.2268 83.7487 46.2232 83.7487 46.2191V46.2155C83.7487 42.1747 80.7869 38.8143 76.921 38.1866V35.4181C76.921 33.5421 75.3946 32.0157 73.5186 32.0157H56.6776V28.5975C64.0037 27.934 69.7635 21.7591 69.7635 14.2633C69.7635 6.32633 63.3059 -0.131287 55.369 -0.131287C47.432 -0.131287 40.9744 6.32633 40.9744 14.2633C40.9744 21.7591 46.7343 27.934 54.0604 28.5975V32.0157H37.2194C35.3434 32.0157 33.817 33.5421 33.817 35.4181V38.1866C29.951 38.8143 26.9893 42.1752 26.9893 46.2155V49.6296C26.9893 51.3032 27.4979 52.8602 28.3679 54.1545C24.3716 56.5202 21.8689 60.8299 21.8689 65.5602C21.8689 66.283 22.4547 66.8688 23.1775 66.8688H33.9877C34.71 66.8688 35.2963 66.283 35.2963 65.5602C35.2963 64.8374 34.71 64.2516 33.9877 64.2516H24.5664C24.9932 60.7839 27.1002 57.7368 30.2219 56.1164C31.5863 57.1505 33.2854 57.7654 35.1256 57.7654C36.9658 57.7654 38.665 57.1505 40.0293 56.1164C43.151 57.7368 45.258 60.7839 45.6849 64.2516H43.0125C42.2902 64.2516 41.7039 64.8374 41.7039 65.5597C41.7039 66.2825 42.2902 66.8683 43.0125 66.8683H74.4745C75.1973 66.8683 75.7831 66.2825 75.7831 65.5597C75.7831 64.8374 75.1973 64.2516 74.4745 64.2516H65.0531C65.4799 60.7834 67.5875 57.7368 70.7087 56.1164C72.0735 57.1505 73.7721 57.7654 75.6124 57.7654C77.4526 57.7654 79.1517 57.1505 80.516 56.1164C83.6377 57.7368 85.7448 60.7834 86.1716 64.2516H83.4992C82.7764 64.2516 82.1906 64.8374 82.1906 65.5597C82.1906 66.2825 82.7764 66.8683 83.4992 66.8683H87.5605C88.2827 66.8683 88.8691 66.2825 88.8691 65.5597C88.8691 60.8299 86.3664 56.5202 82.3705 54.155ZM43.5916 14.2633C43.5916 7.76885 48.8751 2.48591 55.369 2.48591C61.8629 2.48591 67.1464 7.76885 67.1464 14.2633C67.1464 20.7572 61.8629 26.0406 55.369 26.0406C48.8751 26.0406 43.5916 20.7572 43.5916 14.2633ZM81.0119 45.0741C80.1633 44.955 79.1701 44.4586 78.7351 43.927C78.298 43.3923 77.5211 43.2896 76.9598 43.6919C75.2494 44.9182 72.1451 46.0514 70.152 45.4171C70.5405 42.7513 72.8408 40.6969 75.6124 40.6969C78.2643 40.6969 80.4843 42.577 81.0119 45.0741ZM35.1256 40.6969C37.7776 40.6969 39.9976 42.577 40.5251 45.0741C39.6766 44.955 38.6834 44.4586 38.2484 43.927C37.8113 43.3923 37.0338 43.2896 36.4731 43.6919C34.7627 44.9182 31.6588 46.0514 29.6653 45.4171C30.0538 42.7508 32.354 40.6969 35.1256 40.6969ZM35.1256 55.1482C33.6872 55.1482 32.3755 54.5946 31.3925 53.6898C31.3506 53.6438 31.3061 53.6014 31.2591 53.5626C30.2404 52.5607 29.6065 51.1677 29.6065 49.6296V48.0941C30.0451 48.1753 30.4949 48.2127 30.9504 48.2127C33.1489 48.2127 35.4645 47.3478 37.1003 46.3965C38.0408 47.0876 39.3535 47.6422 40.6447 47.7086V49.6296C40.6447 51.1662 40.0124 52.5581 38.9952 53.56C38.9461 53.5999 38.9001 53.6438 38.8572 53.6914C37.8737 54.5951 36.563 55.1482 35.1256 55.1482ZM41.8833 54.155C42.7533 52.8602 43.2614 51.3032 43.2614 49.6296V46.2309C43.2614 46.2268 43.2614 46.2232 43.2614 46.2191V46.2155C43.2614 42.1747 40.3002 38.8143 36.4342 38.1866V35.4181C36.4342 34.9923 36.7936 34.6329 37.2194 34.6329H54.0604V38.1866C50.1944 38.8143 47.2327 42.1752 47.2327 46.2155V49.6296C47.2327 51.3032 47.7413 52.8602 48.6108 54.1545C47.3375 54.9085 46.2042 55.8664 45.2488 56.9981C44.3047 55.8817 43.1719 54.9177 41.8833 54.155ZM62.4221 64.2516H48.3159C48.141 62.4784 47.615 60.7874 46.7926 59.2636C47.7628 57.9413 49.0131 56.8693 50.4643 56.1159C51.8291 57.1505 53.5283 57.7654 55.369 57.7654C57.2097 57.7654 58.9088 57.1505 60.2737 56.1159C61.7249 56.8693 62.9752 57.9413 63.9454 59.2636C63.1229 60.7874 62.5969 62.4784 62.4221 64.2516ZM49.8499 48.0941C50.2885 48.1753 50.7383 48.2121 51.1937 48.2121C53.3923 48.2121 55.7079 47.3472 57.3436 46.3965C58.2842 47.0871 59.5969 47.6417 60.8881 47.7086V49.6296C60.8881 51.1667 60.2558 52.5586 59.238 53.5605C59.1895 53.6004 59.1435 53.6444 59.1005 53.6914C58.1175 54.5951 56.8069 55.1482 55.369 55.1482C53.9305 55.1482 52.6194 54.5951 51.6364 53.6904C51.594 53.6444 51.5495 53.6014 51.502 53.5621C50.4832 52.5602 49.8499 51.1677 49.8499 49.6296V48.0941ZM58.4917 43.927C58.0547 43.3923 57.2777 43.2896 56.7164 43.6919C55.0061 44.9182 51.9017 46.0514 49.9087 45.4171C50.2971 42.7513 52.5974 40.6969 55.369 40.6969C58.0209 40.6969 60.241 42.577 60.7685 45.0741C59.9199 44.9545 58.9267 44.4586 58.4917 43.927ZM65.4891 56.9981C64.5338 55.8664 63.4005 54.9085 62.1272 54.1545C62.9967 52.8597 63.5053 51.3027 63.5053 49.6291V46.2309C63.5053 46.2268 63.5053 46.2227 63.5053 46.2186V46.2155C63.5053 42.1747 60.5436 38.8143 56.6776 38.186V34.6329H73.5186C73.9444 34.6329 74.3038 34.9923 74.3038 35.4181V38.186C70.4378 38.8143 67.4766 42.1747 67.4766 46.2155V49.6291C67.4766 51.3032 67.9847 52.8597 68.8547 54.1545C67.566 54.9177 66.4333 55.8817 65.4891 56.9981ZM71.8793 53.6893C71.8374 53.6438 71.7934 53.6014 71.7464 53.5631C70.7271 52.5612 70.0938 51.1682 70.0938 49.6296V48.0941C70.5318 48.1753 70.9817 48.2121 71.4371 48.2121C73.6357 48.2121 75.9513 47.3472 77.587 46.3965C78.5276 47.0871 79.8403 47.6417 81.1315 47.7086V49.6296C81.1315 51.1667 80.4991 52.5581 79.4814 53.56C79.4328 53.5999 79.3868 53.6438 79.3439 53.6914C78.3609 54.5951 77.0498 55.1482 75.6124 55.1482C74.1739 55.1482 72.8623 54.5946 71.8793 53.6893Z" fill="#3E3D53"/>
<path d="M56.2941 19.2266C55.7829 18.7155 54.9548 18.7155 54.4436 19.2266C53.9325 19.7378 53.9325 20.5664 54.4436 21.0771C54.9548 21.5882 55.7829 21.5882 56.2941 21.0771C56.8052 20.5664 56.8052 19.7378 56.2941 19.2266Z" fill="#3E3D53"/>
<path d="M61.8462 13.6748C62.3574 14.186 63.186 14.186 63.6972 13.6748C64.2078 13.1642 64.2078 12.3356 63.6972 11.8244C61.4725 9.59976 58.5149 8.375 55.3692 8.375C52.2234 8.375 49.2658 9.59976 47.0412 11.8244C46.5305 12.335 46.5305 13.1636 47.0412 13.6748C47.2968 13.9304 47.6316 14.0582 47.9664 14.0582C48.3012 14.0582 48.6365 13.9304 48.8921 13.6748C50.6219 11.945 52.9222 10.9922 55.3692 10.9922C57.8161 10.9922 60.1164 11.945 61.8462 13.6748Z" fill="#3E3D53"/>
<path d="M58.1454 17.3762C58.4005 17.6318 58.7358 17.7596 59.0706 17.7596C59.4054 17.7596 59.7403 17.6318 59.9958 17.3762C60.507 16.8651 60.507 16.0365 59.9958 15.5258C57.4446 12.9746 53.2939 12.9746 50.7426 15.5258C50.2315 16.0365 50.2315 16.8651 50.7426 17.3762C51.2538 17.8874 52.0819 17.8874 52.5931 17.3762C54.124 15.8458 56.6144 15.8458 58.1454 17.3762Z" fill="#3E3D53"/>
</g>
<defs>
<clipPath id="clip0">
<rect width="67" height="67" fill="white" transform="translate(22.0001)"/>
</clipPath>
</defs>
</svg>
