<svg width="104" height="118" viewBox="0 0 104 118" fill="none" xmlns="http://www.w3.org/2000/svg">
<path d="M52 19L86.6411 39V59V79L52 99L17.359 79V39L52 19Z" fill="#85C418"/>
<g filter="url(#filter0_f)">
<path d="M6.5 32.789L52 6.57703L97.5 32.789V59V85.211L52 111.423L6.5 85.211V32.789Z" stroke="#85C418"/>
</g>
<path d="M62 63.92V66.92C62.0011 67.1985 61.9441 67.4741 61.8325 67.7293C61.7209 67.9845 61.5573 68.2136 61.3521 68.4018C61.1468 68.5901 60.9046 68.7335 60.6407 68.8227C60.3769 68.9119 60.0974 68.945 59.82 68.92C56.7428 68.5856 53.787 67.5341 51.19 65.85C48.7738 64.3146 46.7253 62.2661 45.19 59.85C43.5 57.2412 42.4482 54.271 42.12 51.18C42.095 50.9034 42.1279 50.6247 42.2165 50.3616C42.3051 50.0985 42.4476 49.8567 42.6348 49.6516C42.822 49.4465 43.0498 49.2827 43.3038 49.1705C43.5578 49.0583 43.8323 49.0002 44.11 49H47.11C47.5953 48.9952 48.0658 49.1671 48.4338 49.4835C48.8017 49.8 49.0421 50.2394 49.11 50.72C49.2366 51.68 49.4714 52.6227 49.81 53.53C49.9445 53.8879 49.9737 54.2769 49.8939 54.6509C49.8141 55.0248 49.6289 55.3681 49.36 55.64L48.09 56.91C49.5135 59.4135 51.5864 61.4864 54.09 62.91L55.36 61.64C55.6319 61.3711 55.9751 61.1858 56.3491 61.1061C56.7231 61.0263 57.1121 61.0554 57.47 61.19C58.3773 61.5285 59.3199 61.7634 60.28 61.89C60.7658 61.9585 61.2094 62.2032 61.5265 62.5775C61.8437 62.9518 62.0122 63.4296 62 63.92Z" stroke="white" stroke-width="2" stroke-linecap="round" stroke-linejoin="round"/>
<defs>
<filter id="filter0_f" x="0" y="0" width="104" height="118" filterUnits="userSpaceOnUse" color-interpolation-filters="sRGB">
<feFlood flood-opacity="0" result="BackgroundImageFix"/>
<feBlend mode="normal" in="SourceGraphic" in2="BackgroundImageFix" result="shape"/>
<feGaussianBlur stdDeviation="3" result="effect1_foregroundBlur"/>
</filter>
</defs>
</svg>
