<svg width="117" height="87" viewBox="0 0 117 87" fill="none" xmlns="http://www.w3.org/2000/svg">
<path d="M71.6088 35.7534H53.9871C53.9871 25.7425 45.833 17.6026 35.8044 17.6026C25.7758 17.6026 17.6216 25.7425 17.6216 35.7534H0C0 16.0295 16.0577 0 35.8163 0C55.575 0 71.6327 16.0295 71.6327 35.7534H71.6088Z" fill="url(#paint0_linear)"/>
<path d="M0 49.4589H2.65041V59.0169L7.46173 53.8923H10.6852L6.08878 58.5879L10.8643 65.4406H7.7602L4.27408 60.4352L2.65041 62.1275V65.4406H0.0119388V49.4589H0Z" fill="white"/>
<path d="M19.2692 65.4287V63.9986C18.4812 64.952 17.2754 65.6671 15.5204 65.6671C13.3237 65.6671 11.3896 64.4157 11.3896 62.056C11.3896 59.4937 13.3834 58.2661 16.0815 58.2661C17.4903 58.2661 18.3857 58.4687 19.2811 58.7428V58.5283C19.2811 56.9313 18.2663 56.0494 16.4158 56.0494C15.1264 56.0494 14.1474 56.3355 13.0968 56.7645L12.3805 54.6431C13.658 54.0711 14.8876 53.6897 16.7979 53.6897C20.2243 53.6897 21.8957 55.4774 21.8957 58.576V65.4287H19.2692V65.4168V65.4287ZM19.3408 60.5901C18.6603 60.3279 17.7171 60.1134 16.6904 60.1134C15.019 60.1134 14.04 60.7927 14.04 61.9487C14.04 63.0452 15.0309 63.653 16.2845 63.653C18.0395 63.653 19.3527 62.6638 19.3527 61.2218V60.5782H19.3408V60.5901Z" fill="white"/>
<path d="M23.794 63.6172L30.4797 56.0374H24.0328V53.8684H33.8703V55.6918L27.1846 63.2716H33.8703V65.4406H23.794V63.6172H23.782H23.794Z" fill="white"/>
<path d="M43.2661 65.4287V63.9986C42.4782 64.952 41.2723 65.6671 39.5174 65.6671C37.3206 65.6671 35.3865 64.4157 35.3865 62.056C35.3865 59.4937 37.3803 58.2661 40.0785 58.2661C41.4872 58.2661 42.3827 58.4687 43.2781 58.7428V58.5283C43.2781 56.9313 42.2633 56.0494 40.4128 56.0494C39.1234 56.0494 38.1444 56.3355 37.0938 56.7645L36.3775 54.6431C37.6549 54.0711 38.8846 53.6897 40.7948 53.6897C44.2212 53.6897 45.8927 55.4774 45.8927 58.576V65.4287H43.2661V65.4168V65.4287ZM43.3378 60.5901C42.6572 60.3279 41.7141 60.1134 40.6873 60.1134C39.0159 60.1134 38.0369 60.7927 38.0369 61.9487C38.0369 63.0452 39.0279 63.653 40.2814 63.653C42.0364 63.653 43.3497 62.6638 43.3497 61.2218V60.5782H43.3378V60.5901Z" fill="white"/>
<path d="M48.7699 49.4589H51.4203V59.0169L56.2316 53.8923H59.4551L54.8467 58.5998L59.6222 65.4526H56.554L53.0679 60.4471L51.4442 62.1394V65.4526H48.7938V49.4589H48.7818H48.7699ZM61.1862 49.4589H63.8366V55.68C64.5888 54.5835 65.6633 53.6301 67.4541 53.6301C70.0806 53.6301 71.5849 55.382 71.5849 58.0754V65.4406H68.9345V58.8858C68.9345 57.0982 68.0391 56.0613 66.4512 56.0613C64.8992 56.0613 63.8247 57.1339 63.8247 58.9216V65.4526H61.1743V49.4589H61.1862ZM73.4832 63.9271L74.677 62.1394C75.9306 63.0928 77.3036 63.5695 78.4736 63.5695C79.6197 63.5695 80.2644 63.0928 80.2644 62.2824C80.2644 61.4243 79.1421 61.1264 77.8766 60.7331L77.6737 60.6616C75.9664 60.1611 74.0562 59.4698 74.0562 57.2054C74.0562 55.0126 75.8829 53.6778 78.187 53.6778C79.6197 53.6778 81.2195 54.1783 82.4492 54.9887L81.3986 56.8717C80.2763 56.1924 79.0944 55.7753 78.1274 55.7753C77.1006 55.7753 76.5037 56.252 76.5037 56.9671C76.5037 57.7537 77.6259 58.1112 78.8914 58.5164L79.1063 58.5879C80.8016 59.1123 82.7118 59.875 82.7118 62.0083C82.7118 64.4395 80.8255 65.6432 78.4139 65.6432C76.6241 65.6159 74.8925 65.0048 73.4832 63.9032V63.9271ZM85.5413 62.2586V56.1805H84.0729V53.9161H85.5413V50.7341H88.1917V53.9161H91.2958V56.1805H88.1917V61.8534C88.1917 62.8783 88.717 63.2835 89.6244 63.2835C90.2213 63.2835 90.7466 63.1643 91.2719 62.8902V65.0593C90.5414 65.4617 89.7185 65.6671 88.8842 65.6552C86.9262 65.6552 85.5413 64.7971 85.5413 62.2586Z" fill="white"/>
<path d="M100.692 65.4287V63.9986C99.9036 64.952 98.6978 65.6671 96.9428 65.6671C94.7461 65.6671 92.812 64.4157 92.812 62.056C92.812 59.4937 94.8058 58.2661 97.504 58.2661C98.9127 58.2661 99.8081 58.4687 100.704 58.7428V58.5283C100.704 56.9313 99.6887 56.0494 97.8382 56.0494C96.5488 56.0494 95.5699 56.3355 94.5193 56.7645L93.8029 54.6431C95.0804 54.0711 96.3101 53.6897 98.2203 53.6897C101.647 53.6897 103.318 55.4774 103.318 58.576V65.4287H100.692V65.4168V65.4287ZM100.763 60.5901C100.083 60.3279 99.1396 60.1134 98.1128 60.1134C96.4414 60.1134 95.4624 60.7927 95.4624 61.9487C95.4624 63.0452 96.4533 63.653 97.7069 63.653C99.4619 63.653 100.775 62.6638 100.775 61.2218V60.5782H100.763V60.5901Z" fill="white"/>
<path d="M106.195 53.8685H108.846V55.6562C109.598 54.5597 110.672 53.6301 112.463 53.6301C115.09 53.6301 116.594 55.382 116.594 58.0755V65.4407H113.944V58.8859C113.944 57.0982 113.048 56.0614 111.46 56.0614C109.908 56.0614 108.834 57.134 108.834 58.9216V65.4526H106.183V53.8923L106.195 53.8685ZM0 83.0671H2.925V86.0704H0V83.0671ZM5.81418 82.8764V76.7983H4.34571V74.534H5.81418V71.3519H8.47653V74.534H11.5806V76.7983H8.47653V82.4712C8.47653 83.4961 9.00184 83.9014 9.90918 83.9014C10.5061 83.9014 11.0314 83.7822 11.5567 83.5081V85.6771C10.8262 86.0795 10.0033 86.2849 9.16898 86.273C7.21102 86.273 5.82612 85.4149 5.82612 82.8764H5.81418ZM13.849 74.5101H16.4994V77.132C17.2157 75.404 18.5648 74.2122 20.6063 74.3075V77.1082H20.4511C18.1231 77.1082 16.5113 78.6218 16.5113 81.6846V86.0942H13.849V74.534V74.5101ZM29.3097 86.0704V84.6403C28.5217 85.5937 27.3159 86.3087 25.5609 86.3087C23.3642 86.3087 21.4301 85.0574 21.4301 82.6977C21.4301 80.1353 23.4239 78.9078 26.122 78.9078C27.5308 78.9078 28.4262 79.1104 29.3216 79.3845V79.17C29.3216 77.573 28.3068 76.6911 26.4563 76.6911C25.1669 76.6911 24.188 76.9771 23.1373 77.4061L22.421 75.2848C23.7998 74.6303 25.3119 74.304 26.8384 74.3314C30.2648 74.3314 31.9362 76.119 31.9362 79.2177V86.0704H29.3097V86.0585V86.0704ZM29.3813 81.2198C28.5335 80.9041 27.6358 80.7426 26.7309 80.7431C25.0595 80.7431 24.0805 81.4225 24.0805 82.5785C24.0805 83.6749 25.0714 84.2827 26.325 84.2827C28.08 84.2827 29.3933 83.2935 29.3933 81.8515V81.2079H29.3813V81.2198ZM33.0227 74.4982H35.888L38.992 82.9956L42.1319 74.4982H44.9137L40.174 86.1538H37.7862L33.0107 74.4982H33.0227ZM45.4629 80.2783C45.4629 76.9652 47.8148 74.2479 51.1218 74.2479C54.8229 74.2479 56.6734 77.144 56.6734 80.469C56.6701 80.7199 56.6542 80.9705 56.6256 81.2198H48.1133C48.3998 83.1029 49.7369 84.1516 51.4561 84.1516C52.7455 84.1516 53.6767 83.6749 54.596 82.7692L56.1481 84.1516C55.0497 85.4626 53.5215 86.3207 51.4084 86.3207C48.0655 86.3326 45.4629 83.9014 45.4629 80.2783ZM54.0588 79.4679C53.8797 77.7637 52.8649 76.417 51.1218 76.417C49.4982 76.417 48.352 77.6683 48.1133 79.4679H54.0588ZM59.0969 70.0529H61.7473V86.0466H59.0969V70.0767V70.0529Z" fill="white"/>
<defs>
<linearGradient id="paint0_linear" x1="35.8163" y1="0.357534" x2="35.8163" y2="35.9918" gradientUnits="userSpaceOnUse">
<stop stop-color="#FFEE25"/>
<stop offset="1" stop-color="#E2312D"/>
</linearGradient>
</defs>
</svg>
