<svg width="183" height="50" viewBox="0 0 183 50" fill="none" xmlns="http://www.w3.org/2000/svg">
<path fill-rule="evenodd" clip-rule="evenodd" d="M170.431 38.0904C177.373 38.0904 183 32.4632 183 25.5217C183 18.5803 177.373 12.9531 170.431 12.9531C163.49 12.9531 157.863 18.5803 157.863 25.5217C157.863 32.4632 163.49 38.0904 170.431 38.0904ZM170.431 31.2348C173.587 31.2348 176.144 28.6769 176.144 25.5217C176.144 22.3665 173.587 19.8087 170.431 19.8087C167.276 19.8087 164.718 22.3665 164.718 25.5217C164.718 28.6769 167.276 31.2348 170.431 31.2348Z" fill="white"/>
<path d="M174.231 36.96C173.239 35.9681 173.239 34.36 174.231 33.3681C175.223 32.3762 176.831 32.3762 177.823 33.3681L179.339 34.8843C180.331 35.8762 180.331 37.4843 179.339 38.4762C178.347 39.4681 176.739 39.4681 175.747 38.4762L174.231 36.96Z" fill="#FFCE03"/>
<path fill-rule="evenodd" clip-rule="evenodd" d="M178.766 35.4567L177.25 33.9406C176.574 33.2648 175.479 33.2648 174.803 33.9406C174.127 34.6163 174.127 35.7118 174.803 36.3876L176.319 37.9038C176.995 38.5795 178.091 38.5795 178.766 37.9038C179.442 37.228 179.442 36.1325 178.766 35.4567ZM174.231 33.3681C173.239 34.36 173.239 35.9681 174.231 36.96L175.747 38.4762C176.739 39.4681 178.347 39.4681 179.339 38.4762C180.331 37.4843 180.331 35.8762 179.339 34.8843L177.823 33.3681C176.831 32.3762 175.223 32.3762 174.231 33.3681Z" fill="white"/>
<path fill-rule="evenodd" clip-rule="evenodd" d="M24.926 49.852C38.6922 49.852 49.852 38.6922 49.852 24.926C49.852 11.1597 38.6922 0 24.926 0C11.1597 0 0 11.1597 0 24.926C0 38.6922 11.1597 49.852 24.926 49.852ZM24.926 39.9523C33.2248 39.9523 39.9523 33.2248 39.9523 24.926C39.9523 16.6272 33.2248 9.89969 24.926 9.89969C16.6272 9.89969 9.8997 16.6272 9.8997 24.926C9.8997 33.2248 16.6272 39.9523 24.926 39.9523Z" fill="#FFCE03"/>
<path d="M12.7663 18.7438C10.2825 23.6952 11.5836 28.7645 12.5445 30.6802C15.3832 37.0462 22.0066 38.7851 24.9635 38.8588H39.6001C39.955 35.6758 39.1566 32.2275 31.3947 32.4485H24.9635C18.5323 32.4485 17.793 26.333 18.0887 24.0489C18.2366 22.0595 19.8185 18.0365 24.9635 17.8597C30.1085 17.6828 31.8383 21.5437 32.06 23.3858H21.637V28.0277H38.4913C38.6687 26.9666 38.7131 26.1119 38.7131 25.8172C38.2695 11.4494 26.9594 10.5652 21.637 11.6704C19.715 11.9652 15.2501 13.7925 12.7663 18.7438Z" fill="white"/>
<path d="M126.795 15.3163C127.011 14.9278 127.324 14.6687 127.734 14.5392C128.144 14.4096 128.651 14.3449 129.256 14.3449C129.882 14.3449 130.378 14.3989 130.745 14.5068C131.134 14.6147 131.414 14.7443 131.587 14.8954C131.781 15.0465 131.922 15.2732 132.008 15.5754C132.138 15.9208 132.202 16.4713 132.202 17.2269V35.199C132.202 35.7171 132.181 36.0949 132.138 36.3323C132.116 36.5698 132.019 36.8504 131.846 37.1743C131.544 37.7571 130.702 38.0486 129.32 38.0486C128.479 38.0486 127.896 37.9838 127.572 37.8543C127.248 37.7248 126.978 37.5197 126.762 37.239C121.905 30.7626 118.71 26.5313 117.177 24.5452V35.199C117.177 35.7171 117.156 36.0949 117.112 36.3323C117.091 36.5698 116.994 36.8504 116.821 37.1743C116.519 37.7571 115.677 38.0486 114.295 38.0486C112.957 38.0486 112.136 37.7571 111.834 37.1743C111.661 36.8504 111.553 36.559 111.51 36.2999C111.489 36.0409 111.478 35.6631 111.478 35.1666V17.0974C111.478 16.277 111.575 15.6833 111.769 15.3163C111.985 14.9278 112.298 14.6687 112.708 14.5392C113.119 14.4096 113.648 14.3449 114.295 14.3449C114.943 14.3449 115.45 14.4096 115.817 14.5392C116.206 14.6471 116.476 14.7766 116.627 14.9278C116.713 14.9925 116.961 15.2732 117.371 15.7697C121.927 21.9655 124.97 26.0564 126.503 28.0425V17.0974C126.503 16.277 126.6 15.6833 126.795 15.3163Z" fill="white"/>
<path d="M148.806 15.9964L157.549 34.0656C157.916 34.7996 158.099 35.3501 158.099 35.7171C158.099 36.4942 157.473 37.1959 156.221 37.8219C155.487 38.1889 154.904 38.3724 154.472 38.3724C154.062 38.3724 153.717 38.2753 153.436 38.081C153.177 37.8867 152.983 37.6816 152.853 37.4657C152.745 37.2498 152.584 36.926 152.368 36.4942L150.684 32.997H141.714L140.03 36.4942C139.814 36.926 139.641 37.239 139.512 37.4333C139.404 37.6276 139.21 37.8327 138.929 38.0486C138.67 38.2429 138.325 38.34 137.893 38.34C137.483 38.34 136.911 38.1565 136.177 37.7895C134.924 37.1851 134.298 36.4942 134.298 35.7171C134.298 35.3501 134.482 34.7996 134.849 34.0656L143.592 15.964C143.83 15.4675 144.186 15.0681 144.661 14.7658C145.157 14.4636 145.675 14.3125 146.215 14.3125C147.381 14.3125 148.244 14.8738 148.806 15.9964ZM146.183 23.7681L144.045 28.2044H148.352L146.183 23.7681Z" fill="white"/>
<path fill-rule="evenodd" clip-rule="evenodd" d="M69.2373 38.8999C76.1788 38.8999 81.8059 33.2728 81.8059 26.3313C81.8059 19.3899 76.1788 13.7627 69.2373 13.7627C62.2959 13.7627 56.6687 19.3899 56.6687 26.3313C56.6687 33.2728 62.2959 38.8999 69.2373 38.8999ZM69.2374 32.0443C72.3926 32.0443 74.9504 29.4865 74.9504 26.3313C74.9504 23.1761 72.3926 20.6183 69.2374 20.6183C66.0822 20.6183 63.5244 23.1761 63.5244 26.3313C63.5244 29.4865 66.0822 32.0443 69.2374 32.0443Z" fill="white"/>
<path fill-rule="evenodd" clip-rule="evenodd" d="M96.7621 38.8999C103.704 38.8999 109.331 33.2728 109.331 26.3313C109.331 19.3899 103.704 13.7627 96.7621 13.7627C89.8206 13.7627 84.1935 19.3899 84.1935 26.3313C84.1935 33.2728 89.8206 38.8999 96.7621 38.8999ZM96.7621 32.0443C99.9174 32.0443 102.475 29.4865 102.475 26.3313C102.475 23.1761 99.9174 20.6183 96.7621 20.6183C93.6069 20.6183 91.0491 23.1761 91.0491 26.3313C91.0491 29.4865 93.6069 32.0443 96.7621 32.0443Z" fill="white"/>
<path d="M73.3184 37.4317C72.3265 36.4398 72.3265 34.8317 73.3184 33.8398C74.3103 32.8479 75.9184 32.8479 76.9103 33.8398L78.4265 35.356C79.4184 36.3479 79.4184 37.956 78.4265 38.9479C77.4346 39.9398 75.8265 39.9398 74.8346 38.9479L73.3184 37.4317Z" fill="#FFCE03"/>
<path fill-rule="evenodd" clip-rule="evenodd" d="M77.8541 35.9284L76.3379 34.4122C75.6621 33.7365 74.5666 33.7365 73.8909 34.4122C73.2151 35.088 73.2151 36.1835 73.8908 36.8593L75.407 38.3754C76.0828 39.0512 77.1783 39.0512 77.8541 38.3754C78.5298 37.6997 78.5298 36.6042 77.8541 35.9284ZM73.3184 33.8398C72.3265 34.8317 72.3265 36.4398 73.3184 37.4317L74.8346 38.9479C75.8265 39.9398 77.4346 39.9398 78.4265 38.9479C79.4184 37.956 79.4184 36.3479 78.4265 35.356L76.9103 33.8398C75.9184 32.8479 74.3103 32.8479 73.3184 33.8398Z" fill="white"/>
</svg>
