<svg width="146" height="40" viewBox="0 0 146 40" fill="none" xmlns="http://www.w3.org/2000/svg">
<path fill-rule="evenodd" clip-rule="evenodd" d="M135.465 30.5625C140.982 30.5625 145.455 26.0474 145.455 20.4778C145.455 14.9081 140.982 10.393 135.465 10.393C129.947 10.393 125.475 14.9081 125.475 20.4778C125.475 26.0474 129.947 30.5625 135.465 30.5625ZM135.465 25.0618C137.972 25.0618 140.005 23.0094 140.005 20.4778C140.005 17.9461 137.972 15.8938 135.465 15.8938C132.957 15.8938 130.924 17.9461 130.924 20.4778C130.924 23.0094 132.957 25.0618 135.465 25.0618Z" fill="#818181"/>
<path d="M138.484 29.6561C137.696 28.8603 137.696 27.5699 138.484 26.7741C139.272 25.9782 140.551 25.9782 141.339 26.7741L142.544 27.9907C143.333 28.7865 143.333 30.0768 142.544 30.8727C141.756 31.6686 140.478 31.6686 139.689 30.8727L138.484 29.6561Z" fill="#FFCE03"/>
<path fill-rule="evenodd" clip-rule="evenodd" d="M142.089 28.45L140.884 27.2334C140.347 26.6912 139.476 26.6912 138.939 27.2334C138.402 27.7756 138.402 28.6546 138.939 29.1968L140.144 30.4134C140.681 30.9556 141.552 30.9556 142.089 30.4134C142.626 29.8712 142.626 28.9921 142.089 28.45ZM138.484 26.7741C137.696 27.5699 137.696 28.8603 138.484 29.6561L139.689 30.8727C140.478 31.6686 141.756 31.6686 142.544 30.8727C143.333 30.0768 143.333 28.7865 142.544 27.9907L141.339 26.7741C140.551 25.9782 139.272 25.9782 138.484 26.7741Z" fill="white"/>
<path fill-rule="evenodd" clip-rule="evenodd" d="M19.812 40C30.7539 40 39.624 31.0457 39.624 20C39.624 8.95431 30.7539 0 19.812 0C8.87014 0 0 8.95431 0 20C0 31.0457 8.87014 40 19.812 40ZM19.812 32.0567C26.4082 32.0567 31.7554 26.6588 31.7554 20C31.7554 13.3412 26.4082 7.94326 19.812 7.94326C13.2159 7.94326 7.86862 13.3412 7.86862 20C7.86862 26.6588 13.2159 32.0567 19.812 32.0567Z" fill="#F2F2F2"/>
<path d="M10.147 15.0394C8.1728 19.0122 9.20691 23.0797 9.97074 24.6168C12.227 29.7247 17.4915 31.12 19.8417 31.1791H31.4754C31.7575 28.6251 31.1229 25.8583 24.9535 26.0357H19.8417C14.73 26.0357 14.1424 21.1287 14.3774 19.296C14.4949 17.6998 15.7523 14.4718 19.8417 14.33C23.9312 14.1881 25.306 17.2859 25.4823 18.7639H17.1977V22.4885H30.5941C30.7351 21.6372 30.7703 20.9514 30.7703 20.7149C30.4178 9.18652 21.4282 8.47707 17.1977 9.36387C15.6701 9.60035 12.1212 11.0665 10.147 15.0394Z" fill="#FFCE03"/>
<path d="M100.781 12.2898C100.952 11.978 101.201 11.7701 101.527 11.6662C101.853 11.5623 102.256 11.5103 102.737 11.5103C103.234 11.5103 103.629 11.5536 103.921 11.6402C104.23 11.7268 104.453 11.8307 104.59 11.952C104.744 12.0733 104.856 12.2551 104.925 12.4976C105.028 12.7748 105.079 13.2165 105.079 13.8227V28.2431C105.079 28.6588 105.062 28.9619 105.028 29.1525C105.01 29.343 104.933 29.5682 104.796 29.828C104.556 30.2957 103.886 30.5296 102.788 30.5296C102.119 30.5296 101.656 30.4776 101.398 30.3737C101.141 30.2697 100.927 30.1052 100.755 29.88C96.8942 24.6835 94.3547 21.2884 93.1364 19.6948V28.2431C93.1364 28.6588 93.1192 28.9619 93.0849 29.1525C93.0678 29.343 92.9905 29.5682 92.8533 29.828C92.6131 30.2957 91.9439 30.5296 90.8457 30.5296C89.7818 30.5296 89.1298 30.2957 88.8896 29.828C88.7523 29.5682 88.6665 29.3344 88.6322 29.1265C88.615 28.9186 88.6064 28.6155 88.6064 28.2171V13.7188C88.6064 13.0606 88.6837 12.5842 88.8381 12.2898C89.0097 11.978 89.2585 11.7701 89.5845 11.6662C89.9105 11.5623 90.3309 11.5103 90.8457 11.5103C91.3605 11.5103 91.7637 11.5623 92.0554 11.6662C92.3642 11.7528 92.5787 11.8567 92.6988 11.978C92.7675 12.0299 92.9648 12.2551 93.2908 12.6535C96.9114 17.6249 99.3308 20.9073 100.549 22.5009V13.7188C100.549 13.0606 100.626 12.5842 100.781 12.2898Z" fill="#818181"/>
<path d="M118.276 12.8354L125.225 27.3337C125.517 27.9226 125.663 28.3643 125.663 28.6588C125.663 29.2824 125.165 29.8454 124.17 30.3477C123.586 30.6422 123.123 30.7894 122.78 30.7894C122.454 30.7894 122.179 30.7114 121.956 30.5555C121.75 30.3997 121.596 30.2351 121.493 30.0619C121.407 29.8887 121.279 29.6288 121.107 29.2824L119.769 26.4763H112.639L111.301 29.2824C111.129 29.6288 110.992 29.88 110.889 30.0359C110.803 30.1918 110.649 30.3563 110.426 30.5296C110.22 30.6855 109.945 30.7634 109.602 30.7634C109.276 30.7634 108.821 30.6162 108.238 30.3217C107.243 29.8367 106.745 29.2824 106.745 28.6588C106.745 28.3643 106.891 27.9226 107.183 27.3337L114.132 12.8094C114.321 12.411 114.604 12.0906 114.981 11.8481C115.376 11.6056 115.788 11.4843 116.217 11.4843C117.143 11.4843 117.83 11.9347 118.276 12.8354ZM116.191 19.0712L114.492 22.6309H117.915L116.191 19.0712Z" fill="#818181"/>
<path fill-rule="evenodd" clip-rule="evenodd" d="M55.032 31.2121C60.5493 31.2121 65.0219 26.697 65.0219 21.1274C65.0219 15.5577 60.5493 11.0426 55.032 11.0426C49.5147 11.0426 45.042 15.5577 45.042 21.1274C45.042 26.697 49.5147 31.2121 55.032 31.2121ZM55.032 25.7114C57.5399 25.7114 59.5729 23.659 59.5729 21.1274C59.5729 18.5957 57.5399 16.5434 55.032 16.5434C52.5241 16.5434 50.4911 18.5957 50.4911 21.1274C50.4911 23.659 52.5241 25.7114 55.032 25.7114Z" fill="#818181"/>
<path fill-rule="evenodd" clip-rule="evenodd" d="M76.9099 31.2121C82.4272 31.2121 86.8998 26.697 86.8998 21.1274C86.8998 15.5577 82.4272 11.0426 76.9099 11.0426C71.3926 11.0426 66.9199 15.5577 66.9199 21.1274C66.9199 26.697 71.3926 31.2121 76.9099 31.2121ZM76.9099 25.7114C79.4178 25.7114 81.4508 23.659 81.4508 21.1274C81.4508 18.5957 79.4178 16.5434 76.9099 16.5434C74.4021 16.5434 72.369 18.5957 72.369 21.1274C72.369 23.659 74.4021 25.7114 76.9099 25.7114Z" fill="#818181"/>
<path d="M58.2761 30.0344C57.4877 29.2386 57.4877 27.9482 58.2761 27.1524C59.0645 26.3565 60.3427 26.3565 61.1311 27.1524L62.3362 28.3689C63.1246 29.1648 63.1246 30.4551 62.3362 31.251C61.5478 32.0468 60.2696 32.0468 59.4812 31.251L58.2761 30.0344Z" fill="#FFCE03"/>
<path fill-rule="evenodd" clip-rule="evenodd" d="M61.8812 28.8282L60.6761 27.6117C60.139 27.0695 59.2682 27.0695 58.7311 27.6117C58.194 28.1539 58.194 29.0329 58.7311 29.5751L59.9362 30.7917C60.4733 31.3338 61.3441 31.3338 61.8812 30.7917C62.4183 30.2495 62.4183 29.3704 61.8812 28.8282ZM58.2761 27.1524C57.4877 27.9482 57.4877 29.2386 58.2761 30.0344L59.4812 31.251C60.2696 32.0468 61.5478 32.0468 62.3362 31.251C63.1246 30.4551 63.1246 29.1648 62.3362 28.3689L61.1311 27.1524C60.3427 26.3565 59.0645 26.3565 58.2761 27.1524Z" fill="white"/>
</svg>
