<svg width="183" height="50" viewBox="0 0 183 50" fill="none" xmlns="http://www.w3.org/2000/svg">
<path fill-rule="evenodd" clip-rule="evenodd" d="M170.431 38.0901C177.373 38.0901 183 32.4629 183 25.5215C183 18.58 177.373 12.9529 170.431 12.9529C163.49 12.9529 157.863 18.58 157.863 25.5215C157.863 32.4629 163.49 38.0901 170.431 38.0901ZM170.431 31.2345C173.587 31.2345 176.144 28.6767 176.144 25.5215C176.144 22.3663 173.587 19.8085 170.431 19.8085C167.276 19.8085 164.718 22.3663 164.718 25.5215C164.718 28.6767 167.276 31.2345 170.431 31.2345Z" fill="white"/>
<path d="M174.231 36.9604C173.239 35.9685 173.239 34.3604 174.231 33.3685C175.223 32.3766 176.831 32.3766 177.823 33.3685L179.339 34.8847C180.331 35.8766 180.331 37.4847 179.339 38.4766C178.347 39.4685 176.739 39.4685 175.747 38.4766L174.231 36.9604Z" fill="#FFCE03"/>
<path fill-rule="evenodd" clip-rule="evenodd" d="M178.766 35.4571L177.25 33.941C176.574 33.2652 175.479 33.2652 174.803 33.941C174.127 34.6167 174.127 35.7122 174.803 36.388L176.319 37.9042C176.995 38.5799 178.091 38.5799 178.766 37.9042C179.442 37.2284 179.442 36.1329 178.766 35.4571ZM174.231 33.3685C173.239 34.3604 173.239 35.9685 174.231 36.9604L175.747 38.4766C176.739 39.4685 178.347 39.4685 179.339 38.4766C180.331 37.4847 180.331 35.8766 179.339 34.8847L177.823 33.3685C176.831 32.3766 175.223 32.3766 174.231 33.3685Z" fill="white"/>
<path fill-rule="evenodd" clip-rule="evenodd" d="M24.926 49.852C38.6922 49.852 49.852 38.6922 49.852 24.926C49.852 11.1597 38.6922 0 24.926 0C11.1597 0 0 11.1597 0 24.926C0 38.6922 11.1597 49.852 24.926 49.852ZM24.926 39.9523C33.2248 39.9523 39.9523 33.2248 39.9523 24.926C39.9523 16.6272 33.2248 9.89969 24.926 9.89969C16.6272 9.89969 9.8997 16.6272 9.8997 24.926C9.8997 33.2248 16.6272 39.9523 24.926 39.9523Z" fill="#FFCE03"/>
<path d="M12.7663 18.7436C10.2825 23.6949 11.5836 28.7642 12.5445 30.6799C15.3832 37.0459 22.0066 38.7848 24.9635 38.8585H39.6001C39.955 35.6755 39.1566 32.2272 31.3947 32.4483H24.9635C18.5323 32.4483 17.793 26.3327 18.0887 24.0486C18.2366 22.0592 19.8185 18.0362 24.9635 17.8594C30.1085 17.6826 31.8383 21.5435 32.06 23.3855H21.637V28.0274H38.4913C38.6687 26.9664 38.7131 26.1117 38.7131 25.817C38.2695 11.4492 26.9594 10.565 21.637 11.6702C19.715 11.9649 15.2501 13.7922 12.7663 18.7436Z" fill="white"/>
<path d="M126.795 15.3167C127.011 14.9282 127.324 14.6691 127.734 14.5396C128.144 14.41 128.651 14.3453 129.256 14.3453C129.882 14.3453 130.378 14.3992 130.745 14.5072C131.134 14.6151 131.415 14.7447 131.587 14.8958C131.782 15.0469 131.922 15.2736 132.008 15.5758C132.138 15.9212 132.202 16.4717 132.202 17.2273V35.1994C132.202 35.7175 132.181 36.0953 132.138 36.3327C132.116 36.5702 132.019 36.8508 131.846 37.1747C131.544 37.7575 130.702 38.049 129.32 38.049C128.479 38.049 127.896 37.9842 127.572 37.8547C127.248 37.7252 126.978 37.5201 126.762 37.2394C121.905 30.763 118.71 26.5317 117.177 24.5456V35.1994C117.177 35.7175 117.156 36.0953 117.112 36.3327C117.091 36.5702 116.994 36.8508 116.821 37.1747C116.519 37.7575 115.677 38.049 114.295 38.049C112.957 38.049 112.136 37.7575 111.834 37.1747C111.661 36.8508 111.553 36.5594 111.51 36.3003C111.489 36.0413 111.478 35.6635 111.478 35.167V17.0978C111.478 16.2774 111.575 15.6837 111.769 15.3167C111.985 14.9282 112.298 14.6691 112.708 14.5396C113.119 14.41 113.648 14.3453 114.295 14.3453C114.943 14.3453 115.45 14.41 115.817 14.5396C116.206 14.6475 116.476 14.777 116.627 14.9282C116.713 14.9929 116.961 15.2736 117.371 15.7701C121.927 21.9659 124.97 26.0568 126.503 28.0429V17.0978C126.503 16.2774 126.6 15.6837 126.795 15.3167Z" fill="white"/>
<path d="M148.806 15.9968L157.549 34.066C157.916 34.8 158.099 35.3505 158.099 35.7175C158.099 36.4946 157.473 37.1963 156.221 37.8223C155.487 38.1893 154.904 38.3728 154.473 38.3728C154.062 38.3728 153.717 38.2757 153.436 38.0814C153.177 37.8871 152.983 37.682 152.853 37.4661C152.745 37.2502 152.584 36.9264 152.368 36.4946L150.684 32.9974H141.714L140.03 36.4946C139.814 36.9264 139.642 37.2394 139.512 37.4337C139.404 37.628 139.21 37.8331 138.929 38.049C138.67 38.2433 138.325 38.3404 137.893 38.3404C137.483 38.3404 136.911 38.1569 136.177 37.7899C134.925 37.1855 134.298 36.4946 134.298 35.7175C134.298 35.3505 134.482 34.8 134.849 34.066L143.592 15.9644C143.83 15.4679 144.186 15.0685 144.661 14.7662C145.157 14.464 145.675 14.3129 146.215 14.3129C147.381 14.3129 148.244 14.8742 148.806 15.9968ZM146.183 23.7685L144.045 28.2048H148.352L146.183 23.7685Z" fill="white"/>
<path fill-rule="evenodd" clip-rule="evenodd" d="M69.2373 38.8996C76.1788 38.8996 81.8059 33.2725 81.8059 26.331C81.8059 19.3896 76.1788 13.7624 69.2373 13.7624C62.2959 13.7624 56.6687 19.3896 56.6687 26.331C56.6687 33.2725 62.2959 38.8996 69.2373 38.8996ZM69.2374 32.044C72.3926 32.044 74.9504 29.4862 74.9504 26.331C74.9504 23.1758 72.3926 20.618 69.2374 20.618C66.0822 20.618 63.5244 23.1758 63.5244 26.331C63.5244 29.4862 66.0822 32.044 69.2374 32.044Z" fill="white"/>
<path fill-rule="evenodd" clip-rule="evenodd" d="M96.7621 38.8996C103.704 38.8996 109.331 33.2725 109.331 26.331C109.331 19.3896 103.704 13.7624 96.7621 13.7624C89.8206 13.7624 84.1935 19.3896 84.1935 26.331C84.1935 33.2725 89.8206 38.8996 96.7621 38.8996ZM96.7621 32.044C99.9174 32.044 102.475 29.4862 102.475 26.331C102.475 23.1758 99.9174 20.618 96.7621 20.618C93.6069 20.618 91.0491 23.1758 91.0491 26.331C91.0491 29.4862 93.6069 32.044 96.7621 32.044Z" fill="white"/>
<path d="M73.3184 37.4319C72.3265 36.44 72.3265 34.8319 73.3184 33.84C74.3103 32.8481 75.9184 32.8481 76.9103 33.84L78.4265 35.3562C79.4184 36.348 79.4184 37.9562 78.4265 38.9481C77.4346 39.9399 75.8265 39.9399 74.8346 38.9481L73.3184 37.4319Z" fill="#FFCE03"/>
<path fill-rule="evenodd" clip-rule="evenodd" d="M77.8541 35.9286L76.3379 34.4124C75.6621 33.7367 74.5666 33.7367 73.8909 34.4124C73.2151 35.0881 73.2151 36.1837 73.8908 36.8594L75.407 38.3756C76.0828 39.0514 77.1783 39.0514 77.8541 38.3756C78.5298 37.6999 78.5298 36.6043 77.8541 35.9286ZM73.3184 33.84C72.3265 34.8319 72.3265 36.44 73.3184 37.4319L74.8346 38.9481C75.8265 39.9399 77.4346 39.9399 78.4265 38.9481C79.4184 37.9562 79.4184 36.348 78.4265 35.3562L76.9103 33.84C75.9184 32.8481 74.3103 32.8481 73.3184 33.84Z" fill="white"/>
</svg>
