<svg width="123" height="60" viewBox="0 0 123 60" fill="none" xmlns="http://www.w3.org/2000/svg">
<g clip-path="url(#clip0)">
<path d="M61.4308 8.43247V20.8175C61.4308 23.5452 60.7217 25.5726 59.3036 26.8995C57.8855 28.2264 55.8138 28.89 53.0881 28.89C51.6516 28.89 50.2888 28.7149 48.9997 28.3647C47.7105 28.0145 46.6424 27.5077 45.7953 26.8442L47.508 23.7479C48.1341 24.264 48.926 24.6695 49.8837 24.9644C50.8413 25.2777 51.799 25.4343 52.7566 25.4343C54.2484 25.4343 55.3441 25.0934 56.0439 24.4114C56.7621 23.7479 57.1213 22.7343 57.1213 21.3705V20.7346C55.9979 21.9695 54.4325 22.5869 52.4252 22.5869C51.0623 22.5869 49.81 22.292 48.6682 21.7022C47.5448 21.094 46.6516 20.2462 45.9886 19.1588C45.3256 18.0715 44.9941 16.8182 44.9941 15.3991C44.9941 13.98 45.3256 12.7267 45.9886 11.6393C46.6516 10.552 47.5448 9.71333 48.6682 9.1236C49.81 8.5154 51.0623 8.2113 52.4252 8.2113C54.5798 8.2113 56.2189 8.92087 57.3423 10.34V8.43247H61.4308ZM53.2815 19.0483C54.4233 19.0483 55.3533 18.7165 56.0716 18.0531C56.8082 17.3711 57.1765 16.4864 57.1765 15.3991C57.1765 14.3117 56.8082 13.4362 56.0716 12.7728C55.3533 12.0909 54.4233 11.7499 53.2815 11.7499C52.1397 11.7499 51.2004 12.0909 50.4638 12.7728C49.7271 13.4362 49.3588 14.3117 49.3588 15.3991C49.3588 16.4864 49.7271 17.3711 50.4638 18.0531C51.2004 18.7165 52.1397 19.0483 53.2815 19.0483Z" fill="#85C418"/>
<path d="M68.729 10.3953C69.2446 9.67647 69.9353 9.13279 70.8008 8.76421C71.6849 8.39561 72.6977 8.2113 73.8396 8.2113V12.1922C73.3607 12.1554 73.0384 12.1369 72.8727 12.1369C71.6388 12.1369 70.6719 12.4871 69.9721 13.1874C69.2722 13.8694 68.9224 14.9015 68.9224 16.2837V23.3056H64.6129V8.43247H68.729V10.3953Z" fill="#85C418"/>
<path d="M89.9964 15.9243C89.9964 15.9796 89.9688 16.3666 89.9135 17.0854H78.6703C78.873 18.007 79.3517 18.735 80.1069 19.2694C80.8619 19.8039 81.8011 20.0711 82.9245 20.0711C83.698 20.0711 84.3794 19.9605 84.9687 19.7394C85.5765 19.4998 86.1382 19.1312 86.6538 18.6336L88.9466 21.1217C87.547 22.7251 85.5028 23.5268 82.8141 23.5268C81.1382 23.5268 79.6556 23.2043 78.3665 22.5592C77.0773 21.8957 76.0829 20.9834 75.383 19.8223C74.6832 18.6612 74.3333 17.3434 74.3333 15.869C74.3333 14.4131 74.674 13.1045 75.3554 11.9434C76.0553 10.7639 77.0036 9.85155 78.2007 9.20651C79.4163 8.54305 80.7698 8.2113 82.2616 8.2113C83.7164 8.2113 85.0332 8.52462 86.2119 9.15122C87.3905 9.77783 88.3113 10.681 88.9743 11.8605C89.6557 13.0216 89.9964 14.3762 89.9964 15.9243ZM82.2892 11.4735C81.3131 11.4735 80.4935 11.7499 79.8305 12.3028C79.1676 12.8557 78.7624 13.6113 78.6151 14.5697H85.9356C85.7883 13.6297 85.3831 12.8833 84.7201 12.3304C84.0572 11.7591 83.2468 11.4735 82.2892 11.4735Z" fill="#85C418"/>
<path d="M106.595 15.9243C106.595 15.9796 106.567 16.3666 106.512 17.0854H95.2685C95.4717 18.007 95.95 18.735 96.7053 19.2694C97.4607 19.8039 98.4 20.0711 99.5234 20.0711C100.297 20.0711 100.978 19.9605 101.567 19.7394C102.175 19.4998 102.737 19.1312 103.253 18.6336L105.545 21.1217C104.145 22.7251 102.101 23.5268 99.4123 23.5268C97.7367 23.5268 96.2544 23.2043 94.9651 22.5592C93.6759 21.8957 92.681 20.9834 91.9812 19.8223C91.2815 18.6612 90.9318 17.3434 90.9318 15.869C90.9318 14.4131 91.2724 13.1045 91.9539 11.9434C92.6536 10.7639 93.6021 9.85155 94.7993 9.20651C96.0147 8.54305 97.3686 8.2113 98.8601 8.2113C100.315 8.2113 101.632 8.52462 102.811 9.15122C103.989 9.77783 104.91 10.681 105.573 11.8605C106.254 13.0216 106.595 14.3762 106.595 15.9243ZM98.8875 11.4735C97.9117 11.4735 97.0917 11.7499 96.4293 12.3028C95.766 12.8557 95.3605 13.6113 95.2139 14.5697H102.534C102.387 13.6297 101.982 12.8833 101.318 12.3304C100.656 11.7591 99.845 11.4735 98.8875 11.4735Z" fill="#85C418"/>
<path d="M116.84 8.2113C118.681 8.2113 120.164 8.76421 121.287 9.86998C122.429 10.9759 123 12.6161 123 14.7909V23.3056H118.69V15.4544C118.69 14.2749 118.433 13.3994 117.917 12.828C117.401 12.2383 116.656 11.9434 115.679 11.9434C114.593 11.9434 113.728 12.2844 113.083 12.9663C112.438 13.6297 112.116 14.625 112.116 15.952V23.3056H107.806V8.43247H111.923V10.1742C112.493 9.54746 113.203 9.0683 114.049 8.73657C114.897 8.3864 115.827 8.2113 116.84 8.2113Z" fill="#85C418"/>
<path d="M53.2815 50.7261C51.6977 50.7261 50.2704 50.4036 48.9997 49.7586C47.7473 49.0951 46.7621 48.1828 46.0438 47.0216C45.344 45.8606 44.9941 44.5428 44.9941 43.0684C44.9941 41.594 45.344 40.2763 46.0438 39.1151C46.7621 37.954 47.7473 37.051 48.9997 36.4059C50.2704 35.7424 51.6977 35.4106 53.2815 35.4106C54.8469 35.4106 56.2097 35.7424 57.3699 36.4059C58.5486 37.051 59.4049 37.9817 59.939 39.198L56.5964 40.995C55.823 39.6311 54.7088 38.9492 53.2539 38.9492C52.1305 38.9492 51.2004 39.3178 50.4638 40.0551C49.7271 40.7923 49.3588 41.7967 49.3588 43.0684C49.3588 44.3401 49.7271 45.3445 50.4638 46.0817C51.2004 46.8189 52.1305 47.1876 53.2539 47.1876C54.7272 47.1876 55.8414 46.5056 56.5964 45.1418L59.939 46.9664C59.4049 48.1459 58.5486 49.0674 57.3699 49.7309C56.2097 50.3944 54.8469 50.7261 53.2815 50.7261Z" fill="#85C418"/>
<path d="M61.4836 29.9922H65.7929V50.5049H61.4836V29.9922Z" fill="#85C418"/>
<path d="M68.9639 35.6319H73.2732V50.505H68.9639V35.6319ZM71.1185 33.5585C70.3266 33.5585 69.6821 33.3281 69.1848 32.8674C68.6876 32.4066 68.439 31.8352 68.439 31.1533C68.439 30.4714 68.6876 29.9001 69.1848 29.4394C69.6821 28.9786 70.3266 28.7482 71.1185 28.7482C71.9105 28.7482 72.555 28.9694 73.0523 29.4117C73.5495 29.854 73.7981 30.4069 73.7981 31.0704C73.7981 31.7892 73.5495 32.3881 73.0523 32.8674C72.555 33.3281 71.9105 33.5585 71.1185 33.5585Z" fill="#85C418"/>
<path d="M84.9248 35.4106C86.7664 35.4106 88.2488 35.9635 89.3722 37.0694C90.5141 38.1752 91.085 39.8154 91.085 41.9902V50.505H86.7756V42.6537C86.7756 41.4742 86.5177 40.5988 86.0021 40.0275C85.4865 39.4376 84.7405 39.1428 83.7645 39.1428C82.678 39.1428 81.8124 39.4837 81.1678 40.1657C80.5233 40.8292 80.2009 41.8244 80.2009 43.1513V50.505H75.8915V35.6318H80.0076V37.3735C80.5785 36.7469 81.2875 36.2677 82.1347 35.9359C82.9818 35.5857 83.9119 35.4106 84.9248 35.4106Z" fill="#85C418"/>
<path d="M93.6103 35.6319H97.9199V50.505H93.6103V35.6319ZM95.7651 33.5585C94.9733 33.5585 94.3283 33.3281 93.8308 32.8674C93.3342 32.4066 93.0855 31.8352 93.0855 31.1533C93.0855 30.4714 93.3342 29.9001 93.8308 29.4394C94.3283 28.9786 94.9733 28.7482 95.7651 28.7482C96.5568 28.7482 97.201 28.9694 97.6985 29.4117C98.1959 29.854 98.4447 30.4069 98.4447 31.0704C98.4447 31.7892 98.1959 32.3881 97.6985 32.8674C97.201 33.3281 96.5568 33.5585 95.7651 33.5585Z" fill="#85C418"/>
<path d="M108.273 50.7261C106.689 50.7261 105.262 50.4036 103.991 49.7586C102.739 49.0951 101.753 48.1828 101.035 47.0216C100.335 45.8606 99.9854 44.5428 99.9854 43.0684C99.9854 41.594 100.335 40.2763 101.035 39.1151C101.753 37.954 102.739 37.051 103.991 36.4059C105.262 35.7424 106.689 35.4106 108.273 35.4106C109.838 35.4106 111.201 35.7424 112.361 36.4059C113.54 37.051 114.396 37.9817 114.93 39.198L111.587 40.995C110.814 39.6311 109.7 38.9492 108.245 38.9492C107.122 38.9492 106.192 39.3178 105.455 40.0551C104.719 40.7923 104.35 41.7967 104.35 43.0684C104.35 44.3401 104.719 45.3445 105.455 46.0817C106.192 46.8189 107.122 47.1876 108.245 47.1876C109.719 47.1876 110.832 46.5056 111.587 45.1418L114.93 46.9664C114.396 48.1459 113.54 49.0674 112.361 49.7309C111.201 50.3944 109.838 50.7261 108.273 50.7261Z" fill="#85C418"/>
<path fill-rule="evenodd" clip-rule="evenodd" d="M31.6345 2.22946H2.22779V57.0741H31.6345V2.22946ZM0 0V59.3036H33.8624V0H0Z" fill="#85C418"/>
<path fill-rule="evenodd" clip-rule="evenodd" d="M16.7084 27.1994C17.2332 27.1994 17.7477 27.1551 18.2483 27.07C21.4237 27.6038 23.8373 30.3566 23.8373 33.6648C23.8373 37.3544 20.8351 40.3532 17.1221 40.3532C17.0671 40.3532 17.0124 40.3525 16.9577 40.3513L16.9047 42.5801C16.9769 42.5818 17.0494 42.5826 17.1221 42.5826C22.0569 42.5826 26.0651 38.5943 26.0651 33.6648C26.0651 30.3079 24.2062 27.3873 21.4618 25.8657C24.0888 24.2603 25.8423 21.3644 25.8423 18.0586C25.8423 13.0103 21.7529 8.91785 16.7084 8.91785C11.6639 8.91785 7.57446 13.0103 7.57446 18.0586C7.57446 23.107 11.6639 27.1994 16.7084 27.1994ZM16.7084 24.9699C20.5225 24.9699 23.6145 21.8756 23.6145 18.0586C23.6145 14.2416 20.5225 11.1473 16.7084 11.1473C12.8942 11.1473 9.80227 14.2416 9.80227 18.0586C9.80227 21.8756 12.8942 24.9699 16.7084 24.9699Z" fill="#85C418"/>
<path d="M16.9046 47.9314C16.85 47.9327 16.7951 47.9334 16.7402 47.9334C13.0272 47.9334 10.025 44.9346 10.025 41.245C10.025 37.5554 13.0272 34.5566 16.7402 34.5566C16.7952 34.5566 16.85 34.5573 16.9047 34.5586L16.9577 32.3298C16.8853 32.3281 16.8129 32.3271 16.7402 32.3271C11.8054 32.3271 7.79724 36.3155 7.79724 41.245C7.79724 46.1744 11.8054 50.1628 16.7402 50.1628C16.8129 50.1628 16.8854 50.162 16.9577 50.1603L16.9046 47.9314Z" fill="#85C418"/>
</g>
<defs>
<clipPath id="clip0">
<rect width="123" height="59.3036" fill="white"/>
</clipPath>
</defs>
</svg>
